<?xml version="1.0" encoding="utf-8"?>
<!-- Generator: Adobe Illustrator 18.1.1, SVG Export Plug-In . SVG Version: 6.00 Build 0)  -->
<svg version="1.1" id="Layer_1" xmlns="http://www.w3.org/2000/svg" xmlns:xlink="http://www.w3.org/1999/xlink" x="0px" y="0px"
	 viewBox="0 0 791.4 920" enable-background="new 0 0 791.4 920" xml:space="preserve">
<g>
	<g>
		<polygon fill="#806BC1" points="771.3,676.9 395.7,893.7 20.1,676.9 20.1,243.2 395.7,26.3 771.3,243.2 		"/>
	</g>
	<g>
		<path d="M395.7,916.3L0.5,688.2V231.9L395.7,3.7l395.2,228.2v456.3L395.7,916.3z M39.7,665.6l356.1,205.5l356.1-205.5V254.5
			L395.7,48.9L39.7,254.5V665.6z"/>
	</g>
</g>
<g>
	<g>
		<path d="M274.3,496.8c-11.9-24.1-18.8-52.1-18.8-82c0-90.7,63-164.2,140.7-164.2s129,64.1,129,154.8c0,29.9,2.6,61.5-7.1,91.4
			L274.3,496.8z"/>
		<rect x="466.7" y="454.5" width="56" height="174.4"/>
		<rect x="395.4" y="489.8" width="56" height="174.4"/>
		<rect x="326.9" y="481" width="56" height="174.4"/>
		<rect x="257" y="431" width="56" height="174.4"/>
		<polygon points="579.2,441.2 615.5,396.7 480.4,286.4 444.1,351.9 		"/>
		<ellipse cx="495.2" cy="628.9" rx="28" ry="28.7"/>
		<ellipse cx="423.7" cy="663.7" rx="28" ry="28.7"/>
		<ellipse cx="355.1" cy="649.1" rx="28" ry="28.7"/>
		<ellipse cx="285" cy="606.9" rx="28" ry="28.7"/>
		<circle cx="595.7" cy="419.5" r="28.7"/>
	</g>
	<g>
		<defs>
			<rect id="SVGID_1_" x="324.5" y="338" width="132" height="188.4"/>
		</defs>
		<clipPath id="SVGID_2_">
			<use xlink:href="#SVGID_1_"  overflow="visible"/>
		</clipPath>
		<rect x="150.9" y="338" clip-path="url(#SVGID_2_)" fill="#FFFFFF" width="305.6" height="188.4"/>
		<path clip-path="url(#SVGID_2_)" d="M364.3,392.5c-2.4,0-4.4-2-4.4-4.4s2-4.4,4.4-4.4c2.4,0,4.4,2,4.4,4.4
			S366.7,392.5,364.3,392.5z M364.3,385.7c-1.3,0-2.4,1.1-2.4,2.4c0,1.3,1.1,2.4,2.4,2.4c1.3,0,2.4-1.1,2.4-2.4
			C366.7,386.8,365.6,385.7,364.3,385.7z"/>
		<path clip-path="url(#SVGID_2_)" d="M414.6,392.5c-2.4,0-4.4-2-4.4-4.4s2-4.4,4.4-4.4c2.4,0,4.4,2,4.4,4.4S417,392.5,414.6,392.5z
			 M414.6,385.7c-1.3,0-2.4,1.1-2.4,2.4c0,1.3,1.1,2.4,2.4,2.4c1.3,0,2.4-1.1,2.4-2.4C417,386.8,415.9,385.7,414.6,385.7z"/>
		<path clip-path="url(#SVGID_2_)" d="M364.3,407.2c-2.4,0-4.4-2-4.4-4.4c0-2.4,2-4.4,4.4-4.4c2.4,0,4.4,2,4.4,4.4
			C368.7,405.3,366.7,407.2,364.3,407.2z M364.3,400.4c-1.3,0-2.4,1.1-2.4,2.4c0,1.3,1.1,2.4,2.4,2.4c1.3,0,2.4-1.1,2.4-2.4
			C366.7,401.5,365.6,400.4,364.3,400.4z"/>
		<path clip-path="url(#SVGID_2_)" d="M414.6,407.2c-2.4,0-4.4-2-4.4-4.4c0-2.4,2-4.4,4.4-4.4c2.4,0,4.4,2,4.4,4.4
			C419,405.3,417,407.2,414.6,407.2z M414.6,400.4c-1.3,0-2.4,1.1-2.4,2.4c0,1.3,1.1,2.4,2.4,2.4c1.3,0,2.4-1.1,2.4-2.4
			C417,401.5,415.9,400.4,414.6,400.4z"/>
		<path clip-path="url(#SVGID_2_)" d="M364.3,378.6c-2.4,0-4.4-2-4.4-4.4c0-2.4,2-4.4,4.4-4.4c2.4,0,4.4,2,4.4,4.4
			C368.7,376.7,366.7,378.6,364.3,378.6z M364.3,371.8c-1.3,0-2.4,1.1-2.4,2.4c0,1.3,1.1,2.4,2.4,2.4c1.3,0,2.4-1.1,2.4-2.4
			C366.7,372.9,365.6,371.8,364.3,371.8z"/>
		<path clip-path="url(#SVGID_2_)" d="M341.9,378.6c-2.4,0-4.4-2-4.4-4.4c0-2.4,2-4.4,4.4-4.4c2.4,0,4.4,2,4.4,4.4
			C346.3,376.7,344.3,378.6,341.9,378.6z M341.9,371.8c-1.3,0-2.4,1.1-2.4,2.4c0,1.3,1.1,2.4,2.4,2.4c1.3,0,2.4-1.1,2.4-2.4
			C344.3,372.9,343.2,371.8,341.9,371.8z"/>
		<path clip-path="url(#SVGID_2_)" d="M341.9,392.5c-2.4,0-4.4-2-4.4-4.4s2-4.4,4.4-4.4c2.4,0,4.4,2,4.4,4.4
			S344.3,392.5,341.9,392.5z M341.9,385.7c-1.3,0-2.4,1.1-2.4,2.4c0,1.3,1.1,2.4,2.4,2.4c1.3,0,2.4-1.1,2.4-2.4
			C344.3,386.8,343.2,385.7,341.9,385.7z"/>
		<path clip-path="url(#SVGID_2_)" d="M400.4,363.6c-2.4,0-4.4-2-4.4-4.4c0-2.4,2-4.4,4.4-4.4c2.4,0,4.4,2,4.4,4.4
			C404.8,361.7,402.8,363.6,400.4,363.6z M400.4,356.8c-1.3,0-2.4,1.1-2.4,2.4c0,1.3,1.1,2.4,2.4,2.4c1.3,0,2.4-1.1,2.4-2.4
			C402.8,357.9,401.7,356.8,400.4,356.8z"/>
		<path clip-path="url(#SVGID_2_)" d="M400.4,349.6c-2.4,0-4.4-2-4.4-4.4c0-2.4,2-4.4,4.4-4.4c2.4,0,4.4,2,4.4,4.4
			C404.8,347.6,402.8,349.6,400.4,349.6z M400.4,342.8c-1.3,0-2.4,1.1-2.4,2.4c0,1.3,1.1,2.4,2.4,2.4c1.3,0,2.4-1.1,2.4-2.4
			C402.8,343.9,401.7,342.8,400.4,342.8z"/>
		<path clip-path="url(#SVGID_2_)" d="M429.5,376c-2.4,0-4.4-2-4.4-4.4c0-2.4,2-4.4,4.4-4.4c2.4,0,4.4,2,4.4,4.4
			C433.9,374,431.9,376,429.5,376z M429.5,369.2c-1.3,0-2.4,1.1-2.4,2.4c0,1.3,1.1,2.4,2.4,2.4c1.3,0,2.4-1.1,2.4-2.4
			C431.9,370.2,430.8,369.2,429.5,369.2z"/>
		<circle clip-path="url(#SVGID_2_)" fill="none" stroke="#FFFFFF" stroke-width="1.5" cx="259.3" cy="384.3" r="3.4"/>
		<circle clip-path="url(#SVGID_2_)" fill="none" stroke="#FFFFFF" stroke-width="1.5" cx="244.6" cy="384.3" r="3.4"/>
		<circle clip-path="url(#SVGID_2_)" fill="none" stroke="#000000" stroke-width="2" cx="273.2" cy="384.3" r="3.4"/>
		<path clip-path="url(#SVGID_2_)" d="M332.1,410.9c-2.4,0-4.4-2-4.4-4.4c0-2.4,2-4.4,4.4-4.4c2.4,0,4.4,2,4.4,4.4
			C336.5,408.9,334.5,410.9,332.1,410.9z M332.1,404c-1.3,0-2.4,1.1-2.4,2.4c0,1.3,1.1,2.4,2.4,2.4c1.3,0,2.4-1.1,2.4-2.4
			C334.5,405.1,333.4,404,332.1,404z"/>
		<circle clip-path="url(#SVGID_2_)" fill="none" stroke="#000000" stroke-width="2" cx="317.3" cy="406.5" r="3.4"/>
		<path clip-path="url(#SVGID_2_)" d="M345.9,410.9c-2.4,0-4.4-2-4.4-4.4c0-2.4,2-4.4,4.4-4.4c2.4,0,4.4,2,4.4,4.4
			C350.3,408.9,348.4,410.9,345.9,410.9z M345.9,404c-1.3,0-2.4,1.1-2.4,2.4c0,1.3,1.1,2.4,2.4,2.4c1.3,0,2.4-1.1,2.4-2.4
			C348.3,405.1,347.3,404,345.9,404z"/>
		<circle clip-path="url(#SVGID_2_)" fill="none" stroke="#000000" stroke-width="2" cx="288.3" cy="432" r="3.4"/>
		<circle clip-path="url(#SVGID_2_)" fill="none" stroke="#000000" stroke-width="2" cx="273.5" cy="432" r="3.4"/>
		<circle clip-path="url(#SVGID_2_)" fill="none" stroke="#000000" stroke-width="2" cx="302.1" cy="432" r="3.4"/>
		<path clip-path="url(#SVGID_2_)" d="M414.6,464.5c-2.4,0-4.4-2-4.4-4.4c0-2.4,2-4.4,4.4-4.4c2.4,0,4.4,2,4.4,4.4
			C419,462.5,417,464.5,414.6,464.5z M414.6,457.6c-1.3,0-2.4,1.1-2.4,2.4c0,1.3,1.1,2.4,2.4,2.4c1.3,0,2.4-1.1,2.4-2.4
			C417,458.7,415.9,457.6,414.6,457.6z"/>
		<path clip-path="url(#SVGID_2_)" d="M414.6,479.2c-2.4,0-4.4-2-4.4-4.4c0-2.4,2-4.4,4.4-4.4c2.4,0,4.4,2,4.4,4.4
			C419,477.2,417,479.2,414.6,479.2z M414.6,472.4c-1.3,0-2.4,1.1-2.4,2.4c0,1.3,1.1,2.4,2.4,2.4c1.3,0,2.4-1.1,2.4-2.4
			C417,473.5,415.9,472.4,414.6,472.4z"/>
		<path clip-path="url(#SVGID_2_)" d="M414.6,450.6c-2.4,0-4.4-2-4.4-4.4c0-2.4,2-4.4,4.4-4.4c2.4,0,4.4,2,4.4,4.4
			C419,448.6,417,450.6,414.6,450.6z M414.6,443.8c-1.3,0-2.4,1.1-2.4,2.4c0,1.3,1.1,2.4,2.4,2.4c1.3,0,2.4-1.1,2.4-2.4
			C417,444.9,415.9,443.8,414.6,443.8z"/>
		<circle clip-path="url(#SVGID_2_)" fill="none" stroke="#000000" stroke-width="2" cx="273.8" cy="417.1" r="3.4"/>
		<circle clip-path="url(#SVGID_2_)" fill="none" stroke="#000000" stroke-width="2" cx="273.8" cy="403.2" r="3.4"/>
		<circle clip-path="url(#SVGID_2_)" fill="none" stroke="#FFFFFF" stroke-width="1.5" cx="182.7" cy="388.3" r="3.4"/>
		<circle clip-path="url(#SVGID_2_)" fill="none" stroke="#FFFFFF" stroke-width="1.5" cx="182.7" cy="373.4" r="3.4"/>
		<circle clip-path="url(#SVGID_2_)" fill="none" stroke="#FFFFFF" stroke-width="1.5" cx="182.7" cy="359.5" r="3.4"/>
		<circle clip-path="url(#SVGID_2_)" fill="none" stroke="#FFFFFF" stroke-width="1.5" cx="182.7" cy="344.8" r="3.4"/>
		<circle clip-path="url(#SVGID_2_)" fill="none" stroke="#000000" stroke-width="2" cx="320.5" cy="475" r="3.4"/>
		<circle clip-path="url(#SVGID_2_)" fill="none" stroke="#000000" stroke-width="2" cx="320.5" cy="460.5" r="3.4"/>
		<circle clip-path="url(#SVGID_2_)" fill="none" stroke="#FFFFFF" stroke-width="1.5" cx="215.5" cy="413.3" r="3.4"/>
		<circle clip-path="url(#SVGID_2_)" fill="none" stroke="#FFFFFF" stroke-width="1.5" cx="197.7" cy="431.6" r="3.4"/>
		<circle clip-path="url(#SVGID_2_)" fill="none" stroke="#FFFFFF" stroke-width="1.5" cx="211.7" cy="446" r="3.4"/>
		<circle clip-path="url(#SVGID_2_)" fill="none" stroke="#FFFFFF" stroke-width="1.5" cx="226.6" cy="460.5" r="3.4"/>
		<circle clip-path="url(#SVGID_2_)" fill="none" stroke="#FFFFFF" stroke-width="1.5" cx="240.6" cy="474.9" r="3.4"/>
		<circle clip-path="url(#SVGID_2_)" fill="none" stroke="#FFFFFF" stroke-width="1.5" cx="255.5" cy="489.8" r="3.4"/>
		<circle clip-path="url(#SVGID_2_)" fill="none" stroke="#FFFFFF" stroke-width="1.5" cx="226.2" cy="489.4" r="3.4"/>
		<circle clip-path="url(#SVGID_2_)" fill="none" stroke="#FFFFFF" stroke-width="1.5" cx="197.7" cy="457.1" r="3.4"/>
		<circle clip-path="url(#SVGID_2_)" fill="none" stroke="#FFFFFF" stroke-width="1.5" cx="211.7" cy="474.9" r="3.4"/>
		<circle clip-path="url(#SVGID_2_)" fill="none" stroke="#000000" stroke-width="2" cx="316.9" cy="493.2" r="3.4"/>
		<path clip-path="url(#SVGID_2_)" d="M330.8,497.6c-2.4,0-4.4-2-4.4-4.4c0-2.4,2-4.4,4.4-4.4c2.4,0,4.4,2,4.4,4.4
			C335.2,495.7,333.2,497.6,330.8,497.6z M330.8,490.8c-1.3,0-2.4,1.1-2.4,2.4c0,1.3,1.1,2.4,2.4,2.4c1.3,0,2.4-1.1,2.4-2.4
			C333.2,491.9,332.1,490.8,330.8,490.8z"/>
		<path clip-path="url(#SVGID_2_)" d="M426.1,418.3c-2.4,0-4.4-2-4.4-4.4c0-2.4,2-4.4,4.4-4.4c2.4,0,4.4,2,4.4,4.4
			C430.5,416.3,428.5,418.3,426.1,418.3z M426.1,411.5c-1.3,0-2.4,1.1-2.4,2.4c0,1.3,1.1,2.4,2.4,2.4c1.3,0,2.4-1.1,2.4-2.4
			C428.5,412.6,427.4,411.5,426.1,411.5z"/>
		<path clip-path="url(#SVGID_2_)" d="M426.1,435.8c-2.4,0-4.4-2-4.4-4.4c0-2.4,2-4.4,4.4-4.4c2.4,0,4.4,2,4.4,4.4
			C430.5,433.8,428.5,435.8,426.1,435.8z M426.1,429c-1.3,0-2.4,1.1-2.4,2.4c0,1.3,1.1,2.4,2.4,2.4c1.3,0,2.4-1.1,2.4-2.4
			C428.5,430.1,427.4,429,426.1,429z"/>
		<path clip-path="url(#SVGID_2_)" d="M359.9,505.1c-2.4,0-4.4-2-4.4-4.4c0-2.4,2-4.4,4.4-4.4c2.4,0,4.4,2,4.4,4.4
			C364.3,503.1,362.4,505.1,359.9,505.1z M359.9,498.3c-1.3,0-2.4,1.1-2.4,2.4c0,1.3,1.1,2.4,2.4,2.4c1.3,0,2.4-1.1,2.4-2.4
			C362.3,499.4,361.3,498.3,359.9,498.3z"/>
		<path clip-path="url(#SVGID_2_)" d="M426.1,465.7c-2.4,0-4.4-2-4.4-4.4c0-2.4,2-4.4,4.4-4.4c2.4,0,4.4,2,4.4,4.4
			C430.5,463.8,428.5,465.7,426.1,465.7z M426.1,458.9c-1.3,0-2.4,1.1-2.4,2.4c0,1.3,1.1,2.4,2.4,2.4c1.3,0,2.4-1.1,2.4-2.4
			C428.5,460,427.4,458.9,426.1,458.9z"/>
		<path clip-path="url(#SVGID_2_)" d="M428.6,494.2c-2.4,0-4.4-2-4.4-4.4c0-2.4,2-4.4,4.4-4.4s4.4,2,4.4,4.4
			C433,492.3,431.1,494.2,428.6,494.2z M428.6,487.4c-1.3,0-2.4,1.1-2.4,2.4c0,1.3,1.1,2.4,2.4,2.4c1.3,0,2.4-1.1,2.4-2.4
			C431,488.5,430,487.4,428.6,487.4z"/>
		<polygon clip-path="url(#SVGID_2_)" points="425.2,490.8 374,490.8 374,447.4 316.2,447.4 316.2,409.9 318.2,409.9 318.2,445.4 
			376,445.4 376,488.8 425.2,488.8 		"/>
		<polygon clip-path="url(#SVGID_2_)" points="411.2,475.8 388.5,475.8 388.5,433 330.7,433 330.7,409.9 332.7,409.9 332.7,431 
			390.5,431 390.5,473.8 411.2,473.8 		"/>
		<polygon clip-path="url(#SVGID_2_)" points="411.2,461.1 403,461.1 403,418.5 344.7,418.5 344.7,409.9 346.7,409.9 346.7,416.5 
			405,416.5 405,459.1 411.2,459.1 		"/>
		<polygon clip-path="url(#SVGID_2_)" points="415.6,442.8 413.6,442.8 413.6,413.1 422.7,413.1 422.7,415.1 415.6,415.1 		"/>
		<rect x="367.7" y="401.8" clip-path="url(#SVGID_2_)" width="43.5" height="2"/>
		<rect x="367.7" y="387.1" clip-path="url(#SVGID_2_)" width="43.5" height="2"/>
		<polygon clip-path="url(#SVGID_2_)" points="419.9,375.2 367.7,375.2 367.7,373.2 417.9,373.2 417.9,333.9 419.9,333.9 		"/>
		<rect x="428.5" y="334.8" clip-path="url(#SVGID_2_)" width="2" height="33.4"/>
		<polygon clip-path="url(#SVGID_2_)" points="396.9,360.2 287.3,360.2 287.3,335.4 289.3,335.4 289.3,358.2 396.9,358.2 		"/>
		<polygon clip-path="url(#SVGID_2_)" points="396.9,346.2 301.3,346.2 301.3,336.5 303.3,336.5 303.3,344.2 396.9,344.2 		"/>
		<polygon clip-path="url(#SVGID_2_)" points="289.7,403.6 277.2,403.6 277.2,401.6 287.7,401.6 287.7,373.2 338.5,373.2 
			338.5,375.2 289.7,375.2 		"/>
		<polygon clip-path="url(#SVGID_2_)" points="303.7,418.1 277.2,418.1 277.2,416.1 301.7,416.1 301.7,387.2 338.5,387.2 
			338.5,389.2 303.7,389.2 		"/>
		<polygon clip-path="url(#SVGID_2_)" points="360.9,497.3 358.9,497.3 358.9,461.9 323.9,461.9 323.9,459.9 360.9,459.9 		"/>
		<rect x="329.8" y="496.6" clip-path="url(#SVGID_2_)" width="2" height="35.5"/>
		<path clip-path="url(#SVGID_2_)" d="M378.4,508.7c-2.4,0-4.4-2-4.4-4.4c0-2.4,2-4.4,4.4-4.4c2.4,0,4.4,2,4.4,4.4
			C382.8,506.7,380.9,508.7,378.4,508.7z M378.4,501.9c-1.3,0-2.4,1.1-2.4,2.4c0,1.3,1.1,2.4,2.4,2.4c1.3,0,2.4-1.1,2.4-2.4
			C380.8,503,379.8,501.9,378.4,501.9z"/>
		<polygon clip-path="url(#SVGID_2_)" points="379.4,519.3 345.1,519.3 345.1,475.9 323.9,475.9 323.9,473.9 347.1,473.9 
			347.1,517.3 377.4,517.3 377.4,507.7 379.4,507.7 		"/>
		<path clip-path="url(#SVGID_2_)" d="M392.9,512.9c-2.4,0-4.4-2-4.4-4.4c0-2.4,2-4.4,4.4-4.4c2.4,0,4.4,2,4.4,4.4
			C397.3,511,395.3,512.9,392.9,512.9z M392.9,506.1c-1.3,0-2.4,1.1-2.4,2.4c0,1.3,1.1,2.4,2.4,2.4c1.3,0,2.4-1.1,2.4-2.4
			C395.3,507.2,394.2,506.1,392.9,506.1z"/>
		<polygon clip-path="url(#SVGID_2_)" points="452.4,510 396.3,510 396.3,508 450.4,508 450.4,494.7 425.1,469.4 425.1,464.7 
			427.1,464.7 427.1,468.6 452.4,493.9 		"/>
		<polyline clip-path="url(#SVGID_2_)" fill="none" stroke="#000000" stroke-width="2" points="316.9,496.6 316.9,518.8 
			258.5,518.8 		"/>
		<circle clip-path="url(#SVGID_2_)" fill="none" stroke="#FFFFFF" stroke-width="1.5" cx="255.3" cy="518.8" r="3.4"/>
		<path clip-path="url(#SVGID_2_)" fill="#FFFFFF" d="M465.4,512.5c-2.3,0-4.2-1.9-4.2-4.2c0-2.3,1.9-4.2,4.2-4.2
			c2.3,0,4.2,1.9,4.2,4.2C469.6,510.6,467.7,512.5,465.4,512.5z M465.4,505.7c-1.5,0-2.7,1.2-2.7,2.7c0,1.5,1.2,2.7,2.7,2.7
			s2.7-1.2,2.7-2.7C468.1,506.9,466.9,505.7,465.4,505.7z"/>
		<polyline clip-path="url(#SVGID_2_)" fill="none" stroke="#000000" stroke-width="2" points="302.1,435.4 302.1,503.9 
			240.6,503.9 240.6,529.4 		"/>
		<polyline clip-path="url(#SVGID_2_)" fill="none" stroke="#000000" stroke-width="2" points="258.9,489.8 287.8,489.8 
			287.8,435.4 		"/>
		<polyline clip-path="url(#SVGID_2_)" fill="none" stroke="#FFFFFF" stroke-width="1.5" points="244,474.9 273.4,474.9 
			273.4,435.4 		"/>
		<line clip-path="url(#SVGID_2_)" fill="none" stroke="#FFFFFF" stroke-width="1.5" x1="273.2" y1="380.9" x2="273.2" y2="336.1"/>
		<line clip-path="url(#SVGID_2_)" fill="none" stroke="#FFFFFF" stroke-width="1.5" x1="259.3" y1="380.9" x2="259.3" y2="336.1"/>
		<line clip-path="url(#SVGID_2_)" fill="none" stroke="#FFFFFF" stroke-width="1.5" x1="244.6" y1="380.9" x2="244.6" y2="335.6"/>
		<polygon clip-path="url(#SVGID_2_)" points="466.4,504.9 464.4,504.9 464.4,483 424.6,443.1 424.6,434.8 426.6,434.8 426.6,442.3 
			466.4,482.2 		"/>
		<polyline clip-path="url(#SVGID_2_)" fill="none" stroke="#FFFFFF" stroke-width="1.5" points="230,460.5 258.9,460.5 258.9,403 
			244.4,403 244.4,446.4 215.1,446.4 		"/>
		<polyline clip-path="url(#SVGID_2_)" fill="none" stroke="#FFFFFF" stroke-width="1.5" points="201.1,431.6 230,431.6 230,334.8 
					"/>
		<line clip-path="url(#SVGID_2_)" fill="none" stroke="#FFFFFF" stroke-width="1.5" x1="215.5" y1="409.9" x2="215.5" y2="335.2"/>
		<polyline clip-path="url(#SVGID_2_)" fill="none" stroke="#FFFFFF" stroke-width="1.5" points="201.1,335.6 201.1,403 135.5,403 
					"/>
		<polyline clip-path="url(#SVGID_2_)" fill="none" stroke="#FFFFFF" stroke-width="1.5" points="194.3,457.1 183.2,457.1 
			183.2,417.5 121.1,417.5 		"/>
		<line clip-path="url(#SVGID_2_)" fill="none" stroke="#FFFFFF" stroke-width="1.5" x1="179.3" y1="388.3" x2="114.7" y2="388.3"/>
		<line clip-path="url(#SVGID_2_)" fill="none" stroke="#FFFFFF" stroke-width="1.5" x1="179.3" y1="373.4" x2="128.3" y2="373.4"/>
		<line clip-path="url(#SVGID_2_)" fill="none" stroke="#FFFFFF" stroke-width="1.5" x1="179.3" y1="359.5" x2="143.6" y2="359.5"/>
		<polyline clip-path="url(#SVGID_2_)" fill="none" stroke="#FFFFFF" stroke-width="1.5" points="179.3,344.8 157.7,344.8 
			157.7,335.4 		"/>
		<path clip-path="url(#SVGID_2_)" fill="#FFFFFF" d="M469.9,466.3c-2.3,0-4.2-1.9-4.2-4.2c0-2.3,1.9-4.2,4.2-4.2
			c2.3,0,4.2,1.9,4.2,4.2C474.1,464.5,472.2,466.3,469.9,466.3z M469.9,459.5c-1.5,0-2.7,1.2-2.7,2.7c0,1.5,1.2,2.7,2.7,2.7
			c1.5,0,2.7-1.2,2.7-2.7C472.6,460.7,471.4,459.5,469.9,459.5z"/>
		<polygon clip-path="url(#SVGID_2_)" points="467,460.3 435.3,428.6 435.3,385.3 442.5,375.5 442.5,335.2 444.5,335.2 444.5,376.2 
			437.3,385.9 437.3,427.7 468.4,458.9 		"/>
		<polyline clip-path="url(#SVGID_2_)" fill="none" stroke="#FFFFFF" stroke-width="1.5" points="208.3,474.9 168.3,474.9 
			168.3,432 107,432 		"/>
		<polyline clip-path="url(#SVGID_2_)" fill="none" stroke="#FFFFFF" stroke-width="1.5" points="222.8,489.4 161.5,489.4 
			154.7,482.6 154.7,446.4 88.8,446.4 		"/>
		<circle clip-path="url(#SVGID_2_)" fill="none" stroke="#FFFFFF" stroke-width="1.5" cx="241" cy="533.2" r="3.4"/>
		<circle clip-path="url(#SVGID_2_)" fill="none" stroke="#FFFFFF" stroke-width="1.5" cx="226.2" cy="533.2" r="3.4"/>
		<polyline clip-path="url(#SVGID_2_)" fill="none" stroke="#FFFFFF" stroke-width="1.5" points="226.2,529.8 226.2,504.7 
			154.3,504.7 140,490.5 140,460.9 89.2,460.9 		"/>
		<path clip-path="url(#SVGID_2_)" d="M447.4,402.1c-2.4,0-4.4-2-4.4-4.4c0-2.4,2-4.4,4.4-4.4c2.4,0,4.4,2,4.4,4.4
			C451.8,400.1,449.9,402.1,447.4,402.1z M447.4,395.3c-1.3,0-2.4,1.1-2.4,2.4c0,1.3,1.1,2.4,2.4,2.4c1.3,0,2.4-1.1,2.4-2.4
			C449.8,396.3,448.8,395.3,447.4,395.3z"/>
		<path clip-path="url(#SVGID_2_)" d="M447.4,416.8c-2.4,0-4.4-2-4.4-4.4c0-2.4,2-4.4,4.4-4.4c2.4,0,4.4,2,4.4,4.4
			C451.8,414.8,449.9,416.8,447.4,416.8z M447.4,410c-1.3,0-2.4,1.1-2.4,2.4c0,1.3,1.1,2.4,2.4,2.4c1.3,0,2.4-1.1,2.4-2.4
			C449.8,411.1,448.8,410,447.4,410z"/>
		<rect x="450.8" y="411.4" clip-path="url(#SVGID_2_)" width="43.5" height="2"/>
		<rect x="450.8" y="396.7" clip-path="url(#SVGID_2_)" width="43.5" height="2"/>
		<line clip-path="url(#SVGID_2_)" fill="none" stroke="#FFFFFF" stroke-width="1.5" x1="143.2" y1="519.4" x2="208.7" y2="519.4"/>
		<circle clip-path="url(#SVGID_2_)" fill="none" stroke="#FFFFFF" stroke-width="1.5" cx="211.9" cy="519.4" r="3.4"/>
		<polygon clip-path="url(#SVGID_2_)" points="463.4,562.9 440.2,562.9 440.2,519.5 409.9,519.5 409.9,529.2 407.9,529.2 
			407.9,517.5 442.2,517.5 442.2,560.9 463.4,560.9 		"/>
	</g>
</g>
</svg>
