<?xml version="1.0" encoding="utf-8"?>
<!-- Generator: Adobe Illustrator 18.1.1, SVG Export Plug-In . SVG Version: 6.00 Build 0)  -->
<svg version="1.1" id="Layer_1" xmlns="http://www.w3.org/2000/svg" xmlns:xlink="http://www.w3.org/1999/xlink" x="0px" y="0px"
	 viewBox="0 0 791.4 920" enable-background="new 0 0 791.4 920" xml:space="preserve">
<g>
	<g>
		<polygon fill="#EE8E32" points="771.3,676.9 395.7,893.7 20.1,676.9 20.1,243.2 395.7,26.3 771.3,243.2 		"/>
	</g>
	<g>
		<path d="M395.7,916.3L0.5,688.2V231.9L395.7,3.7l395.2,228.2v456.3L395.7,916.3z M39.7,665.6l356.1,205.5l356.1-205.5V254.5
			L395.7,48.9L39.7,254.5V665.6z"/>
	</g>
</g>
<g>
	<g>
		<path d="M236.9,259c49.2-14.2,118.5,10.5,160.5,25.5c43.5,13.5,91.5,21,138,27c25.5,3,57-6,82.5,0c-7.5,28.5-19.5,55.5-24,84
			c-7.5,52.5-10.5,105-16.5,156c-4.5,46.5-18,96-13.5,144c-16.5-9-40.5-9-58.5-12c-34.5-6-67.5-13.5-102-18
			c-67.5-12-222.4-35-222.4-35s12.4-67,15.4-92.5c9-72,31.5-139.5,36-211.5C233.9,304,232.4,278.5,236.9,259"/>
		<g>
			<path fill="none" d="M236.9,259c49.2-14.2,118.5,10.5,160.5,25.5c43.5,13.5,91.5,21,138,27c25.5,3,57-6,82.5,0
				c-7.5,28.5-19.5,55.5-24,84c-7.5,52.5-10.5,105-16.5,156c-4.5,46.5-18,96-13.5,144c-16.5-9-40.5-9-58.5-12
				c-34.5-6-67.5-13.5-102-18c-67.5-12-222.4-35-222.4-35s12.4-67,15.4-92.5c9-72,31.5-139.5,36-211.5
				C233.9,304,232.4,278.5,236.9,259"/>
			<path d="M237.3,260.5c25-7,51.6-4.3,76.7,0.7c24.6,4.9,48.6,12.7,72.3,21c27.7,9.7,56.3,16.2,85.1,21.3
				c15.5,2.8,31.2,5.1,46.8,7.3c13.9,1.9,27.3,3.3,41.4,2.5c19.2-1.2,38.8-4.5,57.9-0.2c-0.3-0.6-0.7-1.2-1-1.8
				c-8,30.1-20.5,58.8-24.8,89.9c-4.4,32-7.2,64.3-10.2,96.5c-3,32.1-6.2,64.1-11.2,96c-4.8,30.7-9.8,61.5-8.5,92.7
				c0.1,3.1,0.4,6.2,0.7,9.4c0.8-0.4,1.5-0.9,2.3-1.3c-10.8-5.7-23-7.7-35-9.2c-14.5-1.8-28.8-3.8-43.2-6.5c-16-3-31.9-6.2-47.9-9
				c-13.6-2.4-27.4-4.2-41-6.5c-39.1-6.8-78.3-12.9-117.4-18.9c-32.9-5.1-65.8-10.1-98.7-15c0.3,0.6,0.7,1.2,1,1.8
				c5.5-29.8,11.2-59.7,15.1-89.8c8-60.8,25.1-120,33-180.8c2.2-17.1,3.6-34.3,4.1-51.5c0.4-16.5,0.2-33.2,3.7-49.4
				c0.4-1.9-2.5-2.7-2.9-0.8c-3,13.5-3.3,27.4-3.6,41.1c-0.3,15.3-0.9,30.4-2.5,45.6c-3.2,31.6-9.7,62.8-16.2,93.8
				c-6.5,30.8-13.1,61.5-17.4,92.7c-2.6,18.8-5.4,37.5-8.7,56.2c-2.4,14-4.9,28-7.5,42c-0.1,0.7,0.2,1.7,1,1.8
				c62.5,9.3,124.9,18.7,187.2,29c29.7,4.9,59.5,9.4,89,15c18.5,3.5,37,7.7,55.7,10.1c17,2.2,35.1,2.6,50.6,10.8
				c0.9,0.5,2.4-0.1,2.3-1.3c-2.9-32.1,1.9-64,6.8-95.6c4.8-30.8,8.3-61.7,11.3-92.7c3.1-32.7,5.9-65.3,10-97.9
				c2.1-16.2,5.4-31.8,10.2-47.4c4.6-14.9,9.9-29.5,14.2-44.5c0.5-1.8,1-3.6,1.5-5.4c0.2-0.8-0.2-1.7-1-1.8
				c-26.9-6-54.3,2.5-81.4,0.1c-16-1.4-32-4.3-47.9-6.8c-15.6-2.5-31-5.3-46.4-8.7c-15.1-3.3-30-7.1-44.8-11.7
				c-10.8-3.3-21.3-7.6-32-11.1c-24.3-8-49.3-14.6-74.8-17.5c-18.1-2.1-36.8-1.9-54.5,3.1C234.7,258.1,235.5,261,237.3,260.5
				L237.3,260.5z"/>
		</g>
	</g>
	<g>
		<path fill="#EE8E32" d="M275.4,247.7c0,9.3-2,18-2.7,26.7c4-8,7.3-11.3,6.7-21.3"/>
	</g>
	<g>
		<path fill="#EE8E32" d="M411.4,287c-4,12-10.7,22.7-10,35.3c6.7-10,8-24,14-35.3"/>
	</g>
	<g>
		<path fill="#EE8E32" d="M423.4,287.7c-4,6-6,13.3-7.3,20.7c2-6.7,7.3-13.3,12-16.7"/>
	</g>
	<g>
		<path fill="#EE8E32" d="M595.4,427.7c-10.7,0-26-0.7-34.7,4.7c8.7,4.7,20.7,11.3,30,14.7"/>
	</g>
	<g>
		<path fill="#EE8E32" d="M198.1,468.4c6.7,2,14,1.3,20.7,4c-4.7,7.3-13.3,2-20,2"/>
	</g>
	<g>
		<path fill="#EE8E32" d="M200.1,495c9.3,0,18.7,3.3,28,3.3c-10.7,4.7-24.7,12.7-36,13.3"/>
	</g>
	<g>
		<path fill="#EE8E32" d="M291.4,655.7c0.7-11.3,1.3-23.3,6-33.3c1.3,10,0,19.3,1.3,28.7"/>
	</g>
	<g>
		<path fill="#EE8E32" d="M488.1,689c-0.7-4.7-1.3-10-2-14.7c-4.7,2.7-8,10.7-14.7,9.3c-6-1.3-8-10-11.3-14
			c-3.3,1.3-6.7,3.3-9.3,5.3c-4.7-4.7-5.3-11.3-5.3-18c-6,2.7-12.7,10.7-14.7,17.3"/>
	</g>
	<g>
		<path fill="#EE8E32" d="M320.8,447c9.3,0,20.7-0.7,29.3,3.3c-9.3,1.3-18.7,1.3-28,4c-7.3,2-16.7,8.7-24,7.3c3.3-4,8-7.3,12.7-10"
			/>
	</g>
	<g>
		<path fill="#EE8E32" d="M513.8,561c-4,6-8.3,8-14.3,11.3c-1.3,12-1.3,14.2-1.3,24c1.3-6,4-16.7,7.3-21.3c4-6.7,10-6.7,10-16"/>
	</g>
	<path fill="#FFFFFF" d="M322.9,341.7c-3.3,15.4-12.9,27.2-25.6,36.2c-10.6,7.5-23.3,11.3-33.4,19.5c-11.4,9.2-14.7,23.3-11.2,37.2
		c4,15.5,14.7,28.1,22.3,41.8c3.7,6.6,6.6,13.4,6.2,21.1c-0.4,8.4-3.7,16.6-6.2,24.5c-4.6,14.8-7.2,30.9,0.5,45.2
		c6.2,11.6,18.2,18.3,30.3,22.3c11.8,3.9,24.5,6.4,36.9,6.2c24.3-0.4,50.9-11.5,52.7-38.9c0.9-13.8-6.2-27-12.6-38.7
		c-5.3-9.8-14.7-22.5-13.6-34.3c1.2-12.8,13.9-10.3,22.1-5.8c13.5,7.6,20.4,21.1,28.5,33.7c8.9,14,19.8,25.7,35.9,31.1
		c13.2,4.4,29.3,5.7,42.7,1.3c45.4-15,29.9-80.1,11.3-110.3c-3-4.9-6.5-9.9-10.5-14.1c-6.7-7-17.2,3.6-10.6,10.6
		c13.1,13.8,20.2,34.2,23.2,52.7c1.5,9,1.7,18.5-0.5,26.9c-2,7.8-5.8,14-12.8,17.9c-9.5,5.2-22.6,4.6-33.1,2.1
		c-7-1.6-14.1-4.4-19.4-9.4c-5.6-5.2-10-11.2-14.1-17.7c-8.1-12.9-15.6-25.7-28.3-34.7c-9.5-6.8-23-12.1-34.4-7.4
		c-12.7,5.3-16.8,19.7-14.2,32.3c2.6,12.8,10.3,24.3,16.4,35.6c5.3,9.9,11.3,21.3,8.1,32.8c-2.6,9.3-11.2,14.4-20,16.9
		c-9.8,2.8-20.5,3.2-30.5,1.5c-11.3-1.9-24-4.7-33.3-11.7c-9.5-7.2-11.7-19.1-9.4-30.4c3.3-16.1,11.9-31.5,9.4-48.4
		c-2.2-15-12.4-27.8-20.1-40.4c-5.9-9.7-14.2-24.4-6.7-35.5c6-8.9,18.4-12.5,27.4-17.4c12.7-6.9,24.6-17.1,32.3-29.3
		c4.1-6.4,6.9-13.7,8.5-21.1C339.3,336.3,324.9,332.3,322.9,341.7L322.9,341.7z"/>
	<rect x="319.3" y="334.5" transform="matrix(0.9607 0.2777 -0.2777 0.9607 109.1305 -77.8713)" width="20.3" height="23.6"/>
	<rect x="289.9" y="371.7" transform="matrix(0.6008 0.7994 -0.7994 0.6008 425.4332 -87.254)" width="20.3" height="21.3"/>
	<rect x="254.6" y="398.1" transform="matrix(0.834 0.5518 -0.5518 0.834 269.5135 -78.2621)" width="20.3" height="21.3"/>
	<rect x="257.3" y="440.1" transform="matrix(0.8827 -0.4699 0.4699 0.8827 -180.4455 178.5674)" width="20.3" height="21.3"/>
	<rect x="278.3" y="482.8" transform="matrix(0.9939 -0.1104 0.1104 0.9939 -52.7075 34.8627)" width="20.3" height="21.3"/>
	
		<rect x="268.3" y="528.8" transform="matrix(0.9961 8.818951e-002 -8.818951e-002 0.9961 48.6556 -22.4572)" width="20.3" height="21.3"/>
	<rect x="288.3" y="566.9" transform="matrix(0.5421 -0.8403 0.8403 0.5421 -348.6846 515.1959)" width="20.3" height="21.3"/>
	<rect x="335.7" y="576.9" transform="matrix(0.9917 -0.1289 0.1289 0.9917 -72.8708 49.4961)" width="20.3" height="21.3"/>
	<rect x="375" y="553.1" transform="matrix(0.9595 0.2818 -0.2818 0.9595 174.4418 -85.6773)" width="20.3" height="21.3"/>
	<rect x="366" y="510.5" transform="matrix(0.9093 -0.4162 0.4162 0.9093 -182.7485 203.8065)" width="20.3" height="21.3"/>
	
		<rect x="354" y="476.1" transform="matrix(0.9961 8.818951e-002 -8.818951e-002 0.9961 44.3447 -30.2172)" width="20.3" height="21.3"/>
	<rect x="387.5" y="461.3" transform="matrix(0.8827 0.47 -0.47 0.8827 268.471 -131.5196)" width="20.3" height="21.3"/>
	<rect x="417.6" y="497.4" transform="matrix(0.6746 0.7382 -0.7382 0.6746 514.295 -150.4705)" width="20.3" height="21.3"/>
	<rect x="451.1" y="523.6" transform="matrix(0.9436 0.3311 -0.3311 0.9436 202.945 -122.6124)" width="20.3" height="21.3"/>
	<rect x="494.8" y="520.8" transform="matrix(0.854 -0.5203 0.5203 0.854 -202.7805 340.372)" width="20.3" height="21.3"/>
	<rect x="477.6" y="410.1" transform="matrix(0.7167 0.6974 -0.6974 0.7167 431.6213 -220.9942)" width="20.3" height="21.3"/>
	<rect x="503.3" y="448.8" transform="matrix(0.9053 -0.4248 0.4248 0.9053 -146.5345 261.6477)" width="20.3" height="21.3"/>
	
		<rect x="510.4" y="487.4" transform="matrix(0.9961 8.818994e-002 -8.818994e-002 0.9961 45.9539 -43.9689)" width="20.3" height="21.3"/>
	<polygon fill="#FFFFFF" points="517.1,415 425.8,377.9 434.4,354.2 525.7,396.3 	"/>
	<polygon fill="#FFFFFF" points="447.1,427.6 481.2,338.3 502.9,346.9 463.8,436.2 	"/>
</g>
</svg>
