<?xml version="1.0" encoding="utf-8"?>
<!-- Generator: Adobe Illustrator 18.1.1, SVG Export Plug-In . SVG Version: 6.00 Build 0)  -->
<svg version="1.1" id="Layer_1" xmlns="http://www.w3.org/2000/svg" xmlns:xlink="http://www.w3.org/1999/xlink" x="0px" y="0px"
	 viewBox="0 0 790.4 920" enable-background="new 0 0 790.4 920" xml:space="preserve">
<g>
	<polygon fill="#60BE79" points="770.8,676.9 395.2,893.7 19.6,676.9 19.6,243.2 395.2,26.3 770.8,243.2 	"/>
	<path d="M395.2,916.3L0,688.2V231.9L395.2,3.7l395.2,228.2v456.3L395.2,916.3z M39.2,665.6l356.1,205.5l356.1-205.5V254.5
		L395.2,48.9L39.2,254.5V665.6z"/>
</g>
<g>
	<polygon points="258.8,669.8 381.8,227.1 410.7,235.1 287.7,677.9 258.8,669.8 	"/>
	<polygon points="379.8,235.1 408.7,227.1 531.7,669.8 502.8,677.9 379.8,235.1 	"/>
	<g>
		<rect x="233.5" y="266.9" fill="#FFFFFF" width="323.4" height="270.5"/>
		<polygon points="251,524.3 251,519.9 537.2,519.9 537.2,524.3 251,524.3 		"/>
		<polygon fill="#60BE79" points="249.9,479.6 289,440.5 303.5,454.9 320.1,432.3 355.4,415.9 369.3,429.8 394.3,391.6 407.1,414.2 
			428.7,417.8 441,397.2 480.3,358 490.4,376.4 519.1,329 519.1,329 525.4,332.9 490,391.3 478.5,370.3 447,401.8 432.5,426 
			402.3,421 393.8,405.9 370.5,441.5 353.8,424.9 325,438.3 304.3,466.3 289,451 255.1,484.9 249.9,479.6 		"/>
		<polygon points="250.3,524.3 250.3,284.4 254.7,284.4 254.7,524.3 250.3,524.3 		"/>
		<polygon fill="#60BE79" points="519.3,350.4 522.1,330.8 505.9,342.9 505.9,342.9 501.9,337.5 530.9,315.7 526,351.3 519.3,350.4 
					"/>
	</g>
	<rect x="273" y="532" width="247.3" height="15.4"/>
	<circle fill="#60BE79" cx="395.7" cy="250.1" r="4.7"/>
</g>
</svg>
