<?xml version="1.0" encoding="utf-8"?>
<!-- Generator: Adobe Illustrator 18.1.1, SVG Export Plug-In . SVG Version: 6.00 Build 0)  -->
<svg version="1.1" id="Layer_1" xmlns="http://www.w3.org/2000/svg" xmlns:xlink="http://www.w3.org/1999/xlink" x="0px" y="0px"
	 viewBox="0 0 790.4 920" enable-background="new 0 0 790.4 920" xml:space="preserve">
<g>
	<polygon fill="#E04D4D" points="770.8,676.9 395.2,893.7 19.6,676.9 19.6,243.2 395.2,26.3 770.8,243.2 	"/>
	<path d="M395.2,916.3L0,688.2V231.9L395.2,3.7l395.2,228.2v456.3L395.2,916.3z M39.2,665.6l356.1,205.5l356.1-205.5V254.5
		L395.2,48.9L39.2,254.5V665.6z"/>
</g>
<g>
	<g>
		<path d="M473.6,618.2c20.8,22.5,99.8,68.5,118.1,12.9c8.6-25.8,3.7-64.2-12.5-81.9c-22.6-22.2-51.8-39.5-73.7-58.1
			c58-10.2,90.2-28.9,79.8-88.7c-5.1-29-8.4-58.3-0.4-87.8c4.1-19.4,24.1-43.5,9.8-61.5c-45.4-66.8-202.3,110.1-194.6,153.7
			l-26.4,7.5c-7.6-43.5-214.6-162-234.5-83.7c-7.4,21.9,19.7,37.7,30.1,54.5c17.5,25,24.4,53.7,29.4,82.7
			c10.5,59.8,47.2,66.5,105.2,56.3c-14.3,24.9-35.9,51.1-49.6,79.7c-9.2,22.2-0.7,59.9,16.1,81.3c36.1,46,94.8-24.1,106.7-52.3
			c5.1-20.6,10.2-41.3,15.4-61.9c0.6-2.3,1.6-4.8,1.8-7.2c0.5-6.7-2.3-13.4-1.3-20.5c1.2-8.7,9.9-11.2,18.1-10.4
			c8.4,0.9,18.4,3.7,23.8,10.3c3.8,4.6,6,10.7,8.7,16c2.5,4.9,5,9.9,7.5,14.8c5.9,11.6,11.8,23.2,17.6,34.7
			C470.3,611.8,471.9,615,473.6,618.2z"/>
	</g>
	<g>
		<path fill="#FFFFFF" d="M371.4,367c-3.5,11.8-4.3,18.2-5.2,27.1c-1.1,15.1,7.8,74.6,20.4,114.8c12.7,40.2,25.5,120.7,44.8,129.2
			c11.8-8.9-3-45.6-3.8-64.1c-1.3-32.1-7.1-63.5-11.4-95.2C413.2,461.8,393.8,345.6,371.4,367"/>
	</g>
	<path fill="#FFFFFF" d="M322,321.9c8.9,10,13.2,22.1,20.1,33.3c6.1,9.9,16.5,16.8,25.9,23.4c3.2,2.2,6.2-3,3-5.2
		c-10-7-20-14.1-25.9-25.2c-5.7-10.7-10.8-21.4-18.9-30.6C323.7,314.8,319.5,319,322,321.9L322,321.9z"/>
	<path fill="#FFFFFF" d="M388.7,303.8c2.3,11.2,2.7,22.8,2.1,34.2c-0.6,11-1.9,24.8-9.5,33.5c-2.6,2.9,1.7,7.1,4.2,4.2
		c8.3-9.4,10.3-23.1,11.1-35.1c0.9-12.7,0.4-25.9-2.2-38.4C393.7,298.4,387.9,300,388.7,303.8L388.7,303.8z"/>
	<g>
		<path fill="#E04D4D" d="M220.1,355.3c-8.1,0.2-16,4.7-17,13c-1.9,14,15.5,10.4,19.1,20.3c4.1,9.2-13,14.7-14.1,22.4
			c-1.5,9,8.9,8.4,16.4,12.1c17.6,8.1-1.6,15.9,10.1,25.6c6.6,5.7,22.3,2.9,27.1,12.7c1.7,2.8-1.3,7.1,0,10.6
			c3.3,8.1,18.6,13.6,26.4,15.3c11.6,2.3,24.7,2.5,33.2-5.8c6.7-6.5,8.3-15.2,18.2-17.7c4.5-1.1,7.2,0.2,9.4-5.2
			c1.5-3.7,0.4-8.8-0.8-12.5c-2.6-7.9-10-11.4-14-18.1c-2.4-4.1-3.9-8.8-6.6-12.9c-3.5-5.3-7.2-6-12.1-9.1
			c-10.2-6.4-18.9-16.3-28.5-23.7C267.6,367.4,245.4,354.8,220.1,355.3z"/>
		<path fill="#FFFFFF" d="M219.8,352.7c-7.8,0.4-17.1,3.3-21.2,10.5c-3.2,5.7-2.5,12.7,3,16.5c4.3,3,11.1,3.7,13.9,8.5
			c3.8,6.4-3.8,11.1-7.9,14.8c-4,3.7-8.6,9.6-4.2,14.9c4.6,5.6,14.1,4.8,19.8,9.1c5.5,4.2,1.1,9.2,1.1,14.6
			c0,6.7,6.7,10.6,12.4,12.3c5.7,1.6,17.4,1.8,19.2,9.1c1,3.8-1.8,7.2,0.3,11.1c1.7,3.3,5.1,5.8,8.3,7.8
			c14.2,8.7,34.4,12.3,50.4,7.1c8.8-2.9,13.8-8.6,18.9-15.9c2.1-3.1,4.5-6.2,8.3-7.2c3.6-0.9,7.4-0.8,10.4-3.5
			c5.9-5.5,3.3-16.2-0.6-22.1c-2.3-3.6-5.7-6.3-8.5-9.4c-3.3-3.6-5.1-7.9-7.1-12.2c-2.2-4.7-5-8.5-9.4-11.2
			c-5.1-3.1-10.1-5.9-14.7-9.8c-8.8-7.4-17-15.4-26.4-22.2c-19-13.5-40.6-23.2-64.3-23c-1.7,0-7,0.3-7.5,2.6c-0.5,2.4,3,2.7,4.7,2.7
			c18.9-0.1,36.3,7.8,51.8,18.1c7.9,5.3,15.1,11.2,22.1,17.5c6.7,6.1,13.5,12.1,21.5,16.5c3.6,2,6.3,4.1,8.5,7.7
			c2.4,4.1,3.8,8.7,6.4,12.7c4.4,6.5,11.4,10.3,13.5,18.2c1.2,4.4,1,7.5-0.6,11.7c-0.6,1.5,1.4-0.1,0.2,0.3
			c-0.8,0.2-1.7,0.2-2.4,0.4c-2.1,0.4-4.2,0.9-6.2,1.7c-7.1,2.8-10.3,8.7-14.7,14.5c-10,13.3-28.7,9.1-41.5,2.2
			c-3.1-1.6-6.4-3.6-8.3-6.6c-2.5-3.8,0.3-7.1-0.5-11.1c-1.2-6.2-9-9-14.2-10.3c-5.6-1.4-13.2-1.6-16.4-7.2
			c-2.6-4.4,0.8-8.6,0.8-13.1c0-6.3-7.1-9.5-12.1-11.4c-4.7-1.8-14.4-2.5-12.1-9.9c1.8-5.6,9.2-8.7,12.5-13.4
			c3.4-4.8,2-10.4-2.6-13.9c-4.1-3.2-11-3.8-14-8.2c-4.9-7.2,2.5-16,10-16.4c1.5-0.1,6.2-1,5.9-3.3
			C226,352.3,221.2,352.7,219.8,352.7z"/>
	</g>
	<g>
		<path fill="#E04D4D" d="M526,301c7.6-2.6,16.6-1,20.4,6.4c6.6,12.6-11.1,15-11.1,25.6c-0.7,10.1,17.2,9.4,20.9,16.3
			c4.5,7.9-5.6,10.9-11.4,16.9c-13.8,13.6,6.9,14.4-0.8,27.5c-4.3,7.6-20,10.4-21.2,21.2c-0.7,3.2,3.6,6.2,3.6,10
			c-0.3,8.8-12.9,19.1-19.6,23.4c-10.1,6.1-22.4,10.8-33.2,5.8c-8.5-3.9-13-11.5-23.1-10.4c-4.6,0.5-6.7,2.7-10.6-1.7
			c-2.7-3-3.4-8.2-3.5-12c-0.3-8.3,5.5-14.1,7-21.8c0.9-4.7,0.7-9.6,1.8-14.3c1.5-6.2,4.7-8.1,8.3-12.6c7.4-9.5,12.2-21.8,18.7-32
			C485.4,328.6,502.1,309.2,526,301z"/>
		<path fill="#FFFFFF" d="M529.4,302.9c6.5-2,13.8,5.5,12.1,12c-1.2,4.8-6.8,7.7-9.7,11.5c-2.8,3.7-4,9.2-0.7,13
			c3.6,4.1,9.6,5.2,14.3,7.4c6.2,2.8,7.2,8,1.7,12.4c-4.8,3.8-11.5,7.7-13.1,14.1c-1.1,4.2,1.6,7.2,3.8,10.4c3,4.5,1.6,9.4-2.4,12.8
			c-4.6,4-10.5,6.1-14.7,10.6c-1.9,2-3.3,4.2-3.9,6.9c-0.8,3.7,1.1,5.4,2.6,8.5c3.2,7.1-5.6,15-10.4,19.1
			c-6.2,5.3-14.5,10.9-22.8,11.6c-8.7,0.8-14.3-6.7-21.4-10.1c-3.1-1.5-6.5-2.3-10-2.4c-2-0.1-3.9,0.1-5.9,0.4
			c-0.9,0.1-1.9,0.3-2.8,0.5c-0.4,0.1-0.7,0.2-1.1,0.2c2.4,0.5,2.9,0.3,1.6-0.7c-0.3-0.8-1.6-1.8-2-2.7c-0.5-1-0.8-2-1.1-3
			c-0.5-1.8-0.7-3.8-0.8-5.7c-0.2-4.8,1.6-8.8,3.6-13c1.6-3.4,2.9-6.6,3.5-10.3c0.9-5.2,0.3-10.8,2.5-15.7c1.7-4,5.2-6.9,7.8-10.3
			c3.2-4.2,5.9-8.9,8.4-13.6c4.9-9.2,9.8-18.2,15.8-26.7C495.8,324.2,510.3,309.6,529.4,302.9c1.9-0.7,3.8-2.1,1.9-3.8
			c-1.9-1.6-6.5-0.8-8.6,0c-18.5,6.5-33.3,19.1-45.4,34.4c-13,16.4-20.4,36.3-33.8,52.3c-6.8,8.2-4,18.6-7.8,27.9
			c-3.5,8.6-7.4,16-3.9,25.5c1.3,3.4,3.7,6.4,7.2,7.6c4.2,1.4,7.8-0.2,11.9-0.4c3.6-0.2,7,2.8,9.8,4.8c3.8,2.7,7.5,5.2,12,6.5
			c18.2,5.4,39-5.2,51.5-18c5.3-5.4,10.8-12.4,6.9-20c-1.9-3.7-2.6-6.2,0-9.9c2.2-3,5.7-5,8.8-6.9c5.2-3.3,11.2-7.1,12.1-13.8
			c0.7-5.4-3.5-7.9-5.2-12.3c-4.7-12.2,26.9-17.6,14-30.4c-4.8-4.7-12.9-4.3-17.5-9.1c-5.8-6,2.8-12.4,6.6-16.4
			c5.1-5.4,5.7-12.2,0.2-17.9c-7-7.2-18.6-6.4-27.4-3.7c-1.9,0.6-3.8,2.1-1.9,3.8C522.7,304.6,527.2,303.6,529.4,302.9z"/>
	</g>
	<g>
		<path fill="#E04D4D" d="M334.5,547.9c-13.8,13.6-32.6,30.6-36.6,50.6c-2.5,10.4,4.7,9.1,8,17.3c1,2.3,0.1,7.5,2.9,9.5
			c2.9,2.6,10.2-2.1,14.7-1.6c8.9,0.9,17.4,6.6,22.1-5.4c3.1-7.4-0.3-16.1-0.4-23.6c-0.3-6.8,3.5-31.8,0.6-43
			C344.7,547.7,334.5,547.9,334.5,547.9"/>
		<path fill="#FFFFFF" d="M330.8,547.9c-13.1,12.9-27.9,26-35,43.4c-2.6,6.4-5.2,13.9,0.2,19.4c2.3,2.3,4.7,4.4,5.6,7.7
			c0.9,3.3,0,7.6,3.7,9.5c2.7,1.4,6.4,0.4,9.1-0.3c2.2-0.6,4.3-1.5,6.6-1.4c1.9,0.1,3.8,0.8,5.7,1.2c6.6,1.4,13.8,1.2,19.2-3.5
			c7.3-6.3,5.9-16.2,4.7-24.7c-1-7.2-0.1-14.3,0.4-21.6c0.6-8.4,1.6-17.4,0-25.7c-1.2-6-8.3-6.4-13.5-6.3
			C335.3,545.6,332.3,546.3,330.8,547.9c-1.2,1.2-1.3,2.4,0.9,2.4c3.8-0.1,8.8,0.1,9.8,4.4c1.4,6.4,0.9,13.4,0.5,19.9
			c-0.4,6.2-1.1,12.3-1.3,18.5c-0.3,6.9,1.9,13.6,1.6,20.4c-0.1,2-0.4,4-1.2,5.9c-0.5,1.2-1.2,2.1-1.7,3.3c-0.6,1.3-1.9,0.8,0.3,0.7
			c-2.9,0.2-6-0.9-8.8-1.5c-2.8-0.6-5.4-0.8-8.2-0.3c-2.8,0.5-7.7,3.3-9.9,1c-1.9-2.2-1.1-5.8-2-8.4c-0.9-2.5-2.8-4.5-4.7-6.4
			c-1.7-1.6-3.3-3-3.7-5.4c-0.7-3.6,0.9-8,2.1-11.3c6.2-17.4,21.1-30.5,33.9-43.1C341.9,544.4,332.5,546.3,330.8,547.9L330.8,547.9z
			"/>
	</g>
	<g>
		<path fill="#E04D4D" d="M481.8,520.6c17.6,8.1,41.1,17.7,51.6,35.2c5.9,8.9-1.3,10.2-1.7,19c-0.2,2.5,2.5,7,0.5,9.9
			c-1.9,3.4-10.3,1.5-14.3,3.4c-8,3.9-14.1,12.1-22.6,2.4c-5.4-5.9-5.2-15.3-7.7-22.3c-2.1-6.5-14.1-28.7-15.2-40.2
			C472.1,523.8,481.8,520.6,481.8,520.6"/>
		<path fill="#FFFFFF" d="M479.8,522.5c13.5,6.2,27.8,11.9,39.2,21.7c4.3,3.7,12.6,11.1,11.9,17.3c-0.3,2.4-2,4.6-2.8,6.8
			c-1.2,3.1-1.2,5.9-0.5,9.1c0.8,3.7,0.9,6.2-3.3,6.7c-3.1,0.4-6.2,0.1-9.1,1.1c-2.6,0.9-5,2.7-7.3,4.2c-1.2,0.8-3.2,2.3-4.7,2.5
			c-2.3,0.4-3.7-1.5-5-3.5c-3.8-5.9-3.6-13.7-6-20.2c-1.7-4.7-4-9.3-6.1-13.9c-3.1-6.8-6.2-13.7-8-21c-0.8-3.2-1.3-5.3,1.6-7.4
			c1.7-1.3,3.9-2.1,5.9-2.8c2.2-0.8,0.5-3-0.7-3.8c-1.8-1.3-4.6-2-6.8-1.3c-4.1,1.4-10.3,4-10.4,9c-0.1,7.1,4.2,15.1,6.9,21.5
			c2.7,6.2,6,12.3,8.2,18.7c2.7,8.1,2.5,17.1,8.5,23.8c5.3,5.9,13.3,8.6,20.7,5.1c3.6-1.7,6.7-4.9,10.6-6c3.5-1,7.3-0.1,10.8-1.4
			c3-1.1,4.4-3.2,4.3-6.4c-0.2-4.6-1.8-7.5,0.2-12.1c1.2-2.7,2.8-5.1,2.5-8.3c-0.4-4-3.4-7.7-5.7-10.8c-12.7-16.2-32.9-24.3-51-32.6
			c-1.4-0.6-5.2-1.9-6.4-0.2C476.2,520.2,478.3,521.8,479.8,522.5L479.8,522.5z"/>
	</g>
	<ellipse fill="#FFFFFF" cx="195.9" cy="335.2" rx="5" ry="4.3"/>
	<ellipse fill="#FFFFFF" cx="168.9" cy="336.9" rx="4.7" ry="4"/>
	<ellipse fill="#FFFFFF" cx="179.3" cy="357.5" rx="5.7" ry="4.7"/>
	<ellipse fill="#FFFFFF" cx="548.6" cy="267.5" rx="4.3" ry="4.7"/>
	<circle fill="#FFFFFF" cx="566.3" cy="260.9" r="4.7"/>
	<ellipse fill="#FFFFFF" cx="563.6" cy="282.9" rx="6" ry="5.3"/>
	<circle fill="#FFFFFF" cx="569.9" cy="600.5" r="6.3"/>
	<ellipse fill="#FFFFFF" cx="548.3" cy="606.5" rx="5.3" ry="5"/>
	<ellipse fill="#FFFFFF" cx="565.9" cy="626.2" rx="7" ry="6.7"/>
	<circle fill="#FFFFFF" cx="284.9" cy="650.9" r="5.3"/>
	<ellipse fill="#FFFFFF" cx="294.3" cy="672.9" rx="6.7" ry="7"/>
	<circle fill="#FFFFFF" cx="311.3" cy="653.5" r="6"/>
</g>
</svg>
