<?xml version="1.0" encoding="utf-8"?>
<!-- Generator: Adobe Illustrator 18.1.1, SVG Export Plug-In . SVG Version: 6.00 Build 0)  -->
<svg version="1.1" id="Layer_1" xmlns="http://www.w3.org/2000/svg" xmlns:xlink="http://www.w3.org/1999/xlink" x="0px" y="0px"
	 viewBox="0 0 790.4 920" enable-background="new 0 0 790.4 920" xml:space="preserve">
<g>
	<polygon fill="#60BE79" points="770.8,676.9 395.2,893.7 19.6,676.9 19.6,243.2 395.2,26.3 770.8,243.2 	"/>
	<path d="M395.2,916.3L0,688.2V231.9L395.2,3.7l395.2,228.2v456.3L395.2,916.3z M39.2,665.6l356.1,205.5l356.1-205.5V254.5
		L395.2,48.9L39.2,254.5V665.6z"/>
</g>
<g>
	<g>
		<path d="M337.9,314.8v-36.3c0-5.5,4.6-9.9,10.2-9.9h100.2c5.7,0,10.2,4.4,10.2,9.9v36.3"/>
		<path fill="#60BE79" d="M439.8,329.7c0,3.6-82.9,3.6-82.9,0v-38.4c0-3.6,3.6-6.5,8-6.5h66.9c4.4,0,8,2.9,8,6.5V329.7z"/>
		<circle cx="347.4" cy="314.7" r="9.5"/>
		<circle cx="449.2" cy="314.7" r="9.5"/>
	</g>
	<path d="M606.5,617.5c0,3.4-2.7,6.1-6.1,6.1H196.2c-3.4,0-6.1-2.7-6.1-6.1V332.8c0-3.4,2.7-6.1,6.1-6.1h404.2
		c3.4,0,6.1,2.7,6.1,6.1V617.5z"/>
	<rect x="235.3" y="323.6" fill="#FFFFFF" width="43" height="6.8"/>
	<rect x="518.3" y="322.9" fill="#FFFFFF" width="43" height="6.8"/>
	<rect x="242.1" y="329.6" fill="#FFFFFF" width="29" height="2.7"/>
	<rect x="525.3" y="329.6" fill="#FFFFFF" width="29" height="2.7"/>
	<rect x="338.1" y="324.1" fill="#FFFFFF" width="18.8" height="5.6"/>
	<rect x="440.2" y="323.8" fill="#FFFFFF" width="18.8" height="5.6"/>
	<rect x="247.7" y="320.2" fill="#FFFFFF" width="18.8" height="5.6"/>
	<rect x="530.2" y="320.1" fill="#FFFFFF" width="18.8" height="5.6"/>
</g>
</svg>
