<?xml version="1.0" encoding="utf-8"?>
<!-- Generator: Adobe Illustrator 18.1.1, SVG Export Plug-In . SVG Version: 6.00 Build 0)  -->
<svg version="1.1" id="Layer_1" xmlns="http://www.w3.org/2000/svg" xmlns:xlink="http://www.w3.org/1999/xlink" x="0px" y="0px"
	 viewBox="0 0 790.4 920" enable-background="new 0 0 790.4 920" xml:space="preserve">
<g>
	<polygon fill="#DD62BD" points="770.8,676.9 395.2,893.7 19.6,676.9 19.6,243.2 395.2,26.3 770.8,243.2 	"/>
	<path d="M395.2,916.3L0,688.2V231.9L395.2,3.7l395.2,228.2v456.3L395.2,916.3z M39.2,665.6l356.1,205.5l356.1-205.5V254.5
		L395.2,48.9L39.2,254.5V665.6z"/>
</g>
<g>
	<defs>
		<rect id="SVGID_1_" x="164.9" y="313.6" width="479" height="295.3"/>
	</defs>
	<clipPath id="SVGID_2_">
		<use xlink:href="#SVGID_1_"  overflow="visible"/>
	</clipPath>
	<rect x="164.9" y="313.6" clip-path="url(#SVGID_2_)" width="479" height="295.3"/>
	<path clip-path="url(#SVGID_2_)" fill="#FFFFFF" d="M309.4,537.2c-3.8,0-6.8-3.1-6.8-6.8c0-3.8,3.1-6.8,6.8-6.8
		c3.8,0,6.8,3.1,6.8,6.8C316.3,534.1,313.2,537.2,309.4,537.2z M309.4,526.5c-2.1,0-3.8,1.7-3.8,3.8c0,2.1,1.7,3.8,3.8,3.8
		c2.1,0,3.8-1.7,3.8-3.8C313.3,528.3,311.5,526.5,309.4,526.5z"/>
	<path clip-path="url(#SVGID_2_)" fill="#FFFFFF" d="M230.5,537.2c-3.8,0-6.8-3.1-6.8-6.8c0-3.8,3.1-6.8,6.8-6.8
		c3.8,0,6.8,3.1,6.8,6.8C237.4,534.1,234.3,537.2,230.5,537.2z M230.5,526.5c-2.1,0-3.8,1.7-3.8,3.8c0,2.1,1.7,3.8,3.8,3.8
		c2.1,0,3.8-1.7,3.8-3.8C234.4,528.3,232.7,526.5,230.5,526.5z"/>
	<path clip-path="url(#SVGID_2_)" fill="#FFFFFF" d="M309.4,514.1c-3.8,0-6.8-3.1-6.8-6.8c0-3.8,3.1-6.8,6.8-6.8
		c3.8,0,6.8,3.1,6.8,6.8C316.3,511,313.2,514.1,309.4,514.1z M309.4,503.4c-2.1,0-3.8,1.7-3.8,3.8c0,2.1,1.7,3.8,3.8,3.8
		c2.1,0,3.8-1.7,3.8-3.8C313.3,505.1,311.5,503.4,309.4,503.4z"/>
	<path clip-path="url(#SVGID_2_)" fill="#FFFFFF" d="M230.5,514.1c-3.8,0-6.8-3.1-6.8-6.8c0-3.8,3.1-6.8,6.8-6.8
		c3.8,0,6.8,3.1,6.8,6.8C237.4,511,234.3,514.1,230.5,514.1z M230.5,503.4c-2.1,0-3.8,1.7-3.8,3.8c0,2.1,1.7,3.8,3.8,3.8
		c2.1,0,3.8-1.7,3.8-3.8C234.4,505.1,232.7,503.4,230.5,503.4z"/>
	<path clip-path="url(#SVGID_2_)" fill="#FFFFFF" d="M309.4,558.9c-3.8,0-6.8-3.1-6.8-6.8c0-3.8,3.1-6.8,6.8-6.8
		c3.8,0,6.8,3.1,6.8,6.8C316.3,555.9,313.2,558.9,309.4,558.9z M309.4,548.3c-2.1,0-3.8,1.7-3.8,3.8c0,2.1,1.7,3.8,3.8,3.8
		c2.1,0,3.8-1.7,3.8-3.8C313.3,550,311.5,548.3,309.4,548.3z"/>
	<path clip-path="url(#SVGID_2_)" fill="#FFFFFF" d="M344.5,558.9c-3.8,0-6.8-3.1-6.8-6.8c0-3.8,3.1-6.8,6.8-6.8
		c3.8,0,6.8,3.1,6.8,6.8C351.4,555.9,348.3,558.9,344.5,558.9z M344.5,548.3c-2.1,0-3.8,1.7-3.8,3.8c0,2.1,1.7,3.8,3.8,3.8
		c2.1,0,3.8-1.7,3.8-3.8C348.4,550,346.7,548.3,344.5,548.3z"/>
	<path clip-path="url(#SVGID_2_)" fill="#FFFFFF" d="M344.5,537.2c-3.8,0-6.8-3.1-6.8-6.8c0-3.8,3.1-6.8,6.8-6.8
		c3.8,0,6.8,3.1,6.8,6.8C351.4,534.1,348.3,537.2,344.5,537.2z M344.5,526.5c-2.1,0-3.8,1.7-3.8,3.8c0,2.1,1.7,3.8,3.8,3.8
		c2.1,0,3.8-1.7,3.8-3.8C348.4,528.3,346.7,526.5,344.5,526.5z"/>
	<path clip-path="url(#SVGID_2_)" fill="#FFFFFF" d="M252.9,582.4c-3.8,0-6.8-3.1-6.8-6.8c0-3.8,3.1-6.8,6.8-6.8
		c3.8,0,6.8,3.1,6.8,6.8C259.7,579.4,256.6,582.4,252.9,582.4z M252.9,571.8c-2.1,0-3.8,1.7-3.8,3.8c0,2.1,1.7,3.8,3.8,3.8
		c2.1,0,3.8-1.7,3.8-3.8C256.7,573.5,255,571.8,252.9,571.8z"/>
	<path clip-path="url(#SVGID_2_)" fill="#FFFFFF" d="M252.9,604.4c-3.8,0-6.8-3.1-6.8-6.8c0-3.8,3.1-6.8,6.8-6.8
		c3.8,0,6.8,3.1,6.8,6.8C259.7,601.4,256.6,604.4,252.9,604.4z M252.9,593.8c-2.1,0-3.8,1.7-3.8,3.8c0,2.1,1.7,3.8,3.8,3.8
		c2.1,0,3.8-1.7,3.8-3.8C256.7,595.5,255,593.8,252.9,593.8z"/>
	<path clip-path="url(#SVGID_2_)" fill="#FFFFFF" d="M207.2,563.1c-3.8,0-6.8-3.1-6.8-6.8c0-3.8,3.1-6.8,6.8-6.8
		c3.8,0,6.8,3.1,6.8,6.8C214,560,211,563.1,207.2,563.1z M207.2,552.4c-2.1,0-3.8,1.7-3.8,3.8c0,2.1,1.7,3.8,3.8,3.8
		c2.1,0,3.8-1.7,3.8-3.8C211,554.2,209.3,552.4,207.2,552.4z"/>
	<path clip-path="url(#SVGID_2_)" fill="#FFFFFF" d="M473.9,543.1c-3.8,0-6.8-3.1-6.8-6.8c0-3.8,3.1-6.8,6.8-6.8
		c3.8,0,6.8,3.1,6.8,6.8C480.7,540,477.6,543.1,473.9,543.1z M473.9,532.4c-2.1,0-3.8,1.7-3.8,3.8c0,2.1,1.7,3.8,3.8,3.8
		c2.1,0,3.8-1.7,3.8-3.8C477.7,534.1,476,532.4,473.9,532.4z"/>
	<path clip-path="url(#SVGID_2_)" fill="#FFFFFF" d="M497,543.1c-3.8,0-6.8-3.1-6.8-6.8c0-3.8,3.1-6.8,6.8-6.8
		c3.8,0,6.8,3.1,6.8,6.8C503.8,540,500.8,543.1,497,543.1z M497,532.4c-2.1,0-3.8,1.7-3.8,3.8c0,2.1,1.7,3.8,3.8,3.8
		c2.1,0,3.8-1.7,3.8-3.8C500.8,534.1,499.1,532.4,497,532.4z"/>
	<path clip-path="url(#SVGID_2_)" fill="#FFFFFF" d="M452.1,543.1c-3.8,0-6.8-3.1-6.8-6.8c0-3.8,3.1-6.8,6.8-6.8
		c3.8,0,6.8,3.1,6.8,6.8C459,540,455.9,543.1,452.1,543.1z M452.1,532.4c-2.1,0-3.8,1.7-3.8,3.8c0,2.1,1.7,3.8,3.8,3.8
		c2.1,0,3.8-1.7,3.8-3.8C456,534.2,454.3,532.4,452.1,532.4z"/>
	<path clip-path="url(#SVGID_2_)" fill="#FFFFFF" d="M359.9,508.4c-3.8,0-6.8-3.1-6.8-6.8c0-3.8,3.1-6.8,6.8-6.8
		c3.8,0,6.8,3.1,6.8,6.8C366.7,505.4,363.6,508.4,359.9,508.4z M359.9,497.8c-2.1,0-3.8,1.7-3.8,3.8c0,2.1,1.7,3.8,3.8,3.8
		c2.1,0,3.8-1.7,3.8-3.8C363.7,499.5,362,497.8,359.9,497.8z"/>
	<path clip-path="url(#SVGID_2_)" fill="#FFFFFF" d="M383,508.4c-3.8,0-6.8-3.1-6.8-6.8c0-3.8,3.1-6.8,6.8-6.8
		c3.8,0,6.8,3.1,6.8,6.8C389.8,505.4,386.8,508.4,383,508.4z M383,497.8c-2.1,0-3.8,1.7-3.8,3.8c0,2.1,1.7,3.8,3.8,3.8
		c2.1,0,3.8-1.7,3.8-3.8C386.8,499.5,385.1,497.8,383,497.8z"/>
	<path clip-path="url(#SVGID_2_)" fill="#FFFFFF" d="M338.1,508.4c-3.8,0-6.8-3.1-6.8-6.8c0-3.8,3.1-6.8,6.8-6.8
		c3.8,0,6.8,3.1,6.8,6.8C345,505.4,341.9,508.4,338.1,508.4z M338.1,497.8c-2.1,0-3.8,1.7-3.8,3.8c0,2.1,1.7,3.8,3.8,3.8
		c2.1,0,3.8-1.7,3.8-3.8C342,499.5,340.3,497.8,338.1,497.8z"/>
	<path clip-path="url(#SVGID_2_)" fill="#FFFFFF" d="M428.5,468.4c-3.8,0-6.8-3.1-6.8-6.8c0-3.8,3.1-6.8,6.8-6.8
		c3.8,0,6.8,3.1,6.8,6.8C435.4,465.4,432.3,468.4,428.5,468.4z M428.5,457.8c-2.1,0-3.8,1.7-3.8,3.8c0,2.1,1.7,3.8,3.8,3.8
		c2.1,0,3.8-1.7,3.8-3.8C432.4,459.5,430.7,457.8,428.5,457.8z"/>
	<path clip-path="url(#SVGID_2_)" fill="#FFFFFF" d="M451.6,468.4c-3.8,0-6.8-3.1-6.8-6.8c0-3.8,3.1-6.8,6.8-6.8
		c3.8,0,6.8,3.1,6.8,6.8C458.5,465.4,455.4,468.4,451.6,468.4z M451.6,457.8c-2.1,0-3.8,1.7-3.8,3.8c0,2.1,1.7,3.8,3.8,3.8
		c2.1,0,3.8-1.7,3.8-3.8C455.5,459.5,453.8,457.8,451.6,457.8z"/>
	<path clip-path="url(#SVGID_2_)" fill="#FFFFFF" d="M406.8,468.4c-3.8,0-6.8-3.1-6.8-6.8c0-3.8,3.1-6.8,6.8-6.8
		c3.8,0,6.8,3.1,6.8,6.8C413.6,465.4,410.6,468.4,406.8,468.4z M406.8,457.8c-2.1,0-3.8,1.7-3.8,3.8c0,2.1,1.7,3.8,3.8,3.8
		c2.1,0,3.8-1.7,3.8-3.8C410.6,459.5,408.9,457.8,406.8,457.8z"/>
	<path clip-path="url(#SVGID_2_)" fill="#FFFFFF" d="M230.5,424.4c-3.8,0-6.8-3.1-6.8-6.8c0-3.8,3.1-6.8,6.8-6.8
		c3.8,0,6.8,3.1,6.8,6.8C237.4,421.4,234.3,424.4,230.5,424.4z M230.5,413.8c-2.1,0-3.8,1.7-3.8,3.8c0,2.1,1.7,3.8,3.8,3.8
		c2.1,0,3.8-1.7,3.8-3.8C234.4,415.5,232.7,413.8,230.5,413.8z"/>
	<path clip-path="url(#SVGID_2_)" fill="#FFFFFF" d="M230.5,401.3c-3.8,0-6.8-3.1-6.8-6.8c0-3.8,3.1-6.8,6.8-6.8
		c3.8,0,6.8,3.1,6.8,6.8C237.4,398.3,234.3,401.3,230.5,401.3z M230.5,390.7c-2.1,0-3.8,1.7-3.8,3.8c0,2.1,1.7,3.8,3.8,3.8
		c2.1,0,3.8-1.7,3.8-3.8C234.4,392.4,232.7,390.7,230.5,390.7z"/>
	<path clip-path="url(#SVGID_2_)" fill="#FFFFFF" d="M230.5,446.2c-3.8,0-6.8-3.1-6.8-6.8c0-3.8,3.1-6.8,6.8-6.8
		c3.8,0,6.8,3.1,6.8,6.8C237.4,443.1,234.3,446.2,230.5,446.2z M230.5,435.5c-2.1,0-3.8,1.7-3.8,3.8c0,2.1,1.7,3.8,3.8,3.8
		c2.1,0,3.8-1.7,3.8-3.8C234.4,437.2,232.7,435.5,230.5,435.5z"/>
	<path clip-path="url(#SVGID_2_)" fill="#FFFFFF" d="M451.2,491.8c-3.8,0-6.8-3.1-6.8-6.8c0-3.8,3.1-6.8,6.8-6.8
		c3.8,0,6.8,3.1,6.8,6.8C458,488.7,455,491.8,451.2,491.8z M451.2,481.1c-2.1,0-3.8,1.7-3.8,3.8c0,2.1,1.7,3.8,3.8,3.8
		c2.1,0,3.8-1.7,3.8-3.8C455,482.8,453.3,481.1,451.2,481.1z"/>
	<path clip-path="url(#SVGID_2_)" fill="#FFFFFF" d="M451.2,513.5c-3.8,0-6.8-3.1-6.8-6.8c0-3.8,3.1-6.8,6.8-6.8
		c3.8,0,6.8,3.1,6.8,6.8C458,510.4,455,513.5,451.2,513.5z M451.2,502.8c-2.1,0-3.8,1.7-3.8,3.8c0,2.1,1.7,3.8,3.8,3.8
		c2.1,0,3.8-1.7,3.8-3.8C455,504.5,453.3,502.8,451.2,502.8z"/>
	<path clip-path="url(#SVGID_2_)" fill="#FFFFFF" d="M594,536.9c-3.8,0-6.8-3.1-6.8-6.8c0-3.8,3.1-6.8,6.8-6.8
		c3.8,0,6.8,3.1,6.8,6.8C600.8,533.8,597.7,536.9,594,536.9z M594,526.2c-2.1,0-3.8,1.7-3.8,3.8c0,2.1,1.7,3.8,3.8,3.8
		c2.1,0,3.8-1.7,3.8-3.8C597.8,528,596.1,526.2,594,526.2z"/>
	<path clip-path="url(#SVGID_2_)" fill="#FFFFFF" d="M594,560.2c-3.8,0-6.8-3.1-6.8-6.8c0-3.8,3.1-6.8,6.8-6.8
		c3.8,0,6.8,3.1,6.8,6.8C600.8,557.2,597.7,560.2,594,560.2z M594,549.6c-2.1,0-3.8,1.7-3.8,3.8c0,2.1,1.7,3.8,3.8,3.8
		c2.1,0,3.8-1.7,3.8-3.8C597.8,551.3,596.1,549.6,594,549.6z"/>
	<path clip-path="url(#SVGID_2_)" fill="#FFFFFF" d="M594,582c-3.8,0-6.8-3.1-6.8-6.8c0-3.8,3.1-6.8,6.8-6.8c3.8,0,6.8,3.1,6.8,6.8
		C600.8,578.9,597.7,582,594,582z M594,571.3c-2.1,0-3.8,1.7-3.8,3.8c0,2.1,1.7,3.8,3.8,3.8c2.1,0,3.8-1.7,3.8-3.8
		C597.8,573,596.1,571.3,594,571.3z"/>
	<path clip-path="url(#SVGID_2_)" fill="#FFFFFF" d="M594,605.1c-3.8,0-6.8-3.1-6.8-6.8c0-3.8,3.1-6.8,6.8-6.8
		c3.8,0,6.8,3.1,6.8,6.8C600.8,602,597.7,605.1,594,605.1z M594,594.4c-2.1,0-3.8,1.7-3.8,3.8c0,2.1,1.7,3.8,3.8,3.8
		c2.1,0,3.8-1.7,3.8-3.8C597.8,596.1,596.1,594.4,594,594.4z"/>
	<path clip-path="url(#SVGID_2_)" fill="#FFFFFF" d="M378,401c-3.8,0-6.8-3.1-6.8-6.8c0-3.8,3.1-6.8,6.8-6.8c3.8,0,6.8,3.1,6.8,6.8
		C384.9,397.9,381.8,401,378,401z M378,390.3c-2.1,0-3.8,1.7-3.8,3.8c0,2.1,1.7,3.8,3.8,3.8c2.1,0,3.8-1.7,3.8-3.8
		C381.9,392,380.2,390.3,378,390.3z"/>
	<path clip-path="url(#SVGID_2_)" fill="#FFFFFF" d="M378,423.7c-3.8,0-6.8-3.1-6.8-6.8c0-3.8,3.1-6.8,6.8-6.8
		c3.8,0,6.8,3.1,6.8,6.8C384.9,420.6,381.8,423.7,378,423.7z M378,413c-2.1,0-3.8,1.7-3.8,3.8c0,2.1,1.7,3.8,3.8,3.8
		c2.1,0,3.8-1.7,3.8-3.8C381.9,414.8,380.2,413,378,413z"/>
	<path clip-path="url(#SVGID_2_)" fill="#FFFFFF" d="M542.5,497.8c-3.8,0-6.8-3.1-6.8-6.8c0-3.8,3.1-6.8,6.8-6.8
		c3.8,0,6.8,3.1,6.8,6.8C549.4,494.7,546.3,497.8,542.5,497.8z M542.5,487.1c-2.1,0-3.8,1.7-3.8,3.8c0,2.1,1.7,3.8,3.8,3.8
		c2.1,0,3.8-1.7,3.8-3.8C546.4,488.8,544.7,487.1,542.5,487.1z"/>
	<path clip-path="url(#SVGID_2_)" fill="#FFFFFF" d="M570.5,469.1c-3.8,0-6.8-3.1-6.8-6.8c0-3.8,3.1-6.8,6.8-6.8
		c3.8,0,6.8,3.1,6.8,6.8C577.4,466,574.3,469.1,570.5,469.1z M570.5,458.4c-2.1,0-3.8,1.7-3.8,3.8c0,2.1,1.7,3.8,3.8,3.8
		c2.1,0,3.8-1.7,3.8-3.8C574.4,460.1,572.7,458.4,570.5,458.4z"/>
	<path clip-path="url(#SVGID_2_)" fill="#FFFFFF" d="M548.5,446.4c-3.8,0-6.8-3.1-6.8-6.8c0-3.8,3.1-6.8,6.8-6.8
		c3.8,0,6.8,3.1,6.8,6.8C555.4,443.4,552.3,446.4,548.5,446.4z M548.5,435.8c-2.1,0-3.8,1.7-3.8,3.8c0,2.1,1.7,3.8,3.8,3.8
		c2.1,0,3.8-1.7,3.8-3.8C552.4,437.5,550.7,435.8,548.5,435.8z"/>
	<path clip-path="url(#SVGID_2_)" fill="#FFFFFF" d="M525.2,423.8c-3.8,0-6.8-3.1-6.8-6.8c0-3.8,3.1-6.8,6.8-6.8
		c3.8,0,6.8,3.1,6.8,6.8C532,420.7,529,423.8,525.2,423.8z M525.2,413.1c-2.1,0-3.8,1.7-3.8,3.8c0,2.1,1.7,3.8,3.8,3.8
		c2.1,0,3.8-1.7,3.8-3.8C529,414.8,527.3,413.1,525.2,413.1z"/>
	<path clip-path="url(#SVGID_2_)" fill="#FFFFFF" d="M503.2,401.1c-3.8,0-6.8-3.1-6.8-6.8c0-3.8,3.1-6.8,6.8-6.8
		c3.8,0,6.8,3.1,6.8,6.8C510,398,507,401.1,503.2,401.1z M503.2,390.4c-2.1,0-3.8,1.7-3.8,3.8c0,2.1,1.7,3.8,3.8,3.8
		c2.1,0,3.8-1.7,3.8-3.8C507,392.1,505.3,390.4,503.2,390.4z"/>
	<path clip-path="url(#SVGID_2_)" fill="#FFFFFF" d="M479.9,377.8c-3.8,0-6.8-3.1-6.8-6.8c0-3.8,3.1-6.8,6.8-6.8
		c3.8,0,6.8,3.1,6.8,6.8C486.7,374.7,483.6,377.8,479.9,377.8z M479.9,367.1c-2.1,0-3.8,1.7-3.8,3.8c0,2.1,1.7,3.8,3.8,3.8
		c2.1,0,3.8-1.7,3.8-3.8C483.7,368.8,482,367.1,479.9,367.1z"/>
	<path clip-path="url(#SVGID_2_)" fill="#FFFFFF" d="M525.9,378.4c-3.8,0-6.8-3.1-6.8-6.8c0-3.8,3.1-6.8,6.8-6.8
		c3.8,0,6.8,3.1,6.8,6.8C532.7,375.4,529.6,378.4,525.9,378.4z M525.9,367.8c-2.1,0-3.8,1.7-3.8,3.8c0,2.1,1.7,3.8,3.8,3.8
		c2.1,0,3.8-1.7,3.8-3.8C529.7,369.5,528,367.8,525.9,367.8z"/>
	<path clip-path="url(#SVGID_2_)" fill="#FFFFFF" d="M570.5,429.1c-3.8,0-6.8-3.1-6.8-6.8c0-3.8,3.1-6.8,6.8-6.8
		c3.8,0,6.8,3.1,6.8,6.8C577.4,426,574.3,429.1,570.5,429.1z M570.5,418.4c-2.1,0-3.8,1.7-3.8,3.8c0,2.1,1.7,3.8,3.8,3.8
		c2.1,0,3.8-1.7,3.8-3.8C574.4,420.1,572.7,418.4,570.5,418.4z"/>
	<path clip-path="url(#SVGID_2_)" fill="#FFFFFF" d="M548.5,401.1c-3.8,0-6.8-3.1-6.8-6.8c0-3.8,3.1-6.8,6.8-6.8
		c3.8,0,6.8,3.1,6.8,6.8C555.4,398,552.3,401.1,548.5,401.1z M548.5,390.4c-2.1,0-3.8,1.7-3.8,3.8c0,2.1,1.7,3.8,3.8,3.8
		c2.1,0,3.8-1.7,3.8-3.8C552.4,392.1,550.7,390.4,548.5,390.4z"/>
	<path clip-path="url(#SVGID_2_)" fill="#FFFFFF" d="M383.6,372.4c-3.8,0-6.8-3.1-6.8-6.8c0-3.8,3.1-6.8,6.8-6.8
		c3.8,0,6.8,3.1,6.8,6.8C390.4,369.4,387.4,372.4,383.6,372.4z M383.6,361.8c-2.1,0-3.8,1.7-3.8,3.8c0,2.1,1.7,3.8,3.8,3.8
		c2.1,0,3.8-1.7,3.8-3.8C387.4,363.5,385.7,361.8,383.6,361.8z"/>
	<path clip-path="url(#SVGID_2_)" fill="#FFFFFF" d="M361.9,372.4c-3.8,0-6.8-3.1-6.8-6.8c0-3.8,3.1-6.8,6.8-6.8
		c3.8,0,6.8,3.1,6.8,6.8C368.7,369.4,365.6,372.4,361.9,372.4z M361.9,361.8c-2.1,0-3.8,1.7-3.8,3.8c0,2.1,1.7,3.8,3.8,3.8
		c2.1,0,3.8-1.7,3.8-3.8C365.7,363.5,364,361.8,361.9,361.8z"/>
	<path clip-path="url(#SVGID_2_)" fill="#FFFFFF" d="M212.5,496.8c-3.8,0-6.8-3.1-6.8-6.8c0-3.8,3.1-6.8,6.8-6.8
		c3.8,0,6.8,3.1,6.8,6.8C219.4,493.7,216.3,496.8,212.5,496.8z M212.5,486.1c-2.1,0-3.8,1.7-3.8,3.8c0,2.1,1.7,3.8,3.8,3.8
		c2.1,0,3.8-1.7,3.8-3.8C216.4,487.8,214.7,486.1,212.5,486.1z"/>
	<path clip-path="url(#SVGID_2_)" fill="#FFFFFF" d="M212.5,469.3c-3.8,0-6.8-3.1-6.8-6.8c0-3.8,3.1-6.8,6.8-6.8
		c3.8,0,6.8,3.1,6.8,6.8C219.4,466.3,216.3,469.3,212.5,469.3z M212.5,458.7c-2.1,0-3.8,1.7-3.8,3.8c0,2.1,1.7,3.8,3.8,3.8
		c2.1,0,3.8-1.7,3.8-3.8C216.4,460.4,214.7,458.7,212.5,458.7z"/>
	<path clip-path="url(#SVGID_2_)" fill="#FFFFFF" d="M316.2,360.8c-3.8,0-6.8-3.1-6.8-6.8c0-3.8,3.1-6.8,6.8-6.8
		c3.8,0,6.8,3.1,6.8,6.8C323,357.7,320,360.8,316.2,360.8z M316.2,350.1c-2.1,0-3.8,1.7-3.8,3.8c0,2.1,1.7,3.8,3.8,3.8
		c2.1,0,3.8-1.7,3.8-3.8C320,351.8,318.3,350.1,316.2,350.1z"/>
	<path clip-path="url(#SVGID_2_)" fill="#FFFFFF" d="M212.5,422.4c-3.8,0-6.8-3.1-6.8-6.8c0-3.8,3.1-6.8,6.8-6.8
		c3.8,0,6.8,3.1,6.8,6.8C219.4,419.4,216.3,422.4,212.5,422.4z M212.5,411.8c-2.1,0-3.8,1.7-3.8,3.8c0,2.1,1.7,3.8,3.8,3.8
		c2.1,0,3.8-1.7,3.8-3.8C216.4,413.5,214.7,411.8,212.5,411.8z"/>
	<path clip-path="url(#SVGID_2_)" fill="#FFFFFF" d="M208.5,377.8c-3.8,0-6.8-3.1-6.8-6.8c0-3.8,3.1-6.8,6.8-6.8
		c3.8,0,6.8,3.1,6.8,6.8C215.4,374.7,212.3,377.8,208.5,377.8z M208.5,367.1c-2.1,0-3.8,1.7-3.8,3.8c0,2.1,1.7,3.8,3.8,3.8
		c2.1,0,3.8-1.7,3.8-3.8C212.4,368.8,210.7,367.1,208.5,367.1z"/>
	<polygon clip-path="url(#SVGID_2_)" fill="#FFFFFF" points="384.7,496.3 381.7,496.3 381.7,440.4 291,440.4 291,372.4 213.9,372.4 
		213.9,369.4 294,369.4 294,437.4 384.7,437.4 	"/>
	<polygon clip-path="url(#SVGID_2_)" fill="#FFFFFF" points="362,496.3 359,496.3 359,463.1 268.4,463.1 268.4,396 235.9,396 
		235.9,393 271.4,393 271.4,460.1 362,460.1 	"/>
	<polygon clip-path="url(#SVGID_2_)" fill="#FFFFFF" points="340,496.3 337,496.3 337,485.8 245.7,485.8 245.7,419.1 235.9,419.1 
		235.9,416.1 248.7,416.1 248.7,482.8 340,482.8 	"/>
	<polygon clip-path="url(#SVGID_2_)" fill="#FFFFFF" points="232,491.1 217.9,491.1 217.9,488.1 229,488.1 229,444.7 232,444.7 	"/>
	<rect x="235.9" y="505.8" clip-path="url(#SVGID_2_)" fill="#FFFFFF" width="68.2" height="3"/>
	<rect x="235.9" y="528.9" clip-path="url(#SVGID_2_)" fill="#FFFFFF" width="68.2" height="3"/>
	<polygon clip-path="url(#SVGID_2_)" fill="#FFFFFF" points="225.4,615.3 222.4,615.3 222.4,550.6 304.1,550.6 304.1,553.6 
		225.4,553.6 	"/>
	<rect x="205.7" y="561.6" clip-path="url(#SVGID_2_)" fill="#FFFFFF" width="3" height="52.3"/>
	<polygon clip-path="url(#SVGID_2_)" fill="#FFFFFF" points="430,612.9 427,612.9 427,577.1 258.2,577.1 258.2,574.1 430,574.1 	"/>
	<polygon clip-path="url(#SVGID_2_)" fill="#FFFFFF" points="408,611.3 405,611.3 405,599.1 258.2,599.1 258.2,596.1 408,596.1 	"/>
	<polygon clip-path="url(#SVGID_2_)" fill="#FFFFFF" points="429.4,553.6 349.9,553.6 349.9,550.6 426.4,550.6 426.4,506.1 
		445.9,506.1 445.9,509.1 429.4,509.1 	"/>
	<polygon clip-path="url(#SVGID_2_)" fill="#FFFFFF" points="407.4,531.8 349.9,531.8 349.9,528.8 404.4,528.8 404.4,483.4 
		445.9,483.4 445.9,486.4 407.4,486.4 	"/>
	<polygon clip-path="url(#SVGID_2_)" fill="#FFFFFF" points="372.7,417.8 314.7,417.8 314.7,359.3 317.7,359.3 317.7,414.8 
		372.7,414.8 	"/>
	<rect x="360.4" y="304.6" clip-path="url(#SVGID_2_)" fill="#FFFFFF" width="3" height="55.7"/>
	<path clip-path="url(#SVGID_2_)" fill="#FFFFFF" d="M287.2,355.1c-3.8,0-6.8-3.1-6.8-6.8c0-3.8,3.1-6.8,6.8-6.8
		c3.8,0,6.8,3.1,6.8,6.8C294,352,291,355.1,287.2,355.1z M287.2,344.4c-2.1,0-3.8,1.7-3.8,3.8c0,2.1,1.7,3.8,3.8,3.8
		c2.1,0,3.8-1.7,3.8-3.8C291,346.2,289.3,344.4,287.2,344.4z"/>
	<polygon clip-path="url(#SVGID_2_)" fill="#FFFFFF" points="372.7,395.8 336.4,395.8 336.4,327.8 288.7,327.8 288.7,342.9 
		285.7,342.9 285.7,324.8 339.4,324.8 339.4,392.8 372.7,392.8 	"/>
	<path clip-path="url(#SVGID_2_)" fill="#FFFFFF" d="M264.5,348.4c-3.8,0-6.8-3.1-6.8-6.8c0-3.8,3.1-6.8,6.8-6.8
		c3.8,0,6.8,3.1,6.8,6.8C271.4,345.4,268.3,348.4,264.5,348.4z M264.5,337.8c-2.1,0-3.8,1.7-3.8,3.8c0,2.1,1.7,3.8,3.8,3.8
		c2.1,0,3.8-1.7,3.8-3.8C268.4,339.5,266.7,337.8,264.5,337.8z"/>
	<polygon clip-path="url(#SVGID_2_)" fill="#FFFFFF" points="214,410.3 211,410.3 211,404.2 171.4,364.6 171.4,339.4 259.2,339.4 
		259.2,342.4 174.4,342.4 174.4,363.3 214,403 	"/>
	<polygon clip-path="url(#SVGID_2_)" fill="#FFFFFF" points="385.1,360.3 382.1,360.3 382.1,324.1 475.2,324.1 475.2,327.1 
		385.1,327.1 	"/>
	<path clip-path="url(#SVGID_2_)" fill="#FFFFFF" d="M480.2,332.4c-3.8,0-6.8-3.1-6.8-6.8c0-3.8,3.1-6.8,6.8-6.8
		c3.8,0,6.8,3.1,6.8,6.8C487,329.4,484,332.4,480.2,332.4z M480.2,321.8c-2.1,0-3.8,1.7-3.8,3.8c0,2.1,1.7,3.8,3.8,3.8
		c2.1,0,3.8-1.7,3.8-3.8C484,323.5,482.3,321.8,480.2,321.8z"/>
	<polygon clip-path="url(#SVGID_2_)" fill="#FFFFFF" points="408.3,456.3 405.3,456.3 405.3,347.4 501.7,347.4 501.7,308.9 
		504.7,308.9 504.7,350.4 408.3,350.4 	"/>
	<polygon clip-path="url(#SVGID_2_)" fill="#FFFFFF" points="430.7,456.3 427.7,456.3 427.7,369.4 474.5,369.4 474.5,372.4 
		430.7,372.4 	"/>
	<polygon clip-path="url(#SVGID_2_)" fill="#FFFFFF" points="453.4,456.3 450.4,456.3 450.4,392.8 497.9,392.8 497.9,395.8 
		453.4,395.8 	"/>
	<rect x="450.6" y="541.6" clip-path="url(#SVGID_2_)" fill="#FFFFFF" width="3" height="70.3"/>
	<rect x="472.4" y="541.6" clip-path="url(#SVGID_2_)" fill="#FFFFFF" width="3" height="70.3"/>
	<rect x="495.5" y="541.6" clip-path="url(#SVGID_2_)" fill="#FFFFFF" width="3" height="71"/>
	<polygon clip-path="url(#SVGID_2_)" fill="#FFFFFF" points="214.9,457.2 211.9,457.2 211.9,445.4 149.4,382.9 149.4,347.3 
		152.4,347.3 152.4,381.6 214.9,444.1 	"/>
	<polygon clip-path="url(#SVGID_2_)" fill="#FFFFFF" points="498.7,508.4 473,508.4 473,415.4 519.9,415.4 519.9,418.4 476,418.4 
		476,505.4 495.7,505.4 495.7,437.4 543.2,437.4 543.2,440.4 498.7,440.4 	"/>
	<polygon clip-path="url(#SVGID_2_)" fill="#FFFFFF" points="521.4,613.9 518.4,613.9 518.4,460.8 565.2,460.8 565.2,463.8 
		521.4,463.8 	"/>
	<rect x="541" y="496.3" clip-path="url(#SVGID_2_)" fill="#FFFFFF" width="3" height="117"/>
	<polygon clip-path="url(#SVGID_2_)" fill="#FFFFFF" points="566.7,612.6 563.7,612.6 563.7,505.4 667.9,505.4 667.9,508.4 
		566.7,508.4 	"/>
	<polygon clip-path="url(#SVGID_2_)" fill="#FFFFFF" points="690.5,485.8 591.7,485.8 591.7,423.8 575.9,423.8 575.9,420.8 
		594.7,420.8 594.7,482.8 690.5,482.8 	"/>
	<rect x="599.3" y="528.6" clip-path="url(#SVGID_2_)" fill="#FFFFFF" width="101.2" height="3"/>
	<rect x="599.3" y="551.9" clip-path="url(#SVGID_2_)" fill="#FFFFFF" width="79.9" height="3"/>
	<rect x="599.3" y="573.6" clip-path="url(#SVGID_2_)" fill="#FFFFFF" width="55.9" height="3"/>
	<polygon clip-path="url(#SVGID_2_)" fill="#FFFFFF" points="634.7,612.9 631.7,612.9 631.7,599.8 599.3,599.8 599.3,596.8 
		634.7,596.8 	"/>
	<polygon clip-path="url(#SVGID_2_)" fill="#FFFFFF" points="186.7,613.3 183.7,613.3 183.7,549.1 195,533.8 195,468.2 146.2,419.4 
		148.4,417.3 198,467 198,534.8 186.7,550.1 	"/>
	<polygon clip-path="url(#SVGID_2_)" fill="#FFFFFF" points="712.5,463.1 615,463.1 615,395.8 553.9,395.8 553.9,392.8 618,392.8 
		618,460.1 712.5,460.1 	"/>
	<polygon clip-path="url(#SVGID_2_)" fill="#FFFFFF" points="741.2,440.4 636.4,440.4 636.4,382.9 626.6,373.1 531.2,373.1 
		531.2,370.1 627.8,370.1 639.4,381.6 639.4,437.4 741.2,437.4 	"/>
	<polygon clip-path="url(#SVGID_2_)" fill="#FFFFFF" points="740.5,417.8 659.4,417.8 659.4,370.6 637.9,349.1 524.4,349.1 
		524.4,308.3 527.4,308.3 527.4,346.1 639.2,346.1 662.4,369.3 662.4,414.8 740.5,414.8 	"/>
	<path clip-path="url(#SVGID_2_)" fill="#FFFFFF" d="M179.1,522.2c-3.8,0-6.8-3.1-6.8-6.8c0-3.8,3.1-6.8,6.8-6.8
		c3.8,0,6.8,3.1,6.8,6.8C185.9,519.1,182.9,522.2,179.1,522.2z M179.1,511.5c-2.1,0-3.8,1.7-3.8,3.8c0,2.1,1.7,3.8,3.8,3.8
		c2.1,0,3.8-1.7,3.8-3.8C182.9,513.3,181.2,511.5,179.1,511.5z"/>
	<path clip-path="url(#SVGID_2_)" fill="#FFFFFF" d="M179.1,499.1c-3.8,0-6.8-3.1-6.8-6.8c0-3.8,3.1-6.8,6.8-6.8
		c3.8,0,6.8,3.1,6.8,6.8C185.9,496,182.9,499.1,179.1,499.1z M179.1,488.4c-2.1,0-3.8,1.7-3.8,3.8c0,2.1,1.7,3.8,3.8,3.8
		c2.1,0,3.8-1.7,3.8-3.8C182.9,490.2,181.2,488.4,179.1,488.4z"/>
	<rect x="105.5" y="490.8" clip-path="url(#SVGID_2_)" fill="#FFFFFF" width="68.2" height="3"/>
	<rect x="105.5" y="513.9" clip-path="url(#SVGID_2_)" fill="#FFFFFF" width="68.2" height="3"/>
	<rect x="553.2" y="323.1" clip-path="url(#SVGID_2_)" fill="#FFFFFF" width="102.7" height="3"/>
	<path clip-path="url(#SVGID_2_)" fill="#FFFFFF" d="M548.2,331.4c-3.8,0-6.8-3.1-6.8-6.8c0-3.8,3.1-6.8,6.8-6.8
		c3.8,0,6.8,3.1,6.8,6.8C555,328.4,552,331.4,548.2,331.4z M548.2,320.8c-2.1,0-3.8,1.7-3.8,3.8c0,2.1,1.7,3.8,3.8,3.8
		c2.1,0,3.8-1.7,3.8-3.8C552,322.5,550.3,320.8,548.2,320.8z"/>
	<polygon clip-path="url(#SVGID_2_)" fill="#FFFFFF" points="241,327.4 187.4,327.4 187.4,259.4 154,259.4 154,256.4 190.4,256.4 
		190.4,324.4 238,324.4 238,309.3 241,309.3 	"/>
</g>
</svg>
