<?xml version="1.0" encoding="utf-8"?>
<!-- Generator: Adobe Illustrator 18.1.1, SVG Export Plug-In . SVG Version: 6.00 Build 0)  -->
<svg version="1.1" id="Layer_1" xmlns="http://www.w3.org/2000/svg" xmlns:xlink="http://www.w3.org/1999/xlink" x="0px" y="0px"
	 viewBox="0 0 791.4 920" enable-background="new 0 0 791.4 920" xml:space="preserve">
<g>
	<g>
		<polygon fill="#DD62BD" points="771.3,676.9 395.7,893.7 20.1,676.9 20.1,243.2 395.7,26.3 771.3,243.2 		"/>
	</g>
	<g>
		<path d="M395.7,916.3L0.5,688.2V231.9L395.7,3.7l395.2,228.2v456.3L395.7,916.3z M39.7,665.6l356.1,205.5l356.1-205.5V254.5
			L395.7,48.9L39.7,254.5V665.6z"/>
	</g>
</g>
<g>
	<g>
		<path d="M573.5,481.9c6.2,28.5-0.8,52.7-5.6,82.3c-6,31.8-32.5,60.3-31.3,92.1c1.2,19.7,15.8,57,10.8,73.5
			c-8,26.2-107.6,11-125.6-5.5c3.6-4.4,7.5-8.5,9.9-12.9c7.2-14.3,21.4-29.9,6.4-42.4c-13.4-11.2-25.7-5.3-42.8-6.1
			c-27.4-1.2-36.2-9.8-31-31.8c0.4-1.6-3.9-3.3-3.9-7.6c0-2.8,3.5-2.3,3.4-4.4c-0.2-2.4-3.8-5.7-3.6-6.6c0.9-4.3,4.5-7.6,4.9-10.5
			c1.2-8,8.7-16.9-8.9-18.8c-15.5-1.7-18.9-6.4-2.3-25.3c10-11.5,9.2-11.3,17.6-21.2c6.6-7.8,5.9-11.3,1.7-19.9
			c-3.5-7.1-5.9-25.8-3.7-35l200.1,0"/>
	</g>
	<path d="M574.1,483.8c-0.1-2.1-0.2-3.7-0.4-4.5c-6.6-30.9-33-56.2-84.3-55c-24.3,0.6-64.8,3-88.1,12.9c-15.7,6.7-25.3,19.1-28.8,28
		c-2.8,7.2-3.8,12.6-3.8,19.1c0,0.8-0.4,2.4-0.5,4.5"/>
	<g>
		<circle fill="#FFFDFD" cx="494" cy="250.9" r="48.3"/>
		<circle fill="#FFFDFD" cx="443.2" cy="212.9" r="48.3"/>
		<circle fill="#FFFDFD" cx="376.6" cy="180.7" r="48.3"/>
		<circle fill="#FFFDFD" cx="507.5" cy="314.2" r="48.3"/>
		<circle fill="#FFFDFD" cx="439.5" cy="339.5" r="48.3"/>
		<circle fill="#FFFDFD" cx="364.9" cy="357" r="48.3"/>
		<circle fill="#FFFDFD" cx="300.1" cy="331.8" r="48.3"/>
		<circle fill="#FFFDFD" cx="304.5" cy="216.6" r="48.3"/>
		<circle fill="#FFFDFD" cx="260.1" cy="280.3" r="48.3"/>
		<ellipse fill="#FFFDFD" cx="395.2" cy="274.5" rx="113" ry="58.7"/>
	</g>
	<g>
		<circle fill="#FFFDFD" cx="279.3" cy="418.2" r="17.6"/>
		<circle fill="#FFFDFD" cx="262.9" cy="412.1" r="17.6"/>
		<circle fill="#FFFDFD" cx="267.3" cy="427.6" r="17.6"/>
	</g>
	<g>
		<circle fill="#FFFDFD" cx="310" cy="460.5" r="11.7"/>
		<circle fill="#FFFDFD" cx="301" cy="467.8" r="11.7"/>
		<circle fill="#FFFDFD" cx="311.3" cy="470.6" r="11.7"/>
	</g>
	<g>
		<defs>
			<rect id="SVGID_1_" x="298.1" y="215" width="172.6" height="120.9"/>
		</defs>
		<clipPath id="SVGID_2_">
			<use xlink:href="#SVGID_1_"  overflow="visible"/>
		</clipPath>
		<rect x="298.1" y="55.9" clip-path="url(#SVGID_2_)" width="172.6" height="280"/>
		<path clip-path="url(#SVGID_2_)" fill="#FFFFFF" d="M424.8,255.3c-2.1,0-3.9-1.7-3.9-3.9c0-2.1,1.7-3.9,3.9-3.9
			c2.1,0,3.9,1.7,3.9,3.9C428.7,253.5,427,255.3,424.8,255.3z M424.8,249c-1.3,0-2.4,1.1-2.4,2.4c0,1.3,1.1,2.4,2.4,2.4
			c1.3,0,2.4-1.1,2.4-2.4C427.2,250.1,426.1,249,424.8,249z"/>
		<path clip-path="url(#SVGID_2_)" fill="#FFFFFF" d="M424.8,301.4c-2.1,0-3.9-1.7-3.9-3.9c0-2.1,1.7-3.9,3.9-3.9
			c2.1,0,3.9,1.7,3.9,3.9C428.7,299.6,427,301.4,424.8,301.4z M424.8,295.1c-1.3,0-2.4,1.1-2.4,2.4c0,1.3,1.1,2.4,2.4,2.4
			c1.3,0,2.4-1.1,2.4-2.4C427.2,296.2,426.1,295.1,424.8,295.1z"/>
		<path clip-path="url(#SVGID_2_)" fill="#FFFFFF" d="M411.3,255.3c-2.1,0-3.9-1.7-3.9-3.9c0-2.1,1.7-3.9,3.9-3.9
			c2.1,0,3.9,1.7,3.9,3.9C415.2,253.5,413.5,255.3,411.3,255.3z M411.3,249c-1.3,0-2.4,1.1-2.4,2.4c0,1.3,1.1,2.4,2.4,2.4
			c1.3,0,2.4-1.1,2.4-2.4C413.7,250.1,412.6,249,411.3,249z"/>
		<path clip-path="url(#SVGID_2_)" fill="#FFFFFF" d="M411.3,301.4c-2.1,0-3.9-1.7-3.9-3.9c0-2.1,1.7-3.9,3.9-3.9
			c2.1,0,3.9,1.7,3.9,3.9C415.2,299.6,413.5,301.4,411.3,301.4z M411.3,295.1c-1.3,0-2.4,1.1-2.4,2.4c0,1.3,1.1,2.4,2.4,2.4
			c1.3,0,2.4-1.1,2.4-2.4C413.7,296.2,412.6,295.1,411.3,295.1z"/>
		<path clip-path="url(#SVGID_2_)" fill="#FFFFFF" d="M437.5,255.3c-2.1,0-3.9-1.7-3.9-3.9c0-2.1,1.7-3.9,3.9-3.9
			c2.1,0,3.9,1.7,3.9,3.9C441.4,253.5,439.7,255.3,437.5,255.3z M437.5,249c-1.3,0-2.4,1.1-2.4,2.4c0,1.3,1.1,2.4,2.4,2.4
			c1.3,0,2.4-1.1,2.4-2.4C439.9,250.1,438.8,249,437.5,249z"/>
		<path clip-path="url(#SVGID_2_)" fill="#FFFFFF" d="M437.5,234.7c-2.1,0-3.9-1.7-3.9-3.9c0-2.1,1.7-3.9,3.9-3.9
			c2.1,0,3.9,1.7,3.9,3.9C441.4,233,439.7,234.7,437.5,234.7z M437.5,228.5c-1.3,0-2.4,1.1-2.4,2.4c0,1.3,1.1,2.4,2.4,2.4
			c1.3,0,2.4-1.1,2.4-2.4C439.9,229.6,438.8,228.5,437.5,228.5z"/>
		<path clip-path="url(#SVGID_2_)" fill="#FFFFFF" d="M424.8,234.7c-2.1,0-3.9-1.7-3.9-3.9c0-2.1,1.7-3.9,3.9-3.9
			c2.1,0,3.9,1.7,3.9,3.9C428.7,233,427,234.7,424.8,234.7z M424.8,228.5c-1.3,0-2.4,1.1-2.4,2.4c0,1.3,1.1,2.4,2.4,2.4
			c1.3,0,2.4-1.1,2.4-2.4C427.2,229.6,426.1,228.5,424.8,228.5z"/>
		<path clip-path="url(#SVGID_2_)" fill="#FFFFFF" d="M451.3,288.3c-2.1,0-3.9-1.7-3.9-3.9c0-2.1,1.7-3.9,3.9-3.9
			c2.1,0,3.9,1.7,3.9,3.9C455.1,286.6,453.4,288.3,451.3,288.3z M451.3,282.1c-1.3,0-2.4,1.1-2.4,2.4c0,1.3,1.1,2.4,2.4,2.4
			c1.3,0,2.4-1.1,2.4-2.4C453.6,283.1,452.6,282.1,451.3,282.1z"/>
		<path clip-path="url(#SVGID_2_)" fill="#FFFFFF" d="M464.1,288.3c-2.1,0-3.9-1.7-3.9-3.9c0-2.1,1.7-3.9,3.9-3.9
			c2.1,0,3.9,1.7,3.9,3.9C468,286.6,466.3,288.3,464.1,288.3z M464.1,282.1c-1.3,0-2.4,1.1-2.4,2.4c0,1.3,1.1,2.4,2.4,2.4
			c1.3,0,2.4-1.1,2.4-2.4C466.5,283.1,465.4,282.1,464.1,282.1z"/>
		<path clip-path="url(#SVGID_2_)" fill="#FFFFFF" d="M440,315c-2.1,0-3.9-1.7-3.9-3.9c0-2.1,1.7-3.9,3.9-3.9c2.1,0,3.9,1.7,3.9,3.9
			C443.8,313.3,442.1,315,440,315z M440,308.8c-1.3,0-2.4,1.1-2.4,2.4c0,1.3,1.1,2.4,2.4,2.4c1.3,0,2.4-1.1,2.4-2.4
			C442.3,309.8,441.3,308.8,440,308.8z"/>
		<circle clip-path="url(#SVGID_2_)" fill="none" stroke="#FFFFFF" stroke-width="1.5" cx="428.3" cy="155.3" r="3.1"/>
		<circle clip-path="url(#SVGID_2_)" fill="none" stroke="#FFFFFF" stroke-width="1.5" cx="428.3" cy="141.8" r="3.1"/>
		<circle clip-path="url(#SVGID_2_)" fill="none" stroke="#FFFFFF" stroke-width="1.5" cx="428.3" cy="168" r="3.1"/>
		<path clip-path="url(#SVGID_2_)" fill="#FFFFFF" d="M408,225.8c-2.1,0-3.9-1.7-3.9-3.9c0-2.1,1.7-3.9,3.9-3.9
			c2.1,0,3.9,1.7,3.9,3.9C411.9,224,410.2,225.8,408,225.8z M408,219.5c-1.3,0-2.4,1.1-2.4,2.4c0,1.3,1.1,2.4,2.4,2.4
			c1.3,0,2.4-1.1,2.4-2.4C410.4,220.6,409.3,219.5,408,219.5z"/>
		<path clip-path="url(#SVGID_2_)" fill="#FFFFFF" d="M408,238.5c-2.1,0-3.9-1.7-3.9-3.9c0-2.1,1.7-3.9,3.9-3.9
			c2.1,0,3.9,1.7,3.9,3.9C411.9,236.7,410.2,238.5,408,238.5z M408,232.2c-1.3,0-2.4,1.1-2.4,2.4c0,1.3,1.1,2.4,2.4,2.4
			c1.3,0,2.4-1.1,2.4-2.4C410.4,233.3,409.3,232.2,408,232.2z"/>
		<circle clip-path="url(#SVGID_2_)" fill="none" stroke="#FFFFFF" stroke-width="1.5" cx="384.6" cy="181.8" r="3.1"/>
		<circle clip-path="url(#SVGID_2_)" fill="none" stroke="#FFFFFF" stroke-width="1.5" cx="384.6" cy="168.3" r="3.1"/>
		<circle clip-path="url(#SVGID_2_)" fill="none" stroke="#FFFFFF" stroke-width="1.5" cx="384.6" cy="194.5" r="3.1"/>
		<path clip-path="url(#SVGID_2_)" fill="#FFFFFF" d="M358.9,301.4c-2.1,0-3.9-1.7-3.9-3.9s1.7-3.9,3.9-3.9c2.1,0,3.9,1.7,3.9,3.9
			S361.1,301.4,358.9,301.4z M358.9,295.1c-1.3,0-2.4,1.1-2.4,2.4c0,1.3,1.1,2.4,2.4,2.4c1.3,0,2.4-1.1,2.4-2.4
			C361.3,296.2,360.2,295.1,358.9,295.1z"/>
		<path clip-path="url(#SVGID_2_)" fill="#FFFFFF" d="M345.4,301.4c-2.1,0-3.9-1.7-3.9-3.9s1.7-3.9,3.9-3.9c2.1,0,3.9,1.7,3.9,3.9
			S347.5,301.4,345.4,301.4z M345.4,295.1c-1.3,0-2.4,1.1-2.4,2.4c0,1.3,1.1,2.4,2.4,2.4c1.3,0,2.4-1.1,2.4-2.4
			C347.8,296.2,346.7,295.1,345.4,295.1z"/>
		<path clip-path="url(#SVGID_2_)" fill="#FFFFFF" d="M371.6,301.4c-2.1,0-3.9-1.7-3.9-3.9c0-2.1,1.7-3.9,3.9-3.9
			c2.1,0,3.9,1.7,3.9,3.9C375.5,299.6,373.7,301.4,371.6,301.4z M371.6,295.1c-1.3,0-2.4,1.1-2.4,2.4c0,1.3,1.1,2.4,2.4,2.4
			c1.3,0,2.4-1.1,2.4-2.4C374,296.2,372.9,295.1,371.6,295.1z"/>
		<circle clip-path="url(#SVGID_2_)" fill="none" stroke="#FFFFFF" stroke-width="1.5" cx="398.3" cy="168.5" r="3.1"/>
		<circle clip-path="url(#SVGID_2_)" fill="none" stroke="#FFFFFF" stroke-width="1.5" cx="411" cy="168.5" r="3.1"/>
		<circle clip-path="url(#SVGID_2_)" fill="none" stroke="#FFFFFF" stroke-width="1.5" cx="424.7" cy="85.1" r="3.1"/>
		<circle clip-path="url(#SVGID_2_)" fill="none" stroke="#FFFFFF" stroke-width="1.5" cx="438.3" cy="85.1" r="3.1"/>
		<circle clip-path="url(#SVGID_2_)" fill="none" stroke="#FFFFFF" stroke-width="1.5" cx="451" cy="85.1" r="3.1"/>
		<circle clip-path="url(#SVGID_2_)" fill="none" stroke="#FFFFFF" stroke-width="1.5" cx="464.5" cy="85.1" r="3.1"/>
		<circle clip-path="url(#SVGID_2_)" fill="none" stroke="#FFFFFF" stroke-width="1.5" cx="401.8" cy="115.1" r="3.1"/>
		<circle clip-path="url(#SVGID_2_)" fill="none" stroke="#FFFFFF" stroke-width="1.5" cx="385" cy="98.8" r="3.1"/>
		<circle clip-path="url(#SVGID_2_)" fill="none" stroke="#FFFFFF" stroke-width="1.5" cx="371.8" cy="111.6" r="3.1"/>
		<circle clip-path="url(#SVGID_2_)" fill="none" stroke="#FFFFFF" stroke-width="1.5" cx="331.6" cy="151.8" r="3.1"/>
		<circle clip-path="url(#SVGID_2_)" fill="none" stroke="#FFFFFF" stroke-width="1.5" cx="332" cy="124.9" r="3.1"/>
		<circle clip-path="url(#SVGID_2_)" fill="none" stroke="#FFFFFF" stroke-width="1.5" cx="361.6" cy="98.8" r="3.1"/>
		<circle clip-path="url(#SVGID_2_)" fill="none" stroke="#FFFFFF" stroke-width="1.5" cx="345.3" cy="111.6" r="3.1"/>
		<path clip-path="url(#SVGID_2_)" fill="#FFFFFF" d="M328.5,224.6c-2.1,0-3.9-1.7-3.9-3.9s1.7-3.9,3.9-3.9c2.1,0,3.9,1.7,3.9,3.9
			S330.7,224.6,328.5,224.6z M328.5,218.4c-1.3,0-2.4,1.1-2.4,2.4c0,1.3,1.1,2.4,2.4,2.4c1.3,0,2.4-1.1,2.4-2.4
			C330.9,219.4,329.8,218.4,328.5,218.4z"/>
		<path clip-path="url(#SVGID_2_)" fill="#FFFFFF" d="M401.2,311.9c-2.1,0-3.9-1.7-3.9-3.9c0-2.1,1.7-3.9,3.9-3.9
			c2.1,0,3.9,1.7,3.9,3.9C405.1,310.2,403.3,311.9,401.2,311.9z M401.2,305.7c-1.3,0-2.4,1.1-2.4,2.4c0,1.3,1.1,2.4,2.4,2.4
			c1.3,0,2.4-1.1,2.4-2.4C403.6,306.7,402.5,305.7,401.2,305.7z"/>
		<path clip-path="url(#SVGID_2_)" fill="#FFFFFF" d="M385.2,311.9c-2.1,0-3.9-1.7-3.9-3.9c0-2.1,1.7-3.9,3.9-3.9
			c2.1,0,3.9,1.7,3.9,3.9C389,310.2,387.3,311.9,385.2,311.9z M385.2,305.7c-1.3,0-2.4,1.1-2.4,2.4c0,1.3,1.1,2.4,2.4,2.4
			c1.3,0,2.4-1.1,2.4-2.4C387.5,306.7,386.5,305.7,385.2,305.7z"/>
		<path clip-path="url(#SVGID_2_)" fill="#FFFFFF" d="M321.7,251.3c-2.1,0-3.9-1.7-3.9-3.9c0-2.1,1.7-3.9,3.9-3.9
			c2.1,0,3.9,1.7,3.9,3.9C325.6,249.6,323.8,251.3,321.7,251.3z M321.7,245.1c-1.3,0-2.4,1.1-2.4,2.4c0,1.3,1.1,2.4,2.4,2.4
			c1.3,0,2.4-1.1,2.4-2.4C324.1,246.1,323,245.1,321.7,245.1z"/>
		<path clip-path="url(#SVGID_2_)" fill="#FFFFFF" d="M357.8,311.9c-2.1,0-3.9-1.7-3.9-3.9c0-2.1,1.7-3.9,3.9-3.9
			c2.1,0,3.9,1.7,3.9,3.9C361.6,310.2,359.9,311.9,357.8,311.9z M357.8,305.7c-1.3,0-2.4,1.1-2.4,2.4c0,1.3,1.1,2.4,2.4,2.4
			c1.3,0,2.4-1.1,2.4-2.4C360.1,306.7,359.1,305.7,357.8,305.7z"/>
		<path clip-path="url(#SVGID_2_)" fill="#FFFFFF" d="M331.6,314.2c-2.1,0-3.9-1.7-3.9-3.9c0-2.1,1.7-3.9,3.9-3.9s3.9,1.7,3.9,3.9
			C335.5,312.5,333.8,314.2,331.6,314.2z M331.6,308c-1.3,0-2.4,1.1-2.4,2.4c0,1.3,1.1,2.4,2.4,2.4s2.4-1.1,2.4-2.4
			C334,309.1,333,308,331.6,308z"/>
		<polygon clip-path="url(#SVGID_2_)" fill="#FFFFFF" points="332.4,307.2 330.9,307.2 330.9,260.5 370.6,260.5 370.6,207.5 
			404.9,207.5 404.9,209 372.1,209 372.1,262 332.4,262 		"/>
		<polygon clip-path="url(#SVGID_2_)" fill="#FFFFFF" points="346.2,294.4 344.7,294.4 344.7,273.8 383.9,273.8 383.9,220.8 
			404.9,220.8 404.9,222.3 385.4,222.3 385.4,275.3 346.2,275.3 		"/>
		<polygon clip-path="url(#SVGID_2_)" fill="#FFFFFF" points="359.7,294.4 358.2,294.4 358.2,287 397.1,287 397.1,233.6 
			404.9,233.6 404.9,235.1 398.6,235.1 398.6,288.5 359.7,288.5 		"/>
		<polygon clip-path="url(#SVGID_2_)" fill="#FFFFFF" points="401.8,304.9 400.3,304.9 400.3,298.3 374.7,298.3 374.7,296.8 
			401.8,296.8 		"/>
		<rect x="410.6" y="254.5" clip-path="url(#SVGID_2_)" fill="#FFFFFF" width="1.5" height="39.9"/>
		<rect x="424.1" y="254.5" clip-path="url(#SVGID_2_)" fill="#FFFFFF" width="1.5" height="39.9"/>
		<polygon clip-path="url(#SVGID_2_)" fill="#FFFFFF" points="474.5,302.1 436.8,302.1 436.8,254.5 438.3,254.5 438.3,300.6 
			474.5,300.6 		"/>
		<rect x="443.1" y="310.4" clip-path="url(#SVGID_2_)" fill="#FFFFFF" width="30.6" height="1.5"/>
		<polygon clip-path="url(#SVGID_2_)" fill="#FFFFFF" points="452,281.3 450.5,281.3 450.5,181 473.1,181 473.1,182.5 452,182.5 		
			"/>
		<polygon clip-path="url(#SVGID_2_)" fill="#FFFFFF" points="464.9,281.3 463.4,281.3 463.4,193.9 472.1,193.9 472.1,195.4 
			464.9,195.4 		"/>
		<polygon clip-path="url(#SVGID_2_)" fill="#FFFFFF" points="438.3,227.8 436.8,227.8 436.8,182.9 410.8,182.9 410.8,171.6 
			412.3,171.6 412.3,181.4 438.3,181.4 		"/>
		<polygon clip-path="url(#SVGID_2_)" fill="#FFFFFF" points="425.5,227.8 424,227.8 424,195.8 397.5,195.8 397.5,171.6 399,171.6 
			399,194.3 425.5,194.3 		"/>
		<polygon clip-path="url(#SVGID_2_)" fill="#FFFFFF" points="358.9,248.2 324.8,248.2 324.8,246.7 357.4,246.7 357.4,214.4 
			358.9,214.4 		"/>
		<rect x="292.9" y="220" clip-path="url(#SVGID_2_)" fill="#FFFFFF" width="32.5" height="1.5"/>
		<path clip-path="url(#SVGID_2_)" fill="#FFFFFF" d="M318.4,268.2c-2.1,0-3.9-1.7-3.9-3.9c0-2.1,1.7-3.9,3.9-3.9
			c2.1,0,3.9,1.7,3.9,3.9C322.3,266.5,320.5,268.2,318.4,268.2z M318.4,262c-1.3,0-2.4,1.1-2.4,2.4s1.1,2.4,2.4,2.4
			c1.3,0,2.4-1.1,2.4-2.4S319.7,262,318.4,262z"/>
		<polygon clip-path="url(#SVGID_2_)" fill="#FFFFFF" points="315.3,265.1 304.8,265.1 304.8,234 344.5,234 344.5,214.4 346,214.4 
			346,235.5 306.3,235.5 306.3,263.6 315.3,263.6 		"/>
		<path clip-path="url(#SVGID_2_)" fill="#FFFFFF" d="M314.5,281.5c-2.1,0-3.9-1.7-3.9-3.9c0-2.1,1.7-3.9,3.9-3.9
			c2.1,0,3.9,1.7,3.9,3.9C318.4,279.8,316.6,281.5,314.5,281.5z M314.5,275.3c-1.3,0-2.4,1.1-2.4,2.4c0,1.3,1.1,2.4,2.4,2.4
			c1.3,0,2.4-1.1,2.4-2.4C316.9,276.3,315.8,275.3,314.5,275.3z"/>
		<polygon clip-path="url(#SVGID_2_)" fill="#FFFFFF" points="327.9,332 313.4,332 313.4,280.7 314.9,280.7 314.9,330.5 
			327.2,330.5 350.4,307.3 354.6,307.3 354.6,308.8 351,308.8 		"/>
		<circle clip-path="url(#SVGID_2_)" fill="none" stroke="#FFFFFF" stroke-width="1.5" cx="305.1" cy="151.6" r="3.1"/>
		<circle clip-path="url(#SVGID_2_)" fill="none" stroke="#FFFFFF" stroke-width="1.5" cx="314.7" cy="344.1" r="3.1"/>
		<polyline clip-path="url(#SVGID_2_)" fill="none" stroke="#FFFFFF" stroke-width="1.5" points="345.3,141.3 345.3,168.1 
			381.5,168.1 		"/>
		<polygon clip-path="url(#SVGID_2_)" fill="#FFFFFF" points="338.6,344.8 317.8,344.8 317.8,343.3 338,343.3 374.5,306.8 
			382,306.8 382,308.3 375.1,308.3 		"/>
		<line clip-path="url(#SVGID_2_)" fill="none" stroke="#FFFFFF" stroke-width="1.5" x1="404.9" y1="115.1" x2="473.3" y2="115.1"/>
		<polyline clip-path="url(#SVGID_2_)" fill="none" stroke="#FFFFFF" stroke-width="1.5" points="472.9,101.9 411.1,101.9 
			411.1,41.9 		"/>
		<polyline clip-path="url(#SVGID_2_)" fill="none" stroke="#FFFFFF" stroke-width="1.5" points="361.6,95.7 361.6,85.5 397.9,85.5 
			397.9,28.6 		"/>
		<line clip-path="url(#SVGID_2_)" fill="none" stroke="#FFFFFF" stroke-width="1.5" x1="424.7" y1="82" x2="424.7" y2="22.8"/>
		<line clip-path="url(#SVGID_2_)" fill="none" stroke="#FFFFFF" stroke-width="1.5" x1="438.3" y1="82" x2="438.3" y2="35.3"/>
		<line clip-path="url(#SVGID_2_)" fill="none" stroke="#FFFFFF" stroke-width="1.5" x1="451" y1="82" x2="451" y2="49.3"/>
		<polyline clip-path="url(#SVGID_2_)" fill="none" stroke="#FFFFFF" stroke-width="1.5" points="464.5,82 464.5,62.1 473.1,62.1 		
			"/>
		<circle clip-path="url(#SVGID_2_)" fill="none" stroke="#FFFFFF" stroke-width="1.5" cx="357" cy="348.2" r="3.1"/>
		<polygon clip-path="url(#SVGID_2_)" fill="#FFFFFF" points="359.9,346.7 358.8,345.6 387.8,316.6 427.4,316.6 436.3,323.3 
			473.3,323.3 473.3,324.8 435.8,324.8 426.9,318.1 388.5,318.1 		"/>
		<polyline clip-path="url(#SVGID_2_)" fill="none" stroke="#FFFFFF" stroke-width="1.5" points="345.3,108.5 345.3,71.9 
			384.6,71.9 384.6,15.8 		"/>
		<polyline clip-path="url(#SVGID_2_)" fill="none" stroke="#FFFFFF" stroke-width="1.5" points="332,121.8 332,65.7 338.3,59.4 
			371.4,59.4 371.4,-1 		"/>
		<circle clip-path="url(#SVGID_2_)" fill="none" stroke="#FFFFFF" stroke-width="1.5" cx="291.9" cy="138.5" r="3.1"/>
		<circle clip-path="url(#SVGID_2_)" fill="none" stroke="#FFFFFF" stroke-width="1.5" cx="291.9" cy="124.9" r="3.1"/>
		<path clip-path="url(#SVGID_2_)" fill="#FFFFFF" d="M416.1,331.4c-2.1,0-3.9-1.7-3.9-3.9c0-2.1,1.7-3.9,3.9-3.9
			c2.1,0,3.9,1.7,3.9,3.9C419.9,329.7,418.2,331.4,416.1,331.4z M416.1,325.2c-1.3,0-2.4,1.1-2.4,2.4s1.1,2.4,2.4,2.4
			c1.3,0,2.4-1.1,2.4-2.4S417.4,325.2,416.1,325.2z"/>
		<path clip-path="url(#SVGID_2_)" fill="#FFFFFF" d="M402.6,331.4c-2.1,0-3.9-1.7-3.9-3.9c0-2.1,1.7-3.9,3.9-3.9
			c2.1,0,3.9,1.7,3.9,3.9C406.4,329.7,404.7,331.4,402.6,331.4z M402.6,325.2c-1.3,0-2.4,1.1-2.4,2.4s1.1,2.4,2.4,2.4
			c1.3,0,2.4-1.1,2.4-2.4S403.9,325.2,402.6,325.2z"/>
		<rect x="401.8" y="330.7" clip-path="url(#SVGID_2_)" fill="#FFFFFF" width="1.5" height="39.9"/>
		<rect x="415.3" y="330.7" clip-path="url(#SVGID_2_)" fill="#FFFFFF" width="1.5" height="39.9"/>
		<line clip-path="url(#SVGID_2_)" fill="none" stroke="#FFFFFF" stroke-width="1.5" x1="304.6" y1="48.9" x2="304.6" y2="108.9"/>
		<circle clip-path="url(#SVGID_2_)" fill="none" stroke="#FFFFFF" stroke-width="1.5" cx="304.6" cy="111.8" r="3.1"/>
		<polygon clip-path="url(#SVGID_2_)" fill="#FFFFFF" points="266.3,342.2 264.8,342.2 264.8,321.1 304.6,321.1 304.6,293 
			295.6,293 295.6,291.5 306.1,291.5 306.1,322.6 266.3,322.6 		"/>
	</g>
</g>
</svg>
