<?xml version="1.0" encoding="utf-8"?>
<!-- Generator: Adobe Illustrator 18.1.1, SVG Export Plug-In . SVG Version: 6.00 Build 0)  -->
<svg version="1.1" id="Layer_1" xmlns="http://www.w3.org/2000/svg" xmlns:xlink="http://www.w3.org/1999/xlink" x="0px" y="0px"
	 viewBox="0 0 791.4 920" enable-background="new 0 0 791.4 920" xml:space="preserve">
<g>
	<g>
		<polygon fill="#E04D4D" points="771.3,676.9 395.7,893.7 20.1,676.9 20.1,243.2 395.7,26.3 771.3,243.2 		"/>
	</g>
	<g>
		<path d="M395.7,916.3L0.5,688.2V231.9L395.7,3.7l395.2,228.2v456.3L395.7,916.3z M39.7,665.6l356.1,205.5l356.1-205.5V254.5
			L395.7,48.9L39.7,254.5V665.6z"/>
	</g>
</g>
<g>
	<polygon fill="#FFFFFF" points="363,282.2 381.7,305.3 356.3,316.1 378,329.8 369.6,350.9 393.7,337.1 403.7,358.2 419.5,340.8 
		427.8,362.8 442.4,338.2 460.2,345.4 451.1,319.7 472.7,310.6 447.7,299.6 453.6,276.7 430.3,291.4 421,265.7 405.4,286.8 
		387.1,266.6 387.1,288.6 	"/>
	<g>
		<circle cx="285.9" cy="329" r="43.6"/>
		<polygon points="327.4,504 244.4,504 239.1,372.6 332.7,372.6 		"/>
		<polygon points="262.5,385.8 198.5,494.7 176.7,482.7 239.7,372.8 		"/>
		<polygon points="327.5,408.2 419.3,321.5 402.8,303 309.7,388.9 		"/>
		<polygon points="270.2,634.4 236.4,634.6 244,498.4 277.8,500.3 		"/>
		<polygon points="301.4,634.4 335.2,634.6 327.6,498.4 293.8,500.3 		"/>
	</g>
	<g>
		<circle cx="537.2" cy="329" r="43.6"/>
		<polygon points="495.6,504 578.7,504 583.9,372.6 490.4,372.6 		"/>
		<polygon points="560.6,385.8 624.6,494.7 646.3,482.7 583.4,372.8 		"/>
		<polygon points="495.5,408.2 403.7,321.5 420.3,303 513.4,388.9 		"/>
		<polygon points="552.9,634.4 586.6,634.6 579.1,498.4 545.3,500.3 		"/>
		<polygon points="521.7,634.4 487.9,634.6 495.5,498.4 529.2,500.3 		"/>
	</g>
</g>
</svg>
