<?xml version="1.0" encoding="utf-8"?>
<!-- Generator: Adobe Illustrator 18.1.1, SVG Export Plug-In . SVG Version: 6.00 Build 0)  -->
<svg version="1.1" id="Layer_1" xmlns="http://www.w3.org/2000/svg" xmlns:xlink="http://www.w3.org/1999/xlink" x="0px" y="0px"
	 viewBox="0 0 791.4 920" enable-background="new 0 0 791.4 920" xml:space="preserve">
<g>
	<g>
		<polygon fill="#806BC1" points="771.3,676.9 395.7,893.7 20.1,676.9 20.1,243.2 395.7,26.3 771.3,243.2 		"/>
	</g>
	<g>
		<path d="M395.7,916.3L0.5,688.2V231.9L395.7,3.7l395.2,228.2v456.3L395.7,916.3z M39.7,665.6l356.1,205.5l356.1-205.5V254.5
			L395.7,48.9L39.7,254.5V665.6z"/>
	</g>
</g>
<g>
	<polygon points="588.9,504.9 458.2,504.9 333,293.5 463.8,293.5 	"/>
	<polyline points="393.4,406.7 273,620.8 207.6,507.6 328.1,293.5 	"/>
	<polyline points="522.2,622.5 276.6,622.3 343.3,509.8 588.9,510.1 	"/>
	<polygon fill="#FFFFFF" points="458.2,504.9 588.9,504.9 436.3,467.9 	"/>
	<polygon fill="#FFFFFF" points="393.3,406.8 328,293.5 372.2,444.3 	"/>
	<polygon fill="#FFFFFF" points="342.4,510.1 276,622.6 385.5,510 	"/>
</g>
</svg>
