<?xml version="1.0" encoding="utf-8"?>
<!-- Generator: Adobe Illustrator 18.1.1, SVG Export Plug-In . SVG Version: 6.00 Build 0)  -->
<svg version="1.1" xmlns="http://www.w3.org/2000/svg" xmlns:xlink="http://www.w3.org/1999/xlink" x="0px" y="0px"
	 viewBox="0 0 790.4 912.6" enable-background="new 0 0 790.4 912.6" xml:space="preserve">
<g id="Layer_1">
	<g>
		<g>
			<polygon fill="#DD62BD" points="770.8,673.2 395.2,890 19.6,673.2 19.6,239.5 395.2,22.6 770.8,239.5 			"/>
		</g>
		<g>
			<path d="M395.2,912.6L0,684.5V228.2L395.2,0l395.2,228.2v456.3L395.2,912.6z M39.2,661.9l356.1,205.5l356.1-205.5V250.7
				L395.2,45.2L39.2,250.7V661.9z"/>
		</g>
	</g>
	<g id="Captions_1_" display="none">
		<rect x="-270.6" y="333.6" display="inline" width="598.9" height="320.5"/>
		<rect x="350.9" y="217.1" display="inline" width="323.7" height="97.1"/>
		<text transform="matrix(1 0 0 1 564.5267 270.4705)" display="inline" font-family="'ArialMT'" font-size="7.7689">http://thenounproject.com</text>
		<text transform="matrix(1 0 0 1 374.0784 254.2854)" display="inline" font-family="'ArialMT'" font-size="19.933">The Noun Project</text>
		<text transform="matrix(1 0 0 1 377.7049 269.8223)" display="inline" font-family="'ArialMT'" font-size="12.9482">Icon Template</text>
		<text transform="matrix(1 0 0 1 -226.9284 367.5815)" display="inline" font-family="'ArialMT'" font-size="19.933">Reminders</text>
		<line display="inline" fill="none" stroke="#FFFFFF" stroke-miterlimit="10" x1="376.8" y1="286.7" x2="409.1" y2="286.7"/>
		<line display="inline" fill="none" stroke="#FFFFFF" stroke-miterlimit="10" x1="-228.5" y1="387" x2="-173.5" y2="387"/>
		<g display="inline">
			<g>
				<g>
					<rect x="-202" y="435" width="28.2" height="28"/>
					<path d="M-181.5,470.6h15.4v-15.2h-15.4V470.6z M-164.7,472h-18.2v-18.1h18.2V472L-164.7,472z M-187.2,476.2h26.8v-26.6h-26.8
						V476.2L-187.2,476.2z M-159,477.6h-29.7v-29.4h29.7V477.6L-159,477.6z"/>
					<polygon points="-186.9,476.5 -187.4,476 -160.6,449.4 -160.2,449.9 					"/>
				</g>
			</g>
		</g>
		<rect x="-228.5" y="521.3" display="inline" fill="none" width="113.3" height="105.2"/>
		<text transform="matrix(1 0 0 1 -228.5475 528.2356)" display="inline" font-family="'ArialMT'" font-size="9.7111">Strokes</text>
		<text transform="matrix(1 0 0 1 -228.5475 544.4207)" display="inline" font-family="'ArialMT'" font-size="7.7689">Try to keep strokes at 4px</text>
		<text transform="matrix(1 0 0 1 -228.5475 560.6064)" display="inline" font-family="'ArialMT'" font-size="7.7689">Minimum stroke weight is 2px</text>
		<text transform="matrix(1 0 0 1 -228.5475 575.1726)" display="inline" font-family="'ArialMT'" font-size="7.7689">For thicker strokes use even </text>
		<text transform="matrix(1 0 0 1 -228.5475 584.8843)" display="inline" font-family="'ArialMT'" font-size="7.7689">numbers: 6px, 8px etc.</text>
		<text transform="matrix(1 0 0 1 -228.5475 599.4504)" display="inline" font-family="'ArialMT'" font-size="7.7689">Remember to expand strokes </text>
		<text transform="matrix(1 0 0 1 -228.5475 609.1616)" display="inline" font-family="'ArialMT'" font-size="7.7689">before saving as an SVG </text>
		<rect x="-91" y="521.3" display="inline" fill="none" width="113.3" height="105.2"/>
		<text transform="matrix(1 0 0 1 -90.9728 528.2356)" display="inline" font-family="'ArialMT'" font-size="9.7111">Size</text>
		<text transform="matrix(1 0 0 1 -90.9728 544.4207)" display="inline" font-family="'ArialMT'" font-size="7.7689">Cannot be wider or taller than </text>
		<text transform="matrix(1 0 0 1 -90.9728 555.7505)" display="inline" font-family="'ArialMT'" font-size="7.7689">100px (artboard size)</text>
		<text transform="matrix(1 0 0 1 -90.9728 571.9358)" display="inline" font-family="'ArialMT'" font-size="7.7689">Scale your icon to fill as much of </text>
		<text transform="matrix(1 0 0 1 -90.9728 581.6467)" display="inline" font-family="'ArialMT'" font-size="7.7689">the artboard as possible</text>
		<rect x="46.6" y="521.3" display="inline" fill="none" width="113.3" height="105.2"/>
		<text transform="matrix(1 0 0 1 46.6004 528.2356)" display="inline" font-family="'ArialMT'" font-size="9.7111">Ungroup</text>
		<text transform="matrix(1 0 0 1 46.6004 544.4207)" display="inline" font-family="'ArialMT'" font-size="7.7689">If your design has more than one </text>
		<text transform="matrix(1 0 0 1 46.6004 554.1323)" display="inline" font-family="'ArialMT'" font-size="7.7689">shape, make sure to ungroup</text>
		<rect x="189" y="521.3" display="inline" fill="none" width="113.3" height="105.2"/>
		<text transform="matrix(1 0 0 1 189.0296 528.2356)" display="inline" font-family="'ArialMT'" font-size="9.7111">Save as</text>
		<text transform="matrix(1 0 0 1 189.0296 544.4207)" display="inline" font-family="'ArialMT'" font-size="7.7689">Save as .SVG and make sure “Use </text>
		<text transform="matrix(1 0 0 1 189.0296 554.1323)" display="inline" font-family="'ArialMT'" font-size="7.7689">Artboards” is checked</text>
		<text transform="matrix(1.0074 0 0 1 -55.5031 432.625)" display="inline" font-family="'ArialMT'" font-size="8.3292">100px</text>
		<text transform="matrix(1.0074 0 0 1 218.1629 459.8379)" display="inline" font-family="'ArialMT'" font-size="16.6584">.SVG</text>
		<rect x="-58.6" y="446.3" display="inline" width="33.2" height="33"/>
		<rect x="-58.5" y="436.4" display="inline" width="1.7" height="7.6"/>
		<rect x="-27.2" y="436.4" display="inline" width="1.7" height="7.6"/>
		<rect x="-60.2" y="438.3" display="inline" width="36.4" height="1.9"/>
		<g display="inline">
			<rect x="79.6" y="443.1" width="33.4" height="32.9"/>
			<rect x="102.2" y="426.5" width="10.7" height="10.6"/>
		</g>
		<rect x="-226.9" y="406.4" display="inline" stroke="#FFFFFF" stroke-miterlimit="10" width="97.1" height="97.1"/>
		<rect x="-91" y="406.4" display="inline" stroke="#FFFFFF" stroke-miterlimit="10" width="97.1" height="97.1"/>
		<rect x="48.2" y="406.4" display="inline" stroke="#FFFFFF" stroke-miterlimit="10" width="97.1" height="97.1"/>
		<rect x="190.6" y="406.4" display="inline" stroke="#FFFFFF" stroke-miterlimit="10" width="97.1" height="97.1"/>
	</g>
	<g id="Your_Icon_1_">
		<g>
			<g>
				<path d="M325.2,443.4c0-35.4,28.7-64.1,64.1-64.1h80.6v-47.9c0-35.4-28.7-64.1-64.1-64.1H226c-35.4,0-64.1,28.7-64.1,64.1v100.4
					c0,35.4,28.7,64.1,64.1,64.1h99.2V443.4z"/>
			</g>
		</g>
		<path d="M628.5,515.8c0,35.4-28.7,64.1-64.1,64.1H394c-35.4,0-64.1-28.7-64.1-64.1v-67.8c0-35.4,28.7-64.1,64.1-64.1h170.4
			c35.4,0,64.1,28.7,64.1,64.1V515.8z"/>
		<polygon points="217.9,486.6 180.5,556.6 306.5,491.3 		"/>
		<polygon points="460.5,570.6 558.5,570.6 586.5,645.3 		"/>
	</g>
</g>
<g id="Layer_2">
</g>
</svg>
