<?xml version="1.0" encoding="utf-8"?>
<!-- Generator: Adobe Illustrator 18.1.1, SVG Export Plug-In . SVG Version: 6.00 Build 0)  -->
<svg version="1.1" id="Layer_1" xmlns="http://www.w3.org/2000/svg" xmlns:xlink="http://www.w3.org/1999/xlink" x="0px" y="0px"
	 viewBox="0 0 791.4 920" enable-background="new 0 0 791.4 920" xml:space="preserve">
<g>
	<g>
		<polygon fill="#BABABA" points="771.3,676.9 395.7,893.7 20.1,676.9 20.1,243.2 395.7,26.3 771.3,243.2 		"/>
	</g>
	<g>
		<path d="M395.7,916.3L0.5,688.2V231.9L395.7,3.7l395.2,228.2v456.3L395.7,916.3z M39.7,665.6l356.1,205.5l356.1-205.5V254.5
			L395.7,48.9L39.7,254.5V665.6z"/>
	</g>
</g>
<g>
	<path d="M535.3,378.4c-18.5-1.6-21.4,27.8-54.7,40.6c-15.7,6-51.1,0.7-57.8-20.8c-12-38.7,30.8-54.9,56.6-59.7
		c23.4-4.4,36.2-8.5,30-23.5C475.9,233.4,331,230.3,235.9,299c-95.1,68.7-126.8,187.2-70.8,264.8c56,77.6,178.5,84.7,273.6,16.1
		C510.4,528.1,586.9,393.8,535.3,378.4z"/>
	<g>
		<path fill="#FFFFFF" d="M201.4,433.8c-2,1.2-3.4,0-5.5,0.8c-1.8,0.6-3.4,2.2-5.3,3.1c-4.2,2.3-6.2,3.5-9.2,7.5
			c-1.7,2.4-4.4,5-5.7,8.1c-1.5,3.8,0.2,6.8,0.4,10.7c0.2,3.7-3.4,7.8-2.5,10.9c1.1,4.5,6.2,4.4,9.7,3.9c4.7-1,7-3.3,11.9-1.5
			c4.3,1.9,6.5,4.2,11.8,3.3c7.4-1.5,10-5.3,12.2-11.7c2.3-7,10.7-7.9,11.8-16.6c1-8.4-7-8.8-13.2-9.8c-3.2-0.5-5.1-1-7.4-3
			c-2.4-1.7-5-6.6-8.3-5.8"/>
		<path fill="#FFFFFF" d="M200.1,431.7c-1.7,0.7-3.7,0-5.5,0.8c-1.9,0.8-3.5,2.1-5.3,3.1c-3.5,1.9-6.5,3.9-9,7
			c-2.4,2.9-5.8,6.4-7,10c-1.5,4.6,1.1,9-0.1,13.5c-1,3.6-3,6.4-1.8,10.2c1,3.1,4.1,4.7,7.2,5c3.6,0.3,6.8-0.6,10.2-1.8
			c4.6-1.5,8.1,1.9,12.3,3.2c6.8,2.2,14.5-2.1,18-7.8c1.8-3,2.2-6.4,4.6-9c2.3-2.4,5.1-4.2,7-6.9c3.7-5.3,3.8-13-2.3-16.5
			c-2.6-1.5-5.8-1.9-8.7-2.3c-4.2-0.6-7.1-1.6-10.1-4.8c-2.1-2.3-4.5-4.7-7.8-4.3c-3.1,0.4-3.2,5.4,0,5c2.6-0.3,4.7,3.5,6.6,5
			c2.6,2.1,5.2,3.1,8.4,3.6c5.5,1,12.9,1,11.1,8.6c-1.3,5.4-7.9,7.9-10.5,12.6c-1.4,2.5-2,5.3-3.6,7.7c-2,3-6,4.3-9.4,4.5
			c-3.4,0.2-5.9-2.4-8.9-3.4c-3.6-1.1-6.5-0.6-10,0.5c-2.7,0.9-6,1.8-8.7,0.4c-2.9-1.5,1-8,1.4-10.2c0.6-3.6-1.3-7-0.7-10.5
			c0.7-3.6,5-7.8,7.4-10.5c2.1-2.3,4.9-3.7,7.7-5.2c1.7-0.9,3-2.5,5.1-2.6c1.8-0.1,3.1-0.1,4.8-0.8
			C205.6,434.7,203,430.4,200.1,431.7L200.1,431.7z"/>
	</g>
	<g>
		<path fill="#FFFFFF" d="M229.2,362.6c-3.4-1.1-6.4,1.1-9.5,1.7c-3.8,0.7-6.7,1.2-10.3,3c-6.1,3.1-13.4,2.9-14.7,10.7
			c-0.4,2.6-0.5,4.8,0.9,7.1c1,1.7,2.8,2.4,3.9,3.9c1.7,2.1,0.9,3.2,1.5,5.5c1,2.9,4.5,4.3,7.2,6.2c3.5,2.6,5.1,4,9.2,2.3
			c3.2-1.1,4.7-3,8-2.6c2.2,0.1,4.2,1.6,6.5,1.4c6.1-0.1,10.9-9.4,14.4-13.6c5.3-6.5,6.2-10.1-0.8-15.8c-2.6-2.4-5.9-3.5-8.6-5.6
			c-2.6-2.4-4.2-4.7-7.8-4.7"/>
		<path fill="#FFFFFF" d="M229.9,360.2c-4-0.9-7,0.7-10.8,1.7c-2.3,0.6-4.6,0.9-6.9,1.6c-2,0.6-3.9,1.7-5.9,2.5
			c-5.8,2.3-11.8,3.6-13.8,10.4c-1,3.4-0.6,6.9,0.9,9.9c0.8,1.6,2.4,2.6,3.7,3.7c1.4,1.3,1.1,3.4,1.5,5.1c0.7,3.5,4.8,5.5,7.5,7.1
			c3.1,1.9,5.4,4.3,9.2,3.8c3.6-0.4,6.4-3.4,10-3.2c2.2,0.1,4.2,1.3,6.5,1.4c1.5,0.1,2.9-0.5,4.2-1.1c5.7-2.5,9.5-9.9,13.1-14.7
			c4.4-5.7,5.1-11-0.2-16.3c-3.3-3.3-7.8-4.7-11.1-7.9c-2.7-2.6-5-4.5-8.8-4.7c-3.2-0.2-3.2,4.8,0,5c3,0.2,4.4,2.7,6.6,4.3
			c2.9,2.2,6.2,3.7,9,6c1.9,1.6,3.8,3.6,3.2,6.2c-0.6,2.6-3,4.9-4.6,7c-2.9,3.8-5.7,9.5-10.6,11.1c-2.4,0.8-5.8-1.2-8.4-1.3
			c-2.8-0.1-5.2,1.8-7.6,2.7c-3.1,1.2-4.8-0.3-7.3-2.1c-2.6-2-6-2.8-6.3-6.6c-0.2-2.2-1.1-3.8-2.5-5.5c-0.9-1-2.1-1.6-2.9-2.7
			c-1.2-1.7-0.8-4.2-0.4-6.1c1-5,7.8-5.8,11.7-7.5c3-1.3,5.7-2.3,8.9-3c3.2-0.7,7.3-2.9,10.6-2.2C231.7,365.7,233,360.9,229.9,360.2
			L229.9,360.2z"/>
	</g>
	<g>
		<path fill="#FFFFFF" d="M292.5,316.3c-2.7-0.5-4.5-2.3-7-1.8c-2.7,0.4-5,2.3-7.9,2.6c-5.2,0.7-10.3,0.3-15.2,2.7
			c-2.6,1.4-4.6,3.5-4.6,6.5c0.2,3,2.3,4.1,3.8,6.4c1.7,2.9,0.3,3.8-1.1,6.4c-1.5,3-0.8,4.6,1.7,7.2c4.6,4.7,9.5,2.1,15.2,1.6
			c2.9-0.2,6.4,0.7,9.2-0.1c2.5-1,4.5-3.7,6-5.9c1.6-2.6,1.4-3.9,1.7-6.7c0.2-3.1,2.5-3.8,4.5-6.5c2-2.8,5-9.9,0.4-12
			c-1.5-0.6-4.4-0.4-6-0.4"/>
		<path fill="#FFFFFF" d="M293.2,313.9c-3.4-0.9-5.7-2.4-9.3-1.6c-1.7,0.4-3.3,1.3-4.9,1.9c-1.9,0.7-4.2,0.7-6.2,0.9
			c-6,0.5-14.2,1.4-16.8,7.8c-1.1,2.8-0.7,5.6,1,8.1c0.7,1,3.3,3,2.7,4.4c-0.6,1.4-1.6,2.5-2.1,4c-1.7,5.8,3.8,11.1,9.2,12
			c3.2,0.5,6.4-0.5,9.5-0.9c3.6-0.5,7.2,0.5,10.9-0.3c2.9-0.6,5.3-4,6.9-6.2c2.1-2.9,2.2-5.7,2.7-9.1c0.2-1.4,2.1-2.7,3-3.6
			c0.8-0.9,1.5-2,2.1-3.1c1.3-2.3,2-4.8,2.1-7.4c0.3-6.6-6.1-7-10.9-7.1c-3.2,0-3.2,4.9,0,5c1.5,0,4.3-0.5,5.5,0.6
			c1.3,1.1-0.1,4.5-0.7,5.7c-1.6,3.6-5.5,5.4-6.1,9.5c-0.4,2.6-0.5,4.7-2,6.9c-2.1,3-4.1,4.3-7.8,4.1c-2.5-0.1-4.9-0.2-7.4,0.2
			c-2.4,0.4-4.9,1.1-7.4,0.7c-1.9-0.3-5-2.6-5.1-4.7c-0.1-1.8,2.2-3.9,2.6-5.8c1-4.6-6.7-8-3.6-12.1c3.4-4.4,11.5-3.6,16.5-4.2
			c2.4-0.3,4.4-1.3,6.6-2.2c2.8-1.1,5,0.6,7.7,1.2C295,319.5,296.3,314.7,293.2,313.9L293.2,313.9z"/>
	</g>
	<g>
		<path fill="#FFFFFF" d="M243.6,513.8c-4-0.7-6.6-3.3-10.4-2.6c-4,0.6-7.5,3.3-11.8,3.9c-7.7,1.1-15.3,0.5-22.6,3.9
			c-3.8,2.1-6.8,5.2-6.9,9.6c0.2,4.5,3.4,6.1,5.6,9.4c2.5,4.2,0.5,5.6-1.6,9.5c-2.2,4.4-1.2,6.9,2.6,10.6c6.8,7,14.1,3.1,22.6,2.4
			c4.2-0.3,9.4,1,13.6-0.1c3.7-1.6,6.6-5.5,8.9-8.8c2.4-3.8,2-5.8,2.5-9.9c0.3-4.6,3.7-5.7,6.6-9.6c3-4.2,7.3-14.7,0.7-17.8
			c-2.3-0.9-6.5-0.6-9-0.6"/>
		<path fill="#FFFFFF" d="M244.3,511.4c-3.8-0.9-7-3.2-11-2.7c-5,0.6-9.2,3.7-14.3,4.2c-9.1,1-19.6,0.6-26.3,7.9
			c-2.2,2.4-3.6,6.2-2.8,9.5c1,4.4,4.9,6.5,6.4,10.4c0.7,1.7-1.5,4.2-2.3,5.6c-0.8,1.4-1.5,3.2-1.5,4.9c0,4,2.5,6.9,5.3,9.6
			c6.4,6.1,14.8,3.3,22.4,2.4c4.4-0.5,8.8,0.7,13.1,0.1c4.5-0.6,7.6-3.8,10.3-7.3c2.4-3,4.2-6.2,4.6-10.1c0.2-2.1,0.1-4.4,1.1-6.3
			c1-1.8,3.1-3.3,4.5-4.8c3.9-4.4,6.6-11.6,5.2-17.4c-1.6-6.7-9.2-6-14.5-6.1c-3.2-0.1-3.2,4.9,0,5c2.7,0,6.9-0.8,9,1.2
			c2.1,1.9,0.6,6.1-0.1,8.3c-1,3-2.8,5.5-5.1,7.7c-2.1,2.1-4.1,4.3-4.5,7.4c-0.5,3.9-0.6,7.1-2.9,10.5c-2.7,4-5.5,7.1-10.6,7.2
			c-4,0.1-7.9-0.6-11.9,0c-3.7,0.5-7.3,1.4-11,1.3c-4-0.1-7.2-2.9-9.3-6c-2.3-3.4,1.8-6.7,2.8-9.8c1-3.1,0-6-2-8.5
			c-2.5-3.2-5.7-5.8-3.4-10.2c4-7.8,17.5-6.8,24.8-7.6c4.2-0.5,7.7-2.2,11.6-3.6c4.1-1.4,7.3,1.2,11.2,2.1
			C246.1,516.9,247.4,512.1,244.3,511.4L244.3,511.4z"/>
	</g>
	<g>
		<path fill="#FFFFFF" d="M510.8,582.7c-9.2-3.3-25.5-0.5-32.6,4.7c-16.5,12.3,22.7,14.2,3.8,24.1c-6.6,3.3-41.1,9.9-37.3,22.2
			c3.8,12.8,37.3,4.3,46.3,5.7c9.5,1.4,10.4,4.7,4.7,10.4c-2.4,1.9-5.7,1.4-5.7,5.7c0,4.3,7.6,6.1,11.3,6.6
			c17,2.8,31.7-14.6,48.2-17c24.6-3.8,48.7,1.4,73.3,0.5c11.8-0.5,36.4-8.5,16.1-18.4c-6.1-3.3-14.6-6.6-5.2-11.3
			c7.1-3.8,18.4-0.9,26.5-1.4c6.1-0.5,12.8-1.9,9-9.9c-2.8-6.1-11.8-7.6-17.5-8c-19.4-1.4-38.5,6.6-57.9,3.8
			c-11.4-1.4-19.9-6.6-31.4-4.3"/>
		<path fill="#BABABA" d="M511.5,580.3c-7.3-2.4-15.5-1.7-22.8,0c-5.9,1.4-12.2,3.9-15.9,9c-5.2,7.1,5.3,12,9.9,15.1
			c0.8,0.6,1.9,1.5,2.1,2c0-0.1,0.1-0.1-0.2,0.3c-0.7,0.9-1.7,1.5-2.7,2.1c-3.8,2.3-8.6,3.2-12.7,4.5c-5.8,1.8-11.6,3.8-17,6.6
			c-4.1,2.1-8.5,5.1-10,9.7c-1.5,4.4,1.4,8.8,5,11c4.7,2.9,11,2.9,16.3,2.9c6.4,0,12.7-0.8,19-1.3c1.9-0.2,14.7-1,14.2,2.2
			c-0.6,3.3-4.2,4.2-6.5,5.7c-2.5,1.6-3.4,5.4-2.1,8c2.8,5.6,11.6,6.8,17.1,6.9c8.1,0.1,15.7-3.9,22.6-7.7c7.9-4.4,15.4-8.8,24.5-10
			c22.5-3,45.2,1.3,67.8,0.9c6.7-0.1,13.3-1.3,19.5-3.8c4.2-1.7,9.7-4.7,9.6-9.9c-0.1-6.5-9.3-9.6-13.9-12.1
			c-0.4-0.2-3.5-1.9-3.2-2.4c0.8-1.7,4.2-2.6,5.9-3.1c4.5-1.2,9.6-0.5,14.1-0.2c5.8,0.4,14.9,1.4,19.2-3.7
			c4.5-5.4-1.2-13.1-6.1-15.7c-5.9-3.2-13.4-3.5-19.9-3.4c-9.9,0.1-19.8,2.3-29.6,3.6c-9.6,1.3-19,1.3-28.4-0.9
			c-8.6-2.1-16.6-4.5-25.5-2.9c-3.1,0.6-1.8,5.4,1.3,4.8c10.4-1.9,20,2.9,30.1,4.3c10.4,1.4,20.6,0.1,30.9-1.5
			c10.2-1.6,20.6-3.4,30.9-1.9c3.5,0.5,7.2,1.4,10,3.7c1.6,1.3,2.4,3.1,2.8,5c0.5,1.9-1.3,2.7-2.8,3.2c-7.8,2.5-16.7-0.3-24.7,0.4
			c-5.1,0.5-16,4-12.5,11c1.3,2.6,5,4.2,7.4,5.4c2.7,1.4,7.7,3.1,8.9,6.2c1.5,4-10.3,6.9-12.5,7.5c-8.6,2.2-17.7,1.6-26.4,1.2
			c-11.3-0.5-22.5-1.6-33.8-1.7c-9.9-0.1-20.6,0-29.9,3.5c-7.9,2.9-14.9,7.8-22.5,11.5c-7.4,3.6-15,4.8-22.9,2.1
			c-1.2-0.4-3.5-1.3-3.6-2.8c-0.2-1.8,2-2.2,3.2-2.8c2.7-1.3,4.9-4.4,5.8-7.2c2-6.3-7-8.3-11.3-8.7c-5.1-0.5-10.6,0.5-15.7,0.9
			c-4.7,0.4-30.3,3.4-27.5-7c1.2-4.4,8-6.9,11.6-8.5c5.5-2.4,11.3-4.1,17-5.9c5.4-1.7,18.7-6.1,12.5-13.9c-2-2.6-5.6-4-8.3-5.8
			c-2.4-1.5-4.4-3.1-2.2-5.5c3.5-3.9,9.3-5.4,14.3-6.5c5.9-1.3,12.5-1.6,18.3,0.4C513.2,586.1,514.5,581.4,511.5,580.3L511.5,580.3z
			"/>
	</g>
	<g>
		<g>
			<path d="M255.7,241.3c-4.3-4.9-12-5.4-17.2-1.1l0,0c-5.3,4.4-6.1,11.9-1.8,16.9l178.2,213.8l74.2,80c4.3,5,12,5.4,17.2,1.1l0,0
				c5.2-4.4,6.1-11.9,1.8-16.9l-67.8-85.3L255.7,241.3z"/>
			<path fill="#BABABA" d="M498.1,557.4L498.1,557.4c-4.2,0-8.2-1.8-10.8-4.9L413,472.5L234.8,258.7c-2.4-2.8-3.6-6.4-3.2-10.2
				c0.3-4,2.2-7.6,5.4-10.2c2.8-2.3,6.2-3.6,9.8-3.6c4.2,0,8.2,1.8,10.9,4.9l184.6,208.5l0,0l67.8,85.3c2.4,2.8,3.6,6.4,3.2,10.2
				c-0.3,4-2.3,7.6-5.4,10.2C505.1,556.1,501.6,557.4,498.1,557.4z M416.8,469.2l74.2,80c1.7,2,4.3,3.2,7.1,3.2
				c2.4,0,4.8-0.9,6.6-2.4c2.1-1.8,3.4-4.2,3.6-6.8c0.2-2.4-0.5-4.8-2.1-6.5l-0.1-0.1l-67.8-85.2L253.9,242.9
				c-1.8-2-4.4-3.2-7.1-3.2c-2.4,0-4.8,0.9-6.6,2.4c-2.1,1.8-3.4,4.2-3.6,6.8c-0.2,2.4,0.5,4.7,2.1,6.6L416.8,469.2z"/>
		</g>
		<g>
			<path d="M525.8,557c-6.6,2.1-15.6,8.1-18.9,14.8c-2.3,4.6-0.3,9.3,0.2,14.2c1.9,18.4,22.2,27.6,37.8,31.3
				c8,1.9,16.3,2.8,24.2,1.5c4.1-0.9,11.6-1.9,14.2-4.9c-15.3-5.6-16-15.6-18.5-29.9c-0.6-3.3-6.4-15.4-11.8-20.3
				C547.8,559,532.9,554.8,525.8,557z"/>
			<path fill="#BABABA" d="M525.2,554.7c-10.3,3.5-23.3,12.5-21.6,24.8c0.8,6,1.5,11.9,4.3,17.3c2.3,4.6,6.2,8.4,10.3,11.5
				c9.2,6.8,20.4,10.6,31.5,12.6c7.1,1.3,14.5,1.6,21.6,0.1c4.7-1,10.3-1.6,13.8-5.2c1.4-1.4,0.6-3.5-1.1-4.2
				c-7.8-3-12.4-8-14.5-16.1c-1-3.6-1.5-7.4-2.1-11.1c-0.5-3.2-2-6.2-3.4-9c-3.5-7-7.8-13.5-14.9-17
				C542.1,555,532.8,552.5,525.2,554.7c-3.1,0.9-1.8,5.6,1.3,4.8c7.3-2,16.7,1,23,4.8c6,3.6,10.1,12.3,12.4,18.7
				c2.3,6.3,1.9,13.3,4.7,19.6c3.1,7,9,11.2,16,13.8c-0.4-1.4-0.7-2.8-1.1-4.2c-2.8,2.8-8,3.2-11.7,3.9c-6.7,1.4-13.6,0.9-20.3-0.3
				c-9.1-1.6-18.1-4.8-26-9.7c-3.7-2.3-7-5.3-9.6-8.8c-3-4-3.9-8.3-4.7-13.1c-0.5-3.1-1.4-6.2-0.9-9.4c0.4-2.6,2.6-5,4.3-6.8
				c3.7-3.9,8.7-6.8,13.7-8.5C529.5,558.4,528.2,553.6,525.2,554.7z"/>
		</g>
		<g>
			<path d="M502.8,569.9c2.8,3.3,6.6-0.4,13.4-6.1l0,0c6.8-5.6,11.1-8.7,8.3-12L509,531c-2.8-3.3-7.2,2.6-14,8.2l0,0
				c-6.8,5.6-13.4,8.9-10.6,12.2L502.8,569.9z"/>
			<path fill="#BABABA" d="M505.2,572.9L505.2,572.9c-1.4,0-2.7-0.6-3.7-1.8l-18.4-18.6c-1-1.2-1.2-2.4-1.1-3.2
				c0.3-2.7,3.2-4.9,7.2-7.9c1.4-1.1,3-2.3,4.6-3.6c1.6-1.3,3.1-2.7,4.4-3.9c3.6-3.3,6.2-5.7,8.9-5.7c0.9,0,2.1,0.3,3.2,1.6l0.1,0.1
				l15.5,20.9c0.9,1.1,1.3,2.3,1.2,3.6c-0.3,3-3.4,5.6-8.2,9.6c-0.5,0.4-1.1,0.9-1.6,1.3c-0.6,0.5-1.1,0.9-1.6,1.3
				C511.1,570.4,508.1,572.9,505.2,572.9z M485.7,550.2l18.4,18.6c0.5,0.5,0.8,0.6,1.1,0.6l0,0c1.6,0,4.7-2.6,8.2-5.5
				c0.5-0.4,1.1-0.9,1.6-1.4c0.6-0.5,1.1-0.9,1.6-1.3c3.7-3,6.8-5.6,6.9-7.1c0-0.1,0-0.5-0.4-1l-0.1-0.1l-15.5-20.9
				c-0.3-0.3-0.4-0.3-0.5-0.3c-1.3,0-3.9,2.4-6.5,4.8c-1.3,1.2-2.9,2.6-4.5,4c-1.6,1.4-3.3,2.6-4.7,3.7c-2.7,2-5.7,4.3-5.8,5.5
				C485.5,549.8,485.5,549.9,485.7,550.2z"/>
		</g>
		<g>
			<path d="M482.9,548.1c1.4,1.6,5.6-2.2,13-8.3l0,0c7.3-6.1,11.8-9.6,10.5-11.2l-7.5-10.3c-1.4-1.6-6,3.4-13.3,9.4l0,0
				c-7.3,6.1-13,9.8-11.7,11.4L482.9,548.1z"/>
			<path fill="#BABABA" d="M483.7,550.2L483.7,550.2c-0.8,0-1.6-0.3-2.1-0.9l-9.1-9c-0.5-0.5-0.7-1.2-0.6-2c0.2-2,2.3-3.8,7.6-8
				c1.5-1.2,3.2-2.5,4.9-4c1.7-1.4,3.4-2.9,4.8-4.1c4.8-4.2,7-6,9-6c0.8,0,1.5,0.3,2,0.9l0.1,0.1l7.4,10.2c0.5,0.6,0.7,1.3,0.6,2
				c-0.2,2.3-2.9,4.7-9.6,10.2l-3.5,2.9C488.7,548,486,550.2,483.7,550.2z M475.6,538.4l8.3,8.2c1.4-0.4,5.3-3.6,9-6.7l3.5-2.9
				c3.7-3.1,7.6-6.3,8.3-7.6l-6.9-9.5c-1.2,0.6-3.9,2.9-6.3,5c-1.4,1.2-3.1,2.7-4.9,4.1c-1.8,1.5-3.5,2.8-5,4
				C479.2,535.1,476.5,537.3,475.6,538.4z"/>
		</g>
	</g>
	<g>
		<path fill="#FFFFFF" d="M473.1,643.9c0,1.8,2.5,3.2,5.7,3.2c3.1,0,5.7-1.4,5.7-3.2c0-1.8-2.5-3.2-5.7-3.2
			C475.6,640.8,473.1,642.2,473.1,643.9z"/>
	</g>
	<g>
		<path fill="#FFFFFF" d="M660.4,632.6c0,2-2.9,3.6-6.4,3.6c-3.5,0-6.4-1.6-6.4-3.6c0-2,2.9-3.6,6.4-3.6
			C657.5,629.1,660.4,630.6,660.4,632.6z"/>
	</g>
	<path fill="#FFFFFF" d="M456.5,651.4c0,2.2,3.4,3.9,7.6,3.9c4.2,0,7.6-1.7,7.6-3.9c0-2.2-3.4-3.9-7.6-3.9
		C459.8,647.5,456.5,649.2,456.5,651.4z"/>
	<g>
		<path fill="#FFFFFF" d="M281.8,557.6c-2.8,2.2-2.6,5.9-3.8,8.8c-1.5,3.6-2.7,6.2-3.2,10.2c-0.8,6.8-5,12.8,0.8,18.1
			c1.9,1.8,3.7,3,6.4,3.2c2,0.1,3.6-1,5.4-1.1c2.7-0.2,3.1,1,5.4,1.8c3,0.8,6.1-1.4,9.2-2.5c4.1-1.5,6.1-2,7-6.3
			c0.8-3.3,0.1-5.5,2.2-8.1c1.3-1.8,3.7-2.7,4.8-4.6c3.3-5.2-1.8-14.3-3.4-19.6c-2.4-8-5-10.8-13.6-8.1c-3.4,0.8-6.2,3-9.4,4.1
			c-3.4,0.8-6.2,0.9-8.2,3.9"/>
		<path fill="#FFFFFF" d="M280,555.9c-2.7,2.5-3.2,5.7-4.1,9c-1.2,4.2-3,7.8-3.7,12.2c-0.6,3.9-2.2,7.5-2.2,11.5
			c0,3.9,2.4,7,5.3,9.3c2.8,2.2,6,2.9,9.4,2.1c2.4-0.6,3.6-0.7,5.8,0.4c1.5,0.8,3.2,1,4.8,0.8c3.7-0.7,7.5-2.7,11-4.2
			c2.8-1.2,4.2-3.7,4.9-6.6c0.4-1.6,0.5-3.2,0.7-4.8c0.3-2.2,2.1-3.5,3.7-4.8c2.7-2.1,3.8-5.2,3.7-8.6c0-3.7-1.5-7.4-2.8-10.7
			c-1.2-3.2-2.1-6.4-3.5-9.5c-2.4-5.5-7.4-6.8-13-5.6c-4.4,1-8,3.8-12.4,4.8c-3.7,0.8-6.4,1.7-8.7,4.8c-1.9,2.6,2.4,5,4.3,2.5
			c1.8-2.4,5.2-2.2,7.8-3.2c3.2-1.2,6.1-3,9.4-4c1.9-0.6,4.2-1.1,6-0.1c1.9,1,2.7,3.9,3.3,5.8c1.6,4.9,4.3,9.9,4.6,15.1
			c0.3,3.5-2.2,4.8-4.5,6.9c-1.9,1.7-2.7,4.2-3,6.7c-0.3,2.3-0.3,5.2-2.5,6.5c-2.4,1.5-5.8,2.5-8.4,3.5c-2.8,1.1-4.5-1-7.1-1.4
			c-3.5-0.6-6.4,1.9-9.7,0.1c-7.1-3.8-3-11.3-2.1-17.3c0.5-3.2,1.5-6.2,2.7-9.2c1.2-2.9,1.2-6.6,3.6-8.8
			C285.9,557.2,282.4,553.7,280,555.9L280,555.9z"/>
	</g>
</g>
</svg>
