<?xml version="1.0" encoding="utf-8"?>
<!-- Generator: Adobe Illustrator 18.1.1, SVG Export Plug-In . SVG Version: 6.00 Build 0)  -->
<svg version="1.1" id="Layer_1" xmlns="http://www.w3.org/2000/svg" xmlns:xlink="http://www.w3.org/1999/xlink" x="0px" y="0px"
	 viewBox="0 0 791.4 920" enable-background="new 0 0 791.4 920" xml:space="preserve">
<g>
	<g>
		<polygon fill="#3D87C9" points="771.3,676.9 395.7,893.7 20.1,676.9 20.1,243.2 395.7,26.3 771.3,243.2 		"/>
	</g>
	<g>
		<path d="M395.7,916.3L0.5,688.2V231.9L395.7,3.7l395.2,228.2v456.3L395.7,916.3z M39.7,665.6l356.1,205.5l356.1-205.5V254.5
			L395.7,48.9L39.7,254.5V665.6z"/>
	</g>
</g>
<g>
	<g>
		<path d="M523,384.9c8.1,37.1-1,68.4-7.3,106.9c-7.8,41.3-42.2,78.4-40.6,119.7c1.6,25.7,20.5,74.1,14,95.5
			c-10.4,34.1-139.8,14.3-163.1-7.1c4.7-5.7,9.8-11,12.9-16.7c9.3-18.5,27.8-38.8,8.3-55.1c-17.4-14.5-33.4-6.9-55.6-7.9
			c-35.6-1.6-47-12.7-40.2-41.3c0.5-2-5-4.3-5-9.9c0-3.6,4.6-3,4.4-5.7c-0.2-3.1-5-7.5-4.7-8.6c1.1-5.7,5.8-9.8,6.3-13.6
			c1.6-10.5,11.3-21.9-11.6-24.5c-20.2-2.2-24.6-8.3-3-32.9c13.1-14.9,11.9-14.7,22.8-27.5c8.6-10.1,7.6-14.7,2.2-25.9
			c-4.5-9.3-7.7-33.5-4.8-45.4l260,0.1"/>
	</g>
	<path d="M523.8,387.4c-0.1-2.7-0.2-4.8-0.5-5.8c-8.6-40.1-42.8-73.1-109.5-71.5c-31.6,0.8-84.2,3.8-114.4,16.7
		c-20.3,8.7-32.8,24.8-37.4,36.4c-3.7,9.4-4.9,16.4-4.9,24.8c0,1.1-0.5,3.1-0.6,5.8"/>
	<polygon fill="#FFFFFF" points="241.1,237.1 265.5,287.3 273,269.8 292.6,310.2 276.9,249.4 266.2,267.9 	"/>
	<polygon fill="#FFFFFF" points="451.8,191.5 439.6,254.5 428.2,237.7 418.4,288.4 419.7,216.5 434.4,233.5 	"/>
	<polygon fill="#FFFFFF" points="324.3,182.3 327.4,227.2 339.9,226.3 342.3,261.7 353.8,260.9 356,292.4 367.2,247.5 352.9,248.5 
		350.8,217.9 337.4,218.8 	"/>
	<polygon fill="#FFFFFF" points="484.8,310 510.9,277.9 502,270.7 522.6,245.4 514.4,238.7 532.8,216.2 496.9,239.3 507.2,247.6 
		489.4,269.5 499,277.3 	"/>
</g>
</svg>
