<?xml version="1.0" encoding="utf-8"?>
<!-- Generator: Adobe Illustrator 18.1.1, SVG Export Plug-In . SVG Version: 6.00 Build 0)  -->
<svg version="1.1" id="Layer_1" xmlns="http://www.w3.org/2000/svg" xmlns:xlink="http://www.w3.org/1999/xlink" x="0px" y="0px"
	 viewBox="0 0 791.4 920" enable-background="new 0 0 791.4 920" xml:space="preserve">
<g>
	<g>
		<polygon fill="#60BE79" points="771.3,676.9 395.7,893.7 20.1,676.9 20.1,243.2 395.7,26.3 771.3,243.2 		"/>
	</g>
	<g>
		<path d="M395.7,916.3L0.5,688.2V231.9L395.7,3.7l395.2,228.2v456.3L395.7,916.3z M39.7,665.6l356.1,205.5l356.1-205.5V254.5
			L395.7,48.9L39.7,254.5V665.6z"/>
	</g>
</g>
<g>
	<g>
		<defs>
			<circle id="SVGID_1_" cx="395.7" cy="458.2" r="163.5"/>
		</defs>
		<clipPath id="SVGID_2_">
			<use xlink:href="#SVGID_1_"  overflow="visible"/>
		</clipPath>
		<circle clip-path="url(#SVGID_2_)" cx="396.2" cy="458.7" r="163.5"/>
		<g clip-path="url(#SVGID_2_)">
			<path fill="#FFFFFF" d="M290.4,324.1c4.7,3.3,9.3,3.3,14.7,4c2.7,0,4.7-2,7.3-1.3c4,0.7,3.3,4,7.3,4.7c6.3,1,12.5-0.1,18.8-0.3
				c3.5-0.1,7.2-0.3,10.7,0.6c11.1,3.1,10.1,21.6,0,25.3c-1.2,5-4.6,6.8-2.1,11.7c2.2,4.3,7.4,7.5,11.3,3.4c3-3.1,2.2-9.1,5.3-12.7
				c2.5-2.9,6.6-5.5,10.6-4.2c4.7,1.6,3.9,6.2,7.5,9.2c2.9,2.4,6.8,2.3,10,4.2c3.2,1.9,2-0.5,4.4,3.3c1,1.6,0.4,4.3,0.9,6
				c2.5,8.3,7.5,10.3-2.1,13c-6.6,1.8-10.2,3.2-15.2,8.3c-3.1,3.2-4.1,2.3-4.8,7.5c-0.8,5.3,0.6,13.1-1.4,18
				c-1.9,4.6-4.2,3.3-7.3,5.3c-4.5,3-7.8,7-12.3,10.2c-9.7,7-15.5,13.7-13,26.5c0.8,4.2,5.7,12.6,0.1,16c-6,3.6-8.3-5.8-10-9.5
				c-2.6-5.8-7.2-8.9-9.7-14.3c-1.4-3,1.3-4.1-1.7-6.2c-0.9-0.7-8.7-0.9-10-1.2c-10.8-1.8-20.2-7.7-29.4,1.6
				c-7.2,7.3-6.4,16.2-4.3,25.2c1.2,5.2,0.5,16.7,8.6,15.6c4.7-0.6,8.1-7.3,12.5-8.4c5.6-1.4,10.8,2.8,9.7,9.2
				c-0.8,4.7-13.3,11.4-11.3,16c2.2,5.1,12.8,1.8,15.5,9.9c1.2,3.7,1.1,5.7,2.5,9c2.7,6.3,7.9,14.2,14.6,16.6c8.3,3,17.6-2,25.9-2.8
				c9.5-0.9,25.6,10.8,34.9,15.9c7.8,4.3,7.7,13,12.1,20c3,4.6,5.3,6.6,1.7,12.8c-2.5,4.3-8.1,6.7-11.1,10.5
				c-4.4,5.7-8.1,16.1-8.1,22.8l-70-16c-2.5-9.9-8.1-17.3-8-28.8c0-6,1.2-9.6,3.8-14.7c1.8-3.4,7.2-10.5,5.5-15.1
				c-1.4-3.8-7.8-4.6-10.7-7.8c-2.4-2.6-1.9-5-5.3-6.9c-3.3-1.9-8.9-0.4-12.3-3.3c-4.6-3.8-2.6-10.7-6.5-14.5c-4.1-4-8-1.5-9.1-8.7
				c-0.7-4.9,1.2-8-0.9-13.1c-4.3-10.5-15.2-17.2-17.9-28.6c-1.3-7.3,4-18-2-23.3c-8.7,8.7,0.7,23.3-7.3,29.3
				c-3.3-27.3,2.7-55.3-0.7-82.7L290.4,324.1z"/>
		</g>
		<g clip-path="url(#SVGID_2_)">
			<path fill="#FFFFFF" d="M378.4,327.4c4.7,5.3,10,8.7,15.3,12.7c6.7,4,6,3.3,10,10.7c4.7,8,9.3,24.7,20,26c7.3-15.3,14-34,4-50
				c-7.3-12.7-16-12.7-28-8.7C393.1,320.1,380.4,318.7,378.4,327.4"/>
		</g>
		<g clip-path="url(#SVGID_2_)">
			<path fill="#FFFFFF" d="M457.8,350.6c-4.3,0.3-7.3,2.2-9.2,4.9c4.4,8.8,12.7,1.6,9-5.9"/>
		</g>
		<g clip-path="url(#SVGID_2_)">
			<path fill="#FFFFFF" d="M506.4,355.4c-0.7,6,3.3,11.3,2.7,17.3c-0.7,6-10,15.3,1.3,14.7c16-1.3,4.7-32-3.3-31.3"/>
		</g>
		<g clip-path="url(#SVGID_2_)">
			<g>
				<path fill="none" d="M496.4,368.1c-2,6.7,4.7,9.3,6.7,3.3c1.3-5.3-4-6.7-7.3-3.3"/>
				<path fill="#FFFFFF" d="M495,367.7c-0.8,2.9-0.5,6,2,7.8c2.3,1.7,5.2,0.3,6.6-1.8c1.7-2.4,1.7-6.4-0.9-8.1
					c-2.6-1.7-5.9-0.6-8,1.4c-1.4,1.3,0.7,3.5,2.1,2.1c1-0.9,2.6-1.8,4-1.2c1.7,0.8,1,3.1,0.3,4.3c-0.6,1-1.6,1.3-2.5,0.7
					c-1.4-0.9-1-3.2-0.7-4.4C498.4,366.6,495.5,365.8,495,367.7L495,367.7z"/>
			</g>
		</g>
		<g clip-path="url(#SVGID_2_)">
			<path fill="#FFFFFF" d="M496.4,367.1c-2,6.7,4.7,9.3,6.7,3.3c1.3-5.3-4-6.7-7.3-3.3"/>
		</g>
		<g clip-path="url(#SVGID_2_)">
			<path fill="#FFFFFF" d="M534.5,366.1c-1.3,8-7.4,22-13.4,26c-6.7,5.3-9.3,6.7-14.7,14c-9.3,12.7-26.7,26-8,38
				c6,4,11.3,7.3,16.7-1.3c3.3-6.7-3.3-13.3,6.7-17.3c2-0.7,6.7,2,10,1.3s5.3-4,8-4.7c6.7-2,2-3.3,8.7,0.7c2.7,1.3,12,9.3,14.7,11.3
				"/>
		</g>
		<g clip-path="url(#SVGID_2_)">
			<path fill="#FFFFFF" d="M565.8,444.7h-6.7c-12.7,10-26.7,8-41.3,12c-12,3.3-25.3,23.3-30,36c-6,14.7,0,33.3,15.3,40.7
				c8,4.7,30-6,34,5.3l12.7,3.3L565.8,444.7z"/>
		</g>
	</g>
	<g>
		<path d="M81.6,380.4c0,8.1,6.6,14.6,14.6,14.6h120.4c8.1,0,14.6-6.6,14.6-14.6v-27.7c0-8.1-6.6-14.6-14.6-14.6H96.2
			c-8.1,0-14.6,6.6-14.6,14.6V380.4z"/>
		<path d="M222.1,393.4c2.5,1.8,12.2,1.6,12.2,1.6s-9-5.5-9-8.6"/>
	</g>
	<g>
		<path fill="#FFFFFF" d="M717.3,525.1c0,8.1-6.6,14.6-14.6,14.6H582.2c-8.1,0-14.6-6.6-14.6-14.6v-27.7c0-8.1,6.6-14.6,14.6-14.6
			h120.4c8.1,0,14.6,6.6,14.6,14.6V525.1z"/>
		<path fill="#FFFFFF" d="M576.8,538.1c-2.5,1.8-12.2,1.6-12.2,1.6s9-5.5,9-8.6"/>
	</g>
</g>
</svg>
