<?xml version="1.0" encoding="utf-8"?>
<!-- Generator: Adobe Illustrator 18.1.1, SVG Export Plug-In . SVG Version: 6.00 Build 0)  -->
<svg version="1.1" id="Layer_1" xmlns="http://www.w3.org/2000/svg" xmlns:xlink="http://www.w3.org/1999/xlink" x="0px" y="0px"
	 viewBox="0 0 790.4 920" enable-background="new 0 0 790.4 920" xml:space="preserve">
<g>
	<polygon fill="#E04D4D" points="770.8,676.9 395.2,893.7 19.6,676.9 19.6,243.2 395.2,26.3 770.8,243.2 	"/>
	<path d="M395.2,916.3L0,688.2V231.9L395.2,3.7l395.2,228.2v456.3L395.2,916.3z M39.2,665.6l356.1,205.5l356.1-205.5V254.5
		L395.2,48.9L39.2,254.5V665.6z"/>
</g>
<path fill="none" stroke="#000000" stroke-width="30" stroke-miterlimit="10" d="M174.4,542.1"/>
<g>
	<g>
		<rect x="249.8" y="502.8" width="194.2" height="16.4"/>
		<path d="M444.4,519.7h-195v-17.3h195V519.7z M250.2,518.8h193.3v-15.5H250.2V518.8z"/>
	</g>
	<g>
		<rect x="426.1" y="478.5" width="123.7" height="148.9"/>
		<path d="M550.2,627.9H425.7V478.1h124.6V627.9z M426.6,627h122.8V479H426.6V627z"/>
	</g>
	<g>
		<rect x="445.6" y="438.9" width="104.2" height="44.9"/>
		<path d="M550.2,484.3H445.2v-45.8h105.1V484.3z M446.1,483.4h103.3v-44H446.1V483.4z"/>
	</g>
	<g>
		<rect x="240.6" y="597.3" width="309.2" height="80.7"/>
		<path d="M550.2,678.5H240.2v-81.6h310.1V678.5z M241,677.6h308.3v-79.8H241V677.6z"/>
	</g>
	<g>
		<polygon points="549.8,439.1 484.6,492.8 379.7,365.4 380.2,311.7 		"/>
		<path d="M484.5,493.5L379.2,365.6l0-0.2l0.5-54.6l0.7,0.5l170.1,127.7L484.5,493.5z M380.1,365.3l104.5,126.9l64.4-53.1
			L380.6,312.6L380.1,365.3z"/>
	</g>
	<g>
		<path d="M404.1,338.3c0,0,0.7,23-4.4,32.4c-11.6,21.6-39.1,35.4-65.2,35.4c-25.4,0-53.2-13.9-65.1-34.5
			c-5.7-9.8-4.5-33.3-4.5-33.3s-1.6-22.2,3.4-31.7c11.4-21.5,40.2-36.2,66.2-36.2c26,0,54.8,14.7,66.2,36.2
			C405.7,316.1,404.1,338.3,404.1,338.3z"/>
		<path d="M334.5,406.5c-26.3,0-53.8-14.6-65.5-34.7c-5.7-9.8-4.6-32.6-4.6-33.6c-0.1-0.9-1.6-22.4,3.5-31.9
			c11-20.7,39.6-36.4,66.6-36.4c27,0,55.6,15.6,66.6,36.4c5,9.5,3.5,31,3.5,31.9c0,0.9,0.6,23.2-4.5,32.6
			C388.7,391.9,361.8,406.5,334.5,406.5z M334.5,270.9c-26.7,0-55,15.4-65.8,35.9c-4.9,9.2-3.4,31.2-3.4,31.4
			c0,0.3-1.1,23.5,4.5,33.1c11.5,19.9,38.7,34.3,64.7,34.3c27,0,53.7-14.5,64.8-35.2c5-9.2,4.4-32,4.4-32.2c0-0.3,1.5-22.2-3.4-31.5
			C389.4,286.3,361.1,270.9,334.5,270.9z"/>
	</g>
	<g>
		<rect x="370.9" y="177.4" transform="matrix(0.7829 0.6221 -0.6221 0.7829 242.115 -198.0982)" width="68" height="140.9"/>
		<path d="M387.8,324.8l-0.3-0.3L333.8,282l88.2-111l0.3,0.3l53.6,42.6L387.8,324.8z M335.1,281.8l52.5,41.7l87.1-109.6l-52.5-41.7
			L335.1,281.8z"/>
	</g>
	<g>
		<polygon points="558.7,678 231.7,678 240.6,622.7 549.8,622.7 		"/>
		<path d="M559.2,678.5h-328l9-56.2h310L559.2,678.5z M232.3,677.6h325.9l-8.7-54.4H241L232.3,677.6z"/>
	</g>
	<g>
		<rect x="407.8" y="519.3" width="18.3" height="56.9"/>
		<path d="M426.6,576.6h-19.2v-57.7h19.2V576.6z M408.3,575.7h17.4v-56h-17.4V575.7z"/>
	</g>
	<rect x="305.4" y="412.4" width="34.2" height="49"/>
	<polygon points="343.1,415.7 301,415.5 267.5,390.2 272.5,375.3 348.1,400.8 	"/>
	<rect x="308.1" y="460" width="28.8" height="4.8"/>
	<rect x="259.3" y="398.4" transform="matrix(0.794 0.6079 -0.6079 0.794 308.127 -82.9365)" width="34.2" height="29.6"/>
	<rect x="252.4" y="423.4" transform="matrix(0.794 0.6079 -0.6079 0.794 313.7918 -74.4871)" width="28.8" height="4.8"/>
	<circle fill="#E04D4D" cx="501.7" cy="547.6" r="29.8"/>
	
		<rect x="286.1" y="553.9" transform="matrix(0.9455 -0.3255 0.3255 0.9455 -163.8539 135.2999)" fill="#FFFFFF" width="72.7" height="6.9"/>
	<polygon points="330.7,550.4 314.2,550.4 311.5,602.4 333.4,602.4 	"/>
	<circle fill="#FFFFFF" cx="501.7" cy="547.6" r="24.4"/>
	
		<rect x="396.3" y="207.2" transform="matrix(0.7913 0.6115 -0.6115 0.7913 219.2734 -221.8049)" fill="#E04D4D" width="76.4" height="6.2"/>
	<rect x="259.2" y="323.3" fill="#E04D4D" width="148.7" height="6.2"/>
</g>
</svg>
