<?xml version="1.0" encoding="utf-8"?>
<!-- Generator: Adobe Illustrator 18.1.1, SVG Export Plug-In . SVG Version: 6.00 Build 0)  -->
<svg version="1.1" id="Layer_1" xmlns="http://www.w3.org/2000/svg" xmlns:xlink="http://www.w3.org/1999/xlink" x="0px" y="0px"
	 viewBox="0 0 791.4 920" enable-background="new 0 0 791.4 920" xml:space="preserve">
<g>
	<g>
		<polygon fill="#60BE79" points="771.3,676.9 395.7,893.7 20.1,676.9 20.1,243.2 395.7,26.3 771.3,243.2 		"/>
	</g>
	<g>
		<path d="M395.7,916.3L0.5,688.2V231.9L395.7,3.7l395.2,228.2v456.3L395.7,916.3z M39.7,665.6l356.1,205.5l356.1-205.5V254.5
			L395.7,48.9L39.7,254.5V665.6z"/>
	</g>
</g>
<g>
	<path d="M173.9,453.8c0-116.4,102.6-210.8,229.1-210.8s229.1,94.4,229.1,210.8"/>
	<circle fill="#60BE79" cx="221.6" cy="468.3" r="45.4"/>
	<circle fill="#60BE79" cx="585.3" cy="468.3" r="45.4"/>
	<circle fill="#60BE79" cx="493.7" cy="468.3" r="45.4"/>
	<circle fill="#60BE79" cx="403" cy="468.3" r="45.4"/>
	<circle fill="#60BE79" cx="312.3" cy="468.3" r="45.4"/>
	<rect x="393.6" y="414.4" width="14.9" height="190.6"/>
	<g>
		<path d="M389.1,639.4v-51.5h23.9l-0.1,51.5c0,27.1-21.9,49-49,49s-49-21.9-49-49"/>
		<circle fill="#60BE79" cx="363.9" cy="639.4" r="25.2"/>
	</g>
</g>
</svg>
