<?xml version="1.0" encoding="utf-8"?>
<!-- Generator: Adobe Illustrator 18.1.1, SVG Export Plug-In . SVG Version: 6.00 Build 0)  -->
<svg version="1.1" id="Layer_1" xmlns="http://www.w3.org/2000/svg" xmlns:xlink="http://www.w3.org/1999/xlink" x="0px" y="0px"
	 viewBox="0 0 790.4 920" enable-background="new 0 0 790.4 920" xml:space="preserve">
<g>
	<polygon fill="#BABABA" points="770.8,676.9 395.2,893.7 19.6,676.9 19.6,243.2 395.2,26.3 770.8,243.2 	"/>
	<path d="M395.2,916.3L0,688.2V231.9L395.2,3.7l395.2,228.2v456.3L395.2,916.3z M39.2,665.6l356.1,205.5l356.1-205.5V254.5
		L395.2,48.9L39.2,254.5V665.6z"/>
</g>
<g>
	<rect x="390.1" y="205.1" width="10" height="60.5"/>
	<path fill="#FFFFFF" d="M464.4,196.1c0,8.8-7.2,16-16,16H341.8c-8.8,0-16-7.2-16-16l0,0c0-8.8,7.2-16,16-16h106.7
		C457.3,180.1,464.4,187.3,464.4,196.1L464.4,196.1z"/>
	<rect x="255.6" y="288.2" width="279" height="10"/>
	<polygon fill="#FFFFFF" points="395.1,337 303.2,293.1 395.1,249.2 487,293.1 	"/>
	<rect x="255.8" y="291.1" width="10" height="319.9"/>
	<rect x="525.2" y="291.3" width="10" height="315.4"/>
	<rect x="189.8" y="365.4" fill="#FFFFFF" width="142" height="84"/>
	<rect x="459.2" y="366.6" fill="#FFFFFF" width="142" height="84"/>
	<polygon fill="#FFFFFF" points="260.8,577.9 168.9,533.9 260.8,490 352.7,533.9 	"/>
	<polygon fill="#FFFFFF" points="530.2,579 438.3,535.1 530.2,491.2 622.1,535.1 	"/>
	<rect x="190.3" y="604.1" width="141" height="10"/>
	<rect x="459.3" y="604.1" width="141" height="10"/>
	<rect x="190.6" y="605.3" width="10" height="51.2"/>
	<rect x="321.6" y="605.3" width="10" height="51.2"/>
	<rect x="459" y="605.3" width="10" height="51.2"/>
	<rect x="590" y="605.3" width="10" height="51.2"/>
	<path fill="#FFFFFF" d="M246.3,657.4c0,6.5-5.3,11.8-11.8,11.8h-78.6c-6.5,0-11.8-5.3-11.8-11.8l0,0c0-6.5,5.3-11.8,11.8-11.8h78.6
		C241,645.6,246.3,650.9,246.3,657.4L246.3,657.4z"/>
	<path fill="#FFFFFF" d="M377.7,657.4c0,6.5-5.3,11.8-11.8,11.8h-78.6c-6.5,0-11.8-5.3-11.8-11.8l0,0c0-6.5,5.3-11.8,11.8-11.8h78.6
		C372.5,645.6,377.7,650.9,377.7,657.4L377.7,657.4z"/>
	<path fill="#FFFFFF" d="M515,657.4c0,6.5-5.3,11.8-11.8,11.8h-78.6c-6.5,0-11.8-5.3-11.8-11.8l0,0c0-6.5,5.3-11.8,11.8-11.8h78.6
		C509.7,645.6,515,650.9,515,657.4L515,657.4z"/>
	<path fill="#FFFFFF" d="M646.3,657.4c0,6.5-5.3,11.8-11.8,11.8h-78.6c-6.5,0-11.8-5.3-11.8-11.8l0,0c0-6.5,5.3-11.8,11.8-11.8h78.6
		C641,645.6,646.3,650.9,646.3,657.4L646.3,657.4z"/>
</g>
</svg>
