<?xml version="1.0" encoding="utf-8"?>
<!-- Generator: Adobe Illustrator 18.1.1, SVG Export Plug-In . SVG Version: 6.00 Build 0)  -->
<svg version="1.1" id="Layer_1" xmlns="http://www.w3.org/2000/svg" xmlns:xlink="http://www.w3.org/1999/xlink" x="0px" y="0px"
	 viewBox="0 0 790.4 920" enable-background="new 0 0 790.4 920" xml:space="preserve">
<g>
	<polygon fill="#DD62BD" points="770.8,676.9 395.2,893.7 19.6,676.9 19.6,243.2 395.2,26.3 770.8,243.2 	"/>
	<path d="M395.2,916.3L0,688.2V231.9L395.2,3.7l395.2,228.2v456.3L395.2,916.3z M39.2,665.6l356.1,205.5l356.1-205.5V254.5
		L395.2,48.9L39.2,254.5V665.6z"/>
</g>
<g>
	<g>
		<g>
			<path d="M334.5,381.7c0,1.4-1.1,2.5-2.5,2.5h-89c-1.4,0-2.5-1.1-2.5-2.5v-63c0-1.4,1.1-2.5,2.5-2.5h89c1.4,0,2.5,1.1,2.5,2.5
				V381.7z"/>
			<path fill="#DD62BD" d="M332,385.7h-89c-2.2,0-3.9-1.8-3.9-3.9v-63c0-2.2,1.8-3.9,3.9-3.9h89c2.2,0,3.9,1.8,3.9,3.9v63
				C335.9,383.9,334.2,385.7,332,385.7z M243,317.7c-0.6,0-1,0.5-1,1v63c0,0.6,0.5,1,1,1h89c0.6,0,1-0.5,1-1v-63c0-0.6-0.5-1-1-1
				H243z"/>
		</g>
		<rect x="232" y="500.9" width="39.5" height="104.8"/>
		<rect x="303.6" y="500.9" width="39.5" height="104.8"/>
		<polygon points="224,500.3 196.7,500.3 198.2,395.5 224,395.5 		"/>
		<polygon points="402.3,484.6 378.2,497.4 329.3,404.7 352.1,392.6 		"/>
		<g>
			<path d="M350.6,511.8c0,1.5-1.2,2.8-2.8,2.8H226.8c-1.5,0-2.8-1.2-2.8-2.8V387.3c0-1.5,1.2-2.8,2.8-2.8h121.1
				c1.5,0,2.8,1.2,2.8,2.8V511.8z"/>
			<path fill="#DD62BD" d="M347.8,516H226.8c-2.3,0-4.2-1.9-4.2-4.2V387.3c0-2.3,1.9-4.2,4.2-4.2h121.1c2.3,0,4.2,1.9,4.2,4.2v124.5
				C352.1,514.2,350.2,516,347.8,516z M226.8,386c-0.7,0-1.3,0.6-1.3,1.3v124.5c0,0.7,0.6,1.3,1.3,1.3h121.1c0.7,0,1.3-0.6,1.3-1.3
				V387.3c0-0.7-0.6-1.3-1.3-1.3H226.8z"/>
		</g>
		<g>
			<path d="M347.7,625.8c0,1.7-1.4,3.1-3.1,3.1H302c-1.7,0-3.1-1.4-3.1-3.1l-0.5-7.4l1.8-28.6c0-1.7,2.4-4.4,4.2-4.4h37.9
				c1.7,0,4.2,2.7,4.2,4.4l1.8,28.6L347.7,625.8z"/>
			<path fill="#DD62BD" d="M344.6,630H302c-2.3,0-4.1-1.9-4.2-4.1l-0.5-7.4v-0.1l1.8-28.6c0-2.4,3-5.4,5.2-5.4h37.9
				c2.2,0,5.2,3.1,5.2,5.4l1.8,28.7l-0.5,7.4C348.8,628.2,346.9,630,344.6,630z M299.5,618.4l0.5,7.4c0,1.1,0.9,2.1,2.1,2.1h42.6
				c1.1,0,2.1-0.9,2.1-2.1v-0.1l0.5-7.3l-1.8-28.6c0-1.2-2-3.4-3.1-3.4h-37.9c-1.1,0-3.1,2.2-3.1,3.4v0.1L299.5,618.4z"/>
		</g>
		<g>
			<path d="M276.2,625.8c0,1.7-1.4,3.1-3.1,3.1h-42.6c-1.7,0-3.1-1.4-3.1-3.1l-0.5-7.4l1.8-28.6c0-1.7,2.4-4.4,4.2-4.4h37.9
				c1.7,0,4.2,2.7,4.2,4.4l1.8,28.6L276.2,625.8z"/>
			<path fill="#DD62BD" d="M273,630h-42.6c-2.3,0-4.1-1.9-4.2-4.1l-0.5-7.4v-0.1l1.8-28.6c0-2.4,3-5.4,5.2-5.4h37.9
				c2.2,0,5.2,3.1,5.2,5.4l1.8,28.7l-0.5,7.4C277.2,628.2,275.3,630,273,630z M227.9,618.4l0.5,7.4c0,1.1,0.9,2.1,2.1,2.1H273
				c1.1,0,2.1-0.9,2.1-2.1v-0.1l0.5-7.3l-1.8-28.6c0-1.2-2-3.4-3.1-3.4h-37.9c-1.1,0-3.1,2.2-3.1,3.4v0.1L227.9,618.4z"/>
		</g>
		<g>
			<path fill="#FFFFFF" d="M274.9,634.4c0,1.6-1.3,2.9-2.9,2.9h-39.7c-1.6,0-2.9-1.3-2.9-2.9v-2.6c0-1.6,1.3-2.9,2.9-2.9h39.7
				c1.6,0,2.9,1.3,2.9,2.9V634.4z"/>
			<path fill="#DD62BD" d="M271.9,638.2h-39.7c-2.1,0-3.9-1.7-3.9-3.8v-2.6c0-2.1,1.7-3.8,3.9-3.8h39.7c2.1,0,3.9,1.7,3.9,3.8v2.6
				C275.8,636.5,274,638.2,271.9,638.2z M232.2,629.9c-1.1,0-2,0.9-2,2v2.6c0,1.1,0.9,2,2,2h39.7c1.1,0,2-0.9,2-2v-2.6
				c0-1.1-0.9-2-2-2H232.2z"/>
		</g>
		<g>
			<rect x="266.8" y="309.2" width="38" height="6.4"/>
			<path fill="#DD62BD" d="M305.4,316.3h-39.3v-7.7h39.3V316.3z M267.4,314.9h36.7v-5h-36.7V314.9z"/>
		</g>
		<g>
			<rect x="272.5" y="301.8" width="26.5" height="6.4"/>
			<path fill="#DD62BD" d="M299.7,308.9h-27.8v-7.7h27.8V308.9z M273.2,307.5h25.2v-5h-25.2V307.5z"/>
		</g>
		<polygon points="287.7,293.3 283.5,293.3 283.8,272.1 287.4,272.1 		"/>
		<path d="M290.5,272.1c0,2.7-2.2,4.9-4.9,4.9c-2.7,0-4.9-2.2-4.9-4.9c0-2.7,2.2-4.9,4.9-4.9C288.3,267.2,290.5,269.4,290.5,272.1z"
			/>
		<g>
			<rect x="277.7" y="294.5" width="16.2" height="6.4"/>
			<path fill="#DD62BD" d="M294.5,301.5H277v-7.7h17.5V301.5z M278.3,300.2h14.9v-5h-14.9V300.2z"/>
		</g>
		<path fill="#FFFFFF" d="M272,344.2c0,3.6-2.9,6.6-6.6,6.6c-3.6,0-6.6-2.9-6.6-6.6c0-3.6,2.9-6.6,6.6-6.6
			C269,337.6,272,340.6,272,344.2z"/>
		<path fill="#FFFFFF" d="M314.7,344.2c0,3.6-3,6.6-6.6,6.6c-3.6,0-6.6-2.9-6.6-6.6c0-3.6,3-6.6,6.6-6.6
			C311.8,337.6,314.7,340.6,314.7,344.2z"/>
		<path fill="#DD62BD" d="M268.7,344.2c0,1.9-1.5,3.4-3.4,3.4c-1.9,0-3.4-1.5-3.4-3.4c0-1.9,1.5-3.4,3.4-3.4
			C267.2,340.9,268.7,342.4,268.7,344.2z"/>
		<path fill="#DD62BD" d="M311.5,344.2c0,1.9-1.5,3.4-3.4,3.4c-1.9,0-3.4-1.5-3.4-3.4c0-1.9,1.5-3.4,3.4-3.4
			C310,340.9,311.5,342.4,311.5,344.2z"/>
		<g>
			<path fill="#FFFFFF" d="M224.2,505.1c0,2.6-1.4,4.6-3,4.6h-22.6c-1.7,0-3-2.1-3-4.6v-8.5c0-2.6,1.3-4.6,3-4.6h22.6
				c1.7,0,3,2.1,3,4.6V505.1z"/>
			<path fill="#DD62BD" d="M221.2,510.9h-22.6c-2.4,0-4.2-2.5-4.2-5.8v-8.5c0-3.3,1.8-5.8,4.2-5.8h22.6c2.4,0,4.2,2.5,4.2,5.8v8.5
				C225.4,508.4,223.5,510.9,221.2,510.9z M198.6,493.2c-0.9,0-1.8,1.5-1.8,3.4v8.5c0,2,1,3.4,1.8,3.4h22.6c0.9,0,1.8-1.5,1.8-3.4
				v-8.5c0-2-1-3.4-1.8-3.4H198.6z"/>
		</g>
		<g>
			<path fill="#FFFFFF" d="M405.4,488.4c1.2,2.3,1,4.7-0.5,5.5l-20,10.6c-1.5,0.8-3.6-0.4-4.8-2.7l-4-7.5c-1.2-2.3-1-4.7,0.5-5.5
				l20-10.6c1.5-0.8,3.6,0.4,4.8,2.7L405.4,488.4z"/>
			<path fill="#DD62BD" d="M405.5,494.9l-20,10.6c-2.1,1.1-4.9-0.3-6.4-3.2l-4-7.5c-1.5-2.9-1.1-6,1-7.1l20-10.6
				c2.1-1.1,4.9,0.3,6.4,3.2l4,7.5C408,490.7,407.6,493.9,405.5,494.9z M377.2,489.9c-0.8,0.4-0.9,2.2,0,3.9l4,7.5
				c0.9,1.7,2.5,2.6,3.2,2.2l20-10.6c0.8-0.4,0.9-2.2,0-3.9l-4-7.5c-0.9-1.7-2.5-2.6-3.2-2.2L377.2,489.9z"/>
		</g>
		<g>
			<path fill="#FFFFFF" d="M346.4,634.4c0,1.6-1.3,2.9-2.9,2.9h-39.7c-1.6,0-2.9-1.3-2.9-2.9v-2.6c0-1.6,1.3-2.9,2.9-2.9h39.7
				c1.6,0,2.9,1.3,2.9,2.9V634.4z"/>
			<path fill="#DD62BD" d="M343.5,638.2h-39.7c-2.1,0-3.9-1.7-3.9-3.8v-2.6c0-2.1,1.7-3.8,3.9-3.8h39.7c2.1,0,3.9,1.7,3.9,3.8v2.6
				C347.4,636.5,345.6,638.2,343.5,638.2z M303.8,629.9c-1.1,0-2,0.9-2,2v2.6c0,1.1,0.9,2,2,2h39.7c1.1,0,2-0.9,2-2v-2.6
				c0-1.1-0.9-2-2-2H303.8z"/>
		</g>
	</g>
	<g>
		<path fill="#FFFFFF" d="M331,433.6c0,5.9-4.8,10.8-10.8,10.8h-66.3c-5.9,0-10.8-4.8-10.8-10.8v-5.4c0-5.9,4.8-10.8,10.8-10.8h66.3
			c5.9,0,10.8,4.8,10.8,10.8V433.6z"/>
		<path fill="#DD62BD" d="M320.3,446.4h-66.3c-7,0-12.8-5.7-12.8-12.8v-5.4c0-7,5.7-12.8,12.8-12.8h66.3c7,0,12.8,5.7,12.8,12.8v5.4
			C333,440.6,327.3,446.4,320.3,446.4z M253.9,419.5c-4.8,0-8.8,3.9-8.8,8.8v5.4c0,4.8,3.9,8.8,8.8,8.8h66.3c4.8,0,8.8-3.9,8.8-8.8
			v-5.4c0-4.8-3.9-8.8-8.8-8.8H253.9z"/>
	</g>
	<circle fill="#FFFFFF" cx="504.3" cy="345.9" r="41.5"/>
	<polygon fill="#FFFFFF" points="543.8,512.4 464.8,512.4 459.8,387.4 548.8,387.4 	"/>
	<polygon fill="#FFFFFF" points="482,399.9 421.1,503.6 400.4,492.1 460.3,387.5 	"/>
	<polygon fill="#FFFFFF" points="526.4,399.9 587.3,503.6 608,492.1 548.1,387.5 	"/>
	<polygon fill="#FFFFFF" points="489.4,636.5 457.2,636.7 464.4,507.1 496.6,508.9 	"/>
	<polygon fill="#FFFFFF" points="519.1,636.5 551.2,636.7 544,507.1 511.9,508.9 	"/>
</g>
</svg>
