<?xml version="1.0" encoding="utf-8"?>
<!-- Generator: Adobe Illustrator 18.1.1, SVG Export Plug-In . SVG Version: 6.00 Build 0)  -->
<svg version="1.1" id="Layer_1" xmlns="http://www.w3.org/2000/svg" xmlns:xlink="http://www.w3.org/1999/xlink" x="0px" y="0px"
	 viewBox="0 0 791.4 920" enable-background="new 0 0 791.4 920" xml:space="preserve">
<g>
	<g>
		<polygon fill="#806BC1" points="771.3,676.9 395.7,893.7 20.1,676.9 20.1,243.2 395.7,26.3 771.3,243.2 		"/>
	</g>
	<g>
		<path d="M395.7,916.3L0.5,688.2V231.9L395.7,3.7l395.2,228.2v456.3L395.7,916.3z M39.7,665.6l356.1,205.5l356.1-205.5V254.5
			L395.7,48.9L39.7,254.5V665.6z"/>
	</g>
</g>
<g>
	<circle cx="395.7" cy="460" r="211"/>
	<path fill="#FFFFFF" d="M395.7,603c-78.9,0-143-64.2-143-143c0-78.9,64.2-143,143-143c78.9,0,143,64.2,143,143
		C538.7,538.9,474.6,603,395.7,603z M395.7,347c-62.3,0-113,50.7-113,113c0,62.3,50.7,113,113,113s113-50.7,113-113
		C508.7,397.7,458,347,395.7,347z"/>
	<g>
		<rect x="364.6" y="296" fill="#FFFFFF" width="62.2" height="183.7"/>
		<path d="M439.3,492.1h-87.2V283.5h87.2V492.1z M377.1,467.1h37.2V308.5h-37.2V467.1z"/>
	</g>
</g>
</svg>
