<?xml version="1.0" encoding="utf-8"?>
<!-- Generator: Adobe Illustrator 18.1.1, SVG Export Plug-In . SVG Version: 6.00 Build 0)  -->
<svg version="1.1" id="Layer_1" xmlns="http://www.w3.org/2000/svg" xmlns:xlink="http://www.w3.org/1999/xlink" x="0px" y="0px"
	 viewBox="0 0 790.4 920" enable-background="new 0 0 790.4 920" xml:space="preserve">
<g>
	<polygon fill="#3D87C9" points="770.8,676.9 395.2,893.7 19.6,676.9 19.6,243.2 395.2,26.3 770.8,243.2 	"/>
	<path d="M395.2,916.3L0,688.2V231.9L395.2,3.7l395.2,228.2v456.3L395.2,916.3z M39.2,665.6l356.1,205.5l356.1-205.5V254.5
		L395.2,48.9L39.2,254.5V665.6z"/>
</g>
<g>
	
		<rect x="195.7" y="254.1" transform="matrix(0.9848 -0.1736 0.1736 0.9848 -73.7171 68.3711)" fill="#FFFFFF" width="316.5" height="402.8"/>
	<path d="M455.5,349.2c-1.8,1.2-5.8-0.3-7.8-0.6c-3.2-0.5-6.1-0.4-9.4-0.2c-6.8,0.3-13.5-0.5-20.2-0.3c-3.4,0.1-7.4,1-10.5,2.6
		c-1.7,0.8-2.3,1.9-3.6,3.2c-2.8,2.8-7.5,2.1-11.4,2c-8.8-0.1-18.7-0.7-26.7,3.7c-2.2,1.2-2.8,1.9-5.6,2c-2.6,0.1-5.2,0.1-7.8,0.5
		c-2.9,0.4-5.9,1.1-8.6,2.2c-3.5,1.5-6.2,4.4-9.4,6.5c-8,5.1-17.7,2.3-26.3,0.1c-0.9-0.2-5.1,0.7-5.7,1.6c-2.4,3.8-5.2,8.1-9.8,9.1
		c-5.4,1.1-9.3,0.6-14.2-1.4c-6.1-2.4-13.5-5.7-20.2-4.7c-2.5,0.4-5,1.1-7.3,2.1c-4.1,1.8-6.8,5.2-11.2,5.4c-3.9,0.2-7.6,0.2-11.5,1
		c-1.4,0.3-2.8,0.6-4.2,1.1c-1.2,0.4-5.2,2.4-4.3,2.3c-1.3,0.2-2.7,0.5-4,1c-0.2,0.1-2.1,0.8-0.9,0.6c3.9-0.6,7.3-1.8,11-3.3
		c4.5-1.9,9.8-0.8,14.6-1.7c3.3-0.6,6.4-1.8,9.2-3.6c2.1-1.3,4.1-3.4,6.7-3.5c2.2-0.1,4.7,0.9,6.8,1.5c4.5,1.3,8.7,3.3,13.1,4.8
		c4,1.3,8.5,0.5,12.5-0.2c3.5-0.6,7.3-1.2,10.5-2.7c4.1-1.9,6.7-5.6,9.1-9.4c-1.9,0.5-3.8,1.1-5.7,1.6c11.4,2.8,23.1,4.5,34-1.1
		c3.9-2,7-5.7,10.9-7.5c4.2-1.9,10.1-0.5,14.7-1.6c3.6-0.9,6-2.7,9.3-4.1c3.7-1.6,9.1-0.8,13.1-0.7c3.2,0.1,6.4,0.1,9.6-0.1
		c4.1-0.3,9.3-0.9,13-2.9c2.1-1.1,3.2-4.3,5.4-4.9c1-0.3,3,0.3,4.1,0.4c2.2,0.2,4.4,0.3,6.6,0.3c4,0,8.1-0.2,12.1-0.4
		c4.3-0.1,8.2,0.9,12.4,1.2c4.5,0.3,9.6-0.8,13.3-3.3C460.2,348.4,457,348.2,455.5,349.2L455.5,349.2z"/>
	<path d="M463.6,371.8c-1.5,0.1-2.7,0-3.7-1.1c-0.5-0.5-5.5,0.9-5.8,1.6c-0.4,0.9-0.9,1.8-1.1,2.7c1.9-0.5,3.8-1.1,5.7-1.6
		c-5.3-1.4-9.4-5.2-13.6-8.6c-0.5-0.4-5.8,1-5.8,1.6c-0.1,2.5-0.7,4.9-0.2,7.4c1.9-0.5,3.8-1.1,5.7-1.6c-3.5-0.4-6.6-0.5-9.5-2.8
		c-0.5-0.4-5.8,1-5.8,1.6c-0.2,2.5-1.3,4.9-0.8,7.4c1.9-0.5,3.8-1.1,5.7-1.6c-4.3-0.7-8.9,1-13-0.2c-2.8-0.8-4.3-1-7.3-0.2
		c-3,0.8-5,2-7.2,4.3c-1.8,1.8-3.1,3.5-5.6,4.4c-3.1,1.1-5.5,0.1-8.4-1.1c-5.6-2.4-9.7-4.2-15.7-2.4c-2.7,0.8-5.3,1.8-7.8,2.9
		c-0.9,0.3-1.9,1-2.8,1.2c2.5-0.6-0.4-0.3-0.6-0.3c-1.5-0.1-3.1,0.2-4.6,0.3c-3.1,0.3-6.2,0.8-9.2,1.8c-3.2,1.1-4.9,3.3-7.1,5.7
		c-4.5,5-9.8,3.7-15.8,3.8c-3.4,0.1-6.7,0.6-10,1.5c-3,0.9-5.8,2.1-8.5,3.5c-0.6,0.3-4.1,2-3.1,1.7c-2.3,0.6-5.2-0.3-7.4-0.7
		c-7.7-1.5-15.7-3.3-23.5-1.8c-3.6,0.7-7,1.9-10.4,3.1c-4.9,1.6-9.6,0.4-14.5,1.2c-3.4,0.5-6.8,1.4-9.8,3c-3.9,2-8.1,7.4-12.7,5.5
		c-1.6-0.7-4.6,2-5.8,1.6c5.1,2.1,11.6-0.4,16-3.1c3.8-2.3,6.8-5.7,11.5-5.6c3.5,0.1,6.8,0.4,10.3-0.3c3.9-0.8,7.5-2.3,11.3-3.4
		c5.6-1.6,11.3-0.3,16.9,0.6c7.2,1.2,13,2.4,20,0.1c2.8-0.9,5.3-2.4,7.9-3.6c5-2.3,10.2-1.2,15.6-1.5c6.5-0.3,13.3-2,17.8-6.9
		c3.7-4,3.6-4.4,8.7-4.7c3.6-0.3,7.2-0.7,10.7-1.9c2.5-0.9,4.9-2,7.4-2.9c0.6-0.2,1.5-0.7,2.1-0.7c-4.1,0.3-0.2,0.9,0.3,1.2
		c2.1,1.1,4.9,1.9,7.2,2.9c6.6,2.8,14.1,2.1,20.3-1.6c1.6-1,2.9-2.3,4.2-3.6c0.7-0.7,1.4-1.8,2.2-2.3c2.4-1.5,0.2-0.4,1.7,0.2
		c4.4,1.7,8.6-0.5,13.3,0.3c0.6,0.1,5.8-1.1,5.7-1.6c-0.4-2.5,0.7-4.9,0.8-7.4c-1.9,0.5-3.9,1-5.8,1.6c2.9,2.3,6.2,2.4,9.7,2.9
		c0.6,0.1,5.8-1.1,5.7-1.6c-0.5-2.5,0.1-4.9,0.2-7.4c-1.9,0.5-3.9,1-5.8,1.6c4.3,3.5,8.4,7.2,13.8,8.6c0.7,0.2,5.5-0.8,5.7-1.6
		c0.2-1,0.7-1.8,1.1-2.7c-1.9,0.5-3.9,1-5.8,1.6c1.2,1.2,2.3,1.2,4,1.2C459.8,373.4,462.5,371.9,463.6,371.8L463.6,371.8z"/>
	<path d="M469.9,396.2c-9.7,3.7-20.9,1.6-31.1,2.3c-3,0.2-5.9,0.7-8.9,1.4c-4.4,1-9.3,3.3-13.8,2.6c-2.7-0.4-5-1.9-7.8-1.8
		c-1.9,0.1-4.1,0.7-5.9,1.4c-1.7,0.6-5.3,2.9-4.1,4.6c1.1,1.6,4.8,0.8,6.2,0.6c0.5-0.1,5-1.1,4.9-1.5c-2.8-9.5-17.9-1.3-23.1,1.5
		c-2.7,1.4-5.3,3-8,4.4c-3.4,1.8-6.1,1.1-9.9,0.6c-6.5-0.9-12.4-0.7-18.5,2c-1.1,0.5,1,0.1,1.1,0.1c1.3-0.2,2.7-0.6,3.9-1.2
		c2.3-1,7.5,0.7,10.1,1.1c2.5,0.3,5,0.5,7.4,0.1c3.2-0.5,6.4-1.6,9.4-3c5.3-2.5,18.9-14,21.8-4c1.6-0.5,3.3-1,4.9-1.5
		c-1.4,0.4-2.7,0.3-3.9-0.4c-1.3-0.2-1.4-0.8-0.3-1.8c2.2-1.9,2.1-2.3-0.3-1.1c0.7,0.1,1.4,0.2,2.1,0.4c2.3,0.6,4.6,1.6,7,1.6
		c6.5,0,12.7-3.5,19.2-4.2c7.9-0.9,15.9,0.1,23.8-0.6c6.2-0.5,12.2-2,18-4.2c1-0.4,0.8-0.4-0.1-0.4
		C472.7,395.2,471.1,395.8,469.9,396.2L469.9,396.2z"/>
	<path d="M340.1,412c-1.5,1.1-1.4,1.5,0.3,1.2c-0.6,0-1.1-0.1-1.7-0.2c-1.2-0.2-2.4-0.5-3.7-0.6c-2.1-0.2-3.7,0.2-5.8,0.7
		c-4.1,1.1-7.4,2.8-11,5.2c-2,1.3-3.9,3.2-5.9,4.4c-2.7,1.6-5.9-0.1-8.6-1.4c-4.3-2-7.3-3.3-12-2.1c-4.1,1.1-8.1,2.3-12.3,3.3
		c-5.1,1.2-10.4,2.5-15.2,4.5c-2.3,1-4.2,3.2-6.7,2.4c-1.2-0.4-1.7-1-3.1-1c-3,0-6.1,1.6-7.9,3.9c0.8-1,4.7-0.2,5.8-1.6
		c0.7-0.7,1.5-1.4,2.2-2.1c-1.8,0.5-3.5,0.9-5.3,1.4c1.7-0.1,2.7,1.3,4.2,1.7c1.3,0.4,2.7,0,4-0.3c5-1.1,8.7-4.4,13.4-6.1
		c5.8-2.1,12-2.5,17.8-4.4c5.6-1.9,10,3.3,15.5,4c8.1,1,13.1-3.6,19.2-7.7c2.6-1.8,4.1-3.2,7.4-3.1c2,0.1,3.7,0.7,5.7,0.5
		c3.4-0.4,6.9-1.5,9.2-4.1C345.2,411.2,341.2,410.8,340.1,412L340.1,412z"/>
	<path d="M479.9,420.3c-6.6,0.8-12.7-0.7-19.2,1.6c-2.3,0.8-3.9,2.3-6,3.4c-4.7,2.5-12.3,0.6-17.2-0.3c-0.7-0.1-5.6,0.9-5.7,1.6
		c-0.1,1-0.2,2-0.6,3c-0.3,0.8-1.4,1.9-1.5,2.6c-0.9,0.6-0.8,0.7,0.3,0.2c1.2-0.3,1.2-0.4,0-0.3c-0.4-0.2-1.4-0.2-1.8-0.3
		c-3.2-0.6-6.3-2-9.4-2.7c-10-2.5-19.8,2-29.7,3c-7.7,0.8-15.8,1.8-22.8,5.5c-4.2,2.3-8.9,8-13.9,6.9c-5.4-1.1-10.1-4.1-15.3-5.7
		c-0.8-0.2-5.3,0.8-5.7,1.6c-2.5,5.6-12,2.8-17.2,3.9c-3.3,0.7-6.5,1.7-9.5,3.1c-5.1,2.2-9.7,6-15.5,5.8c-4.8-0.1-9.3-2.8-14.1-2.1
		c-4.2,0.6-7.5,1.6-11.8,0.8c-3.4-0.6-6.3-0.7-9.7,0c-1.4,0.3-2.8,0.7-4.2,1.2c-1.2,0.4-3.2,1.7-4.1,1.9c-1.3,0.2-2.8,0.5-4,1
		c-0.2,0.1-2.1,0.8-0.9,0.6c3.2-0.4,6.4-1.3,9.4-2.6c4.9-2.1,9.5,0.6,14.7,0c3.1-0.4,5.6-1.6,8.9-1.3c3,0.3,5.8,1.6,8.7,1.9
		c4,0.5,7.9-0.2,11.8-1.3c3.9-1.1,7.4-2.8,11-4.7c3.2-1.7,6.1-3.4,9.8-3.5c2.3-0.1,4.5,0,6.8-0.1c5.1-0.2,13.4-1.1,15.8-6.4
		c-1.9,0.5-3.8,1.1-5.7,1.6c5.7,1.7,11.3,5.7,17.4,6c3.5,0.2,7.3-0.9,10.5-2.2c4.6-1.9,8-5.6,12.4-7.8c6.6-3.3,15-2.5,22.2-4.1
		c6.6-1.4,12.7-3.2,19.5-1.5c3.6,0.9,7.1,2.6,10.9,2.9c6.3,0.5,12.4-2,13.2-8.7c-1.9,0.5-3.8,1.1-5.7,1.6c8,1.6,15.6,1.8,23.4-0.5
		c2.6-0.8,4.5-2.1,6.8-3.4c3.5-1.9,8.7-0.3,12.8-0.8c1.3-0.2,2.8-0.4,4-1C479.2,420.8,481.1,420.1,479.9,420.3L479.9,420.3z"/>
	<path d="M468.8,452.9c-3.8,5.4-10.2,5.1-16.2,5.7c-6.7,0.6-13.4,1.3-20.1,1.8c-5.5,0.5-11.2,0.4-16.6,1.2c-1.4,0.2-2.8,0.5-4.1,1
		c-0.5,0.2-3.9,1.5-1.8,1.1c0.5-0.1,1-0.1,1.5-0.2c-2.1-0.8-4-2.7-6.3-3.1c-1.8-0.3-4.1,0.5-5.8,1.1c-2,0.6-3.6,1.3-5.2,2.7
		c-0.9,0.8-2,1.8-2.7,2.7c-0.3,0.4-0.9,0.9-1.3,1.1c0.9,0.2,0.9,0.3,0.2,0.1c-0.4,0-0.7-0.1-1.1-0.2c-5.2-0.9-9.6-1.5-14.8-0.6
		c-5.5,0.9-10.6,3.2-16,3.9c-1.5,0.2-3.2,0.4-4.6,1.1c-0.4,0.2-0.7,0.3-1.1,0.5c-3.9,2.4,1.1,0.4,1.1,0.4c0-0.1-2.8-0.7-3-0.8
		c-5.4-1.9-9.8-5.7-15.7-5.3c-3.4,0.3-7.5,1.1-10.2,3.2c-2.2,1.7-3.8,3.6-6.4,4.8c-4.1,2-8.8,2.4-13.2,3.5c-10.7,2.5-21,3-31.9,2
		c-3.1-0.3-6-0.4-9,0.4c-1.2,0.3-2.3,0.6-3.4,1c-0.6,0.2-1.1,0.4-1.7,0.7c-0.4,0.2-0.7,0.3-1.1,0.5c2.9-0.4,2.7-0.9-0.6-1.6
		c-0.8-0.4-5.3,0.8-5.8,1.6c-1.6,1.2-1.9,1.7-1,1.6c0.7,0,0.4,0-0.9-0.1c-1.1,0-2.5-0.4-3.6-0.6c-2.1-0.5-4.2-1.1-6.3-1.6
		c-1.6-0.3-4.7,1.8-5.6,1.6c6.8,1.5,18.2,4.9,23-2.6c-1.9,0.5-3.9,1-5.8,1.6c3.4,1.7,6.5,0.8,10-0.4c0.5-0.2,1-0.4,1.5-0.6
		c1.4-0.7,1.5-0.7,0.3-0.1c1.7-0.1,3.4,0.1,5.1,0.3c3.4,0.3,6.8,0.8,10.3,0.7c12.3-0.3,24.8-2.9,36.6-6.1c4.3-1.2,8.6-2.6,12.1-5.4
		c1.1-0.9,2.4-2.5,3.5-2.8c2.6-0.5,5.7,1.4,7.9,2.5c5.5,2.7,14.5,6.4,19.3,0c-1.9,0.5-3.8,1.1-5.7,1.6c4.6,0.5,9.3-1.4,13.6-2.9
		c5.7-2,10.9-1.6,16.7-0.5c3.8,0.8,8-0.2,11.4-2c2-1.1,3.3-3.6,5.2-4.6c1.4-0.7,1.4-0.1,3.1,0.8c0.9,0.5,1.8,1.3,2.8,1.5
		c3.1,0.6,7-2,9.7-2.3c9.1-0.8,18.3-1.4,27.4-2.3c9.6-0.9,25.4-0.3,31.7-9.3C473.9,452.4,469.8,451.5,468.8,452.9L468.8,452.9z"/>
	<path d="M476.4,478.5c-9.3,1.4-17.1,2.5-25.3,7.5c-3.7,2.2-5.6,3.1-9.7,2.4c-3.2-0.5-6.4-1.2-9.6-1.8c-5.9-1-28.5-4.3-27.3,7
		c1.9-0.5,3.8-1.1,5.7-1.6c-7.2-0.7-14.5-2.7-21.8-2.3c-6,0.3-12,1.4-17.7,3c-7.7,2.1-14.2,5.8-22.4,5.1c-6.7-0.6-13.5-2.7-20.2-1.5
		c-6.7,1.2-12.6,4.9-19.2,6.3c-5.3,1.1-10.8,1-16.2,1.3c-9.3,0.7-18.7,1.7-27.9,3.6c-5.7,1.2-19,3-21.3,9.7c1.9-0.5,3.9-1,5.8-1.6
		c-4.8-2.9-9.3-1.9-14.3-0.2c-3.5,1.1,2.1,0,3-0.3c1.3-0.4,4.3,1.4,5.5,2.1c0.6,0.4,5.6-0.9,5.8-1.6c1.5-4.5,8.2-5.9,12.2-6.8
		c5.7-1.3,11.6-2,17.4-2.6c10.4-1.1,21.1-0.8,31.3-3.4c2.6-0.7,5.1-1.5,7.5-2.4c2.1-0.8,4.1-2,6.3-2.5c2.7-0.6,5.5-0.2,8.2,0.1
		c7.7,0.9,15.1,2.4,22.8,0.7c7.9-1.7,14.9-5.8,23.1-6.9c9.1-1.1,17.6,0.9,26.6,1.8c0.6,0.1,5.7-1,5.7-1.6c-0.2-2.1,0.2-4,2.1-5.2
		c-0.6,0.4-0.9,0.2,0.1,0.1c0.7-0.1,1.5-0.1,2.3,0c1.4,0,2.8,0.1,4.2,0.3c5.6,0.6,11.1,1.8,16.6,2.7c4.4,0.7,8,0.2,12.3-1.1
		c3-0.9,5.7-2.3,8.3-3.9c5.3-3.2,10.2-4.1,16.3-5c1.3-0.2,3-0.4,4.1-1.1C477.2,478.5,477.6,478.3,476.4,478.5L476.4,478.5z"/>
	<path d="M480.2,510.2c-1.9,1.4-0.3,0.9-2.2,0.5c-1.3-0.3-2.6-0.7-3.9-1.1c-2-0.6-3.9-1.2-6-1c-2.6,0.2-5.9,1-7.9,2.7
		c-1.8,1.5-1.6,2.2-4.4,2.1c-1.9-0.1-3.7-0.2-5.6,0.1c-3.4,0.5-7,1.5-9.7,3.7c1.9-0.5,3.8-1,5.7-1.5c-3.5-2-6.7-1.5-10.4-0.1
		c-1.6,0.7-2.7,1.7-4.2,2.7c-2.6,1.9-5,1.4-8,1c-10.3-1.4-19.7-2.2-29.5,2.2c-1.7,0.6-1.9,0.7-0.5,0.4c-0.7,0.1-1.4,0.2-2,0.3
		c-1.4,0.2-2.7,0.4-4.1,0.7c-1.8,0.4-1.5,0.3-2.9,0.6c-1.9,0.5-3.9,1.5-5.9,1.9c-2.8,0.6-4.9-1.1-7.1-2.8c-3.3-2.6-5.9-3.5-10.1-2.6
		c-1.6,0.3-3.4,0.7-4.8,1.5c-0.7,0.4-1.2,0.8-1.8,1.4c-0.5,0.5-1,1-1.4,1.4c-1.5,1-1,1,1.6,0c-0.8,0-5.5,0.7-5.7,1.6
		c-0.3,1.7-0.8,2.5-1.8,4c-1,0.6-0.8,0.7,0.5,0.4c-0.5,0-1.1,0.1-1.6,0.1c-2.4,0-4.8-0.3-7.2-0.5c-3.9-0.4-7.4-0.3-11.1,0.8
		c-4.5,1.3-9.5,6.2-14,5.3c-5-1-8.5-6.2-14-5.6c-1.6,0.2-3.5,0.7-4.9,1.3c-2.2,0.9-3.5,3-5.8,3.4c-2.8,0.5-5.9-0.5-8.8-0.1
		c-2.4,0.3-4.9,1-7.3,1.6c-4.5,1.1-9.6,2.3-13.3,5.1c-1.9,1.4-3.4,3.3-5.2,4.8c-0.4,0.4-0.8,0.7-1.2,1c-1.5,0.9-1.1,0.9,1.4,0
		c-0.4,1.1-4.1-3.2-4.2-3.3c-0.6-0.9-5.6,1.8-5.8,1.6c3,4.2,6.5,3.7,11,2c2.2-0.8,4-2.2,5.7-3.8c3.5-3.2,5.5-5.1,10.4-6.5
		c6.7-1.9,13.5,0.2,20.2-1.9c2.2-0.7,4.6-1.8,6-3.6c1.8-1.2,1.2-1.2-1.8,0c1.1,0.1,2.1,0.5,3,1c1.5,0.7,2.8,1.7,4.2,2.5
		c5,2.9,9.2,2.9,14.6,1.1c2.6-0.8,4.8-2,7.1-3.4c2.8-1.7,4-2,7.3-1.7c6.7,0.6,20.8,2.3,22.5-7c-1.9,0.5-3.8,1.1-5.7,1.6
		c2.9-0.1,6.4-0.7,8.8-2.3c0.7-0.5,1.8-1.3,2.2-2.1c1.2-0.9,0.9-1-0.7-0.3c0.7,0,1.3,0.2,2,0.4c2.2,0.7,3.8,2.5,5.7,3.8
		c3.4,2.3,6.2,2.2,10,1.2c1.8-0.5,3.8-1.1,5.5-1.9c3.3-1.5-1.8,0.1,0.3-0.2c0.8-0.1,1.7-0.4,2.5-0.5c3.6-0.6,7.1-1.2,10.6-2.3
		c5.6-1.8,9-2.3,14.5-1.7c2.9,0.3,5.8,0.9,8.8,1.2c4.3,0.5,8.1,0.1,12.1-1.2c1.6-0.5,3-1.1,4.4-2c0.7-0.5,1.8-1.2,2.4-1.9
		c1.4-0.9,0.9-1-1.5-0.2c1.3,0.2,2.4,0.7,3.4,1.4c0.9,0.5,4.9-0.8,5.7-1.5c2.5-2.1,8.7-0.6,12.2-1.4c1.2-0.3,2.7-0.6,3.9-1.1
		c1.6-0.8,2.1-2.2,3.5-3.3c-0.4,0.1-0.7,0.2-1.1,0.3c0.9,0.1,1.7,0.3,2.5,0.6c1.1,0.3,2.1,0.7,3.2,1c2.1,0.6,4,0.9,6.2,0.6
		c3.3-0.4,6.6-1.5,9.2-3.6C485.1,509.4,481.6,509.1,480.2,510.2L480.2,510.2z"/>
	<path d="M494.9,536c-12.1-2-24-4.9-35.8-0.3c-6.6,2.6-12,7.6-18.6,10.2c-9.3,3.7-19.8,2-29.3,1c-6.5-0.7-13.2-1.4-19.7-0.4
		c-6.8,1.1-12.8,3.7-19.8,2.7c-6.4-0.9-17.8-1.6-18.8,7c0-0.4,5.7-0.5,5.8-1.6c0.1-1.1,0.3-2.2,0.8-3.2c1.4-2.4,2.1-1.1,0.4-1.3
		c2.1,0.2,4.2,0.4,6.3,0.6c4.3,0.6,8.2,0.3,12.4-0.6c3.4-0.7,6.7-2,10.1-2.4c3.7-0.5,7.6-0.2,11.2,0.1c6.9,0.5,13.7,1.7,20.6,1.8
		c9.9,0.1,20.2-2,28.9-6.9c6.8-3.8,12.2-8.5,20.4-8.1c6.6,0.4,13,1.8,19.5,2.9C491,537.9,494,535.9,494.9,536L494.9,536z"/>
	<path d="M342.6,559.2c-4.2-3.5-9.3-2.9-14-0.4c-2.5,1.4-4.3,3.6-6.4,5.5c-1,0.9-1.9,1.9-3.2,2.1c-2.2,0.3-5.4-2.4-7.1-3.6
		c-3.4-2.4-6.7-4.5-11.1-4.3c-3.2,0.2-6.2,1.5-9.2,2.4c-5.4,1.8-11.3,2.5-16.9,3.7c-6.3,1.3-12.7,2.8-19,4.3
		c-1.8,0.5-5.5,1.9-1.4,0.9c11.8-2.9,23.9-4.9,35.7-7.8c3.7-0.9,6.7-2.6,10.5-1.1c4,1.6,7,5.1,11.1,6.6c4,1.4,9.2,0,12.8-2
		c2.5-1.4,4.4-3.6,6.5-5.6c0.7-0.6,3.3-2.2,1.7-1.9c-1.6,0.3,0.8,0.5,1.5,0.8c1,0.5,1.8,1.2,2.7,1.9
		C338,561.6,342.1,558.7,342.6,559.2L342.6,559.2z"/>
	<path d="M506.2,557.4c-10.5,0.7-20.7,2.9-31.3,3.4c-9.6,0.4-18.7,3.8-28.2,5c-6.1,0.8-14.3,1.5-19.1,6c-1.7,1.6-2.4,2.7-4.7,3.4
		c-2.4,0.7-5,0.3-7.4,0.1c-4.9-0.4-9.7-1.4-14.6-1.6c-4.9-0.2-11.8,0.4-15.8,3.6c-0.9,0.7-7.2,7.8-7,8.2c-0.5-0.9,3.9,0.8,2.5-0.9
		c-0.1-0.1-1.8-0.7-2.2-0.9c-1.8-0.8-3.6-1.7-5.4-2.6c-6.2-3.1-10.7-3.6-17.7-2.6c-7.1,1-14,2.8-20.5,5.7c-5,2.2-9.9,4.8-15,6.9
		c-8.7,3.6-16.9,3.2-26,3.3c-4.3,0-8.6,0.3-12.8,1.2c-4.5,1-9.4,3.8-14,3.8c-1.8,0-4.4,1.6-5.6,1.6c7,0,13.3-3.9,20.2-4.7
		c9.8-1.2,19.6,0.4,29.4-1.9c7.7-1.7,14.8-4.8,21.9-8.1c8.8-4.2,20.8-9.8,30.5-5.5c4.2,1.9,9.1,6,13.9,5.5c1.8-0.2,4.1-0.8,5.6-1.7
		c3.3-1.9,4.4-6.1,7.4-8.3c2.9-2.2,8.8-0.7,12.3-0.3c4.3,0.5,8.7,1.2,13.1,1.1c5.4-0.2,12.1-1.3,16.1-5.2c2.9-2.8,3.5-3.5,8.3-4.3
		c2.4-0.4,4.8-0.6,7.2-0.9c6.6-0.9,12.8-3.3,19.4-4.1c5.6-0.6,11.2-0.3,16.7-1.1c5.9-0.8,11.8-2.1,17.8-2.5c1.3-0.1,2.8-0.5,4-1
		C505.6,557.9,507.4,557.3,506.2,557.4L506.2,557.4z"/>
	<path d="M511.7,577.4c-9.3-2.1-18-1.3-26.5,2.9c-7,3.5-13.3,7.6-21.1,9.4c-7.7,1.7-15.8,2.1-23.6,1c-1.7-0.2-4.6,1.8-5.6,1.6
		c11.9,1.7,24.3-0.2,35.6-3.8c5.3-1.6,10.1-4,14.9-6.7c2.9-1.6,5.9-3.7,9.2-4.1c3.8-0.4,7.8,0.5,11.4,1.3
		C507.8,579.4,510.9,577.2,511.7,577.4L511.7,577.4z"/>
	<path d="M421.9,598.2c-0.9,1.3-0.5,1.7,1.3,1.3c-0.8-0.2-1.6-0.5-2.3-1c-1.2-0.7-2.2-1.6-3.1-2.5c-0.6-0.6-5.4,1-5.8,1.6
		c-0.8,1.2-2,1.9-2.7,3.1c1.9-0.5,3.9-1,5.8-1.6c-1.5-1.2-3.3-2.1-4.8-3.2c-0.7-0.5-5.4,0.9-5.8,1.6c-0.7,1.3-2.7,3.4-3.1,4.7
		c-1.5,1.1-0.5,0.9,3-0.6c-0.4,0-0.7-0.1-1.1-0.2c-1.9-0.7-4-0.6-5.9-0.3c-4.3,0.6-8.7,2.2-12.6,4.2c-3.2,1.6-6.3,3.9-9.7,5.1
		c-4.2,1.5-9,0.6-13.3-0.1c-5.4-0.8-10.4-2.1-15.8-1c-5.5,1.1-10.2,3.4-15,6.4c-4.2,2.6-7.9,4-12.9,3.7c-4.7-0.2-9.3-1.3-14-1.4
		c-11.2-0.3-22.8,5.4-30.4,13.4c0.6-0.6,4.5-0.2,5.6-1.4c5.4-5.7,13-10.8,21-10.3c7.2,0.4,14.1,2.2,21.3,0.8c5.1-1,9.6-2.8,13.9-5.5
		c3.6-2.2,6.8-4.9,11.2-4.7c3,0.2,5.9,0.9,8.9,1.4c12.8,2.1,22.1-1.1,33.2-7c3-1.6,5-2.5,8.4-1.9c1.5,0.3,2.6,0.4,4.1,0.1
		c4.8-0.8,6.8-2.8,9-7.1c-1.9,0.5-3.9,1-5.8,1.6c1.6,1.1,3.3,2,4.8,3.2c0.6,0.5,5.4-0.9,5.8-1.6c0.7-1.1,1.9-2,2.7-3.1
		c-1.9,0.5-3.9,1-5.8,1.6c2.6,2.6,5.2,4.1,8.9,3.4c3-0.6,5.7-1.3,6.8-4.3C427.4,597.4,422.4,596.9,421.9,598.2L421.9,598.2z"/>
	<path d="M448.4,298.1c-12.1-2-24-4.9-35.8-0.3c-6.6,2.6-12,7.6-18.6,10.2c-9.3,3.7-19.8,2-29.3,1c-6.5-0.7-13.2-1.4-19.7-0.4
		c-6.8,1.1-12.8,3.7-19.8,2.7c-6.4-0.9-17.8-1.6-18.8,7c0-0.4,5.7-0.5,5.8-1.6c0.1-1.1,0.3-2.2,0.8-3.2c1.4-2.4,2.1-1.1,0.4-1.3
		c2.1,0.2,4.2,0.4,6.3,0.6c4.3,0.6,8.2,0.3,12.4-0.6c3.4-0.7,6.7-2,10.1-2.4c3.7-0.5,7.6-0.2,11.2,0.1c6.9,0.5,13.7,1.7,20.6,1.8
		c9.9,0.1,20.2-2,28.9-6.9c6.8-3.8,12.2-8.5,20.4-8.1c6.6,0.4,13,1.8,19.5,2.9C444.5,300,447.4,298,448.4,298.1L448.4,298.1z"/>
	<path d="M296.1,321.3c-4.2-3.5-9.3-2.9-14-0.4c-2.5,1.4-4.3,3.6-6.4,5.5c-1,0.9-1.9,1.9-3.2,2.1c-2.2,0.3-5.4-2.4-7.1-3.6
		c-3.4-2.4-6.7-4.5-11.1-4.3c-3.2,0.2-6.2,1.5-9.2,2.4c-5.4,1.8-11.3,2.5-16.9,3.7c-6.3,1.3-12.7,2.8-19,4.3
		c-1.8,0.5-5.5,1.9-1.4,0.9c11.8-2.9,23.9-4.9,35.7-7.8c3.7-0.9,6.7-2.6,10.5-1.1c4,1.6,7,5.1,11.1,6.6c4,1.4,9.2,0,12.8-2
		c2.5-1.4,4.4-3.6,6.5-5.6c0.7-0.6,3.3-2.2,1.7-1.9c-1.6,0.3,0.8,0.5,1.5,0.8c1,0.5,1.8,1.2,2.7,1.9
		C291.4,323.7,295.5,320.8,296.1,321.3L296.1,321.3z"/>
	<path d="M459.7,319.5c-10.5,0.7-20.7,2.9-31.3,3.4c-9.6,0.4-18.7,3.8-28.2,5c-6.1,0.8-14.3,1.5-19.1,6c-1.7,1.6-2.4,2.7-4.7,3.4
		c-2.4,0.7-5,0.3-7.4,0.1c-4.9-0.4-9.7-1.4-14.6-1.6c-4.9-0.2-11.8,0.4-15.8,3.6c-0.9,0.7-7.2,7.8-7,8.2c-0.5-0.9,3.9,0.8,2.5-0.9
		c-0.1-0.1-1.8-0.7-2.2-0.9c-1.8-0.8-3.6-1.7-5.4-2.6c-6.2-3.1-10.7-3.6-17.7-2.6c-7.1,1-14,2.8-20.5,5.7c-5,2.2-9.9,4.8-15,6.9
		c-8.7,3.6-16.9,3.2-26,3.3c-4.3,0-8.6,0.3-12.8,1.2c-4.5,1-9.4,3.8-14,3.8c-1.8,0-4.4,1.6-5.6,1.6c7,0,13.3-3.9,20.2-4.7
		c9.8-1.2,19.6,0.4,29.4-1.9c7.7-1.7,14.8-4.8,21.9-8.1c8.8-4.2,20.8-9.8,30.5-5.5c4.2,1.9,9.1,6,13.9,5.5c1.8-0.2,4.1-0.8,5.6-1.7
		c3.3-1.9,4.4-6.1,7.4-8.3c2.9-2.2,8.8-0.7,12.3-0.3c4.3,0.5,8.7,1.2,13.1,1.1c5.4-0.2,12.1-1.3,16.1-5.2c2.9-2.8,3.5-3.5,8.3-4.3
		c2.4-0.4,4.8-0.6,7.2-0.9c6.6-0.9,12.8-3.3,19.4-4.1c5.6-0.6,11.2-0.3,16.7-1.1c5.9-0.8,11.8-2.1,17.8-2.5c1.3-0.1,2.8-0.5,4-1
		C459,320,460.8,319.4,459.7,319.5L459.7,319.5z"/>
	<path fill="#3D87C9" d="M421.1,361.6c-9.4,3.2-25.7,20.7-14.4,30.2c8.6,7.2,24.5,4.4,34.4,2.6c10.4-1.9,23.4-4.6,28.9-14.8
		c4.8-8.9-5.8-14.6-12.8-16.8C446.2,359.3,432.3,357.9,421.1,361.6c-2.3,0.8,1.8,3.5,3.5,2.9c8-2.7,17.8-1.9,26-0.3
		c5.3,1,17.5,3.7,15.6,11.5c-2.1,8.5-13,12.1-20.3,13.9c-9.8,2.4-21.2,4.6-31.2,2.5c-6.9-1.5-7.9-7.2-5.2-13.4
		c2.8-6.3,8.6-12,15.1-14.2C427,363.8,422.9,361.1,421.1,361.6L421.1,361.6z"/>
	<path fill="#3D87C9" d="M263.2,494.7c19.2,0,39.3-0.5,57.8-6.1c3.9-1.2,7.6-3.1,11.4-4.6c5.5-2.1,10.2-2.6,15.9-1.5
		c7.6,1.4,14.3,2.5,21.9,0c2.2-0.7-1.9-3.4-3.5-2.9c-8.5,2.8-16.1-0.3-24.6-1c-8-0.7-15,3.5-22.2,6.2c-17.9,6.6-39.3,6.6-58.1,6.6
		C258.4,491.5,261.1,494.7,263.2,494.7L263.2,494.7z"/>
	<path fill="#3D87C9" d="M391.5,455.3c-9.7,0.3-27,8.3-21,20.9c5.3,11,20.7,10.8,30.9,8.8c5.7-1.1,11.2-3.1,16.2-5.9
		c3.1-1.7,6.9-4.2,7.7-7.9c1.6-6.8-7.8-11.2-12.7-13.4c-9.4-4.3-19.6-6.8-29.5-9.4c-2.7-0.7-4.5,2.6-1.4,3.5
		c6.2,1.6,42.9,9.2,38.3,19.5c-1.9,4.3-8.9,6.7-12.9,8.2c-5.4,2-11.4,3.1-17.2,2.9c-6.4-0.2-15.9-3.1-15.6-11.2
		c0.3-8,10.4-12.1,17-12.3C394.5,458.8,394.6,455.2,391.5,455.3L391.5,455.3z"/>
	<path fill="#3D87C9" d="M398.6,538.4c-8.9,4.9-17.3,10.4-25,17c-0.5,0.4,3,4,3.8,3.3c7.7-6.6,16.1-12.1,25-17
		C402.6,541.6,399.6,537.8,398.6,538.4L398.6,538.4z"/>
	<path fill="#3D87C9" d="M371.3,546.2c11.6,2.1,22.5,6.8,34,9c3.1,0.6-0.5-2-1.8-2.3c-11.5-2.2-22.4-6.9-34-9
		C366.4,543.4,370,546,371.3,546.2L371.3,546.2z"/>
	<path fill="#3D87C9" d="M261.9,340.5c11.6-1.2,22.4-5.8,34-7c3.1-0.3,2-5.1-0.8-4.8c-11.6,1.2-22.4,5.8-34,7
		C257.9,336,259,340.8,261.9,340.5L261.9,340.5z"/>
	<path fill="#3D87C9" d="M364.5,296.8c3.7,10.3,15.2,5.3,22,1.3c1.1-0.7,3.8-3,5.1-3.1c0.4,0,4,1.3,5.1,1.5c1.7,0.2,3.4,0.4,5.1,0.5
		c7.9,0.4,15.8-0.8,23.2-3.5c2.9-1.1,1.8-5-1.2-3.9c-6.6,2.4-13.6,3.6-20.6,3.3c-3.1-0.1-6.2-0.6-9.2-1.3c-2.1-0.5-2.9-0.8-4.8,0
		c-4.9,2.3-16.6,12.6-19.9,3.7C368.4,292.8,363.6,294.3,364.5,296.8L364.5,296.8z"/>
	<path fill="#3D87C9" d="M466.7,571.8c-9.4,1.5-19.5,3.3-27.2,9.3c-6.2,4.9-9.4,15.5-0.5,19.3c7.6,3.2,17.5,1.4,25.2-0.4
		c8.2-1.9,17-5.5,23.3-11.3c3-2.8,6.1-7.1,4.2-11.4c-2.4-5.5-11.2-5.1-16.1-5.6c-1.4-0.1-4.1,2.5-4.1,2.5c4.5,0.4,11.5,0.1,14.8,3.8
		c3.6,4.1,0.5,9.5-3,12.4c-6.7,5.7-16.4,7.9-25,8.7c-6.4,0.6-18.4,1.2-20.2-7.2c-2.8-13.7,15.8-16.2,25.2-17.7
		C464.2,574.2,467.6,571.7,466.7,571.8L466.7,571.8z"/>
	<path fill="#3D87C9" d="M303.5,601.8c18.2-10.5,40.2-11.1,60.5-13.8c11.8-1.6,23.5-3.5,35.4-3.9c12.8-0.4,25.5,0.5,38.1,2
		c2.6,0.3,5-3.5,1.7-3.8c-12.8-1.5-25.6-2.5-38.5-2.1c-12.2,0.3-24.1,2.2-36.2,3.9c-21.2,3-44.2,3.5-63.2,14.5
		C298.6,600,300.9,603.2,303.5,601.8L303.5,601.8z"/>
	<path fill="#3D87C9" d="M311.1,599.3c-5.4,1.8-10.5,4.4-15.7,6.8c1.6,0.1,3.3,0.1,4.9,0.2c2-4.5,3.2-9.2,4.3-13.9
		c0.1-0.4-4.8-1-5,0c-1.1,4.7-2.3,9.4-4.3,13.9c-0.2,0.6,4.4,0.4,4.9,0.2c5-2.3,9.9-4.8,15.2-6.6c1-0.3-0.7-0.6-0.9-0.7
		C313.5,599,312.1,599,311.1,599.3L311.1,599.3z"/>
	<g>
		<polyline fill="#F9F9F9" points="587.4,579.6 581.2,592.7 577,578.8 		"/>
		<path d="M576.4,583.5c-2.3-23.2-1.4-71.3,3-126.7c6.1-77.5,16.7-140,23.6-139.4c6.9,0.5,7.5,63.8,1.4,141.4
			c-4.4,55.4-11,103-17,125.5"/>
		<path d="M614.2,327.3c-0.5,6.1-5.8,10.7-12,10.2l-1.8-0.1c-6.1-0.5-10.7-5.8-10.2-12l0.9-11.7c0.5-6.1,5.8-10.7,12-10.2l1.8,0.1
			c6.1,0.5,10.7,5.8,10.2,12L614.2,327.3z"/>
		<g>
			
				<rect x="581.6" y="315.4" transform="matrix(0.9969 7.887214e-002 -7.887214e-002 0.9969 31.0792 -46.07)" width="34.3" height="110"/>
			<path fill="#3D87C9" d="M613.8,429.2l-39.2-3.1l9.1-114.6l39.2,3.1L613.8,429.2z M580,421.6l29.2,2.3l8.3-104.6l-29.2-2.3
				L580,421.6z"/>
		</g>
		<polygon points="621.9,408.5 613.9,407.8 619,344.1 611.7,341.2 614.8,333.8 627.4,339 		"/>
	</g>
</g>
</svg>
