<?xml version="1.0" encoding="utf-8"?>
<!-- Generator: Adobe Illustrator 18.1.1, SVG Export Plug-In . SVG Version: 6.00 Build 0)  -->
<svg version="1.1" id="Layer_1" xmlns="http://www.w3.org/2000/svg" xmlns:xlink="http://www.w3.org/1999/xlink" x="0px" y="0px"
	 viewBox="0 0 791.4 920" enable-background="new 0 0 791.4 920" xml:space="preserve">
<g>
	<g>
		<polygon fill="#F1EA3A" points="771.3,676.9 395.7,893.7 20.1,676.9 20.1,243.2 395.7,26.3 771.3,243.2 		"/>
	</g>
	<g>
		<path d="M395.7,916.3L0.5,688.2V231.9L395.7,3.7l395.2,228.2v456.3L395.7,916.3z M39.7,665.6l356.1,205.5l356.1-205.5V254.5
			L395.7,48.9L39.7,254.5V665.6z"/>
	</g>
</g>
<g>
	<path fill="#FFFFFF" d="M510.6,399.2c0,57.7-46.8,104.4-104.4,104.4c-57.7,0-104.4-46.8-104.4-104.4c0-57.7,46.8-104.4,104.4-104.4
		C463.9,294.8,510.6,341.5,510.6,399.2z"/>
	<polygon fill="#FFFFFF" points="476.1,478 328.4,625.7 180.7,478 328.4,330.3 	"/>
	<path fill="#FFFFFF" d="M355,399.2c0,57.7-46.8,104.4-104.4,104.4c-57.7,0-104.4-46.8-104.4-104.4c0-57.7,46.8-104.4,104.4-104.4
		C308.3,294.8,355,341.5,355,399.2z"/>
	<path d="M666.2,399.2c0,57.7-46.8,104.4-104.4,104.4c-57.7,0-104.4-46.8-104.4-104.4c0-57.7,46.8-104.4,104.4-104.4
		C619.4,294.8,666.2,341.5,666.2,399.2z"/>
	<polygon points="631.6,478 483.9,625.7 336.3,476.7 483.9,330.3 	"/>
	<path d="M510.6,399.2c0,57.7-46.8,104.4-104.4,104.4c-57.7,0-104.4-46.8-104.4-104.4c0-57.7,46.8-104.4,104.4-104.4
		C463.8,294.8,510.6,341.5,510.6,399.2z"/>
	<g>
		<defs>
			<path id="SVGID_1_" d="M480.1,473c-20.2,20.3-73.9,74.9-73.9,74.9s-54.5-54.3-75-74.9c-40.8-40.8-39.5-106.9,1.2-147.7
				c40.8-40.8,106.9-40.8,147.7,0C520.9,366.1,520.9,432.2,480.1,473z"/>
		</defs>
		<clipPath id="SVGID_2_">
			<use xlink:href="#SVGID_1_"  overflow="visible"/>
		</clipPath>
		<line clip-path="url(#SVGID_2_)" fill="none" stroke="#FFFFFF" stroke-width="15" x1="440.9" y1="295.7" x2="295.2" y2="441.4"/>
		<line clip-path="url(#SVGID_2_)" fill="none" stroke="#FFFFFF" stroke-width="15" x1="406.6" y1="276.3" x2="269.6" y2="413.3"/>
		<line clip-path="url(#SVGID_2_)" fill="none" stroke="#FFFFFF" stroke-width="15" x1="500" y1="346.3" x2="347" y2="499.4"/>
		<line clip-path="url(#SVGID_2_)" fill="none" stroke="#FFFFFF" stroke-width="15" x1="475.1" y1="317.5" x2="321.6" y2="471"/>
		<line clip-path="url(#SVGID_2_)" fill="none" stroke="#FFFFFF" stroke-width="15" x1="517.4" y1="381.3" x2="372.5" y2="526.2"/>
		<line clip-path="url(#SVGID_2_)" fill="none" stroke="#FFFFFF" stroke-width="15" x1="540.8" y1="411.6" x2="396" y2="556.5"/>
	</g>
</g>
</svg>
