<?xml version="1.0" encoding="utf-8"?>
<!-- Generator: Adobe Illustrator 18.1.1, SVG Export Plug-In . SVG Version: 6.00 Build 0)  -->
<svg version="1.1" id="Layer_1" xmlns="http://www.w3.org/2000/svg" xmlns:xlink="http://www.w3.org/1999/xlink" x="0px" y="0px"
	 viewBox="0 0 791.4 920" enable-background="new 0 0 791.4 920" xml:space="preserve">
<g>
	<g>
		<polygon fill="#DD62BD" points="771.3,676.9 395.7,893.7 20.1,676.9 20.1,243.2 395.7,26.3 771.3,243.2 		"/>
	</g>
	<g>
		<path d="M395.7,916.3L0.5,688.2V231.9L395.7,3.7l395.2,228.2v456.3L395.7,916.3z M39.7,665.6l356.1,205.5l356.1-205.5V254.5
			L395.7,48.9L39.7,254.5V665.6z"/>
	</g>
</g>
<g>
	<g>
		<g>
			<path stroke="#EE8C31" stroke-miterlimit="10" d="M393.1,458.4"/>
			<rect x="284.1" y="181.3" width="46.8" height="365.8"/>
			<rect x="124.6" y="340.9" width="365.8" height="46.8"/>
			<polygon points="419.2,511 378.7,534.4 195.8,217.5 236.3,194.2 			"/>
			<polygon points="477.6,435.5 454.2,476 137.4,293.1 160.8,252.5 			"/>
			<polygon points="160.8,476 137.4,435.5 454.2,252.5 477.6,293.1 			"/>
			<polygon points="236.3,534.4 195.8,511 378.7,194.2 419.2,217.5 			"/>
		</g>
		<path d="M461.7,365.3c0,85.2-69,154.2-154.2,154.2c-85.2,0-154.2-69.1-154.2-154.2c0-85.2,69.1-154.2,154.2-154.2
			C392.7,211.1,461.7,280.1,461.7,365.3z"/>
		<path fill="#FFFFFF" d="M307.5,495.5c-71.8,0-130.2-58.4-130.2-130.2c0-71.8,58.4-130.2,130.2-130.2
			c71.8,0,130.2,58.4,130.2,130.2C437.7,437.1,379.3,495.5,307.5,495.5z M307.5,240.1c-69,0-125.2,56.2-125.2,125.2
			c0,69,56.2,125.2,125.2,125.2c69,0,125.2-56.2,125.2-125.2C432.7,296.3,376.5,240.1,307.5,240.1z"/>
		<path fill="#DD62BD" d="M345.3,365.3c0,20.9-16.9,37.8-37.8,37.8c-20.9,0-37.8-16.9-37.8-37.8c0-20.9,16.9-37.8,37.8-37.8
			C328.4,327.5,345.3,344.4,345.3,365.3z"/>
		<path fill="#FFFFFF" d="M307.5,428.6c-34.9,0-63.3-28.4-63.3-63.3c0-34.9,28.4-63.3,63.3-63.3c34.9,0,63.3,28.4,63.3,63.3
			C370.8,400.2,342.4,428.6,307.5,428.6z M307.5,306.9c-32.2,0-58.4,26.2-58.4,58.4c0,32.2,26.2,58.4,58.4,58.4
			c32.2,0,58.4-26.2,58.4-58.4C365.9,333.1,339.7,306.9,307.5,306.9z"/>
	</g>
	<g>
		<g>
			<path stroke="#EE8C31" stroke-miterlimit="10" d="M574.2,668.3"/>
			<polygon points="513.5,721 479.9,712.6 545.5,449.5 579.2,457.9 			"/>
			<rect x="512.2" y="449.7" transform="matrix(-0.2421 0.9702 -0.9702 -0.2421 1225.5947 213.2246)" width="34.7" height="271.2"/>
			<rect x="512.2" y="449.7" transform="matrix(0.9613 -0.2755 0.2755 0.9613 -140.7629 168.5549)" width="34.7" height="271.2"/>
			<rect x="512.2" y="449.7" transform="matrix(0.6948 -0.7192 0.7192 0.6948 -259.3152 559.4449)" width="34.7" height="271.2"/>
			<rect x="512.2" y="449.7" transform="matrix(0.2754 0.9613 -0.9613 0.2754 946.3071 -84.9732)" width="34.7" height="271.2"/>
			<rect x="512.2" y="449.7" transform="matrix(0.7192 0.6948 -0.6948 0.7192 555.3626 -203.5738)" width="34.7" height="271.2"/>
		</g>
		<path d="M640.3,613.7c-15.3,61.3-77.3,98.5-138.6,83.2c-61.3-15.3-98.5-77.3-83.2-138.6c15.3-61.3,77.4-98.5,138.6-83.2
			C618.3,490.4,655.6,552.4,640.3,613.7z"/>
		<path fill="#FFFFFF" d="M529.4,683.2c-7.9,0-15.9-1-23.6-2.9c-25.2-6.3-46.4-22-59.8-44.2c-13.4-22.2-17.3-48.4-11-73.5
			c10.8-43.4,49.6-73.6,94.2-73.6c7.9,0,15.9,1,23.6,2.9c25.2,6.3,46.4,22,59.7,44.2c13.4,22.2,17.3,48.4,11,73.5
			C612.8,652.9,574,683.2,529.4,683.2z M529.3,493.8c-42.3,0-79.1,28.7-89.4,69.9c-6,23.9-2.3,48.7,10.4,69.8
			c12.7,21.1,32.8,36,56.7,42c7.3,1.8,14.9,2.8,22.4,2.8c42.3,0,79.1-28.7,89.3-69.9c6-23.9,2.3-48.7-10.4-69.8
			c-12.7-21.1-32.8-36-56.7-42C544.3,494.7,536.8,493.8,529.3,493.8z"/>
		<path fill="#DD62BD" d="M556.6,592.8c-3.7,15-19,24.2-34,20.4c-15-3.8-24.2-19-20.4-34c3.8-15,19-24.2,34-20.4
			C551.2,562.6,560.3,577.8,556.6,592.8z"/>
	</g>
</g>
</svg>
