<?xml version="1.0" encoding="utf-8"?>
<!-- Generator: Adobe Illustrator 18.1.1, SVG Export Plug-In . SVG Version: 6.00 Build 0)  -->
<svg version="1.1" id="Layer_1" xmlns="http://www.w3.org/2000/svg" xmlns:xlink="http://www.w3.org/1999/xlink" x="0px" y="0px"
	 viewBox="0 0 790.4 920" enable-background="new 0 0 790.4 920" xml:space="preserve">
<g>
	<polygon fill="#3D87C9" points="770.8,676.9 395.2,893.7 19.6,676.9 19.6,243.2 395.2,26.3 770.8,243.2 	"/>
	<path d="M395.2,916.3L0,688.2V231.9L395.2,3.7l395.2,228.2v456.3L395.2,916.3z M39.2,665.6l356.1,205.5l356.1-205.5V254.5
		L395.2,48.9L39.2,254.5V665.6z"/>
</g>
<g>
	<path fill="none" stroke="#000000" stroke-width="30" stroke-miterlimit="10" d="M174.9,542.1"/>
	<g>
		<path d="M353.5,358.6c0,44.5-36,80.5-80.5,80.5c-44.4,0-80.5-36-80.5-80.5c0-44.5,36-80.5,80.5-80.5
			C317.5,278.1,353.5,314.1,353.5,358.6z"/>
		<path d="M273,439.4c-44.6,0-80.8-36.3-80.8-80.8c0-44.6,36.2-80.8,80.8-80.8c44.6,0,80.9,36.3,80.9,80.8
			C353.9,403.2,317.6,439.4,273,439.4z M273,278.5c-44.2,0-80.1,35.9-80.1,80.1c0,44.2,35.9,80.1,80.1,80.1
			c44.2,0,80.1-35.9,80.1-80.1C353.2,314.4,317.2,278.5,273,278.5z"/>
	</g>
	<g>
		<path d="M559.4,335.7c0,57.1-46.3,103.4-103.4,103.4c-57.1,0-103.4-46.3-103.4-103.4c0-57.1,46.3-103.4,103.4-103.4
			C513.1,232.3,559.4,278.6,559.4,335.7z"/>
		<path d="M456,439.4c-57.2,0-103.8-46.5-103.8-103.8c0-57.2,46.6-103.7,103.8-103.7c57.2,0,103.7,46.5,103.7,103.7
			C559.7,392.9,513.2,439.4,456,439.4z M456,232.7c-56.8,0-103.1,46.2-103.1,103c0,56.8,46.2,103,103.1,103c56.8,0,103-46.2,103-103
			C559,278.9,512.8,232.7,456,232.7z"/>
	</g>
	<polygon points="504,496.7 640.7,449.2 640.7,631.5 504,585.2 	"/>
	<rect x="610" y="449.2" fill="#3D87C9" width="11.8" height="186.5"/>
	<path d="M522.6,608c0,4.7-3.8,8.5-8.5,8.5H225.8c-4.7,0-8.5-3.8-8.5-8.5V469c0-4.7,3.8-8.5,8.5-8.5h288.3c4.7,0,8.5,3.8,8.5,8.5
		V608z"/>
	<path d="M289.4,513c0,4.7-3.8,8.5-8.5,8.5h-100c-4.7,0-0.3-18.3-8.2-22.3l-23-13.8c-1.4-4.4,3.8-8.5,8.5-8.5h122.7
		c4.7,0,8.5,3.8,8.5,8.5V513z"/>
	<path d="M504,626.9c0,4.8-3.8,8.7-8.5,8.7H246.1c-4.7,0-8.5-3.9-8.5-8.7V447.8c0-4.8,3.8-8.7,8.5-8.7h249.4c4.7,0,8.5,3.9,8.5,8.7
		V626.9z"/>
	<rect x="190.3" y="469.7" fill="#3D87C9" width="5.9" height="62.7"/>
	<path fill="#FFFFFF" d="M242.6,586.2H386c2.9,0,5.2,2.3,5.2,5.2l0,0c0,2.9-2.3,5.2-5.2,5.2H242.6"/>
	<path fill="#3D87C9" d="M290.3,360.3c0,9.5-7.7,17.2-17.2,17.2c-9.5,0-17.2-7.7-17.2-17.2c0-9.5,7.7-17.2,17.2-17.2
		C282.6,343.1,290.3,350.8,290.3,360.3z"/>
	<path fill="#3D87C9" d="M473.2,335.7c0,9.5-7.7,17.2-17.2,17.2c-9.5,0-17.2-7.7-17.2-17.2c0-9.5,7.7-17.2,17.2-17.2
		C465.5,318.5,473.2,326.2,473.2,335.7z"/>
	<path fill="#FFFFFF" d="M273,426.2c-37.2,0-67.5-30.3-67.5-67.5c0-37.2,30.3-67.5,67.5-67.5c37.2,0,67.5,30.3,67.5,67.5
		C340.6,395.9,310.3,426.2,273,426.2z M273,294.8c-35.3,0-63.9,28.7-63.9,63.9c0,35.3,28.7,64,63.9,64c35.3,0,64-28.7,64-64
		C337,323.4,308.3,294.8,273,294.8z"/>
	<path fill="#FFFFFF" d="M455.4,422.3c-47.7,0-86.5-38.8-86.5-86.5c0-47.7,38.8-86.5,86.5-86.5c47.7,0,86.6,38.8,86.6,86.5
		C541.9,383.5,503.1,422.3,455.4,422.3z M455.4,252.7c-45.8,0-83,37.2-83,83c0,45.8,37.2,83,83,83c45.8,0,83-37.2,83-83
		C538.4,290,501.1,252.7,455.4,252.7z"/>
	<path fill="#FFFFFF" d="M242.6,563.5H345c2.1,0,3.7,2.3,3.7,5.2l0,0c0,2.9-1.7,5.2-3.7,5.2H242.6"/>
</g>
</svg>
