<?xml version="1.0" encoding="utf-8"?>
<!-- Generator: Adobe Illustrator 18.1.1, SVG Export Plug-In . SVG Version: 6.00 Build 0)  -->
<svg version="1.1" id="Layer_1" xmlns="http://www.w3.org/2000/svg" xmlns:xlink="http://www.w3.org/1999/xlink" x="0px" y="0px"
	 viewBox="0 0 790.4 920" enable-background="new 0 0 790.4 920" xml:space="preserve">
<g>
	<polygon fill="#DD62BD" points="770.8,676.9 395.2,893.7 19.6,676.9 19.6,243.2 395.2,26.3 770.8,243.2 	"/>
	<path d="M395.2,916.3L0,688.2V231.9L395.2,3.7l395.2,228.2v456.3L395.2,916.3z M39.2,665.6l356.1,205.5l356.1-205.5V254.5
		L395.2,48.9L39.2,254.5V665.6z"/>
</g>
<g>
	<g>
		<ellipse fill="#FFFFFF" cx="392.1" cy="234.9" rx="114.4" ry="22.8"/>
		<path fill="#DD62BD" d="M482.5,232.2c0,7.9-40.5,14.2-90.4,14.2c-49.9,0-90.4-6.4-90.4-14.2c0-7.9,40.5-14.2,90.4-14.2
			C442.1,217.9,482.5,224.3,482.5,232.2z"/>
	</g>
	<g>
		<g>
			<path d="M305.6,426.7"/>
		</g>
		<g>
			<path d="M486.1,426.7"/>
		</g>
		<g>
			<path d="M399.9,711.1c-31.6,0-77.6,3.9-86.5-18.5c-9-22.6,0.5-28.3,8-49.3c2.4-6.8,9.7-27.3,4.5-27.3c-1.5,0-13.1-8.1-13.9-9
				c-22.9-26.7-27.2-54.8-32.7-90.9c-0.1-0.9,0,0-0.1-0.9c-12.8,13.9-18-17.8-12.4-41.6c0.3-13.5-8.9-35.8-4.8-46.9
				c5.7-15.4,6.9-16.6,18-8.5c0-28.6-2.9-81.6,13-97.5c11.4-11.4,38.6-27.2,66-33.6c12-2.8,31.6-1.6,40.8-1.2"/>
		</g>
		<g>
			<path d="M385.9,711.1c31.6,0,77.6,3.9,86.5-18.5c9-22.6-0.5-28.3-8-49.3c-2.4-6.8-9.7-27.3-4.5-27.3c1.5,0,13.1-8.1,13.9-9
				c22.6-26.4,28.4-55.8,33.9-91.3c0.2-1.3,1.3,1.3,1.5,0c11.5,15.1,15.5-18.2,9.8-42.1c-0.3-13.5,8.9-35.8,4.8-46.9
				c-5.7-15.4-6.9-16.6-18-8.5c0-28.6,2.9-81.6-13-97.5c-11.4-11.4-38.6-27.2-66-33.6c-12-2.8-31.6-1.6-40.8-1.2"/>
		</g>
		<g>
			<path fill="#FFFFFF" d="M482.7,372.7c8.4,12.6,20.8,26.5,18.7,43.3c-1,7.5-14.8,37.6-0.8,39.9c1.5-3.9,1.8-8,2.9-12
				c1.6-5.8,5.6-9.4,7.1-15.3c2.7-10.5,1-21.3,2.1-31.9c1.1-10.5,2.4-21.4,0.7-32c-1.5-9-1.2-21.7-4-31.3
				c-2.9-9.7-10-15.5-17.5-21.2c-5.2-4-6-2.7-12.9-2.7c-2.8,0-1.6-4.7-4.1-6.4c-3.2-2.2-3-5.9-5-8.1c-3.8-4.2-19.2-4-24.8-6.4
				c-8.7-3.8-18.4-3.9-27.7-5c-11.4-1.4-23-4.5-34.1-3.5c-6.6,0.6-12.3,3.3-18.6,4.7c-11.7,2.5-21.7,4.6-33.3,7.3
				c-8.7,2-13.3,7.3-21.3,14c-6.7,5.3-14,10.7-19.3,16.7c-5.3,6.7-15.3,14.7-18.7,21.3c18.7,1.3-7.3,27.3-12.7,33.3
				c6,2,13.3,0.7,19.3,2c-2,6.7-9.3,10.7-8.7,18c8-0.7,6,2.7,2,10.7c8,1.3,6.7,6.7,8,14c1.3,12.7,9.3,40,14.7,21.3
				c2-6.7,0.7-14.7,3.3-20c4-9.3,8.7-12,10-24c0.7-6,0-12.7,4-18c6-8,22.7-17.3,30-24c-1.3,7.3-4.7,14-7.3,21.3
				c17.3-8,34.7-16.7,52-23.3c0.7,7.3-8,12.7-8.7,20c24-2,46-22,68.7-28c-0.7,4-2,8-2.7,11.3c12-2,18.7-16.7,26-8.7
				C474.7,354.7,478.7,366.7,482.7,372.7z"/>
		</g>
		<g>
			<path d="M460.7,314.1c5.8-12.7,12.8-24.9,16.6-37.9c3.9,9.1,7.4,23.9,8,33.7C485.6,327,471.8,317,460.7,314.1"/>
		</g>
		<g>
			<path d="M331.1,314.1c-5.8-12.7-12.8-24.9-16.6-37.9c-3.9,9.1-7.4,23.9-8,33.7C306.2,327,319.9,317,331.1,314.1"/>
		</g>
	</g>
</g>
</svg>
