<?xml version="1.0" encoding="utf-8"?>
<!-- Generator: Adobe Illustrator 18.1.1, SVG Export Plug-In . SVG Version: 6.00 Build 0)  -->
<svg version="1.1" id="Layer_1" xmlns="http://www.w3.org/2000/svg" xmlns:xlink="http://www.w3.org/1999/xlink" x="0px" y="0px"
	 viewBox="0 0 790.4 920" enable-background="new 0 0 790.4 920" xml:space="preserve">
<g>
	<polygon fill="#E04D4D" points="770.8,676.9 395.2,893.7 19.6,676.9 19.6,243.2 395.2,26.3 770.8,243.2 	"/>
	<path d="M395.2,916.3L0,688.2V231.9L395.2,3.7l395.2,228.2v456.3L395.2,916.3z M39.2,665.6l356.1,205.5l356.1-205.5V254.5
		L395.2,48.9L39.2,254.5V665.6z"/>
</g>
<path fill="none" stroke="#000000" stroke-width="30" stroke-miterlimit="10" d="M174.9,542.1"/>
<g>
	<g>
		<path fill="#E04D4D" d="M382.4,375.5l98.3,250.9c2.6,7.1,2.5,26.3-5.5,26.3l-7,4.9H174.3l-6.8-4.9c-7.7,0-7.4-22-5.5-26.3
			l94.6-250.9l1.1-2.3V235.1c0-3.5,3.2-6.4,7.2-6.4h109.4c4,0,7.2,2.9,7.2,6.4v138.1L382.4,375.5z"/>
		<path d="M470.6,665.2H171.9l-7.4-5.3c-2.9-0.8-5.4-2.7-7.2-5.5c-5.3-8.3-4.7-25.1-2.4-30.8l94.7-251.1l0.5-1V235.1
			c0-7.7,6.7-14,14.8-14h109.4c8.2,0,14.9,6.3,14.9,14v136.6l0.4,0.9l98.3,251l0,0.1c2.3,6.5,3.6,22.5-2.3,30.9
			c-1.9,2.8-4.5,4.6-7.5,5.3L470.6,665.2z M176.8,649.8h289l7-4.9h0.7c1.2-3.2,1.5-11.7,0-15.9l-99.7-254.5V236.4H265.4v138.6
			l-1.7,3.6l-94.6,250.8l0,0.1c-0.8,2.8-0.7,11.9,0.6,15.6h0.3L176.8,649.8z"/>
	</g>
	<g>
		<path d="M398.6,223.2c0,4-3.3,7.3-7.3,7.3H246.4c-4,0-7.3-3.3-7.3-7.3v-1.6c0-4,3.3-7.3,7.3-7.3h144.9c4.1,0,7.3,3.3,7.3,7.3
			V223.2z"/>
		<path d="M391.3,239.5H246.4c-9,0-16.3-7.3-16.3-16.3v-1.6c0-9,7.3-16.3,16.3-16.3h144.9c9,0,16.3,7.3,16.3,16.3v1.6
			C407.6,232.2,400.3,239.5,391.3,239.5z"/>
	</g>
	<g>
		<polygon points="254.1,450.5 386,450.5 453.6,624.3 454.8,632.7 450.9,634.9 190,634.9 186.7,633.3 187.3,625.6 		"/>
		<path d="M453,642.9h-265l-9.8-4.9l1.1-14.3l0.4-1.1l68.7-180.2h142.9l69.9,179.8l2.1,14.6L453,642.9z M195.4,626.9h250.4l-0.1-0.5
			l-65.3-167.9H259.6L195.4,626.9z"/>
	</g>
	<path fill="#E04D4D" d="M287.1,521.2c0,11-8.9,19.9-19.9,19.9c-11,0-19.9-8.9-19.9-19.9c0-11,8.9-19.9,19.9-19.9
		C278.1,501.2,287.1,510.1,287.1,521.2z"/>
	<path fill="#E04D4D" d="M336.9,570.6c0,16.3-13.2,29.5-29.5,29.5c-16.3,0-29.5-13.2-29.5-29.5c0-16.3,13.2-29.5,29.5-29.5
		C323.7,541.1,336.9,554.3,336.9,570.6z"/>
	<g>
		<path fill="#E04D4D" d="M632.4,591.2c0,64.8-52.6,117.4-117.4,117.4c-64.8,0-117.4-52.6-117.4-117.4S450.2,473.8,515,473.8
			C579.9,473.8,632.4,526.3,632.4,591.2z"/>
		<path d="M515,716.2c-69,0-125.1-56.1-125.1-125.1c0-69,56.1-125,125.1-125c68.9,0,125.1,56.1,125.1,125
			C640.1,660.1,584,716.2,515,716.2z M515,481.5c-60.5,0-109.7,49.2-109.7,109.7c0,60.5,49.2,109.7,109.7,109.7
			c60.5,0,109.7-49.2,109.7-109.7C624.7,530.7,575.5,481.5,515,481.5z"/>
	</g>
	<g>
		<path fill="#E04D4D" d="M553.7,486v-89c0-4.4-3.6-8-8-8h-61.2c-4.4,0-8,3.6-8,8v89"/>
		<path d="M561.3,486H546v-89c0-0.2-0.1-0.3-0.3-0.3h-61.2c-0.2,0-0.3,0.1-0.3,0.3v89h-15.3v-89c0-8.6,7-15.7,15.7-15.7h61.2
			c8.6,0,15.7,7,15.7,15.7V486z"/>
	</g>
	<g>
		<path d="M568.5,388.3c0,2.7-2.2,4.9-4.9,4.9h-97.1c-2.7,0-4.9-2.2-4.9-4.9v-1.1c0-2.7,2.2-4.9,4.9-4.9h97.1c2.7,0,4.9,2.2,4.9,4.9
			V388.3z"/>
		<path d="M563.6,402.2h-97.1c-7.7,0-13.9-6.2-13.9-13.9v-1.1c0-7.7,6.2-13.9,13.9-13.9h97.1c7.7,0,13.9,6.2,13.9,13.9v1.1
			C577.5,395.9,571.3,402.2,563.6,402.2z"/>
	</g>
	<path fill="#FFFFFF" d="M610.9,594.2c0,52.9-42.9,95.8-95.8,95.8c-52.9,0-95.8-42.9-95.8-95.8"/>
</g>
</svg>
