<?xml version="1.0" encoding="utf-8"?>
<!-- Generator: Adobe Illustrator 18.1.1, SVG Export Plug-In . SVG Version: 6.00 Build 0)  -->
<svg version="1.1" id="Layer_1" xmlns="http://www.w3.org/2000/svg" xmlns:xlink="http://www.w3.org/1999/xlink" x="0px" y="0px"
	 viewBox="0 0 791.4 920" enable-background="new 0 0 791.4 920" xml:space="preserve">
<g>
	<g>
		<polygon fill="#DD62BD" points="771.3,676.9 395.7,893.7 20.1,676.9 20.1,243.2 395.7,26.3 771.3,243.2 		"/>
	</g>
	<g>
		<path d="M395.7,916.3L0.5,688.2V231.9L395.7,3.7l395.2,228.2v456.3L395.7,916.3z M39.7,665.6l356.1,205.5l356.1-205.5V254.5
			L395.7,48.9L39.7,254.5V665.6z"/>
	</g>
</g>
<g>
	<path d="M468.5,335.1c0,2-1.6,3.7-3.7,3.7h-131c-2,0-3.7-1.6-3.7-3.7v-92.8c0-2,1.6-3.7,3.7-3.7h131c2,0,3.7,1.6,3.7,3.7V335.1z"/>
	<path fill="#DD62BD" d="M464.8,340.8h-131c-3.2,0-5.8-2.6-5.8-5.8v-92.8c0-3.2,2.6-5.8,5.8-5.8h131c3.2,0,5.8,2.6,5.8,5.8v92.8
		C470.6,338.3,468,340.8,464.8,340.8z M333.8,240.7c-0.8,0-1.5,0.7-1.5,1.5v92.8c0,0.8,0.7,1.5,1.5,1.5h131c0.9,0,1.5-0.7,1.5-1.5
		v-92.8c0-0.8-0.7-1.5-1.5-1.5H333.8z"/>
</g>
<rect x="317.5" y="510.6" width="58.2" height="154.4"/>
<rect x="422.9" y="510.6" width="58.2" height="154.4"/>
<polygon points="305.7,509.8 265.6,509.8 267.7,355.3 305.7,355.3 "/>
<polygon points="532.7,509.8 492.6,509.8 492.6,355.3 530.6,355.3 "/>
<g>
	<path d="M492.2,526.7c0,2.3-1.8,4.1-4.1,4.1H309.9c-2.3,0-4.1-1.8-4.1-4.1V343.3c0-2.2,1.8-4.1,4.1-4.1h178.3
		c2.3,0,4.1,1.8,4.1,4.1V526.7z"/>
	<path fill="#DD62BD" d="M488.2,532.9H309.9c-3.4,0-6.2-2.8-6.2-6.2V343.3c0-3.4,2.8-6.2,6.2-6.2h178.3c3.4,0,6.2,2.8,6.2,6.2v183.4
		C494.4,530.1,491.6,532.9,488.2,532.9z M309.9,341.3c-1.1,0-2,0.9-2,1.9v183.4c0,1.1,0.9,2,2,2h178.3c1.1,0,2-0.9,2-2V343.3
		c0-1.1-0.9-1.9-2-1.9H309.9z"/>
</g>
<g>
	<path d="M488,694.6c0,2.5-2.1,4.6-4.6,4.6h-62.7c-2.5,0-4.6-2.1-4.6-4.6l-0.7-10.9l2.6-42.2c0-2.5,3.6-6.5,6.1-6.5h55.8
		c2.5,0,6.1,4,6.1,6.5l2.6,42.2L488,694.6z"/>
	<path fill="#DD62BD" d="M483.4,700.8h-62.7c-3.4,0-6.1-2.7-6.1-6.1l-0.7-11v-0.1l2.6-42.1c0-3.5,4.4-8,7.7-8h55.8
		c3.3,0,7.6,4.5,7.7,8l2.6,42.2l-0.7,11C489.5,698,486.8,700.8,483.4,700.8z M416.9,683.7l0.7,10.9c0,1.7,1.4,3,3,3h62.7
		c1.7,0,3.1-1.4,3.1-3v-0.1l0.7-10.8l-2.6-42.2c0-1.8-2.9-5-4.6-5h-55.8c-1.6,0-4.6,3.2-4.6,5v0.1L416.9,683.7z"/>
</g>
<g>
	<path d="M382.6,694.6c0,2.5-2.1,4.6-4.6,4.6h-62.7c-2.5,0-4.6-2.1-4.6-4.6l-0.7-10.9l2.6-42.2c0-2.5,3.6-6.5,6.1-6.5h55.8
		c2.5,0,6.1,4,6.1,6.5l2.6,42.2L382.6,694.6z"/>
	<path fill="#DD62BD" d="M378,700.8h-62.7c-3.4,0-6.1-2.7-6.1-6.1l-0.7-11v-0.1l2.6-42.1c0-3.5,4.4-8,7.7-8h55.8
		c3.3,0,7.6,4.5,7.7,8l2.6,42.2l-0.7,11C384.1,698,381.3,700.8,378,700.8z M311.5,683.7l0.7,10.9c0,1.7,1.4,3,3,3H378
		c1.7,0,3.1-1.4,3.1-3v-0.1l0.7-10.8l-2.6-42.2c0-1.8-2.9-5-4.6-5h-55.8c-1.6,0-4.6,3.2-4.6,5v0.1L311.5,683.7z"/>
</g>
<g>
	<path fill="#FFFFFF" d="M380.6,707.2c0,2.3-1.9,4.2-4.3,4.2h-58.5c-2.4,0-4.3-1.9-4.3-4.2v-3.8c0-2.3,1.9-4.2,4.3-4.2h58.5
		c2.4,0,4.3,1.9,4.3,4.2V707.2z"/>
	<path fill="#DD62BD" d="M376.3,712.8h-58.5c-3.1,0-5.7-2.5-5.7-5.6v-3.8c0-3.1,2.5-5.6,5.7-5.6h58.5c3.1,0,5.7,2.5,5.7,5.6v3.8
		C382,710.3,379.4,712.8,376.3,712.8z M317.8,700.6c-1.6,0-3,1.3-3,2.9v3.8c0,1.6,1.3,2.9,3,2.9h58.5c1.6,0,3-1.3,3-2.9v-3.8
		c0-1.6-1.3-2.9-3-2.9H317.8z"/>
</g>
<g>
	<rect x="368.7" y="228.3" width="56" height="9.4"/>
	<path fill="#DD62BD" d="M425.7,238.6h-58v-11.3h58V238.6z M369.7,236.7h54.1v-7.4h-54.1V236.7z"/>
</g>
<g>
	<rect x="377.2" y="217.4" width="39" height="9.4"/>
	<path fill="#DD62BD" d="M417.2,227.7h-40.9v-11.3h40.9V227.7z M378.2,225.8h37.1v-7.4h-37.1V225.8z"/>
</g>
<polygon points="399.5,204.8 393.4,204.8 393.8,173.6 399.2,173.6 "/>
<path d="M403.7,173.6c0,4-3.2,7.2-7.2,7.2c-4,0-7.2-3.2-7.2-7.2c0-4,3.2-7.2,7.2-7.2C400.5,166.4,403.7,169.6,403.7,173.6z"/>
<g>
	<rect x="384.8" y="206.5" width="23.9" height="9.4"/>
	<path fill="#DD62BD" d="M409.6,216.8h-25.8v-11.3h25.8V216.8z M385.7,214.9h22v-7.4h-22V214.9z"/>
</g>
<path fill="#FFFFFF" d="M376.4,279.8c0,5.4-4.3,9.7-9.7,9.7c-5.3,0-9.7-4.3-9.7-9.7c0-5.4,4.3-9.7,9.7-9.7
	C372,270.1,376.4,274.4,376.4,279.8z"/>
<path fill="#FFFFFF" d="M439.4,279.8c0,5.4-4.4,9.7-9.7,9.7c-5.3,0-9.7-4.3-9.7-9.7c0-5.4,4.3-9.7,9.7-9.7
	C435,270.1,439.4,274.4,439.4,279.8z"/>
<path fill="#DD62BD" d="M371.6,279.8c0,2.7-2.2,5-5,5c-2.7,0-4.9-2.2-4.9-5c0-2.7,2.2-5,4.9-5C369.4,274.8,371.6,277.1,371.6,279.8z
	"/>
<path fill="#DD62BD" d="M434.6,279.8c0,2.7-2.2,5-4.9,5c-2.7,0-5-2.2-5-5c0-2.7,2.2-5,5-5C432.4,274.8,434.6,277.1,434.6,279.8z"/>
<g>
	<path fill="#FFFFFF" d="M465.9,417.1c0,2.1-1.9,3.8-4.2,3.8H334.7c-2.3,0-4.2-1.7-4.2-3.8v-48c0-2.1,1.9-3.8,4.2-3.8h126.9
		c2.3,0,4.2,1.7,4.2,3.8V417.1z"/>
	<path fill="#DD62BD" d="M461.6,422.6H334.7c-3.3,0-6-2.5-6-5.5v-48c0-3,2.7-5.5,6-5.5h126.9c3.3,0,6,2.5,6,5.5v48
		C467.6,420.1,464.9,422.6,461.6,422.6z M334.7,367c-1.4,0-2.5,0.9-2.5,2v48c0,1.1,1.1,2.1,2.5,2.1h126.9c1.4,0,2.5-0.9,2.5-2.1v-48
		c0-1.1-1.1-2-2.5-2H334.7z"/>
</g>
<path fill="#DD62BD" d="M401.8,409.8c0,2.3-1.9,4.2-4.2,4.2c-2.3,0-4.2-1.9-4.2-4.2c0-2.3,1.9-4.2,4.2-4.2
	C399.9,405.6,401.8,407.5,401.8,409.8z"/>
<g>
	<path fill="#FFFFFF" d="M306,516.8c0,3.8-2,6.8-4.5,6.8h-33.3c-2.5,0-4.5-3.1-4.5-6.8v-12.5c0-3.8,2-6.8,4.5-6.8h33.3
		c2.5,0,4.5,3.1,4.5,6.8V516.8z"/>
	<path fill="#DD62BD" d="M301.6,525.3h-33.3c-3.5,0-6.2-3.8-6.2-8.5v-12.5c0-4.8,2.7-8.5,6.2-8.5h33.3c3.5,0,6.2,3.8,6.2,8.5v12.5
		C307.8,521.6,305.1,525.3,301.6,525.3z M268.3,499.3c-1.3,0-2.7,2.2-2.7,5.1v12.5c0,2.9,1.4,5.1,2.7,5.1h33.3
		c1.3,0,2.7-2.2,2.7-5.1v-12.5c0-2.9-1.4-5.1-2.7-5.1H268.3z"/>
</g>
<g>
	<path fill="#FFFFFF" d="M534.2,516.8c0,3.8-2,6.8-4.5,6.8h-33.3c-2.5,0-4.5-3.1-4.5-6.8v-12.5c0-3.8,2-6.8,4.5-6.8h33.3
		c2.5,0,4.5,3.1,4.5,6.8V516.8z"/>
	<path fill="#DD62BD" d="M529.7,525.3h-33.3c-3.5,0-6.2-3.8-6.2-8.5v-12.5c0-4.8,2.7-8.5,6.2-8.5h33.3c3.5,0,6.2,3.8,6.2,8.5v12.5
		C535.9,521.6,533.2,525.3,529.7,525.3z M496.4,499.3c-1.3,0-2.7,2.2-2.7,5.1v12.5c0,2.9,1.4,5.1,2.7,5.1h33.3
		c1.3,0,2.7-2.2,2.7-5.1v-12.5c0-2.9-1.4-5.1-2.7-5.1H496.4z"/>
</g>
<g>
	<path fill="#FFFFFF" d="M356.3,493.3c0,5.3-4.3,9.7-9.7,9.7c-5.3,0-9.7-4.3-9.7-9.7c0-5.4,4.3-9.7,9.7-9.7
		C352,483.6,356.3,487.9,356.3,493.3z"/>
	<path fill="#DD62BD" d="M346.6,504.3c-6.1,0-11.1-4.9-11.1-11c0-6.1,5-11.1,11.1-11.1c6.1,0,11.1,4.9,11.1,11.1
		C357.7,499.4,352.7,504.3,346.6,504.3z M346.6,484.9c-4.6,0-8.3,3.7-8.3,8.3c0,4.6,3.7,8.3,8.3,8.3c4.6,0,8.3-3.7,8.3-8.3
		C354.9,488.7,351.2,484.9,346.6,484.9z"/>
</g>
<g>
	<path fill="#FFFFFF" d="M409,493.3c0,5.3-4.3,9.7-9.7,9.7c-5.3,0-9.7-4.3-9.7-9.7c0-5.4,4.3-9.7,9.7-9.7
		C404.7,483.6,409,487.9,409,493.3z"/>
	<path fill="#DD62BD" d="M399.3,504.3c-6.1,0-11-4.9-11-11c0-6.1,5-11.1,11-11.1c6.1,0,11.1,4.9,11.1,11.1
		C410.4,499.4,405.4,504.3,399.3,504.3z M399.3,484.9c-4.6,0-8.3,3.7-8.3,8.3c0,4.6,3.7,8.3,8.3,8.3c4.6,0,8.3-3.7,8.3-8.3
		C407.7,488.7,403.9,484.9,399.3,484.9z"/>
</g>
<g>
	<path fill="#FFFFFF" d="M461.7,493.3c0,5.3-4.3,9.7-9.7,9.7c-5.3,0-9.7-4.3-9.7-9.7c0-5.4,4.3-9.7,9.7-9.7
		C457.4,483.6,461.7,487.9,461.7,493.3z"/>
	<path fill="#DD62BD" d="M452,504.3c-6.1,0-11-4.9-11-11c0-6.1,5-11.1,11-11.1c6.1,0,11.1,4.9,11.1,11.1
		C463.1,499.4,458.1,504.3,452,504.3z M452,484.9c-4.6,0-8.3,3.7-8.3,8.3c0,4.6,3.7,8.3,8.3,8.3c4.6,0,8.3-3.7,8.3-8.3
		C460.4,488.7,456.6,484.9,452,484.9z"/>
</g>
<g>
	<path fill="#FFFFFF" d="M486.1,707.2c0,2.3-1.9,4.2-4.3,4.2h-58.5c-2.4,0-4.3-1.9-4.3-4.2v-3.8c0-2.3,1.9-4.2,4.3-4.2h58.5
		c2.4,0,4.3,1.9,4.3,4.2V707.2z"/>
	<path fill="#DD62BD" d="M481.7,712.8h-58.5c-3.1,0-5.7-2.5-5.7-5.6v-3.8c0-3.1,2.6-5.6,5.7-5.6h58.5c3.1,0,5.7,2.5,5.7,5.6v3.8
		C487.4,710.3,484.9,712.8,481.7,712.8z M423.3,700.6c-1.6,0-3,1.3-3,2.9v3.8c0,1.6,1.3,2.9,3,2.9h58.5c1.6,0,3-1.3,3-2.9v-3.8
		c0-1.6-1.3-2.9-3-2.9H423.3z"/>
</g>
<g>
	<g>
		<path fill="#231F20" d="M343.7,388c1.6,2.4,2.3,3.6,3.9,6.1c-0.3,0.2-0.5,0.3-0.8,0.6c-1.6-2.4-2.4-3.6-4-6
			C343.2,388.4,343.4,388.3,343.7,388z"/>
		<path fill="#231F20" d="M350.9,383.9c1.3,2.5,2,3.8,3.4,6.4c-0.4,0.2-0.5,0.3-0.9,0.5c-1.4-2.5-2.1-3.8-3.4-6.3
			C350.3,384.2,350.5,384.1,350.9,383.9z"/>
		<path fill="#231F20" d="M358.2,380.4c1.1,2.7,1.7,4,2.8,6.6c-0.4,0.2-0.5,0.2-0.9,0.4c-1.2-2.6-1.7-4-2.9-6.6
			C357.6,380.6,357.8,380.5,358.2,380.4z"/>
		<path fill="#231F20" d="M365.8,377.5c0.9,2.7,1.4,4.1,2.3,6.8c-0.4,0.1-0.6,0.2-0.9,0.3c-0.9-2.7-1.4-4.1-2.3-6.8
			C365.2,377.7,365.4,377.6,365.8,377.5z"/>
		<path fill="#231F20" d="M373.6,375.3c0.7,2.8,1,4.2,1.7,7c-0.4,0.1-0.6,0.1-1,0.2c-0.7-2.8-1.1-4.2-1.8-7
			C372.9,375.4,373.2,375.4,373.6,375.3z"/>
		<path fill="#231F20" d="M381.4,373.7c0.5,2.8,0.7,4.3,1.1,7.1c-0.4,0.1-0.6,0.1-1,0.2c-0.5-2.8-0.7-4.3-1.2-7.1
			C380.8,373.8,381,373.8,381.4,373.7z"/>
		<path fill="#231F20" d="M389.4,372.8c0.2,2.9,0.3,4.3,0.5,7.2c-0.4,0-0.6,0-1,0.1c-0.3-2.9-0.4-4.3-0.6-7.2
			C388.7,372.8,388.9,372.8,389.4,372.8z"/>
		<path fill="#231F20" d="M397.3,372.5c0,2.9,0,4.3,0,7.2c-0.4,0-0.6,0-1,0c0-2.9,0-4.3,0-7.2C396.7,372.5,396.9,372.5,397.3,372.5z
			"/>
		<path fill="#231F20" d="M405.3,372.9c-0.3,2.9-0.4,4.3-0.6,7.2c-0.4,0-0.6,0-1-0.1c0.2-2.9,0.3-4.3,0.5-7.2
			C404.7,372.8,404.9,372.8,405.3,372.9z"/>
		<path fill="#231F20" d="M413.3,373.9c-0.5,2.8-0.7,4.3-1.2,7.1c-0.4-0.1-0.6-0.1-1-0.2c0.4-2.8,0.7-4.3,1.1-7.1
			C412.6,373.8,412.8,373.8,413.3,373.9z"/>
		<path fill="#231F20" d="M421.1,375.5c-0.7,2.8-1.1,4.2-1.8,7c-0.4-0.1-0.6-0.1-0.9-0.2c0.7-2.8,1-4.2,1.7-7
			C420.5,375.4,420.7,375.4,421.1,375.5z"/>
		<path fill="#231F20" d="M428.8,377.8c-0.9,2.7-1.4,4.1-2.3,6.8c-0.4-0.1-0.6-0.2-0.9-0.3c0.9-2.7,1.4-4.1,2.3-6.8
			C428.2,377.6,428.4,377.7,428.8,377.8z"/>
		<path fill="#231F20" d="M436.4,380.8c-1.2,2.6-1.7,4-2.9,6.6c-0.4-0.2-0.5-0.2-0.9-0.4c1.1-2.6,1.7-4,2.8-6.6
			C435.8,380.5,436,380.6,436.4,380.8z"/>
		<path fill="#231F20" d="M443.7,384.4c-1.4,2.5-2.1,3.8-3.4,6.3c-0.4-0.2-0.5-0.3-0.9-0.5c1.3-2.5,2-3.8,3.4-6.4
			C443.2,384.1,443.4,384.2,443.7,384.4z"/>
		<path fill="#231F20" d="M450.8,388.6c-1.6,2.4-2.4,3.6-3.9,6c-0.3-0.2-0.5-0.3-0.9-0.6c1.5-2.4,2.3-3.6,3.9-6.1
			C450.3,388.3,450.5,388.4,450.8,388.6z"/>
	</g>
</g>
<polygon fill="#DD62BD" points="399.2,410.6 396.4,408.6 420.1,376.9 421.4,377.7 "/>
</svg>
