<?xml version="1.0" encoding="utf-8"?>
<!-- Generator: Adobe Illustrator 18.1.1, SVG Export Plug-In . SVG Version: 6.00 Build 0)  -->
<svg version="1.1" id="Layer_1" xmlns="http://www.w3.org/2000/svg" xmlns:xlink="http://www.w3.org/1999/xlink" x="0px" y="0px"
	 viewBox="0 0 790.4 920" enable-background="new 0 0 790.4 920" xml:space="preserve">
<g>
	<polygon fill="#E04D4D" points="770.8,676.9 395.2,893.7 19.6,676.9 19.6,243.2 395.2,26.3 770.8,243.2 	"/>
	<path d="M395.2,916.3L0,688.2V231.9L395.2,3.7l395.2,228.2v456.3L395.2,916.3z M39.2,665.6l356.1,205.5l356.1-205.5V254.5
		L395.2,48.9L39.2,254.5V665.6z"/>
</g>
<g>
	<circle cx="395.2" cy="462.9" r="213.8"/>
	<circle fill="#E04D4D" cx="395.2" cy="462.9" r="142.7"/>
	
		<rect x="343.7" y="583.9" transform="matrix(0.9596 0.2812 -0.2812 0.9596 194.6206 -81.863)" fill="#E04D4D" width="77.7" height="106.4"/>
	
		<rect x="337.3" y="235.8" transform="matrix(0.968 0.2511 -0.2511 0.968 84.6046 -85.1615)" fill="#E04D4D" width="77.7" height="106.4"/>
	<polyline fill="#020202" points="237.6,258.7 369.1,250.6 337.4,376.6 	"/>
	<polyline fill="#020202" points="512,677.4 380.5,685.5 412.2,559.5 	"/>
</g>
</svg>
