<?xml version="1.0" encoding="utf-8"?>
<!-- Generator: Adobe Illustrator 18.1.1, SVG Export Plug-In . SVG Version: 6.00 Build 0)  -->
<svg version="1.1" id="Layer_1" xmlns="http://www.w3.org/2000/svg" xmlns:xlink="http://www.w3.org/1999/xlink" x="0px" y="0px"
	 viewBox="0 0 790.4 912.6" enable-background="new 0 0 790.4 912.6" xml:space="preserve">
<g>
	<polygon fill="#60BE79" points="770.8,673.2 395.2,890 19.6,673.2 19.6,239.5 395.2,22.6 770.8,239.5 	"/>
	<path d="M395.2,912.6L0,684.5V228.2L395.2,0l395.2,228.2v456.3L395.2,912.6z M39.2,661.9l356.1,205.5l356.1-205.5V250.7L395.2,45.2
		L39.2,250.7V661.9z"/>
</g>
<g id="Captions_1_">
</g>
<g>
	<path d="M509.6,275.5c-40.2,0-57.3,28.5-57.3,28.5s-17.1-28.5-57.3-28.5c-34,0-62.5,28.5-62.5,62.5c0,78.2,119.8,140.7,119.8,140.7
		s119.8-62.5,119.8-140.7C572.1,304.1,543.6,275.5,509.6,275.5z"/>
	<path d="M676,505.8c-5.6-11.1-20.3-16.9-36.8-16.9c-7.8,0-16.1,1.3-24,3.9c0,0-62.2,20.9-107.5,34.5c-15.8-5.8-33.7-6-52.4-6.2
		c-12.7-0.1-25.9-0.2-39.2-2.1c-10-1.4-34.4-8.7-52.3-14.3c-28.2-10.3-55.9-19.9-73.3-23.6c-8.1-1.7-17.9-2.4-28.7-2.4
		c-44.1,0-105.8,11.9-143.5,18.8c-19.3,24.9-2.7,102.5,26,115.5c2.8,0,53.6-14.1,76.7-14.1c2.3,0,4.4,0.1,6,0.5
		c60.4,11.2,170.2,37.6,203,37.6s201.5-72,221.5-82C684.2,538.6,684.2,522.2,676,505.8z M300.7,591.2c-25.7-5.4-50-10.5-69.6-14.2
		c-3-0.6-6.4-0.8-10.2-0.8c-19.8,0-52.3,4.7-70.6,9.1c-4-5-10.2-11.6-14.1-27.2c-4.4-17.9-1.9-30.4-0.2-38.4
		c36.8-6.8,87.9-18.1,125.7-18.1c9.8,0,17.9,0.7,24,1.9c13.1,2.8,107.7,34.5,126.1,37c14.8,2.1,29.8,3.3,43.2,3.4
		c22.6,0.2,60.3-2.2,60.6,18.9c0.1,7.4-7.4,12.3-24.8,14.3c-41.4,4.8-107.5-8.3-107.5-8.3c-26.9-5.5-45.4,2.1-50.9,4.5
		c0,0,27,9.4,47.3,13.1c0,0,53.8,10.9,94.5,11.4c4.2,0.1,8.6-0.2,12.7-0.4c-27.1,9.8-49.1,16.7-57.1,16.7
		C409.9,614.2,349.4,601.4,300.7,591.2z M658.7,523.4c-0.1,1.5-3,3.9-17.5,11.2c-13.5,6.8-62.7,27.7-110.5,46.4
		c3.2-3.4,13.1-23.8,1.2-37.2c28.4-8.7,61.1-19.5,90.5-29.4c5.4-1.8,11.2-2.7,16.8-2.8C655.5,511.4,658.8,521.9,658.7,523.4z"/>
</g>
</svg>
