<?xml version="1.0" encoding="utf-8"?>
<!-- Generator: Adobe Illustrator 18.1.1, SVG Export Plug-In . SVG Version: 6.00 Build 0)  -->
<svg version="1.1" id="Layer_1" xmlns="http://www.w3.org/2000/svg" xmlns:xlink="http://www.w3.org/1999/xlink" x="0px" y="0px"
	 viewBox="0 0 791.4 920" enable-background="new 0 0 791.4 920" xml:space="preserve">
<g>
	<g>
		<polygon fill="#60BE79" points="771.3,676.9 395.7,893.7 20.1,676.9 20.1,243.2 395.7,26.3 771.3,243.2 		"/>
	</g>
	<g>
		<path d="M395.7,916.3L0.5,688.2V231.9L395.7,3.7l395.2,228.2v456.3L395.7,916.3z M39.7,665.6l356.1,205.5l356.1-205.5V254.5
			L395.7,48.9L39.7,254.5V665.6z"/>
	</g>
</g>
<g>
	<path d="M405.9,419.7c20.2,8.2,38,29,60.3,48.6c12.7,11.1,28.8,29.6,38,41.1c26,32.2,112.5,131.5,100.2,145.6
		c-12.3,14-120.4-60.6-155.7-82.1c-12.5-7.6-32.6-21.6-45.3-32.7c-22.3-19.6-46.6-33-57.4-51.9c-12.6-22.2-4-47.1,4.9-57.4
		C360,420.5,382.3,410.2,405.9,419.7z"/>
	<g>
		<path fill="#FFFFFF" d="M356.5,450.2c-29.7-16.9-52.9-36-85.8-47.4c-0.7,7.9-2.2,24.5-3,32.4c-12.7-9.3-25.2,16.4-27.6,30.5
			c-6.7-1.9-9.7-7.5-9-14.2c-14.7,1-46.3,31.8-55.9,20.6c5.1-12.2,22.9-16.2,13.8-26.7c-4.8-7.4-22.5-10.7-30.4-10.2
			c8.2-15.2,26.4-8.8,39.2-8c-4.6-19.6-13.7-27.7-26.3-41.9c14.1-1.6,27.5-0.2,40.3,4.2c-4.5-25.7-33.7-42-16.2-66.3
			c1.8,3.1,5.4,6.8,8.4,9.9c8.2-16.4-3.8-36.1,3.1-48.9c8.5,3.8,15.1,13,23,18.7c3.2-11.6,3.4-23.8,7.2-34.8
			c18.1,14.9,18.6,27.8,22.6,49.2c9.3-12.7,7.8-30.5,12.9-45.1c18.1,16.2,14.9,30.2,19.5,49.8c16.1-13.2,23.8-38.8,50.6-29.9
			c-7.6,15.8-13,11.4-3.4,25c2.4,3.7,9.7,2.6,7.2,8.7c-2.5,7.3-19.6,2.2-25.7,2.1c3.5,13.5,21,32.7-5.9,29.9
			c6.9,29.4-17.2,5.9-28.4,20.4c-10.6,12.7,21.7,19.9,29.6,23c15.2,5.7,28,11.4,41.3,21.4c6,5,13.3,8.7,13.2,16.1
			C371.4,445.4,361.4,452.7,356.5,450.2"/>
		<g>
			<path fill="none" d="M356.5,450.2c-29.7-16.9-52.9-36-85.8-47.4c-0.7,7.9-2.2,24.5-3,32.4c-12.7-9.3-25.2,16.4-27.6,30.5
				c-6.7-1.9-9.7-7.5-9-14.2c-14.7,1-46.3,31.8-55.9,20.6c5.1-12.2,22.9-16.2,13.8-26.7c-4.8-7.4-22.5-10.7-30.4-10.2
				c8.2-15.2,26.4-8.8,39.2-8c-4.6-19.6-13.7-27.7-26.3-41.9c14.1-1.6,27.5-0.2,40.3,4.2c-4.5-25.7-33.7-42-16.2-66.3
				c1.8,3.1,5.4,6.8,8.4,9.9c8.2-16.4-3.8-36.1,3.1-48.9c8.5,3.8,15.1,13,23,18.7c3.2-11.6,3.4-23.8,7.2-34.8
				c18.1,14.9,18.6,27.8,22.6,49.2c9.3-12.7,7.8-30.5,12.9-45.1c18.1,16.2,14.9,30.2,19.5,49.8c16.1-13.2,23.8-38.8,50.6-29.9
				c-7.6,15.8-13,11.4-3.4,25c2.4,3.7,9.7,2.6,7.2,8.7c-2.5,7.3-19.6,2.2-25.7,2.1c3.5,13.5,21,32.7-5.9,29.9
				c6.9,29.4-17.2,5.9-28.4,20.4c-10.6,12.7,21.7,19.9,29.6,23c15.2,5.7,28,11.4,41.3,21.4c6,5,13.3,8.7,13.2,16.1
				C371.4,445.4,361.4,452.7,356.5,450.2"/>
			<path fill="#FFFFFF" d="M357.3,448.9c-28.6-16.3-54.8-36.5-86.1-47.6c-1-0.4-1.8,0.5-1.9,1.4c-1,10.8-2,21.6-3,32.4
				c0.8-0.4,1.5-0.9,2.3-1.3c-16.3-11-27.8,20.3-29.8,31.3c0.6-0.3,1.2-0.7,1.8-1c-5.9-2-8.3-6.7-7.9-12.7c0.1-0.8-0.7-1.6-1.5-1.5
				c-9.8,1-19,8.1-27.2,13c-5.8,3.5-21.2,14.9-27.7,8c0.1,0.6,0.2,1.2,0.2,1.8c2.8-6.2,8.4-10,13-14.7c3.3-3.4,4.5-7.4,2.2-11.7
				c-5.6-10.4-22.4-13.3-33.1-12.8c0.4,0.8,0.9,1.5,1.3,2.3c8.1-13.9,25-8.2,38-7.3c1,0.1,1.7-1,1.4-1.9
				c-2.1-8.4-5.3-16.2-10.3-23.4c-4.8-6.9-10.8-13-16.4-19.3c-0.4,0.9-0.7,1.7-1.1,2.6c13.6-1.5,26.9-0.2,39.9,4.2
				c1.2,0.4,2-0.8,1.8-1.8c-2.3-11.7-9.1-21.4-15-31.4c-6.7-11.3-9.3-22.2-1.4-33.7c-0.9,0-1.7,0-2.6,0c2.4,3.8,5.5,7,8.7,10.2
				c0.6,0.6,1.9,0.6,2.4-0.3c3.4-7.3,3.5-14.9,2.7-22.9c-0.9-8.4-3.5-18,0.4-26c-0.7,0.2-1.4,0.4-2.1,0.5c9,4.4,15.1,12.8,23,18.7
				c0.8,0.6,2,0,2.2-0.9c3-11.5,3.5-23.5,7.2-34.8c-0.8,0.2-1.7,0.4-2.5,0.7c7.3,6.1,13.1,13.1,16.4,22c3.1,8.5,4.2,17.7,5.8,26.5
				c0.3,1.4,2.1,1.3,2.7,0.4c9.4-13.4,8-30.4,13-45.4c-0.8,0.2-1.7,0.4-2.5,0.7c7.2,6.6,12.2,14,14.6,23.5
				c2.1,8.4,2.6,17.2,4.5,25.6c0.3,1.2,1.7,1.3,2.5,0.7c7.5-6.4,12.9-14.7,19.7-21.7c8.2-8.6,17.9-11.4,29.4-7.8
				c-0.3-0.7-0.6-1.5-0.9-2.2c-2.4,4.9-6.6,9.2-8.5,14.3c-1.5,4.2,3,9.7,5.3,12.6c1.4,1.8,3.4,2.6,5.4,3.5c2.4,1.1,2,3.4,0.5,5
				c-1.3,1.4-4.1,1.5-5.8,1.5c-5.9,0.3-11.7-1.6-17.5-1.8c-1,0-1.7,1-1.4,1.9c1.7,6.3,5.2,11.9,7.5,18c0.9,2.4,2.2,6,0.4,8.2
				c-2.5,3.1-9,2.1-12.4,1.8c-1-0.1-1.6,1-1.4,1.9c1.2,5.5,3.3,13.9-4.6,14c-5.2,0-10.1-1.2-15.3-0.2c-4.8,1-9.5,5-10.6,9.9
				c-1,4.8,3.4,8.4,6.9,10.7c5.3,3.4,11.6,5.4,17.5,7.3c8,2.6,15.8,5.5,23.5,8.9c10.6,4.7,20.1,10.8,29.3,17.8
				c4.5,3.4,9.9,7.3,8.9,13.8c-0.7,4.7-7.6,10.1-12.3,8.3c-1.8-0.7-2.6,2.2-0.8,2.9c6,2.4,14-3.6,15.6-9.3
				c2.9-9.9-6.6-15.5-13.1-20.7c-15.7-12.6-35.1-19.3-53.9-25.8c-6-2.1-14.7-4.7-18.1-10.5c-1.9-3.3,1.5-6.9,4-8.7
				c2.8-2,6.4-2.2,9.7-2c4.6,0.2,10.1,1.9,14.3-0.6c5.2-3.1,2.9-12,1.9-16.5c-0.5,0.6-1,1.3-1.4,1.9c6.4,0.6,16.6,0.7,16.2-8.2
				c-0.4-8.2-6.7-15.8-8.8-23.6c-0.5,0.6-1,1.3-1.4,1.9c6.7,0.3,28.8,6.8,27.7-6.5c-0.2-1.9-1.8-3-3.3-3.8c-4-2.1-6-4.5-8.3-8.5
				c-1.6-2.7-1.2-4.4,0.5-6.8c2.5-3.6,4.8-7.1,6.7-10.9c0.4-0.9,0.1-1.9-0.9-2.2c-10.8-3.4-20.5-1.7-29.2,5.6
				c-8.6,7.3-14.2,17.4-22.8,24.7c0.8,0.2,1.7,0.4,2.5,0.7c-2-8.9-2.6-18-4.8-26.8c-2.4-9.4-7.9-17.2-15-23.7
				c-0.9-0.8-2.1-0.4-2.5,0.7c-4.9,14.7-3.5,31.6-12.7,44.7c0.9,0.1,1.8,0.2,2.7,0.4c-1.7-9.3-2.9-18.7-6.2-27.6
				c-3.3-9-9.5-16.2-16.8-22.3c-0.9-0.7-2.1-0.5-2.5,0.7c-3.7,11.3-4.2,23.3-7.2,34.8c0.7-0.3,1.5-0.6,2.2-0.9
				c-7.9-5.9-13.9-14.3-23-18.7c-0.7-0.3-1.7-0.2-2.1,0.5c-7.6,15.4,4.2,33.1-3.1,48.9c0.8-0.1,1.6-0.2,2.4-0.3
				c-2.9-3-5.9-6-8.2-9.6c-0.6-1-1.9-0.9-2.6,0c-7,10.2-6.8,20.6-1.5,31.5c5.9,12.1,14.9,22.4,17.6,36c0.6-0.6,1.2-1.2,1.8-1.8
				c-13.2-4.5-26.9-5.8-40.7-4.3c-1.3,0.1-2,1.5-1.1,2.6c5.4,6.1,11.2,12,15.9,18.6c4.9,6.8,8,14.5,10,22.6c0.5-0.6,1-1.3,1.4-1.9
				c-14.3-1-31.7-6.4-40.5,8.8c-0.5,0.9,0.1,2.3,1.3,2.3c10.4-0.5,24.4,2.2,30.5,11.3c3.1,4.6-2.4,8.8-5.5,11.6
				c-3.9,3.5-7.5,7-9.7,11.8c-0.3,0.6-0.3,1.3,0.2,1.8c6.5,6.9,18.1,0,24.5-3.6c5.6-3.1,11.1-6.6,16.6-9.9
				c4.8-2.8,10.2-6.2,15.9-6.8c-0.5-0.5-1-1-1.5-1.5c-0.5,7.5,2.9,13.2,10.1,15.6c0.7,0.2,1.7-0.3,1.8-1
				c1.6-9.1,11.6-38.8,25.4-29.6c1,0.7,2.2-0.3,2.3-1.3c1-10.8,2-21.6,3-32.4c-0.6,0.5-1.3,1-1.9,1.4c31,11,57.1,31.1,85.4,47.3
				C357.5,452.5,359,449.9,357.3,448.9L357.3,448.9z"/>
		</g>
	</g>
	<path fill="#60BE79" d="M431.9,433.5c12.4,11.8,6.6,32.6-4.3,43.4c0.2-0.2,3.9,2.5,4.7,1.8c11-10.9,16.6-31.7,4.2-43.6
		C435.4,434.1,432.4,434,431.9,433.5L431.9,433.5z"/>
	<path fill="#60BE79" d="M509.3,513.5c3.1,9.4,2.8,19.6-2.1,28.3c0.3-0.5,4.4,0.7,5-0.3c4.9-8.7,5.2-19,2.1-28.3
		C514.1,512.4,509.3,513.5,509.3,513.5L509.3,513.5z"/>
	<path fill="#60BE79" d="M574.9,592.5c1.7,7.9,4,16.6-2.6,22.9c-2,1.9,2.1,4.7,4,3c7.4-7,5.4-16.9,3.4-25.8
		C579.1,590.1,574.2,589.7,574.9,592.5L574.9,592.5z"/>
	<path fill="#60BE79" d="M563.6,578.7c-1.4,6.2-3.5,12.3-8.4,16.7c0.1-0.1,3.8,2.4,4.8,1.5c4.8-4.4,6.9-10.5,8.4-16.7
		C568.6,579.4,563.7,578.1,563.6,578.7L563.6,578.7z"/>
	<path fill="#60BE79" d="M417,559.4c9.5,2.3,16.6-1.9,24.1-7.4c0.9-0.6-1.8-4.8-2.4-4.4c-7.4,5.4-14.3,9.7-23.8,7.4
		C414.5,554.9,415.7,559.1,417,559.4L417,559.4z"/>
	<path fill="#60BE79" d="M497.6,618.2c9.7,0.4,18.3-3.7,24.6-11c1.6-1.8-2.2-5.1-3.7-3.3c-5.6,6.4-13.1,10.4-21.8,10
		C493.6,613.8,495.3,618.1,497.6,618.2L497.6,618.2z"/>
	<path fill="#60BE79" d="M515.9,628.7c4.5-1.9,9-4.1,12.7-7.2c2-1.7-0.6-5.9-2.5-4.3c-3.8,3.1-8.3,5.3-12.7,7.2
		C511.1,625.4,513.5,629.7,515.9,628.7L515.9,628.7z"/>
	<path fill="#60BE79" d="M455.2,453.3c-0.5,7.4-0.2,14.8-3.5,21.6c-1,2,2.3,5.6,3.6,3c3.4-7.2,3.3-14.9,3.8-22.6
		C459.2,453.1,455.4,450.3,455.2,453.3L455.2,453.3z"/>
	<path fill="#60BE79" d="M282.4,337.4c-5,1.4-8.5,2.9-9.1,8.4c-0.5,4.5-2.5,7.4-5.3,11c-1.5,1.8-2,2.1-1.4,4.6c0.6,2.7,2,4.5,2,7.3
		c-0.1,5.3-1.4,10.5,1.2,15.5c2.2,4.3,6.4,6.9,10.4,9.2c7.1,4.1,14.6,7.5,22,10.9c17.8,8.3,35.9,16.1,52.6,26.4
		c1.2,0.7,4.7-0.1,4.8-0.1c-14.8-9.1-30.6-16.4-46.4-23.6c-8.3-3.8-16.8-7.6-24.9-11.9c-4.5-2.4-9.9-5.1-12.8-9.5
		c-2.8-4.1-2.6-9.3-2.2-14.1c0.3-3.3,0.3-4.5-0.8-7.5c-1-2.7-1.7-4.2,0.1-6.5c2.3-2.8,4.8-5.7,5.6-9.4c0.3-1.6,0.1-3.3,0.6-4.9
		c1.2-3.4,4.9-4.3,8-5.2C287.5,337.9,283.4,337.1,282.4,337.4L282.4,337.4z"/>
	<path fill="#60BE79" d="M226,420c7.9-6.9,13.3-14.5,15.3-24.9c-0.6,0-1.1,0-1.7,0c2.4,2.5,5.4,5,9.1,4.7c1.6-0.1,3.1-0.7,4.4-1.6
		c1.5-1,3-3.8,4.9-3.9c1.4-0.1,4.3,1.8,5.7,2.4c2.2,0.9,4.4,1.8,6.7,2.7c4.4,1.7,8.9,3.4,13.3,5.1c18.4,7.1,37.6,14.5,52.9,27.2
		c2.5,2.1,1.3-2.1,0.1-3.1c-23.5-19.5-54-27-81.4-39.1c-0.4-0.2-0.6-0.1-0.8,0.2c-4,5.5-9.5,7.8-14.8,2.2c-0.5-0.5-1.5-1-1.7,0
		c-1.9,9.9-7.3,17.2-14.8,23.8C222.1,416.8,225,420.9,226,420L226,420z"/>
	<path fill="#60BE79" d="M236.3,330.2c-5.3,5.4-6.9,10.4-1.5,16.2c5.9,6.3,10.8,11.2,5.7,20.1c-0.4,0.7,0.1,1,0.8,1.1
		c8.9,1,10.3,11,17.8,14.5c1.2,0.6,5.6-1.5,3.8-2.3c-4.3-2-6-5.8-8.8-9.4c-2.6-3.4-5.7-4.8-9.9-5.3c0.3,0.4,0.5,0.7,0.8,1.1
		c3.9-7,3.1-12.7-2.3-18.4c-2.1-2.2-4.9-4.2-6.1-7c-1.7-4,0.9-7.4,3.6-10.2C242,328.6,237.3,329.2,236.3,330.2L236.3,330.2z"/>
</g>
</svg>
