<?xml version="1.0" encoding="utf-8"?>
<!-- Generator: Adobe Illustrator 18.1.1, SVG Export Plug-In . SVG Version: 6.00 Build 0)  -->
<svg version="1.1" id="Layer_1" xmlns="http://www.w3.org/2000/svg" xmlns:xlink="http://www.w3.org/1999/xlink" x="0px" y="0px"
	 viewBox="0 0 790.4 920" enable-background="new 0 0 790.4 920" xml:space="preserve">
<g>
	<polygon fill="#60BE79" points="770.8,676.9 395.2,893.7 19.6,676.9 19.6,243.2 395.2,26.3 770.8,243.2 	"/>
	<path d="M395.2,916.3L0,688.2V231.9L395.2,3.7l395.2,228.2v456.3L395.2,916.3z M39.2,665.6l356.1,205.5l356.1-205.5V254.5
		L395.2,48.9L39.2,254.5V665.6z"/>
</g>
<g>
	<g>
		<g>
			<path stroke="#EE8C31" stroke-miterlimit="10" d="M502.9,570.9"/>
			<rect x="357.5" y="201.4" width="62.4" height="488"/>
			<rect x="144.7" y="414.2" width="488" height="62.4"/>
			<polygon points="537.8,641.1 483.7,672.3 239.7,249.7 293.8,218.5 			"/>
			<polygon points="615.6,540.4 584.4,594.4 161.8,350.4 193,296.4 			"/>
			<polygon points="193,594.4 161.8,540.4 584.4,296.4 615.6,350.4 			"/>
			<polygon points="293.8,672.3 239.7,641.1 483.7,218.5 537.8,249.7 			"/>
		</g>
		<path d="M594.5,446.8c0,113.6-92.1,205.7-205.7,205.7c-113.6,0-205.7-92.1-205.7-205.7C183,333.2,275.1,241,388.7,241
			C502.4,241,594.5,333.2,594.5,446.8z"/>
		<path fill="#FFFFFF" d="M388.7,620.4c-95.8,0-173.7-77.9-173.7-173.7c0-95.8,77.9-173.7,173.7-173.7
			c95.8,0,173.7,77.9,173.7,173.7C562.4,542.5,484.5,620.4,388.7,620.4z M388.7,279.7c-92.1,0-167,74.9-167,167
			c0,92.1,74.9,167,167,167c92.1,0,167-74.9,167-167C555.8,354.7,480.8,279.7,388.7,279.7z"/>
		<path fill="#60BE79" d="M451.2,445.4c0,34.5-27.9,62.4-62.4,62.4c-34.5,0-62.4-28-62.4-62.4c0-34.5,28-62.4,62.4-62.4
			C423.2,382.9,451.2,410.9,451.2,445.4z"/>
	</g>
	<g>
		<circle fill="#FFFFFF" cx="388.8" cy="320.8" r="41.5"/>
		<polygon fill="#FFFFFF" points="428.3,487.3 349.3,487.3 344.3,362.3 433.3,362.3 		"/>
		<polygon fill="#FFFFFF" points="366.5,374.9 305.6,478.5 284.9,467.1 344.8,362.5 		"/>
		<polygon fill="#FFFFFF" points="410.9,374.9 471.8,478.5 492.5,467.1 432.6,362.5 		"/>
		<polygon fill="#FFFFFF" points="373.9,613.4 341.7,611.6 348.9,482 381.1,483.8 		"/>
		<polygon fill="#FFFFFF" points="403.6,613.4 435.7,611.6 428.5,482 396.3,483.8 		"/>
	</g>
</g>
</svg>
