<?xml version="1.0" encoding="utf-8"?>
<!-- Generator: Adobe Illustrator 18.1.1, SVG Export Plug-In . SVG Version: 6.00 Build 0)  -->
<svg version="1.1" id="Layer_1" xmlns="http://www.w3.org/2000/svg" xmlns:xlink="http://www.w3.org/1999/xlink" x="0px" y="0px"
	 viewBox="0 0 790.4 920" enable-background="new 0 0 790.4 920" xml:space="preserve">
<g>
	<polygon fill="#E04D4D" points="770.8,676.9 395.2,893.7 19.6,676.9 19.6,243.2 395.2,26.3 770.8,243.2 	"/>
	<path d="M395.2,916.3L0,688.2V231.9L395.2,3.7l395.2,228.2v456.3L395.2,916.3z M39.2,665.6l356.1,205.5l356.1-205.5V254.5
		L395.2,48.9L39.2,254.5V665.6z"/>
</g>
<g>
	<polygon points="543.6,653.9 251.2,603.2 285.3,494.9 564,563.6 	"/>
	<rect x="260.8" y="476.8" transform="matrix(0.7659 -0.643 0.643 0.7659 -276.9174 302.2887)" width="31.7" height="109.1"/>
	<rect x="464.2" y="487.5" transform="matrix(0.6972 -0.7169 0.7169 0.6972 -241.4807 512.5149)" width="43.5" height="109.1"/>
	<path fill="#FFFFFF" d="M490.4,316.7c13.6,21.1,29.8,55.5,29.8,82.6c0,21.7,0.6,79.2-8.3,98.8c-26.7,58.8-74.8,59.3-147.6,59.3
		c-12.1,0-38-16.6-49.4-18.7c-80-14.6-155.6-58.2-155.6-134.1c0-86.7,88.2-153.8,185.2-153.8C411.2,250.8,460.7,270.4,490.4,316.7z"
		/>
	<polygon fill="#FFFFFF" points="514.9,477.3 527.7,570.7 397.8,596.4 338.1,479 494.9,449.6 	"/>
	<rect x="211.4" y="493" transform="matrix(0.7658 -0.643 0.643 0.7658 -297.5367 278.1533)" width="43.5" height="109.1"/>
	<rect x="174" y="424.7" transform="matrix(0.9872 -0.1596 0.1596 0.9872 -72.6724 37.4024)" width="45.1" height="93"/>
	<circle cx="188.9" cy="424.2" r="22.5"/>
	<g>
		<path fill="#E04D4D" d="M475.6,365.5c-10,16.7-21.7,28.3-25,49.1c-1.7,14.2,15,32.5,30,20.8c15-10.8,2.5-26.7-0.8-37.5
			C476.5,388,484.8,369.7,475.6,365.5"/>
	</g>
	<g>
		<path fill="#E04D4D" d="M520.6,419.5c-10,10-20.6,20.7-23.9,36.6c-1.7,10.8,13.9,25.8,28.9,16.9c15-8.3,2.5-20.4-0.8-28.7
			C521.4,436.7,529.8,422.7,520.6,419.5"/>
	</g>
	<path fill="#E04D4D" d="M520.9,523c-6.4,1.7-12.8,0-19.2,2.2c-2.5,0.9-4.9,2.2-7.5,3c-4.5,1.4-7.6-0.6-10.9-3.5
		c-1-0.9-2.2-0.6-2.9,0.4c-4.8,6.6-11.7,11.1-18.4,3.9c-0.9-0.9-2.3-0.6-2.9,0.4c-2.5,3.8-5.9,8-10.6,9.4c-5.3,1.5-8.8-2.2-11.1-6.5
		c-1-1.9-3.9-0.6-3.4,1.4c0.2,1-2.3,2.6-2.9,3c-2.2,1.2-3.5,1.3-5.2-0.9c-1.7-2.4-2.8-5.6-3.5-8.4c-1.9-7.9-0.3-16.2-1.1-24.2
		c-1.3-12.3-5.1-24.7-13.3-34.2c-0.5-0.6-1.6-0.7-2.3-0.3c-3.8,2.6-3.5,7-5.1,10.9c-2.8,7-14,9.8-20.9,9.6
		c-6.9-0.1-20.5-5.6-19.3,6.6c1.3,12.8,15.2,18.1,18.6,29.5c2.2,7.4,0.8,16.1-1.4,23.3c-1.8,6.1-1.9,10.8,0.6,16.7
		c1.5,3.5,3.4,6.8,5.2,10.1c1.6,3,2.8,6.5,4.6,9.3c2.7,4,9.2,3.3,13.3,3.9c2.4,0.3,3.4-3.3,1-3.6c-2.8-0.4-6-0.1-8.7-1
		c-3.5-1.2-4.4-5.4-6.1-8.6c-3.9-7.4-9.3-14.7-7.1-23.4c1.8-7.3,3.3-13.8,3-21.4c-0.3-7-3.4-12-8-17.1c-4.4-4.9-10.7-10.3-11.4-17.4
		c-0.5-5.9,4.5-4.7,8.5-4c2.5,0.4,5,1,7.5,1c6.7,0,14.3-2.3,19.6-6.4c1.8-1.4,3-2.8,4-4.9c1.2-2.8,1.1-7.9,3.8-9.7
		c-0.8-0.1-1.5-0.2-2.3-0.3c6.5,7.5,9.9,17.1,11.6,26.9c1.7,9.9-0.4,20.1,1.9,29.8c1.1,4.5,4.2,13.6,10.2,13.2
		c3.8-0.2,9.6-4.8,8.7-8.9c-1.1,0.5-2.3,1-3.4,1.4c2.8,5.1,7.1,9.4,13.3,8.7c6.6-0.7,11.5-6.3,14.9-11.5c-1,0.1-2,0.3-2.9,0.4
		c8.4,9.1,18,4,24.3-4.7c-1,0.1-2,0.3-2.9,0.4c5.4,4.7,10.2,6.3,17,3.5c4-1.7,7.9-3.4,12.3-3.5c4.2-0.1,7.8,0.2,11.9-0.8
		C524.2,526.1,523.2,522.4,520.9,523L520.9,523z"/>
	<path fill="#E04D4D" d="M421.7,509.4c2-1.9,5.1-4.9,7.8-2.6c2.2,1.8,2.9,5.6,3.4,8.2c1.2,5.6,1.8,12.1,0.7,17.7
		c-0.5,2.8,3.8,4,4.3,1.2c1.4-7.8,0.8-17.4-2-24.8c-3.4-9.1-10.8-9.2-17.4-2.9C416.4,508.2,419.6,511.4,421.7,509.4L421.7,509.4z"/>
	<path fill="#E04D4D" d="M520.2,493.8c-16.7-5.8-11.7,21.6-11.6,30c0,2.9,4.5,2.9,4.5,0c-0.1-5.3-0.8-10.6-0.8-15.9
		c0-4.8,0.2-12,6.7-9.7C521.7,499.1,522.9,494.8,520.2,493.8L520.2,493.8z"/>
	<path fill="#E04D4D" d="M434,509.7c6.4-4.9,16.8-10.6,20.9-0.4c2.6,6.4,2.7,13.6,3.5,20.3c0.4,2.8,4.9,2.9,4.5,0
		c-1.1-8.6-0.8-19.3-6.3-26.6c-6.5-8.4-18.3-2.3-24.8,2.7C429.5,507.6,431.7,511.5,434,509.7L434,509.7z"/>
	<path fill="#E04D4D" d="M483.8,525.4c-0.5-5.4-2-10.8-2-16.3c0-4,3.6-12.2,8.5-7.6c3.1,3,4,9,4.8,13.1c0.9,4.3,1.3,8.7,2.4,13
		c0.7,2.8,5,1.6,4.3-1.2c-1.5-5.9-1.9-12.1-3.5-18c-1.2-4.6-3.3-11-8.6-12.3c-5.3-1.4-10.5,2.9-11.8,7.8c-1.9,7,0.8,14.5,1.3,21.5
		C479.5,528.3,484,528.3,483.8,525.4L483.8,525.4z"/>
	<path fill="#E04D4D" d="M460.6,510.2c1.9-2.6,5.1-7.1,8.8-6.8c3.8,0.3,6,5.3,7.5,8.2c1.3,2.6,5.2,0.3,3.9-2.3
		c-2.3-4.5-5.7-10.3-11.4-10.4c-5.6-0.2-9.7,5-12.6,9C455,510.3,458.9,512.5,460.6,510.2L460.6,510.2z"/>
	<path fill="#E04D4D" d="M497.6,503c0.7-2,1.8-4.5,4.1-5.2c2.6-0.8,4.7,1.7,6.1,3.5c1.7,2.3,5.6,0.1,3.9-2.3
		c-2.4-3.4-6-6.7-10.6-5.7c-4.1,0.9-6.6,4.7-7.8,8.4C492.3,504.6,496.7,505.8,497.6,503L497.6,503z"/>
	<path fill="#E04D4D" d="M419.7,522c7.9,2.6,15.5,1.1,23.4-0.7c9.6-2.2,18.7-1,28.4-1.7c8.1-0.6,16.2-1.4,24.1-3.4
		c7.1-1.8,15.9-7.7,23.3-6.3c1.9,0.4,2.7-2.5,0.8-2.9c-6.4-1.2-12.5,2.3-18.4,4.4c-8.5,3-17.5,4.1-26.4,4.9
		c-8.5,0.8-17.1-0.6-25.6,0.6c-9.9,1.4-18.8,5.4-28.8,2.2C418.6,518.6,417.8,521.4,419.7,522L419.7,522z"/>
	<path fill="#E04D4D" d="M426.4,365.6c-1.3,5.8-3.3,11.4-5.4,17c-1.7,4.4-4.2,9.6-4.2,14.4c0,8.1,5.2,18.7-2.1,25.2
		c-2.7,2.4-5.8,0.3-8.5-1.1c-2.9-1.4-5.8-2.5-9-3.2c-3.7-0.7-7.4-0.9-11.2-1.2c-3.2-0.2-8.7,0.2-11.3-2c-2.2-1.8-5.4,1.3-3.2,3.2
		c6,4.9,16.8,2.9,24,4.2c4.1,0.8,7.6,2.6,11.3,4.2c2.8,1.2,5.6,2.1,8.5,0.8c8.2-3.8,8.1-14.5,7-21.9c-0.3-2.5-1-5.2-1-7.8
		c0-3.2,1.5-6.6,2.5-9.6c2.5-7,5.4-13.8,6.9-21.1C431.4,364,427.1,362.8,426.4,365.6L426.4,365.6z"/>
	<path fill="#E04D4D" d="M403.5,475.3c-5.2-4.3-11.5-6.8-17.9-3.5c-6.5,3.4-10.5,10.3-13.8,16.5c-1.4,2.6,2.5,4.8,3.9,2.3
		c5.1-9.6,13.3-21.4,24.7-12.1C402.5,480.3,405.7,477.2,403.5,475.3L403.5,475.3z"/>
	<path fill="#E04D4D" d="M362.9,504.6c-13.5,15.8-34.2,6.9-51.4,4.9c-5.7-0.7-11.5,1.3-17.3,1.1c-3-0.1-6.1-0.2-5.5-3.8
		c0.5-3.1,7.2-10.2,7.6-3.5c0.2,2.9,4.7,2.9,4.5,0c-0.7-10.6-12.5-7.9-15.7-0.2c-4.4,10.4,5.1,12.5,13.4,11.9
		c4.6-0.4,9.2-1.5,13.8-0.8c6.5,1,12.9,2.6,19.5,3.5c12.8,1.8,25.4,0.5,34.2-9.9C368,505.6,364.8,502.4,362.9,504.6L362.9,504.6z"/>
	<polygon points="718.9,651.9 667.2,705.2 541.3,654.6 558.3,563.7 732.1,587.2 	"/>
	<path fill="#E04D4D" d="M395.2,870L40.1,665.1V255L395.2,50l355.1,205v410.1L395.2,870z M75.3,644.8l320,184.6l320-184.6V275.3
		l-320-184.7l-320,184.7V644.8z"/>
	<rect x="329.2" y="474" transform="matrix(-0.9659 0.2589 -0.2589 -0.9659 839.1226 950.28)" width="55.5" height="112.8"/>
	<circle cx="342.5" cy="476.2" r="27.7"/>
	<path d="M455.1,587.6c0,16.9-21,30.6-47,30.6c-26,0-47-13.7-47-30.6c0-12.7-1.4-48.3,17.8-50.5c5.8-0.7,31,11.5,37.5,14.8
		C439.6,563.7,455.1,570.7,455.1,587.6z"/>
	<g>
		<path fill="#E04D4D" d="M322.2,482.4c-2.8-11.4,4.2-23,15.6-25.8c11.4-2.8,23,4.2,25.8,15.6l1.2,5.2l-41.5,9.5L322.2,482.4z"/>
		<path d="M322.5,488.1l-1.3-5.5c-2.9-11.9,4.4-24,16.3-27c1.8-0.4,3.6-0.7,5.3-0.7c10.3,0,19.2,7,21.6,17l1.4,6.2L322.5,488.1z
			 M342.9,457c-1.6,0-3.3,0.2-4.9,0.6c-10.9,2.7-17.5,13.7-14.9,24.6l0.8,3.6l39.6-9.1l-1-4.2C360.4,463.4,352.3,457,342.9,457z"/>
	</g>
</g>
</svg>
