<?xml version="1.0" encoding="utf-8"?>
<!-- Generator: Adobe Illustrator 18.1.1, SVG Export Plug-In . SVG Version: 6.00 Build 0)  -->
<svg version="1.1" id="Layer_1" xmlns="http://www.w3.org/2000/svg" xmlns:xlink="http://www.w3.org/1999/xlink" x="0px" y="0px"
	 viewBox="0 0 790.4 920" enable-background="new 0 0 790.4 920" xml:space="preserve">
<g>
	<polygon fill="#3D87C9" points="770.8,676.9 395.2,893.7 19.6,676.9 19.6,243.2 395.2,26.3 770.8,243.2 	"/>
	<path d="M395.2,916.3L0,688.2V231.9L395.2,3.7l395.2,228.2v456.3L395.2,916.3z M39.2,665.6l356.1,205.5l356.1-205.5V254.5
		L395.2,48.9L39.2,254.5V665.6z"/>
</g>
<g>
	<path d="M473.6,608.5c0,6.3-3.4,11.4-7.7,11.4H331c-4.2,0-7.7-5.1-7.7-11.4v-6.6c0-6.3,3.4-11.4,7.7-11.4h134.9
		c4.2,0,7.7,5.1,7.7,11.4V608.5z"/>
	<path d="M473.6,638.5c0,4.3-3.4,7.7-7.7,7.7H331c-4.2,0-7.7-3.4-7.7-7.7V634c0-4.2,3.4-7.7,7.7-7.7h134.9c4.2,0,7.7,3.5,7.7,7.7
		V638.5z"/>
	<path d="M473.6,664.7c0,4.3-3.4,7.7-7.7,7.7H331c-4.2,0-7.7-3.4-7.7-7.7v-4.5c0-4.2,3.4-7.7,7.7-7.7h134.9c4.2,0,7.7,3.4,7.7,7.7
		V664.7z"/>
	<path d="M473.6,691c0,4.2-3.4,7.7-7.7,7.7H331c-4.2,0-7.7-3.4-7.7-7.7v-4.5c0-4.2,3.4-7.7,7.7-7.7h134.9c4.2,0,7.7,3.4,7.7,7.7V691
		z"/>
	<path d="M470.4,719.1c0,4.2-7.9,7-12.2,7l-21.8,3.1l-5.7,1.4l-4.5,2.9l-4.2,4.8l-7,6.4l-9,3.8h-11.8l-9.3-3.8l-7.4-6.4l-4.7-5.2
		l-4-2.5l-5.5-1.3l-24.7-3.2c-4.2,0-12.2-2.8-12.2-7l-3.2-7c0-4.2,3.4-7,7.7-7h134.9c4.2,0,7.7,2.8,7.7,7L470.4,719.1z"/>
	<path fill="none" stroke="#000000" stroke-width="9" stroke-miterlimit="10" d="M334.6,458.9"/>
	<path fill="none" stroke="#000000" stroke-width="9" stroke-miterlimit="10" d="M461.5,458.9"/>
	<g>
		<g>
			<path fill="#FFFFFF" d="M314.4,501.9c-21.8-24.5-43.8-43.9-62.3-70.6c-13.8-19.9-25.5-44.8-25.5-71.1
				c0-89.3,74.3-161.6,168.6-161.6c94.4,0,168.6,72.4,168.6,161.6c0,26.8-10.6,51.6-24.8,71.7c-18,25.4-40.1,44.9-61.1,69.8v1
				l-0.5,24l-2.5,34.7c0,5.5-6.2,14.8-11,14.8H328.4c-4.9,0-11-9.3-11-14.8l-2.6-36.7L314.4,501.9z"/>
			<path d="M463.9,583.2H328.4c-9.7,0-17.9-13.1-18.1-21.6l-2.6-36.9l-0.3-20.1c-6.4-7.1-12.9-13.9-19.2-20.5
				c-14.9-15.6-29-30.3-41.8-48.8c-17.8-25.6-26.8-50.9-26.8-75.1c0-45.3,18.1-87.7,51.1-119.4c33-31.8,77.3-49.3,124.6-49.3
				c47.3,0,91.6,17.5,124.6,49.3c33,31.7,51.1,74.1,51.1,119.4c0,32.2-14.2,59-26.1,75.8c-11.2,15.8-23.6,29-36.8,43
				c-7.6,8.1-15.4,16.4-23,25.3l-0.4,22.8l-2.5,34.6C481.9,570.1,473.7,583.2,463.9,583.2z M329,569h134.4c1.8-1.1,4.6-5.7,4.6-7.7
				l0-0.5l2.5-34.6l0.5-24.7l0-2.6l1.7-2c8.4-9.9,16.9-19,25.2-27.8c12.8-13.6,24.9-26.5,35.6-41.5c10.7-15.1,23.5-39.1,23.5-67.6
				c0-85.2-72.5-154.5-161.5-154.5c-89.1,0-161.5,69.3-161.5,154.5c0,21.3,8.2,43.9,24.2,67.1c12.2,17.6,25.9,31.9,40.4,47.1
				c7,7.3,14.2,14.8,21.3,22.9l1.8,2l0.4,25.2l2.6,36.8v0.2C324.4,563.3,327.2,567.9,329,569z"/>
		</g>
		<g>
			<path fill="#FFFFFF" d="M344.4,458.9c18,11.2,35.1,25.2,35.1,56.3c0,31.1,3.9,41.1,2.9,56"/>
			<path d="M386,571.5l-7.1-0.5c0.5-6.7-0.1-12.6-0.9-20c-0.9-8.6-2-19.2-2-35.8c0-29.9-16.5-42.7-33.5-53.3l3.8-6
				c17.8,11.1,36.8,25.7,36.8,59.3c0,16.2,1.1,26.7,1.9,35.1C385.8,558,386.4,564.1,386,571.5z"/>
		</g>
		<g>
			<path fill="#FFFFFF" d="M447.4,458.9c-17.4,11.2-34,25.2-34,56.3c0,31.1-3.8,41.1-2.8,56"/>
			<path d="M407.1,571.5c-0.5-7.3,0.1-13.4,0.9-21.1c0.8-8.4,1.9-18.9,1.9-35.1c0-33.5,18.4-48.2,35.6-59.3l3.8,6
				C433,472.4,417,485.2,417,515.2c0,16.6-1.1,27.3-1.9,35.8c-0.7,7.4-1.3,13.2-0.9,20L407.1,571.5z"/>
		</g>
		<g>
			<path fill="#FFFFFF" d="M337.7,446.7c-3.1-6.7,7.4-15.4,15.1-13.1c5.5,1.3,15.8,23.4,10.7,24.2c-4.2,0.7-6.6-10-6.6-12.7
				c-0.1-4.7,1.7-10.2,5.5-13.3c8.2-6.2,16.4,2.1,18.4,10.8c0.7,2.4,2.2,13.5-1.7,13.6c-4.8-0.3-4.1-12.8-3.5-15.5
				c1.8-7.5,12.4-21.5,20.5-15.2c6.5,5,11.7,28.9,3.2,34.1c-4.4,2.8-7.4-1.6-8.4-6.3c-1.4-6.7,1.7-13.6,5.4-18.7
				c5-7.2,15.8-14.2,21.7-4.1c2,3.7,3.7,28-4.8,20.4c-7.8-7,10.4-26.6,17.9-19.9c2.9,2.7,4.3,9.7,4.1,13.5
				c-0.6,4.1-6.8,11.6-7.6,3.9c-0.4-4.7,10.3-12.4,14.2-13.1c5.7-0.8,15.6,3.2,11.4,10.3"/>
			<path d="M339.7,446.2c-2.4-6.1,8.5-14.1,13.7-9.9c4.2,3.5,6.8,9.7,8.5,14.7c0.4,1.1,0.7,2.2,0.8,3.4c0.1,0.4-0.2,1.7,0.2,1.4
				c-0.8,0.6-3.3-6.7-3.5-7.6c-1.8-7.2,3.3-20.5,12.6-15.4c6.3,3.5,7.9,12.6,7.4,19.2c-0.1,0.8-0.2,2.1-0.5,1.9
				c-0.9-0.7-1.1-2.3-1.3-3.4c-0.5-2.7-0.4-5.9-0.1-8.6c0.8-5.9,6.3-13.2,11.8-15.5c6.6-2.7,9.5,6.3,10.9,10.9
				c1.6,5.6,2.8,13.4-0.3,18.7c-0.9,1.5-2.9,2.9-4.5,1.6c-1.9-1.5-2.4-4.6-2.6-6.8c-0.5-5.5,2.4-10.9,5.5-15.3
				c3.3-4.7,14.3-13.3,18.1-4.1c1.7,4.1,1.5,9.4,1.2,13.7c-0.1,1.2-0.2,4.2-1.3,5c-1.3,0.9-2.7-3.3-2.7-4
				c-0.1-5.3,5.4-10.7,9.6-13.2c1.8-1.1,4.2-2,6.2-0.9c3.1,1.6,3.7,7.8,3.9,10.8c0.1,1.6-0.5,2.8-1.2,4.1c-0.4,0.7-0.9,1.2-1.4,1.8
				c-0.9,1-0.6,0.3-0.5,0.6c-1.4-3.3,3.3-6.8,5.5-8.5c2.7-2.1,5.6-4,9.1-3.7c3.7,0.3,9,2.8,6.7,7.1c-1.3,2.4,2.4,4.5,3.6,2.1
				c3.3-6.1-0.8-10.8-6.7-12.8c-6.1-2-11.3,0.6-16,4.5c-2.4,1.9-4.7,4.1-6,6.8c-1.1,2.1-1.2,5.8,0.8,7.6c4.5,4,9.1-3.4,10.1-7
				c1.5-5.2-1.2-14-5.8-17c-4.1-2.7-9.7,0.1-13.1,2.7c-4.2,3.3-8,8-8.9,13.3c-0.7,4.2,1.7,9.2,6.3,9.8c8.7,1.1,6-18.3,5-22.6
				c-1.2-5.4-6.7-9.2-12.1-8.3c-7.1,1.1-12.3,7.1-15.9,12.9c-4,6.5-6.7,17.4-0.8,23.7c4.5,4.8,10.7,1.3,12.8-4
				c2.2-5.8,1.5-12.4,0.1-18.3c-1.1-4.8-3.2-11.2-7.4-14.2c-10.8-7.6-22.9,9.3-23.9,18.7c-0.5,4.4-0.8,11.8,3,14.9
				c5.2,4.3,7.4-3.6,7.5-7.3c0.1-6.5-1.9-12.9-6.2-17.9c-5.3-6-13.7-5.7-18.7,0.4c-4.3,5.2-4.8,12.1-3.1,18.4c1,3.9,4,11.1,9.3,8.7
				c3.7-1.7,1.3-8.3,0.4-10.8c-1.8-5.1-4.5-10.1-8-14.2c-7.7-8.7-26.1,1.9-21.8,12.9C336.6,449.8,340.7,448.7,339.7,446.2
				L339.7,446.2z"/>
		</g>
		<g>
			<path fill="#FFFFFF" d="M409.9,510.4c0,7.5-6,13.7-13.4,13.7c-7.4,0-13.5-6.1-13.5-13.7c0-7.5,6-13.7,13.5-13.7
				C403.9,496.8,409.9,502.9,409.9,510.4z"/>
			<path d="M396.5,526.5c-8.8,0-15.9-7.2-15.9-16.1c0-8.9,7.1-16.1,15.9-16.1c8.8,0,15.9,7.2,15.9,16.1
				C412.4,519.3,405.3,526.5,396.5,526.5z M396.5,499.2c-6.1,0-11,5-11,11.2c0,6.2,4.9,11.2,11,11.2c6,0,11-5,11-11.2
				C407.5,504.2,402.5,499.2,396.5,499.2z"/>
		</g>
		<g>
			<path fill="#FFFFFF" d="M402.2,528.8c0-2.9-2.6-5.2-5.7-5.2l0,0c-3.2,0-5.7,2.3-5.7,5.2v44.8c0,2.9,2.6,1.2,5.7,1.2l0,0
				c3.2,0,5.7,1.7,5.7-1.2V528.8z"/>
			<path d="M400.8,577.8L400.8,577.8c-0.7,0-1.3-0.1-2-0.2c-0.7-0.1-1.5-0.2-2.2-0.2c-0.8,0-1.5,0.1-2.2,0.2
				c-0.7,0.1-1.4,0.2-2.1,0.2c-2.4,0-3.9-1.6-3.9-4.2v-44.8c0-4.2,3.7-7.7,8.2-7.7c4.5,0,8.2,3.4,8.2,7.7v44.8
				c0,1.3-0.4,2.3-1.1,3.1C402.9,577.4,402,577.8,400.8,577.8z M396.5,572.3c1.2,0,2.2,0.2,3.1,0.3c0.1,0,0.1,0,0.2,0v-43.9
				c0-1.5-1.5-2.7-3.3-2.7c-1.8,0-3.3,1.2-3.3,2.7v43.9c0.1,0,0.1,0,0.2,0C394.3,572.5,395.3,572.3,396.5,572.3z"/>
		</g>
	</g>
</g>
</svg>
