<?xml version="1.0" encoding="utf-8"?>
<!-- Generator: Adobe Illustrator 18.1.1, SVG Export Plug-In . SVG Version: 6.00 Build 0)  -->
<svg version="1.1" id="Layer_1" xmlns="http://www.w3.org/2000/svg" xmlns:xlink="http://www.w3.org/1999/xlink" x="0px" y="0px"
	 viewBox="0 0 790.4 920" enable-background="new 0 0 790.4 920" xml:space="preserve">
<g>
	<polygon fill="#F1EA3A" points="770.8,676.9 395.2,893.7 19.6,676.9 19.6,243.2 395.2,26.3 770.8,243.2 	"/>
	<path d="M395.2,916.3L0,688.2V231.9L395.2,3.7l395.2,228.2v456.3L395.2,916.3z M39.2,665.6l356.1,205.5l356.1-205.5V254.5
		L395.2,48.9L39.2,254.5V665.6z"/>
</g>
<path fill="none" stroke="#000000" stroke-width="30" stroke-miterlimit="10" d="M174.9,542.1"/>
<g>
	<ellipse transform="matrix(0.9697 0.2444 -0.2444 0.9697 182.8565 -57.9406)" cx="324.9" cy="707.9" rx="34.8" ry="11"/>
	<g>
		<path d="M427.5,202.2c47.2,11.9,71.7,76.5,54.6,144.2c-17.1,67.8-69.2,113-116.4,101.1c-47.2-11.9-71.7-76.5-54.6-144.2
			C328.1,235.6,380.3,190.3,427.5,202.2z"/>
		<path d="M478.1,214.9c47.2,11.9,71.7,76.5,54.6,144.2c-17.1,67.8-69.2,113-116.4,101.1c-47.2-11.9-71.7-76.5-54.6-144.2
			C378.7,248.3,430.8,203,478.1,214.9z"/>
		<rect x="291" y="304.2" transform="matrix(0.2444 -0.9697 0.9697 0.2444 -4.6532 654.337)" width="253" height="51.9"/>
		<path fill="#FFFFFF" d="M437.3,216.2c43.1,10.9,65.4,69.8,49.8,131.6C471.5,409.7,424,451,380.9,440.1
			c-43.1-10.9-65.4-69.8-49.8-131.6C346.7,246.7,394.2,205.4,437.3,216.2z"/>
	</g>
	<rect x="362.4" y="449.5" transform="matrix(0.9697 0.2444 -0.2444 0.9697 130.6632 -78.3634)" width="37.4" height="75.6"/>
	<rect x="315.3" y="506.2" transform="matrix(0.9697 0.2444 -0.2444 0.9697 159.2968 -67.0951)" width="69.5" height="204.3"/>
	<ellipse transform="matrix(0.9697 0.2444 -0.2444 0.9697 135.8393 -76.2025)" cx="375" cy="509.3" rx="34.8" ry="11"/>
	<path fill="#F1EA3A" d="M348.1,531.3c-5.5-2.7-9.8-5.5-12.5-8.6l0,0c-1.7-2-2.9-4.4-2.3-7.1l0,0h0l4.8,1.2c-0.1,0.3,0,1.2,1.2,2.6
		l0,0c1.2,1.4,3.3,3.1,6.1,4.8l0,0c5.6,3.4,14,6.7,23.6,9.2l0,0c7.2,1.8,14,2.8,19.8,3.1l0,0c5.7,0.3,10.4-0.3,13-1.3l0,0
		c1.8-0.7,2.3-1.4,2.3-1.7l0,0l4.8,1.2c-0.7,2.6-2.9,4.2-5.3,5.2l0,0c-2.5,1-5.6,1.5-9.2,1.6l0,0c-7.2,0.3-16.6-0.7-26.5-3.3l0,0
		C360.4,536.4,353.6,534,348.1,531.3L348.1,531.3z"/>
</g>
</svg>
