<?xml version="1.0" encoding="utf-8"?>
<!-- Generator: Adobe Illustrator 18.1.1, SVG Export Plug-In . SVG Version: 6.00 Build 0)  -->
<svg version="1.1" id="Layer_1" xmlns="http://www.w3.org/2000/svg" xmlns:xlink="http://www.w3.org/1999/xlink" x="0px" y="0px"
	 viewBox="0 0 790.4 920" enable-background="new 0 0 790.4 920" xml:space="preserve">
<g>
	<polygon fill="#3D87C9" points="770.8,676.9 395.2,893.7 19.6,676.9 19.6,243.2 395.2,26.3 770.8,243.2 	"/>
	<path d="M395.2,916.3L0,688.2V231.9L395.2,3.7l395.2,228.2v456.3L395.2,916.3z M39.2,665.6l356.1,205.5l356.1-205.5V254.5
		L395.2,48.9L39.2,254.5V665.6z"/>
</g>
<g>
	<rect x="364.6" y="374" width="125.8" height="17.7"/>
	<rect x="297.6" y="532.8" width="128.5" height="17.7"/>
	<rect x="291.8" y="427" width="134.2" height="17.7"/>
	<rect x="364" y="479.9" width="134.2" height="17.7"/>
	<rect x="435.9" y="664" fill="#FFFFFF" width="56.6" height="17.7"/>
	<rect x="291.8" y="716.9" fill="#FFFFFF" width="63" height="17.7"/>
	<rect x="436.3" y="185" fill="#FFFFFF" width="67.4" height="17.7"/>
	<rect x="297.6" y="237.9" width="128.5" height="17.7"/>
	<rect x="291.8" y="374" fill="#FFFFFF" width="63" height="17.7"/>
	<rect x="436.3" y="237.9" fill="#FFFFFF" width="67.4" height="17.7"/>
	<rect x="280.4" y="479.9" fill="#FFFFFF" width="74.4" height="17.7"/>
	<rect x="436.3" y="427" fill="#FFFFFF" width="67.4" height="17.7"/>
	<rect x="436.3" y="532.8" fill="#FFFFFF" width="56.2" height="17.7"/>
	<rect x="308" y="664" width="118" height="17.7"/>
	<rect x="364" y="716.9" width="139.7" height="17.7"/>
	<rect x="289.7" y="185" width="136.4" height="17.7"/>
	<g>
		<g>
			<g>
				<g>
					<path fill="#0B0A0A" d="M396.4,295.7c21.9,0.9,42.8,8,61.5,20.6c11.9-7.7,22.8-17.5,32.6-29.4c25.4-31.1,39.5-72.4,39.5-116.2
						h-34.6c0,68.4-44.8,124.1-100.1,125c0.4,0,0.8,0,1.2,0V295.7z"/>
					<path fill="#3D87C9" d="M457.9,320.1l-1.7-1.2c-18.4-12.4-38.5-19.2-59.8-20l-3.1-0.1v-3.2h1.9l0-3.2
						c53.5-0.8,97-55.4,97-121.8v-3.2h41v3.2c0,44.6-14.3,86.6-40.2,118.3c-9.9,12-21.1,22.2-33.3,30.1L457.9,320.1z M418,295.3
						c14,3.2,27.5,9,39.9,17.1c11-7.4,21.1-16.7,30.1-27.6c24.4-29.8,38-69.1,38.7-111h-28.2c-0.7,32.6-11.2,63.3-30,86.6
						C454.4,277.9,437,289.9,418,295.3z"/>
				</g>
				<g>
					<path fill="#0B0A0A" d="M391.4,624.4c-21-0.8-41.1-7.4-59.2-19.1c-11,7.4-21.2,16.8-30.3,27.9c-25.4,31.1-39.5,72.4-39.5,116.2
						h34.6c0-67.5,43.6-122.6,97.9-124.9c-1.2,0-2.3-0.1-3.5-0.1V624.4z"/>
					<path fill="#3D87C9" d="M300.3,752.6h-41v-3.2c0-44.6,14.3-86.6,40.2-118.3c9.2-11.3,19.7-20.9,31-28.6l1.7-1.2l1.8,1.1
						c17.8,11.5,37.2,17.8,57.6,18.6l3.1,0.1v0c0.1,0,0.3,0,0.4,0v6.4c-53.2,2.2-94.8,55.7-94.8,121.7V752.6z M265.7,746.2h28.2
						c0.6-32.1,11-62.4,29.2-85.7c13.7-17.4,30.7-29.5,49.3-35.3c-14-2.9-27.4-8.3-40.2-16.2c-10.2,7.1-19.5,15.9-27.9,26.1
						C280,665,266.3,704.3,265.7,746.2z"/>
				</g>
			</g>
			<g>
				<path d="M488.3,344.2c-9.1-11.2-19.4-20.5-30.4-28c-18.7-12.6-39.6-19.7-61.5-20.6v-0.1c-0.4,0-0.8,0-1.2,0
					c-55.3-0.8-100.1-56.6-100.1-125h-34.6c0,43.9,14,85.2,39.5,116.2c9.7,11.9,20.7,21.8,32.6,29.4c18.1,11.7,38.3,18.3,59.3,19.2
					v0.1c1.1,0,2.3,0,3.4,0.1c54.1,2.2,97.5,56.9,97.9,124H493c0,67.5-43.6,122.6-97.8,124.9c1.2,0,2.3,0.1,3.5,0.1v0.1
					c21,0.8,41.1,7.4,59.2,19.1c11-7.4,21.2-16.8,30.3-27.9c25.3-30.9,39.3-71.8,39.4-115.3h0.1
					C527.8,416.6,513.8,375.3,488.3,344.2z"/>
				<path fill="#3D87C9" d="M458,607.6l-1.8-1.1c-17.8-11.5-37.2-17.8-57.6-18.6l-3.1-0.2c-0.1,0-0.3,0-0.4,0l0-6.4
					c53.2-2.2,94.8-55.7,94.8-121.7l0-3.2c-1.7-64.1-42.9-115.5-94.8-117.6c-1.3,0-2.3-0.1-3.3-0.1h-3.2v-0.3
					c-20.5-1.3-39.9-7.9-57.9-19.5c-12.2-7.9-23.4-18-33.3-30.1c-25.9-31.7-40.2-73.7-40.2-118.3v-3.2h41v3.2
					c0,66.4,43.5,121,97,121.8l0.4,0c0.3,0,0.5,0,0.8,0h3.2v0.3c21.1,1.4,41.8,8.6,60.1,21c11.4,7.7,21.8,17.3,31.1,28.6
					c25.9,31.7,40.2,73.7,40.2,118.3v3.2h-0.1c-0.8,43.1-15,83.5-40.1,114.2c-9.2,11.3-19.6,20.9-31,28.6L458,607.6z M417.7,583.7
					c14,2.9,27.4,8.3,40.1,16.2c10.2-7.1,19.5-15.9,27.9-26.1c24.8-30.3,38.5-70.5,38.7-113.3l0-3.2h0.1
					c-0.7-41.9-14.3-81.3-38.7-111c-8.9-10.8-18.9-20-29.7-27.4c-18.4-12.4-38.5-19.2-59.8-20l-3.1-0.1v0c-27-1-52.3-14.5-71.3-38.3
					c-18.7-23.4-29.3-54-30-86.6h-28.2c0.7,41.9,14.3,81.3,38.7,111c9.4,11.5,20.1,21.2,31.8,28.8c17.9,11.6,37.3,17.8,57.7,18.7
					l3.1,0.1v0c0.1,0,0.2,0,0.3,0c27.1,1.1,52.5,14.9,71.5,38.9c18.8,23.8,29.3,55.2,29.5,88.3l0,3.2h-0.1
					c-0.6,32.1-11,62.4-29.2,85.7C453.3,565.8,436.3,577.9,417.7,583.7z"/>
			</g>
		</g>
		<g>
			<path d="M301,575.8c9.1,11.2,19.4,20.5,30.4,28c18.7,12.6,39.6,19.7,61.5,20.6v0.1c0.4,0,0.8,0,1.2,0
				c55.3,0.8,100.1,56.5,100.1,125h34.6c0-43.9-14-85.2-39.5-116.2c-9.7-11.9-20.7-21.8-32.6-29.4c-18.1-11.7-38.3-18.3-59.3-19.2
				v-0.1c-1.1,0-2.3,0-3.4-0.1c-54.1-2.2-97.6-56.9-97.9-124h0.1c0-67.5,43.6-122.6,97.9-124.9c-1.2,0-2.3-0.1-3.5-0.1v-0.1
				c-21-0.8-41.1-7.4-59.2-19.1c-11,7.4-21.2,16.8-30.3,27.9c-25.3,30.9-39.3,71.8-39.4,115.3h-0.1
				C261.5,503.4,275.6,544.7,301,575.8z"/>
			<path fill="#3D87C9" d="M532,752.6h-41v-3.2c0-66.4-43.5-121-97-121.8l-0.4,0c-0.2,0-0.5,0-0.7,0h-3.2v-0.3
				c-21.1-1.4-41.8-8.6-60.1-21c-11.4-7.7-21.8-17.3-31.1-28.6c-25.9-31.7-40.2-73.7-40.2-118.3v-3.2h0.1
				c0.8-43.1,15-83.5,40.1-114.2c9.2-11.3,19.7-20.9,31-28.6l1.8-1.2l1.8,1.1c17.8,11.5,37.2,17.8,57.6,18.6l3.1,0.2
				c0.1,0,0.3,0,0.4,0v6.4c-53.2,2.2-94.8,55.7-94.8,121.7l0,3.2c1.7,64.1,42.9,115.5,94.8,117.6c1.3,0.1,2.3,0.1,3.3,0.1h3.2v0.3
				c20.5,1.3,39.9,7.9,57.9,19.5c12.2,7.9,23.4,18,33.3,30.1c25.9,31.7,40.2,73.7,40.2,118.3V752.6z M497.4,746.2h28.2
				c-0.7-41.9-14.3-81.3-38.7-111c-9.4-11.5-20.1-21.2-31.8-28.8c-17.9-11.6-37.3-17.8-57.7-18.7l-3.1-0.1v0c-0.1,0-0.2,0-0.3,0
				c-27.1-1.1-52.5-14.9-71.5-38.9c-18.9-23.8-29.3-55.2-29.5-88.3l0-3.2h0.1c0.6-32.1,11-62.4,29.2-85.7
				c13.7-17.4,30.7-29.5,49.3-35.3c-14-2.9-27.4-8.3-40.1-16.2c-10.2,7.1-19.5,15.9-27.9,26.1c-24.8,30.3-38.5,70.5-38.7,113.3
				l0,3.2h-0.1c0.7,41.9,14.3,81.3,38.7,111c8.9,10.8,18.9,20,29.7,27.4c18.4,12.4,38.5,19.2,59.8,20l3.1,0.1v0
				c27,1,52.3,14.5,71.3,38.3C486.2,683,496.7,713.6,497.4,746.2z"/>
		</g>
	</g>
</g>
</svg>
