<?xml version="1.0" encoding="utf-8"?>
<!-- Generator: Adobe Illustrator 18.1.1, SVG Export Plug-In . SVG Version: 6.00 Build 0)  -->
<svg version="1.1" id="Layer_1" xmlns="http://www.w3.org/2000/svg" xmlns:xlink="http://www.w3.org/1999/xlink" x="0px" y="0px"
	 viewBox="0 0 791.4 920" enable-background="new 0 0 791.4 920" xml:space="preserve">
<g>
	<g>
		<polygon fill="#F1EA3A" points="771.3,676.9 395.7,893.7 20.1,676.9 20.1,243.2 395.7,26.3 771.3,243.2 		"/>
	</g>
	<g>
		<path d="M395.7,916.3L0.5,688.2V231.9L395.7,3.7l395.2,228.2v456.3L395.7,916.3z M39.7,665.6l356.1,205.5l356.1-205.5V254.5
			L395.7,48.9L39.7,254.5V665.6z"/>
	</g>
</g>
<g>
	<polygon stroke="#000000" points="546.5,618.6 244.8,618.6 242.9,525.5 548.5,525.5 	"/>
	<rect x="252.4" y="558.1" stroke="#000000" width="286.5" height="75.5"/>
	<circle stroke="#000000" cx="395.7" cy="285.8" r="42"/>
	<g>
		<path d="M526.5,526c-64.3,0-108.5-92.5-116.3-208.9h-29.2c-6.8,116.4-52,208.9-116.3,208.9H526.5z"/>
	</g>
</g>
</svg>
