<?xml version="1.0" encoding="utf-8"?>
<!-- Generator: Adobe Illustrator 18.1.1, SVG Export Plug-In . SVG Version: 6.00 Build 0)  -->
<svg version="1.1" id="Layer_1" xmlns="http://www.w3.org/2000/svg" xmlns:xlink="http://www.w3.org/1999/xlink" x="0px" y="0px"
	 viewBox="0 0 791.4 920" enable-background="new 0 0 791.4 920" xml:space="preserve">
<g>
	<g>
		<polygon fill="#806BC1" points="771.3,676.9 395.7,893.7 20.1,676.9 20.1,243.2 395.7,26.3 771.3,243.2 		"/>
	</g>
	<g>
		<path d="M395.7,916.3L0.5,688.2V231.9L395.7,3.7l395.2,228.2v456.3L395.7,916.3z M39.7,665.6l356.1,205.5l356.1-205.5V254.5
			L395.7,48.9L39.7,254.5V665.6z"/>
	</g>
</g>
<g>
	<path d="M424.6,249.9c-26.2-7-67.2,4.5-65.9,38.4c0,6.4,3.8,14.7,7.7,20.5c5.1,7,14.7,10.9,17.9,19.2c5.8,16.6-17.9,14.7-28.8,15.4
		c-26.9,1.9-53.8-3.5-79.4,2.2c-6.3,0.8-14.8,1.9-17.6,8.4c-3,6.9-1.1,21.7,0.2,29c1.8,10.5,1.4,21.9,2.1,32.6
		c0.7,10.7,4.2,20.4,3.1,31.4c-0.7,6.6-2.7,8.8-8.8,10.7c-7,2.3-7.5,0.7-12.3-4.2c-3.6-3.6-7.2-8.1-11.1-10.8
		c-3.7-2.6-7.5-4.2-11.3-6.5c-8.1-4.9-20.8-0.8-28.5,2.6c-18.2,8-26.1,26.1-24.2,47.2c0.5,5.8,0.5,10.5,2.1,16.2
		c1.6,5.7,7.8,15.1,11.9,19.7c6.4,7.3,14.6,11.3,23.6,10.8c12.6-0.6,19-6.6,28.5-13.4c6.1-4.4,20.1-18.8,28.2-10.9
		c6.7,6.5,1.2,20.9-0.3,28.3c-2.6,12.7-3.8,25.5-6.3,38.3c-1.6,8.2-3.2,15.9-4.5,24.3c-1.1,7.5-1,16.6-3.4,23.5
		c10.9-0.4,21.8,2.6,33.2,2c11.9-0.6,22.6-1.3,34.6-1.9c11-0.5,21.7-2.7,32.6-3.2c10.8-0.5,23.9,0.5,28.8-10.9
		c4.9-11.3-13.6-23.2-18.9-31.8c-6.6-10.8-5.9-29.8-0.5-41.1c4.6-9.6,19.4-16.2,28.7-19.5c12.1-4.2,27.8-4.8,40.3-1.9
		c7.8,1.8,22.8,11.5,27.8,18.2c5.1,6.9,6.5,22.4,4.5,30.7c-2.2,9.2-8.2,18.7-14.7,25.1c-5,5-17.9,16.2-8.5,22.2
		c7.5,4.8,26.3,2.4,35.7,2.9c12.1,0.6,24.3-0.3,36.6-0.3c11.7,0,22-2.9,33.3-4.5c6.5-0.9,7.8-2,7.1-9c-1.7-16.7-5.8-31.4-10.9-47.4
		c-3.1-9.7-4-20.2-5.9-30.1c-1.9-9.7-4.7-22.1,7.8-25.1c5-1.2,13.5-1.3,17.8,1.5c3.6,2.3,5.7,7.9,9.2,10.7c12,9.7,27,13.6,40.3,5.9
		c14.1-8.2,19.7-24.2,21.9-39c1.6-10.8-2.1-21.5-5.3-31.5c-2.7-8.6-11.8-16.2-20.6-19.1c-12.1-3.9-20.5,0.1-29.9,5.7
		c-8.6,5.1-19,19.5-29.9,18.9c-18.6-0.9-3-36-1.6-44.4c1.8-11,3.2-19.8,3.8-31.4c0.5-8.7,3-23.9-5.3-29.9
		c-6.6-4.8-23.4-2.1-31.8-2.1c-17.5,0-34,1.3-51.9,1.3c-7.6,0-15.5,0.9-20-5.6c-6.8-9.9,4.2-16.1,9.9-22.4
		c6.3-6.9,10.1-16.1,10.5-25.5C457.2,270.9,443.1,254.7,424.6,249.9z"/>
</g>
</svg>
