<?xml version="1.0" encoding="utf-8"?>
<!-- Generator: Adobe Illustrator 18.1.1, SVG Export Plug-In . SVG Version: 6.00 Build 0)  -->
<svg version="1.1" id="Layer_1" xmlns="http://www.w3.org/2000/svg" xmlns:xlink="http://www.w3.org/1999/xlink" x="0px" y="0px"
	 viewBox="0 0 791.4 920" enable-background="new 0 0 791.4 920" xml:space="preserve">
<g>
	<g>
		<polygon fill="#806BC1" points="771.3,676.9 395.7,893.7 20.1,676.9 20.1,243.2 395.7,26.3 771.3,243.2 		"/>
	</g>
	<g>
		<path d="M395.7,916.3L0.5,688.2V231.9L395.7,3.7l395.2,228.2v456.3L395.7,916.3z M39.7,665.6l356.1,205.5l356.1-205.5V254.5
			L395.7,48.9L39.7,254.5V665.6z"/>
	</g>
</g>
<g>
	<g>
		<path fill="#FFFFFF" d="M371.5,297.3c-0.5,7.5-0.3,9,3.3,15c2,4,3,2.5,2.5,8.5c-0.5,5.5-1.2,9.8-2,15c-2.4,16.1-2.5,28-1.5,43
			c2,28-1.5,56,0,84c1,13,13,11,24,8.5c9-2.5,12-3,12.5-12c1.5-28.5-8-58.5-12.5-86c-2.5-14.5-5-28.5-8.5-42.5
			c-1-4.5-4.5-11.5-4-15.5c1-6,8-12,1.5-18.5C382.2,292.8,375,293.3,371.5,297.3"/>
	</g>
	<g>
		<path d="M346.7,296.2c0,0,32.1,138,47.1,164.9c2.1-29,10.4-53.3,12.5-83.3c1.1-19.3,6.1-84.7,6.1-84.7s40-1.1,46.5,1.1
			c11.8,4.3,26.5,24,35,33.6c19.3,21.5,31.5,38.3,48.6,60.8c19.3,24.7,39.7,48.3,59,72.9c12.9,15,37.4,56,37.4,56
			s-22.7,28.1-35.6,35.6c-15-16.1-56.5-67.9-70.4-86.2c-15-18.2-30.6-49.9-49.3-62.2c2.1,23.6,2.1,46.8,5.4,70.4
			c3.2,22.5,8.6,43.3,8.6,66.9c0,8.6,6.4,34.3,3.2,40.8c-7.5,12.9-65.4,12.9-82.6,16.1c-30,5.4-50.4,4.3-81.5,2.1
			c-20.4-1.1-26.1-2.9-26.1-21.1c0-13.9-2.5-31.4-2.5-44.3c0-36.5-3.2-93-0.4-130.9c-11.8,15-25.9,35.2-35.4,53.6
			c-9.7,18.9-62.9,100.1-81.2,120.5c-4.3,4.8-48.3-23.8-48.3-23.8s41.5-80.6,47.9-90.3c40.8-62.2,43.4-94.5,100.8-160.6
			C295.8,299,346.7,296.2,346.7,296.2z"/>
	</g>
</g>
</svg>
