<?xml version="1.0" encoding="utf-8"?>
<!-- Generator: Adobe Illustrator 18.1.1, SVG Export Plug-In . SVG Version: 6.00 Build 0)  -->
<svg version="1.1" id="Layer_1" xmlns="http://www.w3.org/2000/svg" xmlns:xlink="http://www.w3.org/1999/xlink" x="0px" y="0px"
	 viewBox="0 0 791.4 919.5" enable-background="new 0 0 791.4 919.5" xml:space="preserve">
<g>
	<g>
		<polygon fill="#F1EA3A" points="771.3,676.5 395.7,893.3 20.1,676.5 20.1,242.8 395.7,26 771.3,242.8 		"/>
	</g>
	<g>
		<path d="M395.7,915.9L0.5,687.8V231.5L395.7,3.3l395.2,228.2v456.3L395.7,915.9z M39.7,665.2l356.1,205.5l356.1-205.5V254.1
			L395.7,48.5L39.7,254.1V665.2z"/>
		<g>
			<path d="M396.5,914.6c-7.6-4.4-15.2-8.8-22.8-13.2c-19.6-11.3-39.3-22.7-58.9-34c-26.6-15.3-53.1-30.7-79.7-46
				c-28.8-16.6-57.5-33.2-86.3-49.8c-25.7-14.9-51.5-29.7-77.2-44.6c-18-10.4-35.9-20.7-53.9-31.1c-4.5-2.6-9.1-5.2-13.6-7.9
				c-0.6-0.4-1.8-1.4-2.6-1.5c0.9,0.1,0.1,1.9,0.6,0.3c1-3.2,0-8.2,0-11.5c0-7.8,0-15.5,0-23.3c0-24.5,0-49,0-73.6
				c0-31.5,0-63,0-94.5c0-33,0-66.1,0-99.1c0-28.6,0-57.1,0-85.7c0-18.6,0-37.1,0-55.7c0-2.5,0-4.9,0-7.4c0-1,0.4-3,0-4
				c-0.5-1.3-0.3,0.4-0.5,0.4c0.8-0.1,2.1-1.2,2.7-1.6c12.3-7.1,24.7-14.2,37-21.4c22.7-13.1,45.3-26.2,68-39.3
				c27.8-16.1,55.7-32.1,83.5-48.2c28.2-16.3,56.4-32.5,84.6-48.8c23.7-13.7,47.4-27.4,71.1-41.1c14.1-8.1,28.1-16.2,42.2-24.4
				c1.4-0.8,3-1.6,4.4-2.5c2.1-1.4,0.8,0.2-0.1-0.8c1.4,1.6,4.8,2.8,6.6,3.8c14.5,8.4,29,16.7,43.4,25.1
				c24,13.8,47.9,27.7,71.9,41.5c28.3,16.3,56.5,32.6,84.8,48.9c27.7,16,55.5,32,83.2,48c22.4,12.9,44.8,25.9,67.2,38.8
				c11.9,6.9,23.8,13.7,35.7,20.6c0.6,0.4,1.6,1.2,2.3,1.3c-1.4-0.2-0.2-2-0.6-0.1c-0.8,3.7,0,8.5,0,12.2c0,19,0,38,0,57
				c0,28.8,0,57.6,0,86.4c0,33.1,0,66.2,0,99.3c0,31.3,0,62.7,0,94c0,24.2,0,48.3,0,72.5c0,7.5,0,15,0,22.5c0,2.3,0,4.6,0,6.9
				c0,0.8-0.4,3,0,3.7c0.5,0.9,1-0.5,0.4-0.5c-0.8,0-2.3,1.3-3,1.7c-4.8,2.8-9.6,5.5-14.4,8.3c-18.3,10.6-36.6,21.1-54.9,31.7
				c-25.9,15-51.9,29.9-77.8,44.9c-28.8,16.6-57.6,33.2-86.3,49.8c-26.4,15.2-52.8,30.5-79.2,45.7c-19.3,11.1-38.6,22.3-57.9,33.4
				c-7.1,4.1-14.2,8.2-21.3,12.3c-1.7,1-0.2,3.6,1.5,2.6c13.2-7.6,26.3-15.2,39.5-22.8c31.4-18.1,62.8-36.3,94.3-54.4
				c38-21.9,76-43.9,114-65.8c33-19,65.9-38.1,98.9-57.1c10.8-6.2,21.6-12.5,32.4-18.7c4.9-2.9,11.1-5.3,15.5-8.9
				c0.2-0.2,0.5-0.3,0.7-0.4c0.5-0.3,0.7-0.8,0.7-1.3c0-8.9,0-17.7,0-26.6c0-22.9,0-45.8,0-68.6c0-30.9,0-61.8,0-92.7
				c0-33.4,0-66.7,0-100.1c0-29.7,0-59.5,0-89.2c0-20.5,0-41,0-61.5c0-5,0-10,0-15c0-2,0.2-3-1.4-4.3c-2.9-2.3-6.7-3.9-9.8-5.7
				c-6.7-3.8-13.3-7.7-20-11.5c-21.3-12.3-42.5-24.6-63.8-36.8c-27.4-15.8-54.8-31.6-82.2-47.5c-28.8-16.6-57.5-33.2-86.3-49.8
				c-24.8-14.3-49.6-28.6-74.4-43c-16-9.2-32-18.5-48.1-27.7c-3-1.7-6.2-4.3-9.5-5.5c-1.9-0.7-2.8,0.1-4.5,1.1
				c-12,7-24.1,13.9-36.1,20.9c-22.6,13.1-45.2,26.1-67.8,39.2c-27.9,16.1-55.9,32.2-83.8,48.4c-28.4,16.4-56.7,32.7-85.1,49.1
				c-23.9,13.8-47.8,27.6-71.6,41.4c-14.2,8.2-28.3,16.3-42.5,24.5c-1.9,1.1-3.9,2.2-5.8,3.3c-0.5,0.3-0.7,0.8-0.7,1.3
				c0,15.2,0,30.4,0,45.6c0,36.3,0,72.6,0,108.9c0,43.9,0,87.8,0,131.6c0,38.1,0,76.1,0,114.2c0,12.5,0,24.9,0,37.4
				c0,5.7-0.9,12.2,0,17.9c0,0.2,0,0.5,0,0.8c0,0.5,0.3,1,0.7,1.3c13.2,7.6,26.3,15.2,39.5,22.8c31.4,18.1,62.9,36.3,94.3,54.4
				c38,21.9,76,43.9,114,65.8c33,19,65.9,38.1,98.9,57.1c10.8,6.2,21.6,12.5,32.4,18.7c4.9,2.9,10.2,6.9,15.5,8.9
				c0.2,0.1,0.5,0.3,0.7,0.4C396.6,918.2,398.1,915.6,396.5,914.6z"/>
			<path d="M38.9,666.5c11.9,6.9,23.8,13.7,35.7,20.6c28.5,16.5,57.1,33,85.6,49.4c34.3,19.8,68.6,39.6,102.9,59.4
				c29.7,17.1,59.3,34.2,89,51.3c9.7,5.6,19.3,11.2,29,16.7c4.2,2.4,8.7,6.1,13.3,7.7c2.5,0.9,5-1.5,7.2-2.7
				c7.3-4.2,14.5-8.4,21.8-12.6c26.9-15.5,53.7-31,80.6-46.5c34.3-19.8,68.5-39.6,102.8-59.3c30.8-17.8,61.7-35.6,92.5-53.4
				c17-9.8,33.9-19.6,50.9-29.3c0.8-0.5,1.6-0.9,2.4-1.4c0.5-0.3,0.7-0.8,0.7-1.3c0-13.6,0-27.3,0-40.9c0-32.8,0-65.5,0-98.3
				c0-39.5,0-78.9,0-118.4c0-34.3,0-68.6,0-102.8c0-11.3,0-22.7,0-34c0-5.1,0.8-11,0-16c0-0.2,0-0.5,0-0.7c0-0.5-0.3-1-0.7-1.3
				c-11.9-6.9-23.8-13.7-35.7-20.6c-28.5-16.5-57.1-33-85.6-49.4c-34.3-19.8-68.6-39.6-102.9-59.4c-29.7-17.1-59.3-34.2-89-51.4
				c-9.7-5.6-19.3-11.2-29-16.8c-4.2-2.4-8.7-6.1-13.3-7.7c-2.5-0.9-5,1.5-7.2,2.7c-7.3,4.2-14.5,8.4-21.8,12.6
				c-26.9,15.5-53.7,31-80.6,46.5c-34.3,19.8-68.5,39.6-102.8,59.3c-30.8,17.8-61.7,35.6-92.5,53.4c-17,9.8-33.9,19.6-50.9,29.4
				c-0.8,0.5-1.6,0.9-2.4,1.4c-0.5,0.3-0.7,0.8-0.7,1.3c0,13.6,0,27.3,0,40.9c0,32.8,0,65.5,0,98.3c0,39.5,0,78.9,0,118.4
				c0,34.3,0,68.6,0,102.8c0,11.3,0,22.7,0,34c0,5.1-0.8,11,0,16c0,0.2,0,0.5,0,0.7c0,1.9,3,1.9,3,0c0-28.5,0-56.9,0-85.4
				c0-57.4,0-114.8,0-172.2c0-45.6,0-91.2,0-136.9c0-4.6,0-9.3,0-13.9c0-0.7,0.3-2,0-2.6c0.4,1.2-1.6,1,0,0.7c2.9-0.6,6.5-3.8,9-5.2
				c6.1-3.5,12.1-7,18.2-10.5c43.8-25.3,87.7-50.6,131.5-75.9c47.9-27.7,95.8-55.3,143.7-83c14.5-8.4,29.1-16.8,43.6-25.2
				c1.9-1.1,3.7-2.2,5.6-3.2c0.8-0.4,2.6-1.1,3.1-1.8c0.7-1-0.7-0.1-0.7-0.2c0.4,0.6,1.9,1.1,2.5,1.5c31.5,18.2,63,36.3,94.4,54.5
				c50.7,29.3,101.4,58.5,152.1,87.8c33.8,19.5,67.7,39.1,101.5,58.6c1.3,0.7,2.6,1.7,4,2.3c2,0.9,0.1,0.7,0.5-0.6
				c-0.5,1.9,0,4.8,0,6.8c0,15.2,0,30.5,0,45.7c0,54.2,0,108.4,0,162.6c0,52.2,0,104.5,0,156.7c0,12.3,0,24.6,0,36.9
				c0,0.7-0.2,1.7,0,2.3c-0.5-1.6,1.6-1.1-0.1-0.7c-3.2,0.9-6.7,3.9-9.5,5.5c-37.4,21.6-74.8,43.2-112.2,64.8
				c-50.2,29-100.5,58-150.7,87c-18.8,10.8-37.5,21.6-56.3,32.5c-5.9,3.4-11.7,6.8-17.6,10.2c-1.8,1.1-3.7,2.1-5.5,3.2
				c-0.6,0.3-2.6,1.1-2.9,1.7c-0.4,0.8,1,0.6,0.7,0.1c-0.3-0.6-2.2-1.3-2.8-1.6c-4.3-2.5-8.6-5-12.9-7.4c-16.5-9.5-33-19-49.5-28.6
				c-49.1-28.4-98.3-56.7-147.4-85.1C142.3,722.7,101,698.9,59.7,675c-6.4-3.7-12.8-7.4-19.2-11.1C38.7,663,37.2,665.6,38.9,666.5z"
				/>
		</g>
	</g>
</g>
<g>
	<rect x="380.2" y="695.8" fill="#FFFFFF" width="30.6" height="83.1"/>
	<polyline fill="#FFFFFF" points="358.4,705.6 395.5,646.6 432.6,705.6 	"/>
</g>
<circle cx="395.5" cy="612.7" r="19.7"/>
<g>
	<g>
		
			<rect x="320.5" y="519.8" transform="matrix(-0.2493 -0.9684 0.9684 -0.2493 -65.8824 1019.1436)" fill="#FFFFFF" width="83.1" height="30.6"/>
		<polyline fill="#FFFFFF" points="318.2,513.6 339.5,447.2 390.1,495.1 		"/>
	</g>
	<g>
		
			<rect x="387.4" y="520.2" transform="matrix(0.2493 -0.9684 0.9684 0.2493 -196.5757 817.4564)" fill="#FFFFFF" width="83.1" height="30.6"/>
		<polyline fill="#FFFFFF" points="472.8,514 451.6,447.7 401,495.5 		"/>
	</g>
</g>
<circle cx="330.5" cy="416.3" r="19.7"/>
<circle cx="461.5" cy="414.8" r="19.7"/>
<circle cx="330.5" cy="416.3" r="19.7"/>
<circle cx="461.4" cy="413" r="19.7"/>
<g>
	<g>
		
			<rect x="412.4" y="315.3" transform="matrix(7.435530e-002 -0.9972 0.9972 7.435530e-002 90.5019 758.8015)" fill="#FFFFFF" width="83.1" height="30.6"/>
		<polyline fill="#FFFFFF" points="419.3,296.2 460.7,240.2 493.4,301.8 		"/>
	</g>
	<g>
		
			<rect x="475.7" y="337.2" transform="matrix(0.5466 -0.8374 0.8374 0.5466 -60.6663 592.9402)" fill="#FFFFFF" width="83.1" height="30.6"/>
		<polyline fill="#FFFFFF" points="565.7,346.2 566.8,276.5 503.5,305.6 		"/>
	</g>
</g>
<circle cx="330.3" cy="414.3" r="19.7"/>
<g>
	<g>
		
			<rect x="296.2" y="316.7" transform="matrix(-7.435527e-002 -0.9972 0.9972 -7.435527e-002 31.8059 693.4631)" fill="#FFFFFF" width="83.1" height="30.6"/>
		<polyline fill="#FFFFFF" points="372.4,297.6 331,241.5 298.4,303.1 		"/>
	</g>
	<g>
		
			<rect x="232.9" y="338.5" transform="matrix(-0.5466 -0.8374 0.8374 -0.5466 128.267 777.0765)" fill="#FFFFFF" width="83.1" height="30.6"/>
		<polyline fill="#FFFFFF" points="226.1,347.5 224.9,277.8 288.2,306.9 		"/>
	</g>
</g>
<circle cx="210.9" cy="247.2" r="19.7"/>
<circle cx="330.3" cy="207.8" r="19.7"/>
<circle cx="461.5" cy="207.8" r="19.7"/>
<circle cx="580.5" cy="242.6" r="19.7"/>
</svg>
