<?xml version="1.0" encoding="utf-8"?>
<!-- Generator: Adobe Illustrator 18.1.1, SVG Export Plug-In . SVG Version: 6.00 Build 0)  -->
<svg version="1.1" id="Layer_1" xmlns="http://www.w3.org/2000/svg" xmlns:xlink="http://www.w3.org/1999/xlink" x="0px" y="0px"
	 viewBox="0 0 791.4 920" enable-background="new 0 0 791.4 920" xml:space="preserve">
<g>
	<g>
		<polygon fill="#806BC1" points="771.3,676.9 395.7,893.7 20.1,676.9 20.1,243.2 395.7,26.3 771.3,243.2 		"/>
	</g>
	<g>
		<path d="M395.7,916.3L0.5,688.2V231.9L395.7,3.7l395.2,228.2v456.3L395.7,916.3z M39.7,665.6l356.1,205.5l356.1-205.5V254.5
			L395.7,48.9L39.7,254.5V665.6z"/>
	</g>
</g>
<g>
	<g>
		<path d="M573.5,481.9c6.2,28.5-0.8,52.7-5.6,82.3c-6,31.8-32.5,60.3-31.3,92.1c1.2,19.7,15.8,57,10.8,73.5
			c-8,26.2-107.6,11-125.6-5.5c3.6-4.4,7.5-8.5,9.9-12.9c7.2-14.3,21.4-29.9,6.4-42.4c-13.4-11.2-25.7-5.3-42.8-6.1
			c-27.4-1.2-36.2-9.8-31-31.8c0.4-1.6-3.9-3.3-3.9-7.6c0-2.8,3.5-2.3,3.4-4.4c-0.2-2.4-3.8-5.7-3.6-6.6c0.9-4.3,4.5-7.6,4.9-10.5
			c1.2-8,8.7-16.9-8.9-18.8c-15.5-1.7-18.9-6.4-2.3-25.3c10-11.5,9.2-11.3,17.6-21.2c6.6-7.8,5.9-11.3,1.7-19.9
			c-3.5-7.1-5.9-25.8-3.7-35l200.1,0"/>
	</g>
	<path d="M574.1,483.8c-0.1-2.1-0.2-3.7-0.4-4.5c-6.6-30.9-33-56.2-84.3-55c-24.3,0.6-64.8,3-88.1,12.9c-15.7,6.7-25.3,19.1-28.8,28
		c-2.8,7.2-3.8,12.6-3.8,19.1c0,0.8-0.4,2.4-0.5,4.5"/>
	<g>
		<circle fill="#FFFDFD" cx="494" cy="250.9" r="48.3"/>
		<circle fill="#FFFDFD" cx="443.2" cy="212.9" r="48.3"/>
		<circle fill="#FFFDFD" cx="376.6" cy="180.7" r="48.3"/>
		<circle fill="#FFFDFD" cx="507.5" cy="314.2" r="48.3"/>
		<circle fill="#FFFDFD" cx="439.5" cy="339.5" r="48.3"/>
		<circle fill="#FFFDFD" cx="364.9" cy="357" r="48.3"/>
		<circle fill="#FFFDFD" cx="300.1" cy="331.8" r="48.3"/>
		<circle fill="#FFFDFD" cx="304.5" cy="216.6" r="48.3"/>
		<circle fill="#FFFDFD" cx="260.1" cy="280.3" r="48.3"/>
		<ellipse fill="#FFFDFD" cx="395.2" cy="274.5" rx="113" ry="58.7"/>
	</g>
	<g>
		<circle fill="#FFFDFD" cx="279.3" cy="418.2" r="17.6"/>
		<circle fill="#FFFDFD" cx="262.9" cy="412.1" r="17.6"/>
		<circle fill="#FFFDFD" cx="267.3" cy="427.6" r="17.6"/>
	</g>
	<g>
		<circle fill="#FFFDFD" cx="310" cy="460.5" r="11.7"/>
		<circle fill="#FFFDFD" cx="301" cy="467.8" r="11.7"/>
		<circle fill="#FFFDFD" cx="311.3" cy="470.6" r="11.7"/>
	</g>
	<g>
		<path d="M329,308.7c-6.1,2.9-13,2.3-18.7-0.6l0,0c-5.8-2.9-10.8-8-14-14.7l0,0c-3.1-6.7-3.9-13.8-2.5-20.1l0,0
			c1.4-6.3,5.3-12,11.4-14.9l0,0c6.1-2.9,13-2.3,18.7,0.6l0,0c5.8,2.9,10.8,8,14,14.7l0,0l0,0c3.1,6.7,3.9,13.8,2.5,20.1l0,0
			C339,300.1,335.1,305.8,329,308.7L329,308.7C329,308.7,329,308.7,329,308.7L329,308.7z M303.6,275.5c-0.9,3.9-0.5,8.9,1.8,13.6
			l0,0c2.2,4.7,5.8,8.2,9.4,10l0,0c3.7,1.8,7.1,1.9,10,0.6l0,0c2.9-1.4,5-4.1,5.9-8.1l0,0c0.9-3.9,0.5-8.9-1.8-13.6l0,0l0,0
			c-2.2-4.7-5.8-8.2-9.4-10l0,0c-3.7-1.8-7.1-1.9-10-0.6l0,0C306.6,268.8,304.5,271.5,303.6,275.5L303.6,275.5z"/>
		<polygon points="339.4,278.5 335.2,269.4 449.9,215.2 454.2,224.2 339.4,278.5 		"/>
		<g>
			<rect x="433.5" y="226.8" transform="matrix(0.904 -0.4275 0.4275 0.904 -56.9621 209.8998)" width="11" height="9.9"/>
			<path d="M434.2,244l-7.7-16.2l17.2-8.1l6,12.6l1.7,3.6L434.2,244L434.2,244z M446.1,234l-1.7-3.6L446.1,234L446.1,234z
				 M438,233.3l2.7-1.3l-0.8-1.8l-2.7,1.3L438,233.3L438,233.3z"/>
		</g>
		<g>
			<rect x="430" y="236.4" transform="matrix(0.904 -0.4275 0.4275 0.904 -60.6568 212.6541)" width="26.5" height="9.9"/>
			<path d="M431.5,256.9l-7.7-16.2l31.2-14.7l6,12.6l1.7,3.6L431.5,256.9L431.5,256.9z M457.4,240.2l-1.7-3.6L457.4,240.2
				L457.4,240.2z M435.3,246.2l16.7-7.9l-0.8-1.8l-16.7,7.9L435.3,246.2L435.3,246.2z"/>
		</g>
		
			<rect x="438.2" y="248.3" transform="matrix(0.904 -0.4275 0.4275 0.904 -65.4945 212.413)" fill="#FFFDFD" width="4.1" height="7.5"/>
		
			<rect x="452.2" y="241.7" transform="matrix(0.9041 -0.4274 0.4274 0.9041 -61.3138 217.7111)" fill="#FFFDFD" width="4.1" height="7.5"/>
		<circle cx="294.4" cy="293.9" r="5.8"/>
		<circle cx="294.5" cy="285.2" r="3.7"/>
		<circle cx="300.9" cy="298.8" r="3.7"/>
	</g>
	<path d="M462,290.6c0,0,4.5,14.5,4.5,24.1c0,19.2-11.9,30.9-26.5,30.9c-14.6,0-26.5-11.7-26.5-30.9c0-9.4,4.1-24.1,4.1-24.1H462z"
		/>
	<ellipse fill="none" stroke="#000000" stroke-width="8" cx="440" cy="289.6" rx="15.5" ry="16"/>
	<circle fill="#FFFDFD" cx="440" cy="308.1" r="5.5"/>
	<polygon fill="#FFFDFD" points="443.5,328.6 436.5,328.6 437.5,313 442.5,313 	"/>
</g>
</svg>
