<?xml version="1.0" encoding="utf-8"?>
<!-- Generator: Adobe Illustrator 18.1.1, SVG Export Plug-In . SVG Version: 6.00 Build 0)  -->
<svg version="1.1" xmlns="http://www.w3.org/2000/svg" xmlns:xlink="http://www.w3.org/1999/xlink" x="0px" y="0px"
	 viewBox="0 0 790.4 920" enable-background="new 0 0 790.4 920" xml:space="preserve">
<g id="Guides_For_Artboard">
</g>
<g id="Layer_1">
	<g>
		<polygon fill="#DD62BD" points="770.8,676.9 395.2,893.7 19.6,676.9 19.6,243.2 395.2,26.3 770.8,243.2 		"/>
		<path d="M395.2,916.3L0,688.2V231.9L395.2,3.7l395.2,228.2v456.3L395.2,916.3z M39.2,665.6l356.1,205.5l356.1-205.5V254.5
			L395.2,48.9L39.2,254.5V665.6z"/>
	</g>
	<path fill="#FFFFFF" d="M265.7,602.3c0-23.8,1.8-47.6,1.8-69.3l0,0c0-27.2-2-56.3-2-85.1l0,0c0-18.1,0.8-36.1,3.4-53.6l0,0l0,0
		l9.9,1.5c-2.5,16.8-3.3,34.4-3.3,52.1l0,0c0,28.4,2,57.4,2,85.1l0,0c0,22.1-1.8,45.9-1.8,69.3l0,0c0,22.2,1.6,43.9,7.5,63.3l0,0
		l-9.6,2.9C267.2,647.6,265.7,625,265.7,602.3L265.7,602.3z"/>
	<path fill="#FFFFFF" d="M318.1,663.3c0.8-9.8,1.1-19.8,1.1-29.9l0,0c0-13.5-0.4-27.2-0.4-41l0,0v0v-0.1c0.7-31.3,0.7-61.9,0.7-93.2
		l0,0c0-34.1-6-67.4-6-102.7l0,0h10c0,34.1,6,67.4,6,102.7l0,0c0,31.3,0,62-0.7,93.4l0,0c0,13.6,0.4,27.3,0.4,40.9l0,0
		c0,10.3-0.2,20.5-1.1,30.7l0,0L318.1,663.3L318.1,663.3z"/>
	<path d="M250.8,378.6c0,0-4.5-4.7-5-6.3c-6.5-19.3-2-87.5-2-87.5c0-7.1,5.4-12.9,12-12.9h80.5c6.6,0,12,5.8,12,12.9
		c0,0,3.9,68-2,87.5c-0.5,1.7-4,6-4,6l4,19c0,7.1-5.4,12.9-12,12.9h-76.5c-6.6,0-12-5.8-12-12.9L250.8,378.6z"/>
	<path d="M536.8,272.7c7.1,0,12.8,4.3,12.8,9.6V408c0,5.3-5.7,9.6-12.8,9.6H433.1c-7.1,0-12.8-4.3-12.8-9.6V282.3
		c0-5.3,5.7-9.6,12.8-9.6H536.8z"/>
	<rect x="430.5" y="289.4" fill="#FFFFFF" width="109" height="45.1"/>
	<g>
		<circle fill="#DD62BD" cx="484.9" cy="311.5" r="21.3"/>
		<path d="M460,311.5c0-13.8,11.1-24.9,24.9-24.9l0,0c13.8,0,24.9,11.1,24.9,24.9l0,0c0,13.7-11.1,24.9-24.9,24.9l0,0
			C471.2,336.4,460,325.3,460,311.5L460,311.5z M467.2,311.5c0,9.8,7.9,17.7,17.7,17.7l0,0c9.8,0,17.7-7.9,17.7-17.7l0,0
			c0-9.8-7.9-17.7-17.7-17.7l0,0C475.2,293.9,467.2,301.8,467.2,311.5L467.2,311.5z"/>
	</g>
	<rect x="485.4" y="372.5" fill="#FFFFFF" width="53.5" height="10.4"/>
	<rect x="314.1" y="283.4" fill="#FFFFFF" width="15" height="79"/>
	<g>
		<rect x="439.9" y="408.7" fill="#FFFFFF" width="17.6" height="30.9"/>
		<polygon fill="#FFFFFF" points="453.7,515.4 443.6,515.4 442.8,435 454.5,435 		"/>
	</g>
	<g>
		<rect x="475.4" y="408.7" fill="#FFFFFF" width="17.6" height="30.9"/>
		<polygon fill="#FFFFFF" points="489.2,515.4 479.1,515.4 478.3,435 490,435 		"/>
	</g>
	<g>
		<rect x="510.9" y="408.7" fill="#FFFFFF" width="17.6" height="30.9"/>
		<polygon fill="#FFFFFF" points="524.8,515.4 514.6,515.4 513.8,435 525.6,435 		"/>
	</g>
	<path fill="#FFFFFF" d="M433.4,641.1c0-2.2,0.4-5.5,0.7-8.5l0,0c0.3-3,0.7-5.5,0.7-5.5l0,0l0.4-2.7l13.5-6.4l-0.5-14l10-0.4
		l0.8,20.6l-14.5,6.9c-0.1,0.8-0.2,1.7-0.3,2.6l0,0c-0.3,2.8-0.6,6.2-0.6,7.4l0,0H433.4L433.4,641.1z"/>
	<path fill="#FFFFFF" d="M527.4,641.1c0-1.1-0.3-4.5-0.6-7.4l0,0c-0.1-1-0.2-1.9-0.3-2.6l0,0l-14.5-6.9l0.8-20.6l10,0.4l-0.5,14
		l13.5,6.4l0.4,2.7c0,0,0.3,2.5,0.7,5.5l0,0c0.3,3,0.7,6.3,0.7,8.5l0,0H527.4L527.4,641.1z"/>
	<rect x="440.1" y="541.7" width="90" height="60.7"/>
	<rect x="435.4" y="547.1" width="100" height="60.7"/>
</g>
</svg>
