<?xml version="1.0" encoding="utf-8"?>
<!-- Generator: Adobe Illustrator 18.1.1, SVG Export Plug-In . SVG Version: 6.00 Build 0)  -->
<svg version="1.1" id="Layer_1" xmlns="http://www.w3.org/2000/svg" xmlns:xlink="http://www.w3.org/1999/xlink" x="0px" y="0px"
	 viewBox="0 0 790.4 920" enable-background="new 0 0 790.4 920" xml:space="preserve">
<g>
	<polygon fill="#3D87C9" points="770.8,676.9 395.2,893.7 19.6,676.9 19.6,243.2 395.2,26.3 770.8,243.2 	"/>
	<path d="M395.2,916.3L0,688.2V231.9L395.2,3.7l395.2,228.2v456.3L395.2,916.3z M39.2,665.6l356.1,205.5l356.1-205.5V254.5
		L395.2,48.9L39.2,254.5V665.6z"/>
</g>
<g>
	<g>
		<path fill="#3D87C9" d="M397.6,609.5c-1.9,19,8.6,35.6,23.4,37.1l58.2,5.7c14.8,1.5,28.2-12.8,30.1-31.8l3-30.4
			c1.9-19-8.6-35.6-23.4-37.1l-58.2-5.7c-14.8-1.5-28.2,12.8-30.1,31.8L397.6,609.5z"/>
		<path d="M478.3,661.2l-58.2-5.7c-9.8-1-18-6.6-23.3-14.1l0,0c-5.4-7.6-8.3-17.2-8.4-27.5l0,0c0-1.7,0.1-3.5,0.3-5.3l0,0h0l3-30.4
			c1.1-10.9,5.3-20.6,11.7-27.8l0,0c6.4-7.2,15.3-12.2,25.3-12.2l0,0c1,0,2,0.1,3,0.1l0,0l58.2,5.7c9.8,0.9,18,6.6,23.3,14.1l0,0
			c5.4,7.6,8.3,17.2,8.4,27.5l0,0c0,1.7-0.1,3.5-0.3,5.3l0,0l-3,30.4c-1.1,10.8-5.3,20.6-11.7,27.8l0,0
			c-6.4,7.2-15.3,12.2-25.3,12.2l0,0C480.3,661.3,479.3,661.3,478.3,661.2L478.3,661.2z M406.6,610.3c-0.1,1.2-0.2,2.4-0.2,3.5l0,0
			c0,6.8,2,12.9,5,17l0,0c3,4.2,6.6,6.3,10.4,6.7l0,0l58.2,5.7c0.4,0,0.8,0.1,1.2,0.1l0,0c3.9,0,8.1-1.9,11.8-6.1l0,0
			c3.7-4.2,6.5-10.4,7.3-17.7l0,0l3-30.4c0.1-1.2,0.2-2.4,0.2-3.5l0,0c0-6.8-2-12.9-5-17l0,0c-3-4.2-6.6-6.3-10.5-6.7l0,0l-58.2-5.7
			c-0.4,0-0.8-0.1-1.2-0.1l0,0c-3.9,0-8.1,1.9-11.8,6.1l0,0c-3.7,4.1-6.6,10.4-7.3,17.7l0,0L406.6,610.3l-9-0.9L406.6,610.3
			L406.6,610.3z"/>
	</g>
	<g>
		<path d="M642.5,522.5c-8,34-29.1,58.1-47.1,53.9c-18-4.2-26.1-35.2-18.1-69.2c8-34,29.1-58.1,47.1-53.9
			C642.4,457.5,650.5,488.5,642.5,522.5z"/>
		<path d="M594.6,580.3c-8.2-1.9-14.3-8.3-18.3-16.6l0,0c-4-8.4-6-19-6-30.9l0,0c0-8.4,1-17.4,3.2-26.5l0,0
			c3.8-16.2,10.5-30.3,18.6-40.5l0,0c8.1-10.2,17.8-16.8,28.2-16.9l0,0c1.7,0,3.4,0.2,5.1,0.6l0,0c8.2,1.9,14.3,8.3,18.3,16.6l0,0
			c4,8.4,6,19,6,30.9l0,0c0,8.4-1,17.4-3.2,26.5l0,0l-3.9-0.9l3.9,0.9c-3.8,16.2-10.5,30.3-18.6,40.5l0,0
			c-8.1,10.2-17.8,16.8-28.2,16.9l0,0C598,580.8,596.2,580.7,594.6,580.3L594.6,580.3z M598.4,470.7c-7.2,9.1-13.5,22.2-17.1,37.4
			l0,0c-2,8.6-3,17-3,24.7l0,0c0,10.9,1.9,20.5,5.2,27.4l0,0c3.3,7,7.8,11.1,12.9,12.3l0,0c1.1,0.3,2.2,0.4,3.3,0.4l0,0
			c6.6,0.1,14.7-4.7,21.9-13.9l0,0c7.2-9.1,13.5-22.2,17.1-37.4l0,0c2-8.6,3-17,3-24.7l0,0c0-10.9-1.9-20.5-5.2-27.4l0,0
			c-3.3-7-7.8-11.1-12.9-12.3l0,0c-1.1-0.3-2.1-0.4-3.3-0.4l0,0c-0.1,0-0.1,0-0.2,0l0,0C613.5,456.8,605.6,461.6,598.4,470.7
			L598.4,470.7z"/>
	</g>
	<g>
		<path fill="none" d="M570.3,587.2c5.3,1.2,10.9,0.1,16.5-3l-20.4,1.6C567.7,586.4,569,586.9,570.3,587.2z"/>
		<path fill="none" d="M608,436.2l5.4,3C611.7,437.9,609.9,436.9,608,436.2z"/>
		<path fill="none" d="M625.6,520.4c4.2-18,4.9-35.6,2.6-50l-22.5,95.7C614.2,554.2,621.4,538.3,625.6,520.4z"/>
		<path d="M553.6,571.5l35.8-2.9l26.1-110.9l-30.1-16.6c-14.5,10.5-28.3,33.6-34.9,61.6C544.2,529.6,546,555.5,553.6,571.5z"/>
		<path d="M575.2,435.5L310.7,289.3l-72.3,307.3l303.8-24.2c-7.4-18.3-8.7-44.3-2.2-72.2C546.7,471.6,559.9,448.4,575.2,435.5z"/>
		<path d="M545.7,579.8l-317.2,25.3l77-327.3l276.3,152.7c2.7-1.7,5.5-3.1,8.3-4.1L300.5,266.2l-81.7,347.2L550.8,587
			C549,584.9,547.3,582.4,545.7,579.8z"/>
		<path d="M595.6,575.8l-37.5,3c2.4,3.1,5.2,5.5,8.3,7l20.4-1.6c6.5-3.6,13-9.8,18.9-18.1l22.5-95.7c-0.9-5.8-2.3-11-4.1-15.7
			L595.6,575.8z"/>
		<path d="M593.3,436.8l30.3,16.8c-2.6-6.3-6.1-11.2-10.3-14.4l-5.4-3c-0.7-0.2-1.3-0.4-2-0.6C601.9,434.6,597.7,435.1,593.3,436.8z
			"/>
		<path d="M238.4,596.6l72.3-307.3l264.5,146.2c2.2-1.9,4.5-3.5,6.8-5L305.6,277.8l-77,327.3l317.2-25.3c-1.3-2.3-2.5-4.7-3.6-7.4
			L238.4,596.6z"/>
		<path d="M624.1,454.7c-0.2-0.4-0.3-0.8-0.5-1.2l-30.3-16.8c-2.6,1-5.2,2.5-7.8,4.4l30.1,16.6l-26.1,110.9l-35.8,2.9
			c1.3,2.7,2.8,5.2,4.5,7.3l37.5-3L624.1,454.7z"/>
		<path fill="#3D87C9" d="M608.5,425c-6-1.4-12.2-0.9-18.3,1.4l17.8,9.8c1.9,0.7,3.7,1.7,5.4,3L633,450l-4.8,20.3
			c2.3,14.5,1.6,32-2.6,50c-4.2,17.9-11.4,33.8-19.9,45.7l-4,16.9l-14.9,1.2c-5.6,3.1-11.2,4.3-16.5,3c-1.4-0.3-2.6-0.8-3.9-1.4
			l-15.6,1.2c4.7,5.5,10.4,9.2,17,10.7c27,6.4,57-26.5,68.4-74.9C647.7,474.4,635.5,431.4,608.5,425z"/>
		<path d="M540,500.2c-6.6,27.9-5.3,53.9,2.2,72.2l11.5-0.9c-7.7-16-9.4-41.9-3.1-68.8c6.6-27.9,20.4-51.1,34.9-61.6l-10.3-5.7
			C559.9,448.4,546.7,471.6,540,500.2z"/>
		<path fill="#020202" d="M558.1,578.8l-12.4,1c1.5,2.7,3.2,5.1,5.1,7.2l15.6-1.2C563.3,584.3,560.6,581.9,558.1,578.8z"/>
		<path d="M581.9,430.5l11.4,6.3c4.3-1.7,8.6-2.2,12.6-1.2c0.7,0.2,1.3,0.4,2,0.6l-17.8-9.8C587.4,427.4,584.7,428.8,581.9,430.5z"
			/>
		<path fill="#3D87C9" d="M623.7,453.6l0.6,0.4l-0.2,0.8c1.8,4.6,3.2,9.9,4.1,15.7L633,450l-19.7-10.9
			C617.6,442.4,621,447.3,623.7,453.6z"/>
		<path fill="#3D87C9" d="M586.8,584.1l14.9-1.2l4-16.9C599.8,574.3,593.4,580.5,586.8,584.1z"/>
		<path d="M585.5,441.2c2.6-1.9,5.2-3.3,7.8-4.4l-11.4-6.3c-2.3,1.4-4.5,3.1-6.8,5L585.5,441.2z"/>
		<path fill="#7ECFDF" d="M624.3,453.9l-0.6-0.4c0.2,0.4,0.3,0.8,0.5,1.2L624.3,453.9z"/>
		<path fill="#020202" d="M553.6,571.5l-11.5,0.9c1.1,2.6,2.3,5.1,3.6,7.4l12.4-1C556.5,576.7,555,574.2,553.6,571.5z"/>
	</g>
	<path fill="#3D87C9" d="M367.5,464.7c-23.1,98.1-83.9,167.6-135.8,155.4c-51.9-12.2-75.3-101.6-52.2-199.7
		c23.1-98.1,83.9-167.6,135.8-155.4C367.2,277.2,390.6,366.6,367.5,464.7z"/>
	<g>
		<path fill="#3D87C9" d="M348,458.8c-21.1,89.5-76.6,153-124,141.9c-47.4-11.2-68.7-92.8-47.7-182.3c21.1-89.5,76.6-153,124-141.9
			C347.7,287.7,369,369.3,348,458.8z"/>
		<path d="M221.9,609.5c-10.4-2.4-19.7-7.8-27.6-15.2l0,0c-7.9-7.4-14.3-16.8-19.5-27.7l0,0c-10.3-21.8-15.6-49.6-15.6-80.6l0,0
			c0-22,2.7-45.5,8.4-69.6l0,0c7.5-31.9,19.2-60.6,33.6-84.2l0,0c14.3-23.6,31.2-42.3,49.6-53.8l0,0c12.2-7.6,25.3-12.1,38.5-12.1
			l0,0c4.4,0,8.8,0.5,13.1,1.5l0,0c10.4,2.4,19.7,7.8,27.6,15.2l0,0c7.9,7.4,14.3,16.8,19.5,27.7l0,0c10.3,21.8,15.6,49.6,15.6,80.6
			l0,0c0,22-2.7,45.5-8.4,69.6l0,0c-7.5,31.9-19.2,60.6-33.6,84.2l0,0c-14.4,23.6-31.2,42.3-49.6,53.8l0,0
			c-12.2,7.6-25.3,12.1-38.5,12.1l0,0C230.6,611,226.3,610.5,221.9,609.5L221.9,609.5z M260.3,293.6c-10.1,6.3-20.3,15.7-29.9,27.8
			l0,0c-19.2,24.2-35.9,58.9-45.3,99l0,0c-5.4,22.8-7.9,45-7.9,65.5l0,0c0,21.7,2.8,41.4,8,57.7l0,0c5.2,16.4,12.6,29.2,21.5,37.5
			l0,0c5.9,5.5,12.3,9.1,19.4,10.8l0,0c2.9,0.7,5.9,1,9,1l0,0c9.1,0,18.9-3.1,29-9.4l0,0c10.1-6.3,20.3-15.7,29.9-27.8l0,0
			c19.2-24.2,35.9-58.9,45.3-99l0,0c5.4-22.8,7.9-45,7.9-65.5l0,0c0-21.7-2.8-41.4-8-57.7l0,0c-5.2-16.4-12.6-29.2-21.5-37.5l0,0
			c-5.9-5.5-12.3-9.1-19.4-10.8l0,0c-2.9-0.7-5.9-1-8.9-1l0,0c0,0,0,0,0,0l0,0C280.2,284.3,270.4,287.4,260.3,293.6L260.3,293.6z"/>
	</g>
</g>
</svg>
