<?xml version="1.0" encoding="utf-8"?>
<!-- Generator: Adobe Illustrator 18.1.1, SVG Export Plug-In . SVG Version: 6.00 Build 0)  -->
<svg version="1.1" id="Layer_1" xmlns="http://www.w3.org/2000/svg" xmlns:xlink="http://www.w3.org/1999/xlink" x="0px" y="0px"
	 viewBox="0 0 790.4 920" enable-background="new 0 0 790.4 920" xml:space="preserve">
<g>
	<polygon fill="#3D87C9" points="770.8,676.9 395.2,893.7 19.6,676.9 19.6,243.2 395.2,26.3 770.8,243.2 	"/>
	<path d="M39.2,665.6l356.1,205.5l356.1-205.5V254.5L395.2,48.9L39.2,254.5V665.6z M395.2,916.3L0,688.2V231.9L395.2,3.7
		l395.2,228.2v456.3L395.2,916.3z"/>
</g>
<g>
	<g>
		<path fill="#FFFFFF" d="M144.8,400.2c61.4-7.1,108.6-47.2,158.2-75.6c42.5-26,89.7-23.6,134.6-44.9l9.4,2.4
			c28.3,42.5,85.9,72,130.5,96.2c40.5,22,118.1,59,82.1,123.4c-18.1,32.3-82.7,61.4-111,85c-37.8,33.1-54.9,31.2-99.8,52.4"/>
	</g>
	<g>
		<path fill="#FFFFFF" d="M152.9,407l-10.6,94.3 M146.2,401.6c56.7,47.6,131.7,70,194.6,100.2c33.1,16.5,111,61.4,118.1,106.3
			c9.4,75.6-125.4-0.7-152.5-11.6c-65.3-26.2-109-74-170.4-97.6"/>
		<g>
			<path fill="#FFFFFF" d="M151.4,407c-3.1,27.5-6.2,55.1-9.3,82.6c-0.4,3.9-0.9,7.8-1.3,11.7c-0.2,1.9,2.8,1.9,3,0
				c3.1-27.5,6.2-55.1,9.3-82.6c0.4-3.9,0.9-7.8,1.3-11.7C154.6,405.1,151.6,405.1,151.4,407L151.4,407z"/>
			<path fill="#FFFFFF" d="M145.1,402.6c50.7,42.4,113.8,64.1,173.4,90.5c22.6,10,44.4,21.4,65.3,34.8
				c22.5,14.5,45.5,31.2,61.3,53.1c6.4,8.9,11.8,19.1,12.6,30.2c0.5,7.2-0.2,15.2-5.1,20.8c-9.7,11-28.9,7.6-41.4,4.9
				c-35-7.7-66.9-25.2-99.3-39.8c-10.9-4.9-21.8-9.3-32.4-14.9c-14.4-7.6-28.2-16.3-41.8-25.3c-26.4-17.5-52-36.4-80.5-50.4
				c-6.8-3.4-13.8-6.4-20.9-9.2c-1.8-0.7-2.6,2.2-0.8,2.9c31.1,12.1,58.6,30.9,86,49.5c27.2,18.5,54.7,35.7,85.1,48.4
				c32.5,13.6,63.1,31.3,97.5,40.3c13.7,3.6,31.6,7.6,44.9,0.3c13.6-7.5,13.7-26.1,9.3-39.1c-7.9-23.4-28.5-41.6-47.5-56.3
				c-20.1-15.6-42.1-28.9-64.7-40.6c-28.3-14.6-58.5-25.8-87.7-38.5c-31.1-13.5-61.9-28.2-89.9-47.5c-7.4-5.1-14.5-10.5-21.4-16.3
				C145.8,399.3,143.6,401.4,145.1,402.6L145.1,402.6z"/>
		</g>
	</g>
	<path fill="#3D87C9" d="M144,406.8c11.4,7.6,23.7,13.6,35.8,20.2c10,5.5,19,12.7,29.1,17.9c9.4,4.8,19.3,8.4,29.3,11.6
		c7.8,2.5,15.2,4.4,22.5,8.4c17.1,9.5,32.5,22,50.1,30.8c8.9,4.5,18.5,7.6,27.9,10.9c10.8,3.8,20.9,8.2,30.7,14.2
		c11.2,6.8,21.8,14.5,32.4,22.1c9.9,7,18.7,13.9,25.5,24.1c2.7,4.1,5.2,8.4,7.8,12.6c2.9,4.8,6.7,9.4,9.2,14.4
		c4.3,8.6,5.6,20.9-1.4,28.4c-9,9.7-27.2,7.4-38.5,4.6c-12-3-23.3-8.2-34.7-12.9c-26.7-10.9-52.5-24-77.9-37.7
		c-13-7-27.4-11.1-39.8-19.1c-13-8.3-26.7-15.6-39.6-24.1c-12.3-8.1-24.3-16.1-37.5-22.5c-12.7-6.2-26-11.3-39.3-16.2
		c-1.8-0.7-2.6,2.2-0.8,2.9c25.9,9.6,50.3,20.7,73.1,36.4c11.8,8.1,24.9,14.3,36.8,22.2c12.1,8,24.8,13.1,37.9,19.2
		c13.3,6.1,26,13.6,39,20.2c13.2,6.6,26.5,13.1,40.1,18.8c21.8,9.1,48,23.4,72.3,16.5c20.6-5.9,19.5-28.8,9.3-43.6
		c-6.1-8.9-10.9-18.6-17.5-27.1c-7.3-9.2-16.9-15.5-26.3-22.3c-11.1-7.9-22.2-15.8-34-22.6c-9.6-5.5-19.9-9.2-30.3-12.8
		c-9.7-3.4-19.4-6.9-28.3-12.1c-9.4-5.4-18.3-11.5-27.4-17.3c-8.3-5.4-16.9-11.3-26.2-14.9c-10.3-4-21.3-6.4-31.6-10.6
		c-6-2.4-12-5.1-17.5-8.6c-5.6-3.6-10.9-7.6-16.7-10.9c-13.8-8-28.4-14.7-41.7-23.5C143.9,403.1,142.4,405.7,144,406.8L144,406.8z"
		/>
	<path fill="#3D87C9" d="M141.4,419.8c10.4,6.1,20.8,11.9,31.2,17.9c9.9,5.7,19.4,12.4,29.6,17.5c10.3,5.1,21.3,8.7,32,12.8
		c12.3,4.7,23.5,11.1,35.1,17.2c18.6,9.9,37.4,19.2,56.5,28c11.7,5.4,23.6,10.3,34.3,17.5c10.2,6.9,18.9,15.4,28,23.6
		c9.1,8.3,18.8,15.8,27.1,25c7.3,8.2,15.6,19.7,15.9,31.2c0.3,9.4-10.4,8.9-17.3,8.4c-13.2-1-24.1-7.3-35.6-13.2
		c-10.7-5.5-22.3-9.1-33-14.7c-4.8-2.5-8.7-6.2-13.3-9c-4.6-2.7-9.6-4.5-14.7-6.2c-5.6-1.8-11.2-3.5-16.4-6.2
		c-5.2-2.7-10.1-5.8-15.6-8.1c-6.2-2.5-12.6-4.5-18.6-7.4c-6.2-3-12.2-6.7-18.1-10.2c-12.1-7.1-24.1-14.4-36.3-21.5
		c-12.8-7.4-25.7-14.7-39.1-21.1c-12.3-5.9-25-12-37.9-16.3c-1.8-0.6-2.6,2.3-0.8,2.9c12.6,4.3,25.1,10.3,37.1,16
		c12.3,5.9,24.3,12.5,36.1,19.3c11.8,6.8,23.4,13.9,35.1,20.8c10.5,6.2,20.8,12.6,32.2,16.9c5.5,2.1,11,4,16.3,6.8
		c5.8,3,11.1,6.3,17.3,8.5c5.5,2,11.2,3.5,16.6,5.9c5.9,2.6,10.4,7,15.9,10.2c10.8,6.3,23.1,9.8,34.2,15.4
		c10.4,5.3,20.5,11.5,32.3,13.6c6.6,1.2,16.7,2.6,22.7-1.6c5.5-3.9,4-11.5,2.3-17c-7.8-24.3-30.2-39.3-48.1-55.8
		c-13-11.9-26.5-22-42.5-29.4c-16.2-7.5-32.4-14.9-48.3-22.9c-13.7-6.9-27.1-14.3-40.6-21.5c-11.8-6.3-24.8-10.1-37.2-15
		c-12.9-5.1-24.1-12.5-36.1-19.5c-12.2-7.1-24.6-14.1-36.8-21.2C141.2,416.2,139.7,418.8,141.4,419.8L141.4,419.8z"/>
	<path fill="#3D87C9" d="M139.3,435.1c11.1,5.3,21.6,11.6,32.4,17.6c10.3,5.8,21.2,10.1,31.7,15.5c10.3,5.3,20.1,11.4,30.3,17
		c10.2,5.5,20.8,9.7,31.5,14.2c23.2,9.7,47.6,19.2,69,32.6c8.4,5.3,16.2,11.5,24.3,17.1c7.5,5.2,15.6,9.3,23.4,14.1
		c11.8,7.3,35,22,29.6,39.1c-1,3.1-3.2,2.2-6,1.8c-3-0.4-5.8-0.8-8.7-1.7c-7.3-2.3-14.4-5.8-21.3-9.1c-14.4-7.1-28.5-14.5-43.4-20.7
		c-20.2-8.5-39.8-18.2-59.5-27.8c-11.9-5.9-23.3-12.4-34.2-19.9c-10.8-7.4-22.6-12.7-34.5-18c-12-5.4-23.1-12.2-34.8-18.2
		c-11-5.6-22.5-10.3-34.4-13.6c-1.9-0.5-2.7,2.4-0.8,2.9c11.9,3.3,23.4,8.1,34.4,13.7c10.9,5.6,21.2,12,32.4,17.1
		c11.2,5.1,22.7,9.9,33.1,16.7c10.4,6.8,20.6,13.5,31.7,19.2c20.6,10.5,41.7,20.7,63,29.8c15.9,6.7,31.1,14.6,46.6,22.2
		c6.9,3.3,13.9,6.8,21.3,9c2.7,0.8,5.4,1.1,8.3,1.5c2.1,0.3,4.6,1,6.7,0.2c4.3-1.8,4-9.8,3.4-13.4c-1.3-7.5-7-13.9-12.3-18.9
		c-13.9-13-31.6-20.4-46.9-31.4c-8.7-6.3-17.2-12.7-26.6-17.9c-11.3-6.3-23.2-11.5-35-16.8c-13-5.9-26.2-11.4-39.5-16.8
		c-13.6-5.5-26-13-38.7-20.2c-11.8-6.7-24.3-11.6-36.3-18c-13-6.9-25.4-14.8-38.7-21.1C139.1,431.7,137.6,434.3,139.3,435.1
		L139.3,435.1z"/>
	<path fill="#3D87C9" d="M138.9,449.9c30.3,21.9,64.6,37.7,98.4,53.2c8.6,3.9,17.3,7.6,26.1,11c9.4,3.6,19.3,6.4,28.4,10.7
		c8.8,4.2,17,9.5,25.2,14.7c8.6,5.4,17.4,9.8,26.6,14c14.1,6.3,28.4,13.6,38.8,25.4c0.4,0.4,2.5,2.5,2.2,3.3
		c-0.5,1.3-2.8,0.8-3.9,0.7c-3.2-0.3-6.4-1.4-9.5-2.3c-8.4-2.4-16.1-7.2-23.3-12c-6.8-4.5-14-8.2-21-12.4
		c-8.3-5.1-16.5-10.7-25.6-14.2c-9.1-3.6-17.9-8-27.2-11.2c-4.7-1.6-9.5-3-14-5.1c-5-2.3-8.5-6-12.6-9.5
		c-7.7-6.5-18.2-9.7-27.6-12.9c-10.1-3.5-19.9-7.8-29.1-13.3c-3.8-2.2-7.7-4.3-11.8-5.7c-5.4-1.9-10.9-3-16.1-5.4
		c-8.3-3.9-16.6-10.9-26-11.4c-1.9-0.1-1.9,2.9,0,3c9.6,0.5,18.5,8.4,27.1,12.1c4.4,1.9,9,2.8,13.5,4.3c5.2,1.7,10,4.5,14.6,7.4
		c7.7,4.7,16.2,7.9,24.7,11c10.6,3.9,22,6.8,30.5,14.6c3.1,2.9,6,5.8,9.9,7.7c4.2,2.1,8.6,3.5,13,5c9.8,3.3,19.1,8,28.8,11.7
		c10.8,4.1,20,10.9,30,16.6c7.4,4.2,14.6,8.6,21.8,13.1c6.7,4.2,13.6,7.8,21.2,10c3.7,1.1,11.5,4.1,14.9,0.8
		c5.4-5.3-12.7-17.8-16.4-20.4c-8.5-6-18-10.2-27.5-14.5c-9.5-4.3-18.4-9.2-27.2-14.8c-8.5-5.3-17.1-10.8-26.4-14.7
		c-9.4-3.9-19.3-6.9-28.7-10.6c-21.1-8.3-41.6-18.3-61.9-28.4c-20.1-10-39.8-20.9-58-34C138.8,446.2,137.3,448.8,138.9,449.9
		L138.9,449.9z"/>
	<g>
		<path d="M242.2,384.2c0.4-0.6,0.9-1.2,1.4-1.7c1.4-1,0.4-0.9-2.8,0.4c0-0.2,1.9,1,2,1.1c1.4,1.2,2.3,3.1,3.1,4.7
			c2,4.2,3.3,8.7,4.5,13.2c3.1,11.1,8.2,22.5,17.8,29.4c1.2,0.9,5.1-2.1,5.8-1.6c-7.3-5.2-12.8-14-15.9-22.4
			c-1.8-4.8-2.7-10-4.4-14.9c-1.2-3.4-3.1-10.3-7.3-11.2c-3.5-0.8-8.2,1.6-10.1,4.4C237.1,384.8,241.2,385.6,242.2,384.2
			L242.2,384.2z"/>
		<path d="M301.3,412.8c-5.6-15.7-15.1-42.4-36.4-38.7c-7.7,1.3-13.2,4.8-16.1,12.3c-1.7,4.4-3.2,9.1-4.6,13.6
			c-1.4,4.7-3.1,10.3-0.9,15c0.3,0.6,5.8-1.5,5.8-1.6c-3.3-7.2,1.5-16.6,3.8-23.5c1.1-3.3,2-6.6,3.9-9.5c2.9-4.5,6.1-5.7,11.3-4.5
			c15.7,3.5,22.7,25.2,27.4,38.4C295.7,414.9,301.4,413.1,301.3,412.8L301.3,412.8z"/>
		<path d="M252.6,409.6c0.7,5.9-2.6,11.6-1.9,17.5c0,0.1,5.9-0.9,5.8-1.6c-0.7-5.9,2.6-11.6,1.9-17.5
			C258.4,407.9,252.5,408.9,252.6,409.6L252.6,409.6z"/>
	</g>
	<g>
		<path d="M340,344c-2.5,1.1-1,0.5,0.5,1.1c0.8,0.3,1.4,0.9,2.1,1.4c1.5,1.3,2.6,3,3.6,4.6c2.4,4,4.1,8.4,5.7,12.7
			c2.6,6.7,5,18.2,12.6,21c5.7,2.1,12.8-0.6,12.9-7.1c0.1-7.9-3.2-17.5-7.5-24.1c-1.9,0.5-3.9,1-5.8,1.6c4.7,6.9,9.6,16.9,19.3,16.7
			c6.8-0.2,15.7-2.8,15.2-11c-0.9-12.7-11.5-19.4-18.3-28.8c-1.9-2.6-3.7-5.3-5-8.2c-0.6-1.4-0.7-2.9-1.2-4.2c-0.6-1.6,2-1-1.2-1
			c-3.8,0,1,0.6,1.7,0.8c1.6,0.4,4.7-1.8,5.6-1.6c-3.4-0.8-12.2-0.8-11.8,4.3c0.6,6.7,8.1,14,12.4,18.4c4.1,4.3,7.6,8.4,9.9,14
			c1.6,3.9,4.3,11.5-0.1,14.8c-3.9,2.9-9.7-1.3-12.4-4.2c-3.3-3.4-5.6-7.6-8.2-11.5c-0.6-0.8-5.7,1.7-5.8,1.6
			c4.3,6.5,7.7,16.2,7.5,24.1c0,1.6-0.6,2.8-0.8,4.3c-0.2,0.4-0.5,0.8-0.8,1.1c3.4-0.5,4.2-0.7,2.5-0.8c-1.1-0.6-2.7-0.6-3.9-1.3
			c-2.9-1.7-4.6-4.9-6-7.9c-4-8.4-6-17.8-11.1-25.7c-4.3-6.8-9.7-6.9-16.7-3.9c-1.1,0.5,1,0.1,1.1,0.1
			C337.3,345,338.8,344.6,340,344L340,344z"/>
		<path d="M380.4,326.1c6.5,10.6,29.8,26.9,13.7,39.4c0.4-0.3,2.1-0.2,2.8-0.7c16.1-12.6-7.1-28.8-13.6-39.5
			C383,324.9,380.4,326.2,380.4,326.1L380.4,326.1z"/>
		<path d="M385.9,338.1c0.6-1.2,1.3-2.5,2.3-3.4c0.4-0.4,0.8-0.6,1.2-1c1.6-1.2-4.2,0.5-2.5,0.6c0.4,0,0.7,0,1.1,0.1
			c1.1,0.1,2.6-0.5,3.6-0.8c0.5-0.1,1.4-0.3,1.7-0.6c0.1-0.1,0.6-0.2,0.2-0.3c-2.8-0.4-6.2,0.6-8.8,1.8c-2.2,1-3.6,3-4.6,5.1
			c0,0,2.7-0.4,3-0.5C383.7,338.9,385.6,338.7,385.9,338.1L385.9,338.1z"/>
		<path d="M392.9,347.3c0.8-0.7,1.6-1.1,2.4-1.7c0.6-0.3,0.4-0.2-0.5,0.1c-1,0.2-1.1,0.3-0.2,0.2c0.4,0.1,0.9,0.1,1.3,0.1
			c1.1,0.1,2.6-0.5,3.6-0.8c0.5-0.1,1.4-0.2,1.7-0.6c0.1-0.1,0.6-0.2,0.2-0.3c-2.5-0.3-5,0.3-7.4,0.9c-2.5,0.7-4.9,1.6-6.8,3.4
			c-0.2,0.2,1.9-0.2,2.1-0.2C390.4,348.2,392.2,348,392.9,347.3L392.9,347.3z"/>
	</g>
	<g>
		<path d="M414.3,309.9c-0.5,0.5-0.9,1.1-1.3,1.6c1.9-0.5,3.8-1.1,5.7-1.6c-1.1-0.1-1.6-3.7-2.3-4.6c-0.7-0.8-1.5-1.3-2.6-1.6
			c-2.6-0.5-6.1,0.8-8.4,1.7c-5.1,2.1-10.3,7.5-11.1,13.1c-1.3,8.6,10.1,7.3,15.3,6.4c6.9-1.2,15-6.1,20.7,0.1
			c4.8,5.2,5.3,13.6,7.2,20.1c0.7-0.3,1.4-0.5,2.1-0.8c-4.5,1.3-8.6,4-12.8,6.1c-2.1,1-5.4,3.4-7.8,2.4c-2.4-1-2-3.9-1.5-6
			c-0.1,0.5-5.5,0.3-5.8,1.6c-1.7,8.3,5.7,6.5,11.1,4.8c3.5-1.1,6.8-2.6,10-4.2c1.7-0.9,3.4-1.7,5-2.6c0.8-0.4,1.6-0.8,2.4-1.2
			c0.2-0.1,2.5-1,1.1-0.6c0.1,0,2.1-0.6,2.1-0.8c-2.7-9.6-4.1-25.4-17.7-23.3c-6.3,1-19.8,8.1-24.7,1.1c-2.9-4.1,1.2-10,4-13
			c1-1,2.1-1.8,3.2-2.7c0.1-0.1,1.6-1,1.6-1c-2.3,0.4-2.9,0.5-1.7,0.5c0.1,0,0.3,0,0.4,0.1c0.8,0.8,1.8,0.8,2.6,1.9
			c0.8,1.2,1.1,2.8,1.3,4.2c0,0,0.1,0,0.1,0c3.2,0.2,5.9-0.8,7.8-3.2C419.3,309.4,415.5,308.5,414.3,309.9L414.3,309.9z"/>
		<path d="M413.8,324.5c11.9-1.1,12.1,11.2,12.5,19.9c0,0,5.8-0.7,5.8-1.6c-0.2-4.8,0-10-2-14.4c-2.1-4.8-6.4-6-11.3-5.5
			c-1.3,0.1-2.8,0.5-4,1C414.5,323.9,412.7,324.6,413.8,324.5L413.8,324.5z"/>
	</g>
	<g>
		<path d="M297.1,367.7c3.4-3.9,27.5-19.5,29.2-10.2c0,0.2,5.9-1,5.8-1.6c-1.1-6.2-14.2-1.1-17.5,0c-7.9,2.7-17.4,6.7-23.1,13.1
			C292,368.5,296.1,368.9,297.1,367.7L297.1,367.7z"/>
		<path d="M291.9,365c10.8,12.9,19.9,26.6,27.6,41.5c0.3,0.6,5.1-1.2,5.7-1.5c5.2-2.7,33.1-14.9,21.3-22.7c-1.3-0.9-5,2.1-5.8,1.6
			c11.8,7.8-16,19.8-21.1,22.5c1.9-0.5,3.8-1,5.7-1.5c-7.7-14.9-16.9-28.6-27.6-41.5C296.9,362.5,292.1,365.3,291.9,365L291.9,365z"
			/>
		<path d="M306.8,390.4c3-3.7,7.6-5.6,11.7-7.8c1.7-0.9,3.5-1.8,4.9-3c0.7-0.6,3.9-3.8,0.3-2.8c-1,0.2-2,0.3-3,0.5
			c0.6,0.7,0.2,1.4,1.3,1.6c1.7,0.3,4.6-1.8,5.6-1.6c-0.9-0.2-0.6-1-1.1-1.5c-0.3-0.4-2.7,0.4-3,0.5c-1.6,0.5-2.9,0.7-3.9,2
			c-1.7,2.1-2.7,3.4-5.2,4.8c-4.7,2.7-10,4.7-13.6,9C301.8,390.9,305.6,391.8,306.8,390.4L306.8,390.4z"/>
	</g>
	<path d="M271.4,447.4c15.1-4.6,28.9-12,43.5-17.9c13.3-5.4,25.5-12,37.6-19.7c12.7-8.1,25.7-14.9,39-21.8
		c14.1-7.3,27.7-15.7,41.9-22.7c14-6.9,29.8-9.2,42.8-18.2c5.6-3.8-0.5-4.9-4.2-2.4c-7.3,5-15.8,7.6-24.2,10.5
		c-8.6,2.9-16.6,6.5-24.5,10.9c-17.1,9.4-34.5,18.2-51.7,27.3c-15.6,8.2-29.5,19.3-45.4,26.9c-8.6,4.1-17.7,7.3-26.4,11.3
		c-9.2,4.1-18.3,8.2-27.9,11.1C267.8,444,264.9,449.4,271.4,447.4L271.4,447.4z"/>
	<path d="M440.7,390.4c19.4,5.7,31.3,25.8,46.5,37.9c2.2,1.7,5.4,5.1,8,6.2c1.6,0.6,3.6-0.2,5.2-0.7c3-1,5.2-2.9,7.8-4.8
		c5.2-3.8,10.6-7.4,15.9-11.2c8.1-5.8,17.1-11,24.8-17.3c1.5-1.2,2.9-2.5,4.1-4.1c0.8-1.1,3.2-3.6,3.4-4.7c0.5-2.1-1.5-4.5-3.3-6.1
		c-3.2-3.1-7.7-4.7-11.5-6.7c-5.2-2.7-9.6-6.8-14.1-10.5c-7-5.6-16.5-12.9-26.1-11.9c-10.6,1.2-19.4,8.7-28.2,14.2
		c-5.9,3.7-11.8,7.1-18,10.3c-4.9,2.5-9.7,5.1-13.9,8.7c0.7-0.6,4.3-0.3,5.6-1.4c6.8-5.9,15.3-9,23-13.4c4.5-2.5,8.7-5.5,13-8.2
		c4.8-3,11.3-9.1,17.3-8.6c9.5,0.8,18.4,9.2,25.4,14.9c3.4,2.8,6.8,5.5,10.7,7.5c3.6,1.8,7.6,3.4,10.6,6.1c1.2,1,4.6,4.4,4.2,6
		c-0.1,0.5-1.3,1.5-1.7,1.9c-1.4,1.9-2.5,3.8-4.2,5.5c-5.7,5.6-13.1,9.1-19.5,13.8c-8.6,6.4-18,11.9-26.2,18.8
		c-0.2,0.1-1.6,1.1-1.6,1.1c1.2-0.3,2.4-0.5,3.6-0.8c-0.2-0.1-0.4-0.2-0.7-0.3c-0.3-0.7-1.9-1.6-2.4-2.1c-3-2.4-6.1-4.5-9-7
		c-13.4-11.9-25.2-29.7-43.1-34.9C444.8,388.3,441.5,390.6,440.7,390.4L440.7,390.4z"/>
	<path d="M432.8,530.6c8.9-6.2,18.5-11,28.3-15.6c7.9-3.7,17.1-6.9,24.1-12.3c2.6-2,5.1-4.4,7.5-6.6c1.8-1.6,6.1-6.3,8.3-6.5
		c1.6-0.2,4.9,3,6.3,4.2c2.7,2.2,5.2,4.7,7.7,7.1c12.7,12.4,22.9,27.3,28.7,44.1c2.6,7.6,4.9,16.4,3.4,24.5c-1.6,9-9.9,14.9-17,19.7
		c-9.5,6.4-20,10.2-30.4,14.8c-10.8,4.7-21.4,9.8-31.8,15.3c1.9-0.5,3.8-1,5.7-1.5c-0.4-9.1,1.1-18.6-1.4-27.5
		c-2.1-7.5-6.5-14.3-9.6-21.4c-3.3-7.5-6.5-14-12.6-19.7c-6.4-6-12.1-12.7-18.5-18.7c-1-0.9-5.3,2-5.8,1.6
		c6.4,6,12.1,12.7,18.5,18.7c6.1,5.7,9.3,12.1,12.6,19.7c3.1,7.1,7.5,13.8,9.6,21.4c2.4,8.9,1,18.4,1.4,27.5c0,0.3,5.2-1.2,5.7-1.5
		c10.8-5.6,21.8-10.9,33-15.8c9.5-4.1,19.1-7.7,27.8-13.4c7.1-4.6,16.2-10.7,18.3-19.5c2.2-8.9-0.7-19-3.7-27.4
		c-6.5-18.1-18.2-33.5-32.3-46.4c-3.8-3.5-7.8-8.2-13.3-7.2c-6.3,1.2-11.1,4.6-15.8,8.8c-3.3,2.9-6.4,6.2-10.1,8.5
		c-5.2,3.2-11.1,5.6-16.6,8.2c-11.6,5.4-23.2,10.9-33.7,18.2C428,531.3,431.3,531.6,432.8,530.6L432.8,530.6z"/>
	<path d="M313.8,458.5c7.8,5.9,15.4,0.4,21.5-5.1c1.7-1.5,3-3.1,4.5-4.8c1.7-1.8,1.6-1.3,3.5-0.9c2.2,0.5,4.7,0.4,6.9-0.3
		c4.3-1.5,6.3-5.8,8.6-9.4c4.2-6.5,10.3-3.5,16.8-4.4c10.1-1.5,19.9-7.3,27.6-13.6c3-2.4,5.9-4.9,8.9-7.3c2.6-2,6.7-5.6,10.2-4.9
		c3.8,0.8,6,2.6,10,0.5c0.2-0.1-3.4-1.9-4.7-1.2c-2.1,1.1-5.6-1.3-8-1.4c-4.3-0.1-8.2,2.7-11.4,5.2c-7.8,5.9-14.7,12.9-23.7,16.8
		c-5,2.2-10.6,4.5-16.1,4.4c-3.3-0.1-7.2-0.9-10.3,0.6c-3.6,1.8-4.6,5.9-6.9,8.8c-2.8,3.6-5.1,3.8-8.8,5c1.4,0.3,2.8,0.5,4.2,0.8
		c-3-1.7-7.7-3.4-10.7-0.9c-3.1,2.7-12.6,16-17.7,12.1C317.3,458.1,312.9,457.9,313.8,458.5L313.8,458.5z"/>
	<path d="M323.4,470.6c10,10.4,31.3,0.2,36.2-11.2c1-2.4-2-3.3-3.8-2.4c-2.1,1.2-3.2,2.6-4.6,4.5c-0.8,1.1-0.7,2.8,0.9,3.2
		c10.1,2.2,15.5-3.7,21.5-10.9c3.8-4.5,7.4-6.9,13.6-6.7c5.7,0.2,9.6-1.2,13.9-5c2.4-2-1.9-4.2-3.9-2.4c-4.9,4.2-8.7,2.6-14.4,3.4
		c-3.7,0.5-7,2.2-9.7,4.6c-5.7,5.2-9.7,15.2-19,13.1c0.3,1.1,0.6,2.1,0.9,3.2c1.1-1.5,2-2.8,3.7-3.7c-1.3-0.8-2.5-1.6-3.8-2.4
		c-3.5,8.1-20,17.9-27.6,10.1C325.6,466.1,321.4,468.4,323.4,470.6L323.4,470.6z"/>
	<path d="M411.5,435.6c2.6-2,6-1.9,8.7-3.9c2.5-1.9,3.9-5.2,6.7-6.8c2.9-1.6,6.4-1.2,9.6-1.8c3.2-0.6,5.7-2,8-4.4
		c1.8-2-2.4-4.6-4.1-2.8c-4.8,5.2-12.2,2.3-17.6,6.2c-2.3,1.6-3.6,4.3-5.7,6.1c-2.6,2.1-6.1,1.9-8.7,4
		C406,433.9,409.6,437,411.5,435.6L411.5,435.6z"/>
	<path d="M356.3,486.3c10.7-3.5,32.1-8.3,32.9-22.5c-1.4,0.7-2.9,1.5-4.3,2.2c7.2,6.4,10.5-2.8,15.7-6.3c-1,0.2-1.9,0.4-2.9,0.6
		c2.2,1.3,5.7,3.6,4.1,6.9c1.4-0.3,2.9-0.6,4.3-0.9c-2.7-4.9,5.2-8.4,8.4-10.7c3.6-2.5,7.5-5.3,8.8-9.7c-1.4,0.6-2.8,1.2-4.2,1.8
		c5.5,3.2,10.9-2,14.9-5.4c6.4-5.3,14.8-6.3,20.6-12.6c2.2-2.4-2-3-3.6-1.4c-4.4,4.6-10.3,5.3-15.5,8.5c-2.5,1.5-9.6,9.7-12.7,7.8
		c-1.5-0.9-3.8,0.1-4.2,1.8c-2.2,7.8-22.9,11.7-17,22.2c0.9,1.6,3.7,0.3,4.3-0.9c2.4-5-1-8.4-5.3-10.8c-0.9-0.5-2.2,0.2-2.9,0.6
		c-1.5,1-2.6,2.4-3.8,3.8c-1.8,2.3-2.6,4.2-5.4,1.7c-1.5-1.3-4.2,0.6-4.3,2.2c-0.3,6.3-7.6,9.7-12.6,12c-5.1,2.3-10.5,3.9-15.9,5.7
		C353.5,483.7,353.1,487.4,356.3,486.3L356.3,486.3z"/>
	<path d="M381.1,496.8c3.5-2.6,6.9-5.4,10.5-7.8c2.6-1.7,8.7-6.4,12-4.3c2.7,1.7,4.5-2.1,1.9-3.8c-4.3-2.8-10,0.1-13.8,2.4
		c-5.1,3-9.7,6.7-14.4,10.3C375,495.4,378.9,498.5,381.1,496.8L381.1,496.8z"/>
	<path d="M410.5,473.5c0.9,2.2,4.5,9,7.4,6.4c3-2.7,3-11.1,3.1-14.8c-1.1-1.1-2.3-2.3-3.4-3.4c3,6.4,4.9,12,10,17c0,0,1,0.9,1,0.7
		c2.2-5.6,1.8-11.4,1.8-17.2c-1.1-1.1-2.3-2.3-3.4-3.4c1,3,3.7,6.9,6.9,8c4,1.3,8.7-2,11.8-4.1c5-3.5,9.5-7.7,14.1-11.7
		c2.6-2.2,6.4-6.7,10.1-7c-0.6,0-2.1-3.8-3.4-3.7c-2.6,0.2-5.1,2.7-6.9,4.2c-3.6,3-7.1,6.2-10.7,9.2c-3.4,2.8-6.9,5.8-10.9,7.8
		c-1.5,0.8-3.1,1.5-4.7,1.7c-0.9,0.1-1.7-0.1-2.5-0.2c-0.8-0.4-0.7-0.1,0.3,0.8c-0.3-0.6-0.5-1.1-0.7-1.7c-0.3-0.9-3.4-3.4-3.4-3.4
		c0,5.8,0.4,11.5-1.8,17c0.3,0.2,0.7,0.5,1,0.7c-2.7-2.6-3.8-8-5.3-11.3c-0.3-0.7-3.4-3.5-3.4-3.4c-0.1,3.3-0.6,6.7-1.3,9.9
		c-0.3,1.3-0.6,3.1-1.5,4.2c-0.2,0.2-0.9,0.9-0.9,1.1c-0.2,0.2-0.5,0.2-0.7,0.1c1.8,2.2,2.1,2.1,0.8-0.1
		C413.4,475.6,410.8,474.1,410.5,473.5L410.5,473.5z"/>
	<path d="M396.7,509.2c8.5-2.8,15.3-8.4,22.4-13.6c4.1-3,7.7-4.9,12.5-6.4c3.8-1.2,6.8-2.9,9.7-5.7c6.8-6.6,10.5-14.9,20-18.3
		c7.4-2.7,15.5-3,22.1-7.6c2.3-1.6-0.9-5.3-3-3.9c-6.7,4.6-15.1,4.8-22.5,7.7c-8,3.1-12.1,9.2-17.4,15.5c-3.1,3.7-6.3,6.5-10.9,8
		c-4,1.3-7.4,2.6-10.9,5c-7.7,5.4-14.9,12.1-24,15C391.9,505.8,394.3,510,396.7,509.2L396.7,509.2z"/>
	<path d="M522.4,477.1c6.8-5.4,12.4-12,18.7-17.8c3.4-3.2,7.1-6.1,11.2-8.2c4.8-2.4,10.2-3.2,15.3-4.6c4.6-1.2,9.1-2.7,13-5.5
		c3.4-2.4,5.4-6.1,9.7-6.2c6.7-0.2,9-9,11.8-14c1.2-2.1-3-4.7-4.3-2.4c-1.8,3.1-2.9,7.1-5.4,9.7c-2.5,2.6-5.2,1.1-8,2.8
		c-4.2,2.6-6.8,6.6-11.6,8.8c-4.6,2.1-9.5,2.9-14.4,4.1c-17.2,4.4-26,18.8-39.2,29.3C517.3,474.9,520.5,478.6,522.4,477.1
		L522.4,477.1z"/>
	<path d="M535.4,490.1c4.7-2.2,8.9-5.1,13-8.3c4.4-3.4,8.8-7.7,14.1-9.6c2.8-1,5.9-0.9,8.5-2.3c3.3-1.7,3.9-5,4.2-8.5
		c-1.6,0.2-3.3,0.4-4.9,0.6c4.9,2.9,16.4,5.6,15.5-3.5c-1,0.3-2.1,0.6-3.1,0.9c3.3,0.1,6.1-0.6,8.7-2.6c1.7-1.3,3-3.1,4.5-4.6
		c2.3-2.2,5-3.6,8-4.8c3-1.2,6.3-2,9.2-3.5c3.9-2.1,6.4-5.6,8.6-9.3c0.3-0.5-4.2-1-4.8,0.1c-1.9,3.3-4.1,6.5-7.4,8.5
		c-2.5,1.5-5.4,2.2-8.2,3.3c-2.9,1.1-5.8,2.3-8.3,4.1c-2.5,1.9-5.7,7.6-9.1,7.6c-0.3,0-3.2,0.1-3.1,0.9c0.1,1,0.4,3.9-0.7,4.5
		c-0.9,0.5-4.4-1.8-5.1-2.2c-0.7-0.4-4.8-0.6-4.9,0.6c-0.4,4.8-1.6,7.5-6.4,8.6c-3.1,0.7-5.9,1.4-8.7,3
		c-8.5,4.9-15.1,12.2-24.1,16.4C530.2,490.2,534.4,490.5,535.4,490.1L535.4,490.1z"/>
	<path d="M549.6,506c3.9-3.8,8.2-7.3,10-12.7c-1.4-0.7-2.8-1.4-4.2-2.2c-0.2,1-0.4,2-0.6,3c-0.2,1.4,0.8,3,2.2,3.3
		c10.4,2.1,18.9-6.3,22.5-15.4c0.7-1.7-1.6-5.3-3.5-3.5c-2.2,2.1-5.3,5-3.8,8.3c1.2,2.7,4.4,3.2,7.1,3c8.3-0.5,13.2-9.2,17.9-14.9
		c1.5-1.8-2.1-5.2-3.8-3.1c-2.8,3.3-5.2,7-8.4,9.9c-1.6,1.5-3.3,2.8-5.4,3.3c-0.5,0.1-3.6,0.7-3.9,0.2c0.7,1.2,3-2.4,3.5-2.8
		c-1.2-1.2-2.3-2.3-3.5-3.5c-2.9,7.4-9.9,15.9-18.9,14.1c0.7,1.1,1.5,2.2,2.2,3.3c0.2-1,0.4-2,0.6-3c0.4-2.2-3.3-5-4.2-2.2
		c-1.5,4.6-5.6,7.7-8.9,11C544.7,503.9,547.9,507.7,549.6,506L549.6,506z"/>
	<path d="M604.1,466.3c5.5,0.6,10.3-2.4,14.7-5.4c5.3-3.6,10.7-7.8,14.9-12.6c0.4-0.4-4-1.6-4.8-0.7c-3.1,3.5-6.8,6.5-10.5,9.4
		c-3.2,2.5-9.9,8.5-14.2,8.1C601.3,464.8,601.2,466,604.1,466.3L604.1,466.3z"/>
	<path d="M563.6,517.2c-0.6,2.4-1.6,3.6-3.8,4.7c0.5,0.2,1,0.4,1.4,0.6c-2.8-2.7-1.5-7.3,0.3-10.3c0.8-1.4,4.5-6,6.1-3
		c0.4,0.7,1.2,2,2.2,1.7c4.1-1.3,7.9-3.3,11.8-5.3c-0.6-0.4-1.2-0.7-1.8-1.1c1.7,2.8,3.4,5.6,5.3,8.3c0.3,0.4,1.2,1.6,1.8,1.1
		c10.9-7.7,14.1-22.4,25.3-29.5c6.7-4.2,14.3-2.6,21.3-5.2c3-1.1,4.9-3.2,6-6.2c1.2-3.4,1.2-7.2,4.6-9.3c1.4-0.8-1-5.2-2.3-4.4
		c-5.9,3.5-3.2,12.2-10,15.2c-7.2,3.1-15,1.1-22,5.5c-11.3,7.1-14.4,21.8-25.3,29.5c0.6,0.4,1.2,0.7,1.8,1.1
		c-1.9-2.7-3.6-5.5-5.3-8.3c-0.3-0.5-1.2-1.5-1.8-1.1c-3.9,2-7.7,4-11.8,5.3c0.7,0.6,1.4,1.1,2.2,1.7c-2.9-5.7-7.7-5.3-10.9,0
		c-3.3,5.6-2.9,12.8,1.9,17.4c0.3,0.3,0.9,0.9,1.4,0.6c2.7-1.3,3.7-3,4.5-5.9C567,519.1,564.2,515.2,563.6,517.2L563.6,517.2z"/>
	<path d="M570.5,541.2c11.4-7.2,22.9-14.4,34.2-21.9c8.5-5.6,18.2-9.7,24.6-18c-1.4-0.9-2.8-1.8-4.2-2.7c-1.7,2.5-2.9,5.2-3.7,8.1
		c-0.4,1.6,1.8,2.9,3.1,2.9c13.4-0.5,16.2-15.1,26.9-20.4c2.1-1-1.6-4.3-3.6-3.4c-9.8,4.8-13.1,19.3-25,19.8c1,1,2.1,1.9,3.1,2.9
		c0.8-2.7,1.8-5,3.4-7.2c1.3-1.9-2.8-4.5-4.2-2.7c-6.3,8.3-16.6,12.5-25.1,18.2c-10.8,7.3-22,14.1-33,21.1
		C564.8,539.1,568.6,542.4,570.5,541.2L570.5,541.2z"/>
	<path d="M548.8,563.3c-6.3,0.1-10.3,4.7-14,9.2c-6.3,7.5-13.8,11.6-23.7,11.9c-8.3,0.3-12.2,4.9-17.9,10.1
		c-5.9,5.3-14.5,5.1-20.5,10.3c-2.4,2.1,1,4.9,3.2,2.9c5.1-4.5,12.8-4.3,18.3-8.5c3.1-2.3,5.4-5.5,8.4-7.9c4-3,8.3-2.2,12.9-2.7
		c6.6-0.7,13.6-4.3,18.5-8.8c4.4-4.1,7.8-12,14.5-12.2C551.4,567.7,552,563.2,548.8,563.3L548.8,563.3z"/>
</g>
</svg>
