<?xml version="1.0" encoding="utf-8"?>
<!-- Generator: Adobe Illustrator 18.1.1, SVG Export Plug-In . SVG Version: 6.00 Build 0)  -->
<svg version="1.1" id="Layer_1" xmlns="http://www.w3.org/2000/svg" xmlns:xlink="http://www.w3.org/1999/xlink" x="0px" y="0px"
	 viewBox="0 0 790.4 920" enable-background="new 0 0 790.4 920" xml:space="preserve">
<g>
	<polygon fill="#60BE79" points="770.8,676.9 395.2,893.7 19.6,676.9 19.6,243.2 395.2,26.3 770.8,243.2 	"/>
	<path d="M395.2,916.3L0,688.2V231.9L395.2,3.7l395.2,228.2v456.3L395.2,916.3z M39.2,665.6l356.1,205.5l356.1-205.5V254.5
		L395.2,48.9L39.2,254.5V665.6z"/>
</g>
<g>
	<g>
		<circle fill="#FFFFFF" cx="512.5" cy="358" r="40.9"/>
		<polygon fill="#FFFFFF" points="490.5,411.2 430.5,513.2 410.2,502 469.1,399 		"/>
		<polygon fill="#FFFFFF" points="534.2,411.2 594.2,513.2 614.6,502 555.6,399 		"/>
		<polygon points="497.7,644.1 466.1,644.3 473.2,516.7 504.8,518.5 		"/>
		<polygon points="527,644.1 558.6,644.3 551.5,516.7 519.9,518.5 		"/>
		<polygon points="551.3,521.9 473.6,521.9 468.6,398.8 556.3,398.8 		"/>
	</g>
	<g>
		<polygon points="338.9,501.4 249,501.4 243.4,359.3 344.6,359.3 		"/>
		<polygon fill="#FFFFFF" points="268.6,374.6 199.3,492.4 175.8,479.4 243.9,360.4 		"/>
		<polygon points="277,642.6 240.4,642.8 248.6,495.4 285.2,497.5 		"/>
		<polygon points="310.7,642.6 347.3,642.8 339.1,495.4 302.5,497.5 		"/>
		<polygon fill="#FFFFFF" points="270,359.3 294,430.4 319.1,359.3 		"/>
		<polygon fill="#60BE79" points="299.9,435.6 288.1,435.6 290.1,372.7 297.9,372.7 		"/>
		<circle fill="#FFFFFF" cx="294" cy="312.1" r="47.2"/>
		<polygon fill="#60BE79" points="297.9,370.7 290.1,370.7 289.1,361.2 298.9,361.2 		"/>
		<polyline points="184.4,463.1 243.7,359.4 269.5,374.2 209.9,475.5 		"/>
		<polygon fill="#FFFFFF" points="319.4,374.6 388.7,492.4 412.2,479.4 344.1,360.4 		"/>
		<polyline points="403.7,463.1 344.4,359.4 318.6,374.2 378.2,475.5 		"/>
		<polygon points="270,359.3 294,430.4 319.1,359.3 316.3,449.1 271.7,452.1 		"/>
	</g>
	<circle fill="#FFFFFF" cx="294" cy="443.9" r="3.5"/>
	<circle fill="#FFFFFF" cx="294" cy="465.4" r="3.5"/>
</g>
<polygon points="533.2,410.9 562.2,460.5 584.2,448.9 555.2,398.3 "/>
<polygon points="490.6,410.9 461.6,460.5 439.6,448.9 468.5,398.3 "/>
</svg>
