<?xml version="1.0" encoding="utf-8"?>
<!-- Generator: Adobe Illustrator 18.1.1, SVG Export Plug-In . SVG Version: 6.00 Build 0)  -->
<svg version="1.1" id="Layer_1" xmlns="http://www.w3.org/2000/svg" xmlns:xlink="http://www.w3.org/1999/xlink" x="0px" y="0px"
	 viewBox="0 0 791.4 920" enable-background="new 0 0 791.4 920" xml:space="preserve">
<g>
	<g>
		<polygon fill="#806BC1" points="771.3,676.9 395.7,893.7 20.1,676.9 20.1,243.2 395.7,26.3 771.3,243.2 		"/>
	</g>
	<g>
		<path d="M395.7,916.3L0.5,688.2V231.9L395.7,3.7l395.2,228.2v456.3L395.7,916.3z M39.7,665.6l356.1,205.5l356.1-205.5V254.5
			L395.7,48.9L39.7,254.5V665.6z"/>
	</g>
</g>
<g>
	<g>
		<path d="M509.9,625.6c0,10.1-7.9,18.3-17.7,18.3H302.9c-9.8,0-17.7-8.2-17.7-18.3V266.1c0-10.1,7.9-18.3,17.7-18.3h189.2
			c9.8,0,17.7,8.2,17.7,18.3V625.6z"/>
		<circle stroke="#806BC1" stroke-width="4" cx="397.5" cy="611.5" r="17.1"/>
		<path fill="#806BC1" d="M426.9,281.1c0,1.5-1.2,2.6-2.6,2.6h-53.5c-1.5,0-2.6-1.2-2.6-2.6l0,0c0-1.5,1.2-2.6,2.6-2.6h53.5
			C425.7,278.5,426.9,279.7,426.9,281.1L426.9,281.1z"/>
		<circle fill="#FFFFFF" cx="397.5" cy="267.1" r="4.4"/>
		<rect x="282.4" y="274.1" width="5.3" height="21.9"/>
		<rect x="281.5" y="311.3" width="5.3" height="13"/>
		<rect x="281.5" y="336.5" width="5.3" height="13"/>
		<rect x="452.4" y="244.3" width="29.4" height="5.3"/>
	</g>
	<rect x="293.4" y="295.6" fill="#FFFFFF" width="208.3" height="286"/>
	<g>
		<path fill="#806BC1" d="M430.2,431c0,6.3-5.1,11.3-11.3,11.3h-99.3c-6.3,0-11.3-5.1-11.3-11.3l0,0c0-6.3,5.1-11.3,11.3-11.3h99.3
			C425.1,419.6,430.2,424.7,430.2,431L430.2,431z"/>
		<path fill="#806BC1" d="M315.4,440.9c-2.1,1.5-10,1.3-10,1.3s7.4-4.5,7.4-7.1"/>
	</g>
	<g>
		<path fill="#806BC1" d="M430.5,345.4c0,6.6-5.4,12-12,12h-98.7c-6.6,0-12-5.4-12-12v-22.7c0-6.6,5.4-12,12-12h98.7
			c6.6,0,12,5.4,12,12V345.4z"/>
		<path fill="#806BC1" d="M315.4,356c-2.1,1.5-10,1.3-10,1.3s7.4-4.5,7.4-7.1"/>
	</g>
	<g>
		<path fill="#806BC1" d="M430.5,541.3c0,6.6-5.4,12-12,12h-98.7c-6.6,0-12-5.4-12-12v-22.7c0-6.6,5.4-12,12-12h98.7
			c6.6,0,12,5.4,12,12V541.3z"/>
		<path fill="#806BC1" d="M315.4,551.9c-2.1,1.5-10,1.3-10,1.3s7.4-4.5,7.4-7.1"/>
	</g>
	<g>
		<path d="M365.7,486.1c0,6.6,5.4,12,12,12h98.7c6.6,0,12-5.4,12-12v-22.7c0-6.6-5.4-12-12-12h-98.7c-6.6,0-12,5.4-12,12V486.1z"/>
		<path d="M480.8,496.8c2.1,1.5,10,1.3,10,1.3s-7.4-4.5-7.4-7.1"/>
	</g>
	<g>
		<path d="M365.7,399.9c0,6.6,5.4,12,12,12h98.7c6.6,0,12-5.4,12-12v-22.7c0-6.6-5.4-12-12-12h-98.7c-6.6,0-12,5.4-12,12V399.9z"/>
		<path d="M480.8,410.6c2.1,1.5,10,1.3,10,1.3s-7.4-4.5-7.4-7.1"/>
	</g>
</g>
</svg>
