<?xml version="1.0" encoding="utf-8"?>
<!-- Generator: Adobe Illustrator 18.1.1, SVG Export Plug-In . SVG Version: 6.00 Build 0)  -->
<svg version="1.1" id="Layer_1" xmlns="http://www.w3.org/2000/svg" xmlns:xlink="http://www.w3.org/1999/xlink" x="0px" y="0px"
	 viewBox="0 0 791.4 920" enable-background="new 0 0 791.4 920" xml:space="preserve">
<g>
	<g>
		<polygon fill="#F1EA3A" points="771.3,676.9 395.7,893.7 20.1,676.9 20.1,243.2 395.7,26.3 771.3,243.2 		"/>
	</g>
	<g>
		<path d="M395.7,916.3L0.5,688.2V231.9L395.7,3.7l395.2,228.2v456.3L395.7,916.3z M39.7,665.6l356.1,205.5l356.1-205.5V254.5
			L395.7,48.9L39.7,254.5V665.6z"/>
	</g>
</g>
<g>
	<rect x="158.8" y="265.1" width="460.2" height="357.5"/>
	<rect x="172.6" y="280.8" fill="#FFFFFF" width="327" height="327"/>
	<circle fill="#020202" cx="336.1" cy="444.3" r="137.2"/>
	<circle fill="#F1EA3A" cx="336.1" cy="444.3" r="32.7"/>
	<circle fill="#020202" cx="336.1" cy="444.3" r="4.2"/>
	<circle fill="#FFFFFF" cx="552.8" cy="327.4" r="21"/>
	
		<rect x="465.7" y="284.4" transform="matrix(0.6832 0.7303 -0.7303 0.6832 444.2316 -215.5305)" fill="#F1EA3A" width="9.7" height="239.6"/>
	
		<rect x="537.2" y="298.7" transform="matrix(0.6831 0.7303 -0.7303 0.6831 415.4601 -296.7369)" fill="#F1EA3A" width="25" height="63.3"/>
	
		<rect x="388.8" y="456.8" transform="matrix(0.6831 0.7303 -0.7303 0.6831 471.0013 -141.4605)" fill="#F1EA3A" width="19.5" height="30.6"/>
	<circle fill="#F1EA3A" cx="538.6" cy="540.9" r="13"/>
	<circle fill="#F1EA3A" cx="577.4" cy="540.9" r="13"/>
	<circle fill="#F1EA3A" cx="538.6" cy="580.4" r="13"/>
	<rect x="570.4" y="570.7" fill="#F1EA3A" width="14.7" height="7.3"/>
	<rect x="574.4" y="570.7" fill="#F1EA3A" width="7.3" height="21"/>
</g>
</svg>
