<?xml version="1.0" encoding="utf-8"?>
<!-- Generator: Adobe Illustrator 18.1.1, SVG Export Plug-In . SVG Version: 6.00 Build 0)  -->
<svg version="1.1" id="Layer_1" xmlns="http://www.w3.org/2000/svg" xmlns:xlink="http://www.w3.org/1999/xlink" x="0px" y="0px"
	 viewBox="0 0 790.4 920" enable-background="new 0 0 790.4 920" xml:space="preserve">
<g>
	<polygon fill="#60BE79" points="770.8,676.9 395.2,893.7 19.6,676.9 19.6,243.2 395.2,26.3 770.8,243.2 	"/>
	<path d="M395.2,916.3L0,688.2V231.9L395.2,3.7l395.2,228.2v456.3L395.2,916.3z M39.2,665.6l356.1,205.5l356.1-205.5V254.5
		L395.2,48.9L39.2,254.5V665.6z"/>
</g>
<g>
	<g>
		<path fill="#FFFFFF" d="M337.5,362.3c27-24,61-13.7,97-6.2c42,10.5,37.5,39.8,55.5,75.8c27,49.5,46.5,105,55.5,160.5
			c1.5,9,0,19.5,3,27c4.5,6,11.5,7.5,13,15c4.5,21-35.5,11.7-50.5,13.2c-57,7.5-115.5,10.5-171-4.2c-21.9-5.8-54,4.5-76.5-3
			c-27-9-9-10.5-4.5-28.5c3-12-1.5-25.5,0-39c3-21,16.5-34.5,21-55.5c10.5-49.5,14.4-95.7,39.3-136.8L337.5,362.3z"/>
	</g>
	<g>
		<path fill="#FFFFFF" d="M370.1,347.9c-10.5-9-25-20-29.5-33.5c-6-17-0.5-40.5,1-58.5c1-12.5,4-14.5,14-6c7,5.5,12.5,10,22,10
			c6.5,0,13-2,19.5-2.5c7.5-1,29-4.5,35.5-0.5c6,4,3,12.5,7,17.5c6,7,19.5,5.5,16,18.5c-2,7.5-11.5,16.5-16,22.5
			c-7.5,9-14,16.5-23,23.5c-7,5-17,7-22.5,13"/>
	</g>
	<g>
		<path d="M363.1,342.4c0,3.3,1,3.6,2,6.2c12,0,24,4.9,35.5,4.3c8,0,13.5-4.6,4-8.5c-12-5.3-25-3-38-3L363.1,342.4z"/>
	</g>
	<g>
		<path stroke="#000000" stroke-width="3" d="M441.1,526.5c0,8.2-3.6,15.4-10.8,21.6c-6.8,5.8-15.3,9.6-25.5,11.3v16h-3.7v-15.6
			c-0.8,0-2,0-3.4,0c-1.5,0-2.6,0-3.3,0v15.6h-3.7v-15.6c-10,0-18.5-2.9-25.5-8.7c-7.2-6.1-10.8-13.8-10.8-23.2
			c0-7.2,2.6-13.1,7.8-17.8c4.8-4.3,10.4-6.5,16.7-6.5c3.8,0,6.7,0.8,8.7,2.3c2,1.5,3,3.6,3,6.3v-26c-7.1-3.8-12.3-7.5-15.8-11
			c-4.6-4.5-6.9-9.4-6.9-14.5c0-6,2.3-10.9,6.9-14.8c4-3.4,9.3-5.6,15.8-6.6v-12.3h3.7v11.9c1.3-0.2,2.6-0.3,4-0.3
			c1.2,0,2.1,0,2.7,0.1v-11.7h3.7V439c4.8,0.6,8.5,1.6,11.1,3c3.3,1.9,4.9,4.5,4.9,8c0,1.9-0.7,3.5-2,4.9c-1.4,1.4-3,2.1-4.8,2.1
			l-1.3,0.1c-0.5,0-1,0-1.4-0.1c-0.5-0.1-1-0.1-1.5-0.2c-0.5-0.1-0.8-0.4-0.8-0.8l0.6-1c0.6-0.7,1.1-1.4,1.3-2
			c0.5-1.1,0.7-2.2,0.7-3.4c0.2-1.8-0.4-3.3-1.7-4.5c-1.3-1.2-3-2-5-2.4v37.4c8.2,4.1,14.4,7.7,18.5,10.7c5.8,4.2,10.1,9,12.9,14.2
			C439.5,511,441.1,518.1,441.1,526.5z M390.7,553.8v-41.7c0,1.9-0.6,3.6-1.9,5c-1,1.1-2.1,1.9-3.3,2.2c-0.3,0.1-0.6,0.1-0.8,0
			l-0.4-0.5c0.7-0.9,1-2,1-3.3c-0.4-2.4-1.1-4.1-2-5c-1.4-1.2-3.2-1.9-5.4-1.9c-4.9,0-9,1.5-12.4,4.4c-4,3.5-6,8.5-6,14.8
			c0,7.2,3.1,13.1,9.2,17.9C374.5,550.4,381.8,553,390.7,553.8z M390.7,472.5v-29.9c-4.1,0.9-7.3,2.5-9.8,4.6c-2.7,2.5-4,5.6-4,9.3
			c0,3.3,1.3,6.2,3.8,8.8C382.4,467,385.7,469.4,390.7,472.5z M401.1,478.1V442c-1-0.2-2.1-0.4-3.3-0.4c-0.6,0-1.2,0-1.9,0.1
			c-0.7,0.1-1.2,0.2-1.6,0.2v32.6L401.1,478.1z M401.1,553.8v-62.3l-6.7-3.3v66c0.7,0,1.9-0.1,3.3-0.2
			C399.3,553.9,400.4,553.8,401.1,553.8z M431.8,526.1c0-7.6-2.5-14.1-7.6-19.5c-3.8-4-10.3-8.4-19.3-13v59.7
			c7.9-1.4,14.3-4.5,19.2-9.2C429.2,539,431.8,533,431.8,526.1z"/>
	</g>
</g>
</svg>
