<?xml version="1.0" encoding="utf-8"?>
<!-- Generator: Adobe Illustrator 18.1.1, SVG Export Plug-In . SVG Version: 6.00 Build 0)  -->
<svg version="1.1" id="Layer_1" xmlns="http://www.w3.org/2000/svg" xmlns:xlink="http://www.w3.org/1999/xlink" x="0px" y="0px"
	 viewBox="0 0 791.4 920" enable-background="new 0 0 791.4 920" xml:space="preserve">
<g>
	<g>
		<polygon fill="#806BC1" points="771.3,676.9 395.7,893.7 20.1,676.9 20.1,243.2 395.7,26.3 771.3,243.2 		"/>
	</g>
	<g>
		<path d="M395.7,916.3L0.5,688.2V231.9L395.7,3.7l395.2,228.2v456.3L395.7,916.3z M39.7,665.6l356.1,205.5l356.1-205.5V254.5
			L395.7,48.9L39.7,254.5V665.6z"/>
	</g>
</g>
<g>
	<path d="M297.4,575.9V306.2c0-54.2,43.9-98.2,98.2-98.2l0,0v18c-22.2,0-42.2,9-56.7,23.5l0,0c-14.5,14.5-23.5,34.5-23.5,56.7l0,0
		l0,269.7H297.4L297.4,575.9z"/>
	<path d="M474.6,633.1V306.2c0-22.2-9-42.2-23.5-56.7l0,0c-14.5-14.5-34.5-23.5-56.7-23.5l0,0v-18c54.2,0,98.2,43.9,98.2,98.2l0,0
		l0,326.9H474.6L474.6,633.1z M394.4,226.1L394.4,226.1L394.4,226.1L394.4,226.1z"/>
	<path d="M408.9,695.3c18.1,0,34.4-7.3,46.3-19.2l0,0c11.9-11.9,19.2-28.2,19.2-46.3l0,0h18c0,46.1-37.3,83.5-83.5,83.5l0,0V695.3
		L408.9,695.3z"/>
	<path d="M327,629.9V369.9h18v259.9c0,18.1,7.3,34.4,19.2,46.3l0,0c11.9,11.9,28.2,19.2,46.3,19.2l0,0v0v18
		C364.3,713.3,327,676,327,629.9L327,629.9z"/>
	<g>
		<path d="M327,373.3c0-36.7,29.7-66.5,66.5-66.5l0,0v18c-13.4,0-25.5,5.4-34.3,14.2l0,0c-8.8,8.8-14.2,20.9-14.2,34.3l0,0h0H327
			L327,373.3z"/>
		<path d="M441.2,573.9V373.3c0-13.4-5.4-25.5-14.2-34.3l0,0c-8.8-8.8-20.9-14.2-34.3-14.2l0,0v-18c36.7,0,66.5,29.7,66.5,66.5l0,0
			l0,200.6H441.2L441.2,573.9z"/>
	</g>
</g>
</svg>
