<?xml version="1.0" encoding="utf-8"?>
<!-- Generator: Adobe Illustrator 18.1.1, SVG Export Plug-In . SVG Version: 6.00 Build 0)  -->
<svg version="1.1" id="Layer_1" xmlns="http://www.w3.org/2000/svg" xmlns:xlink="http://www.w3.org/1999/xlink" x="0px" y="0px"
	 viewBox="0 0 790.4 920" enable-background="new 0 0 790.4 920" xml:space="preserve">
<g>
	<polygon fill="#E04D4D" points="770.8,676.9 395.2,893.7 19.6,676.9 19.6,243.2 395.2,26.3 770.8,243.2 	"/>
	<path d="M395.2,916.3L0,688.2V231.9L395.2,3.7l395.2,228.2v456.3L395.2,916.3z M39.2,665.6l356.1,205.5l356.1-205.5V254.5
		L395.2,48.9L39.2,254.5V665.6z"/>
</g>
<g>
	<path fill="#FFFFFF" d="M500.6,362.8c0-11.1-21.9-29.8-47.6-37.7c-17-5.2-37.9-8.6-60.5-8.6c-20,0-38.6,2.6-54.4,6.9
		c-29.1,7.8-43.3,27.6-43.3,39.5c0,18.4,46.1,33.3,102.9,33.3C454.5,396,500.6,381.1,500.6,362.8z"/>
	<path fill="#E04D4D" d="M297.1,341.7c4.8,6.5,11,11,19.4,11.1c5.4,0,10.3-2.5,15.6-0.9c4.7,1.4,8.6,4.3,13.7,3.9
		c5.4-0.4,10.7-5.9,11.4-11.2c0.7-5.3-5.2-9.2-10.1-7.4c-4.1,1.5-5.3,6-10.5,3.3c-3.3-1.6-5.3-4.4-9.3-3.2c-0.7,0.2-7.1,3.5-4.7,0.1
		c0.6-0.9,3.4-1.6,4.5-1.9c4.5-1.3,8.9,0.7,13.4-0.3c1.7-0.4,2.6-1.4,4.1-2c4.7-2.1,6,0.3,10,1.8c2.7,1.1,6.3,1.8,9.1,0.7
		c1.3-0.5,2.4-1.3,3.1-2.5c0.9-1.7,0.3-4.3,2.5-5.3c4.2-2.1,7.2,6.7,8.2,9.4c1.1,2.7,1.8,6.5,3.6,8.8c0.8,1,2,1.8,3.3,1.9
		c2,0.3,4.3-2,6.2-1c2.3,1.2,2.3,5.5,4.9,6.9c2.7,1.5,5.4-0.6,7.4-2.3c1.5-1.2-0.7-3.4-2.1-2.1c-4.6,3.8-4.9-0.2-7.2-3.4
		c-1.7-2.4-2.7-2.5-5.4-2.3c-2.1,0.1-4.1,0.9-5.5-1.4c-0.7-1.2-1.1-2.9-1.7-4.1c-1.2-3-2.3-6-3.9-8.7c-2.3-3.7-6.5-7-10.5-3.3
		c-1.1,1-1.3,2.1-1.9,3.4c-0.2,0.4-0.1,1.4-0.4,1.8c-1.7,2.5-4.3,2.1-6.6,1.6c-3.7-0.9-7-4.4-11.1-3.9c-1.2,0.1-2,0.7-3,1.2
		c-2.8,1.3-4.4,2.5-7.6,2.3c-3.7-0.2-6.9-0.8-10.5,0.4c-2.9,1-9.7,3.7-7,7.9c1.3,2,3.6,2.2,5.6,1.5c2.9-0.9,4.4-2.6,7.7-1.3
		c2.2,0.8,3.5,2.8,5.9,3.3c2.6,0.6,4.8-0.3,6.9-1.8c1.5-1.1,2.5-2.5,4.5-2.7c2.9-0.3,5.3,2,4.9,4.8c-0.7,4.4-5.5,8.4-9.9,8.3
		c-5.3-0.1-9.7-4.1-15-4.7c-5.5-0.6-10.6,2.3-16.3,1.4c-5.8-1-10.1-4.7-13.5-9.3C298.6,338.7,296,340.2,297.1,341.7L297.1,341.7z"/>
	<path fill="#E04D4D" d="M345,320.7c8.9,10.1,22.9-5.2,32,2.1c6.6,5.2,7.5,16.6,18.4,11.2c-0.7-0.2-1.4-0.4-2.1-0.5
		c2.7,3.6,2.5,9,7.9,9.5c4.9,0.4,10.3-3.4,10.4-8.5c0-2-0.8-4.3-2.3-5.5c-0.3-0.3-2.3-0.9-2.4-1.2c-1-2.1,2.6-3.8,4.1-4.1
		c4.5-1.2,9.4,1.8,10.9-4.3c0.4-1.9-2.4-2.7-2.9-0.8c-0.8,3.2-8.2,1.7-10.8,3.1c-2.3,1.2-5.4,3.5-4.6,6.5c0.2,0.8,0.5,1.3,1.1,1.8
		c0.5,0.4,1,0.4,1.5,0.7c2.4,1.7,3.5,4.1,1.2,6.9c-2.6,3.1-7.1,3.2-8.9-0.3c-0.9-1.8-1.3-3.5-2.6-5.2c-0.5-0.7-1.3-0.9-2.1-0.5
		c-9,4.5-10.6-9.6-17.6-12.5c-8.8-3.7-22.2,7.7-29.2-0.2C345.9,317.1,343.8,319.2,345,320.7L345,320.7z"/>
	<path fill="#E04D4D" d="M329.6,366.3c-2.5-9-12.6-4.7-19.2-7.1c-6-2.2-13.9-4.8-15,3.9c-0.3,1.9,2.7,1.9,3,0
		c0.9-6.7,9.8-1.1,13.5-0.2c4.8,1.2,13.1-2,14.8,4.3C327.3,368.9,330.2,368.1,329.6,366.3L329.6,366.3z"/>
	<path fill="#E04D4D" d="M356.9,365.6c3.8-0.7,5.4-2.7,6-6.5c0.4-2.5,0.7-4.6,2.2-6.8c2.2-3.3,5.5-5.7,7.8-1.2
		c1.6,3.3,3.2,5.6,6.8,5.9c4.6,0.4,7.5,3.8,11.9,4.7c4.9,1,10.7-0.1,14.6-3.2c3.5-2.8,4.2-9,7.8-11.2c5.2-3.1,4.5,6.1,5.7,8.8
		c0.6,1.4,2,2.7,3.3,3.4c2.3,1.2,6.7,0.5,7.5,3.6c0.5,1.9,3.4,1.1,2.9-0.8c-1.6-5.8-7.5-2.7-10.5-6.7c-2.4-3.1-0.7-8.2-3.4-11.1
		c-2.3-2.6-6.2-0.9-8.3,1.2c-4.9,4.7-4.6,11.6-12.7,13.1c-3.8,0.7-7.1,0.2-10.4-1.8c-2.1-1.2-4.1-2.5-6.6-2.8
		c-2.9-0.4-3.9-0.4-5.6-3.5c-0.9-1.7-1.3-3.7-3.1-4.8c-3.7-2.3-7.6,1-9.7,3.9c-1.3,1.7-2.2,3.5-2.7,5.6c-0.8,3.2,0,6.5-4.4,7.3
		C354.3,363,355.1,365.9,356.9,365.6L356.9,365.6z"/>
	<path fill="#E04D4D" d="M427.8,319.5c-1,3.6-12.5,8.5-7.9,13.2c1.4,1.4,3.5,1.9,4.9,3.3c1.9,1.8,2.4,4.3,3.1,6.7
		c0.9,3.1,1.9,6,4.4,8.2c3.5,2.9,11.7,6.3,15.2,1.7c1.7-2.2,1.3-4.8,0-7c-0.6-1-1.5-2.1-2.5-2.7c-0.5-0.3-1.1-0.5-1.6-0.8
		c-0.4-0.1-0.7-0.3-1.1-0.5c-2.2-0.7-1.7-2.5,1.3-5.3c1.9,0.5,2.7-2.4,0.8-2.9c-4.6-1.3-8.9,2.7-7,7.6c0.9,2.2,2.7,2.7,4.5,3.7
		c0.8,0.5,1.7,0.8,2.3,1.7c0.9,1.6-0.9,5.1-2.6,5.2c-1.7,0.2-4.6-1.2-5.9-2c-6.2-3.6-4.4-12.1-9.9-16.5c-0.8-0.6-3.1-1.4-3.5-2.3
		c-1-1.8,2.5-3.7,3.9-4.7c2.2-1.6,3.6-3.1,4.4-5.7C431.2,318.4,428.3,317.6,427.8,319.5L427.8,319.5z"/>
	<path fill="#E04D4D" d="M496,348.7c-4.4,2.9-9,9.9-14.9,6.3c-3.3-2-6.1-4.6-10.3-3.3c-1.5,0.5-2.5,1.4-3.6,2.5
		c-2.1,2.1-3.2,2.9-6.3,3.4c-3.5,0.5-5.8,1.5-6.7,5.2c-0.4,1.9,2.5,2.7,2.9,0.8c0.9-4.1,7-2.8,9.9-5c1.3-1,2.2-2.7,3.6-3.6
		c2.8-1.6,5.6,0.2,7.9,1.8c2.5,1.8,4.7,2.7,7.8,2c4.8-1,7.3-4.9,11.2-7.5C499.2,350.2,497.7,347.6,496,348.7L496,348.7z"/>
	<path fill="#E04D4D" d="M490.2,342.6c-7.2,4.8-14.4-3.3-22,0.2c-2.9,1.3-5.4,3.8-8.5,4.7c-2.8,0.8-5.4-0.1-6.8-2.7
		c-1.1-1.9-0.5-3.4,0.1-5.4c1.6-5.2,1.1-9.3-4.3-12c-6.1-3-13.1,0.3-17,5.3c-1.2,1.5,0.9,3.6,2.1,2.1c3.1-4,8.5-7.1,13.5-4.6
		c5.3,2.6,3.2,5.9,2.2,10.2c-1.1,4.6,1.6,9.3,6.4,10.4c5.4,1.2,9.4-3.7,14.1-5.4c4.3-1.6,8.2,1,12.3,1.9c3.6,0.8,6.4,0,9.4-2
		C493.3,344.1,491.8,341.5,490.2,342.6L490.2,342.6z"/>
	<g>
		<path d="M537.7,364c8.5,39-1.1,72-7.6,112.5c-8.2,43.5-44.4,82.5-42.7,126c1.6,27,21.6,78,14.7,100.5
			c-10.9,35.9-147.2,15-171.7-7.5c4.9-6,10.3-11.6,13.5-17.6c9.8-19.5,29.2-40.9,8.7-58c-18.3-15.3-35.2-7.3-58.5-8.3
			c-37.4-1.7-49.4-13.4-42.3-43.5c0.5-2.1-5.3-4.5-5.3-10.4c0-3.8,4.8-3.2,4.7-6c-0.2-3.2-5.2-7.8-5-9.1c1.2-5.9,6.1-10.3,6.7-14.3
			c1.6-11,11.9-23.1-12.2-25.7c-21.3-2.3-25.9-8.8-3.2-34.6c13.7-15.7,12.6-15.4,24-28.9c9-10.7,8-15.5,2.3-27.2
			c-4.7-9.7-8.1-35.3-5-47.8l273.6,0.1"/>
	</g>
	<path fill="#E04D4D" d="M453.9,326.8c0.6,3.5,1.5,8.5,3.8,11.3c3.4,4.3,8.2-1.4,11.1-3.2c1.6-1,0.1-3.6-1.5-2.6
		c-1.6,1-2.8,2.4-4.3,3.4c-1.9,1.2-2.9,0.9-3.6-0.9c-1.2-2.8-2-5.9-2.5-8.8C456.5,324.1,453.6,324.9,453.9,326.8L453.9,326.8z"/>
	<path d="M538,365.4c1-2.5,1.6-4.6,1.8-5.6c7.5-40.9-12.2-85.4-76.3-110.4C433.1,237.5,395.8,228,362,228
		c-22.8,0-44.7,5.9-59.1,12.5c-9.3,4.3-13.5,12.4-19.1,19.2c-0.7,0.8-1.7,2.7-2.9,5.2"/>
</g>
</svg>
