<?xml version="1.0" encoding="utf-8"?>
<!-- Generator: Adobe Illustrator 18.1.1, SVG Export Plug-In . SVG Version: 6.00 Build 0)  -->
<svg version="1.1" id="Layer_1" xmlns="http://www.w3.org/2000/svg" xmlns:xlink="http://www.w3.org/1999/xlink" x="0px" y="0px"
	 viewBox="0 0 790.4 920" enable-background="new 0 0 790.4 920" xml:space="preserve">
<g>
	<polygon fill="#3D87C9" points="770.8,676.9 395.2,893.7 19.6,676.9 19.6,243.2 395.2,26.3 770.8,243.2 	"/>
	<path d="M395.2,916.3L0,688.2V231.9L395.2,3.7l395.2,228.2v456.3L395.2,916.3z M39.2,665.6l356.1,205.5l356.1-205.5V254.5
		L395.2,48.9L39.2,254.5V665.6z"/>
</g>
<g>
	<g>
		<defs>
			<circle id="SVGID_1_" cx="301.5" cy="509.2" r="132.1"/>
		</defs>
		<clipPath id="SVGID_2_">
			<use xlink:href="#SVGID_1_"  overflow="visible"/>
		</clipPath>
		<circle clip-path="url(#SVGID_2_)" fill="#FFFFFF" cx="301.4" cy="509.3" r="132.1"/>
		<polygon clip-path="url(#SVGID_2_)" points="350.9,494.4 448.5,489.1 448.5,529.6 350.9,523.6 		"/>
		<polygon clip-path="url(#SVGID_2_)" points="253.1,524.2 155.5,529.6 155.5,489.1 253.1,495.1 		"/>
		<polygon clip-path="url(#SVGID_2_)" points="286.5,460 281.1,362.4 321.6,362.4 315.6,460 		"/>
		<polygon clip-path="url(#SVGID_2_)" points="316.3,557.9 321.6,655.4 281.1,655.4 287.1,557.9 		"/>
		<circle clip-path="url(#SVGID_2_)" fill="#3D87C9" cx="301.4" cy="509.3" r="68.9"/>
	</g>
	<path d="M674.1,254.5c-10.9,9-10.1,26.6-10,39.3c0.1,14.6-1.4,29.3-3.9,43.6c-2.6,15.4-7.1,31.9-19,42.9c-6.3,5.8-13.5,8.8-22,6.7
		c-8.6-2.1-16.3-7.4-23-12.9c-9-7.3-17.1-15.7-24.8-24.3c-16.8-18.6-31.8-38.7-48-57.8c-6.5-7.7-13.2-15.3-20.7-22
		c-5.1-4.5-11.2-9.4-18.1-10.8c-15-3-27.9,4.8-33.5,18.6c-6.6,16.2-4,34-1.9,50.8c1.5,11.8,4.1,30.4-10.5,35.1
		c-12.4,4-24.9-1.2-35.9-6.6c-27.5-13.5-52.8-34-84.3-36.8c-15.1-1.3-36.4,1.4-47.1,13.4c-6.3,7-8.3,16.3-9,25.4
		c-0.3,4.7-0.3,9.4-0.7,14c-0.4,5.3-1.9,10.4-3.2,15.5c-2.5,9.8-4.4,19.8-2.1,29.9c1.4,6.1,4.7,11.1,8.5,15.9
		c6.2,7.8,17.4,19.9,28.6,17.9c5.5-1,8.6-5.5,10.1-10.6c1.6-5.6-7-7.9-8.7-2.4c-3.4,11.4-18-4.6-21.7-8.8c-3.7-4.2-7-8.8-8.2-14.4
		c-2.3-10.6,1.1-21,3.7-31.2c4.1-16.4-2.1-40.7,15.8-50.1c15.8-8.3,36.2-6.9,52.6-1.5c26.3,8.7,48.2,27.3,74.1,37.3
		c10.4,4,23.6,5.1,33.9,0.1c11.9-5.8,14.8-19.5,14.1-31.6c-1-17.7-6-34.9-1.6-52.6c3.1-12.4,12.9-22.6,26.6-18.1
		c5.6,1.8,11.5,7.3,16,11.7c7.3,7.1,13.9,14.9,20.4,22.7c15.6,18.7,30.3,38.1,46.7,56c13,14.2,28.3,30.4,47.2,36.2
		c22.9,7.1,40.4-12.1,48.1-31.9c5.5-14.2,7.3-29.5,8.8-44.6c0.7-6.6,1.5-13.1,1.5-19.7c0-7.2-0.3-14.4,0.5-21.6
		c0.6-6.1,2-12.6,6.9-16.6C685,257.1,678.6,250.8,674.1,254.5L674.1,254.5z"/>
	<path d="M263.7,364.9c-1.2,0.1-2.1,0.2-3.2,0.7c-1.6,0.6-2.7,1.8-2.8,3.6c0,0.4,0,0.8,0,1.2c0,2,1.7,3.8,3.8,3.8
		c0.2,0,2.2,0,1.8-0.1c-0.6-0.7-1.1-1.5-1.7-2.2c0.1,0.3,0.1,0.6,0.2,0.8c0.9-1.5,1.7-3.1,2.6-4.6c-3.2,0.8-7.8,1.4-7.5,6
		c0.3,4,4.4,4.2,7.5,4.1c2.5-0.1,5-0.2,7.5-0.6c2.8-0.4,5.4-1.6,8.3-1.9c4.6-0.4,6.6,2.6,8,6.6c1.6,4.5,8.8,2.6,7.2-2
		c-1.9-5.4-5-10.5-11-11.8c-3-0.7-6.2-0.2-9.1,0.6c-2.6,0.7-4.9,1.3-7.6,1.5c-1,0.1-4.3,0.8-5.1,0.3c0.6,1.1,1.2,2.2,1.9,3.2
		c0.1,2.2,0.2,1.7,2,1.3c2-0.5,3.1-2.7,2.6-4.6c-1-3.8-4.1-4-7.5-3.9c1.3,1.3,2.5,2.5,3.8,3.8c0-0.4,0-0.8,0-1.2
		c-0.9,1.2-1.8,2.4-2.8,3.6c0.4-0.1,0.8-0.3,1.2-0.4C268.5,371.9,268.5,364.4,263.7,364.9L263.7,364.9z"/>
</g>
</svg>
