<?xml version="1.0" encoding="utf-8"?>
<!-- Generator: Adobe Illustrator 18.1.1, SVG Export Plug-In . SVG Version: 6.00 Build 0)  -->
<svg version="1.1" id="Layer_1" xmlns="http://www.w3.org/2000/svg" xmlns:xlink="http://www.w3.org/1999/xlink" x="0px" y="0px"
	 viewBox="0 0 791.4 920" enable-background="new 0 0 791.4 920" xml:space="preserve">
<g>
	<g>
		<polygon fill="#EE8E32" points="771.3,676.9 395.7,893.7 20.1,676.9 20.1,243.2 395.7,26.3 771.3,243.2 		"/>
	</g>
	<g>
		<path d="M395.7,916.3L0.5,688.2V231.9L395.7,3.7l395.2,228.2v456.3L395.7,916.3z M39.7,665.6l356.1,205.5l356.1-205.5V254.5
			L395.7,48.9L39.7,254.5V665.6z"/>
	</g>
</g>
<g>
	<path d="M536.1,380.3c16.2,25,9.6,64.5,9.6,96.9c0,82.7-60.5,159-138.3,165.4c-3.5,0.3-8.1,11.8-11.7,11.8
		c-3.6,0-8.2-11.5-11.8-11.8c-77.8-6.5-138.2-82.8-138.2-165.4c0-32-6.8-71.2,9.1-96c26.9-42.1,88.8-69.8,140.9-69.8
		C447.5,311.3,509.1,338.7,536.1,380.3z"/>
	<g>
		<defs>
			<path id="SVGID_1_" d="M571.1,366.9c0.9,27.2-14.1,49.3-40.2,49.3H255.4c-26.1,0-42.1-22.3-40.2-49.3l0,0
				c0-27.2,13.1-41.3,40.2-50.3c0,0,59-15.4,78.8-16.7c16.8-1.1,34.5-5,58-4.6c14.3,0.2,30.8,3.6,50.7,4.6
				c45.5,0,88.1,16.7,88.1,16.7C560.9,327,571.1,339.4,571.1,366.9L571.1,366.9z"/>
		</defs>
		<clipPath id="SVGID_2_">
			<use xlink:href="#SVGID_1_"  overflow="visible"/>
		</clipPath>
		<path clip-path="url(#SVGID_2_)" fill="#FFFFFF" d="M571.4,367c0,27.2-14.1,49.3-40.2,49.3H255.6c-26.1,0-40.8-21.6-40.2-48.8
			l0-0.5c0-27.2,13.1-41.3,40.2-50.3c0,0,59-14.4,78.8-15.7c16.8-1.1,34.5-5,58-4.6c14.3,0.2,30.8,3.6,50.7,4.6
			c45.5,0,88.1,16.7,88.1,16.7C559.3,327.4,571.4,339.8,571.4,367L571.4,367z"/>
		
			<rect x="195.9" y="367.6" transform="matrix(0.692 0.7219 -0.7219 0.692 351.8318 -77.4765)" clip-path="url(#SVGID_2_)" fill="#EE8E32" width="141.6" height="12"/>
		
			<rect x="243.5" y="361.5" transform="matrix(0.692 0.7219 -0.7219 0.692 365.2921 -121.202)" clip-path="url(#SVGID_2_)" fill="#EE8E32" width="162.3" height="12"/>
		<line clip-path="url(#SVGID_2_)" fill="none" stroke="#EE8E32" stroke-width="12" x1="319.3" y1="297.5" x2="439.6" y2="423"/>
		
			<rect x="342.2" y="351.4" transform="matrix(0.692 0.7219 -0.7219 0.692 391.3655 -202.4758)" clip-path="url(#SVGID_2_)" fill="#EE8E32" width="181.6" height="12"/>
		
			<rect x="394.3" y="351.8" transform="matrix(0.692 0.7219 -0.7219 0.692 406.3923 -236.8997)" clip-path="url(#SVGID_2_)" fill="#EE8E32" width="173.1" height="12"/>
		
			<rect x="448.8" y="337.3" transform="matrix(0.692 0.7219 -0.7219 0.692 409.0639 -272.1044)" clip-path="url(#SVGID_2_)" fill="#EE8E32" width="149.3" height="12"/>
		
			<rect x="521" y="305.1" transform="matrix(0.7219 0.692 -0.692 0.7219 406.7229 -260.1449)" clip-path="url(#SVGID_2_)" fill="#EE8E32" width="12" height="141.6"/>
		
			<rect x="463" y="288.7" transform="matrix(0.7219 0.692 -0.692 0.7219 386.3918 -221.7195)" clip-path="url(#SVGID_2_)" fill="#EE8E32" width="12" height="162.3"/>
		
			<rect x="408.3" y="275.7" transform="matrix(0.7219 0.692 -0.692 0.7219 366.1387 -185.8407)" clip-path="url(#SVGID_2_)" fill="#EE8E32" width="12" height="173.8"/>
		
			<rect x="354.8" y="269" transform="matrix(0.7219 0.692 -0.692 0.7219 349.2983 -149.592)" clip-path="url(#SVGID_2_)" fill="#EE8E32" width="12" height="181.6"/>
		
			<rect x="306.9" y="273.6" transform="matrix(0.7219 0.692 -0.692 0.7219 336.2647 -116.3636)" clip-path="url(#SVGID_2_)" fill="#EE8E32" width="12" height="173.1"/>
		
			<rect x="264.3" y="271" transform="matrix(0.7219 0.692 -0.692 0.7219 314.4037 -90.9155)" clip-path="url(#SVGID_2_)" fill="#EE8E32" width="12" height="149.3"/>
	</g>
	<g>
		<path fill="#FFFFFF" d="M407.7,298.5c2.8-6.6-15.3-32.7-21.3-30.6c-8.7,2.8-2,7.6-1.3,11.8c0.7,7.6-0.3,14.3,1.3,18.8"/>
	</g>
</g>
</svg>
