<?xml version="1.0" encoding="utf-8"?>
<!-- Generator: Adobe Illustrator 18.1.1, SVG Export Plug-In . SVG Version: 6.00 Build 0)  -->
<svg version="1.1" id="Layer_1" xmlns="http://www.w3.org/2000/svg" xmlns:xlink="http://www.w3.org/1999/xlink" x="0px" y="0px"
	 viewBox="0 0 790.4 920" enable-background="new 0 0 790.4 920" xml:space="preserve">
<g>
	<polygon fill="#E04D4D" points="770.8,676.9 395.2,893.7 19.6,676.9 19.6,243.2 395.2,26.3 770.8,243.2 	"/>
	<path d="M395.2,916.3L0,688.2V231.9L395.2,3.7l395.2,228.2v456.3L395.2,916.3z M39.2,665.6l356.1,205.5l356.1-205.5V254.5
		L395.2,48.9L39.2,254.5V665.6z"/>
</g>
<g>
	<polygon points="649.7,606.6 399.2,253.4 148.6,606.6 	"/>
	<polygon fill="#FFFFFF" points="496.3,418.3 399.2,281.4 302,418.3 	"/>
	<polygon points="302,418.3 354.7,397.8 399.6,418.3 440.5,397.8 496.3,418.3 400,429.4 	"/>
	<circle cx="228.8" cy="419.7" r="12.8"/>
	<polygon points="202.5,466.5 220.5,472.1 228.1,431.3 219.1,427.3 	"/>
	<rect x="208" y="467.3" width="28.6" height="5"/>
	<rect x="224.3" y="479.4" transform="matrix(0.2983 0.9545 -0.9545 0.2983 627.3759 110.4683)" width="28.6" height="5"/>
	<polygon points="216.9,492.5 202.8,466.1 208.7,463.6 221.3,490 	"/>
	<rect x="195.4" y="504.9" transform="matrix(-0.2568 0.9665 -0.9665 -0.2568 759.4487 430.8974)" width="37.3" height="5"/>
	
		<rect x="254" y="428.8" transform="matrix(0.9724 -0.2333 0.2333 0.9724 -97.9079 71.9673)" fill="#FFFDFD" width="2.4" height="42"/>
	<polygon points="256.2,437.4 221.7,446.1 220.8,441 255.3,433.8 	"/>
	
		<rect x="200.1" y="432.1" transform="matrix(0.9212 0.389 -0.389 0.9212 189.3028 -44.8627)" fill="#FFFDFD" width="10.7" height="26"/>
	<circle fill="#FFFDFD" cx="209.2" cy="432.7" r="6.7"/>
</g>
</svg>
