<?xml version="1.0" encoding="utf-8"?>
<!-- Generator: Adobe Illustrator 18.1.1, SVG Export Plug-In . SVG Version: 6.00 Build 0)  -->
<svg version="1.1" id="Layer_1" xmlns="http://www.w3.org/2000/svg" xmlns:xlink="http://www.w3.org/1999/xlink" x="0px" y="0px"
	 viewBox="0 0 791.4 920" enable-background="new 0 0 791.4 920" xml:space="preserve">
<g>
	<g>
		<polygon fill="#806BC1" points="771.3,676.9 395.7,893.7 20.1,676.9 20.1,243.2 395.7,26.3 771.3,243.2 		"/>
	</g>
	<g>
		<path d="M395.7,916.3L0.5,688.2V231.9L395.7,3.7l395.2,228.2v456.3L395.7,916.3z M39.7,665.6l356.1,205.5l356.1-205.5V254.5
			L395.7,48.9L39.7,254.5V665.6z"/>
	</g>
</g>
<g>
	<polygon points="420.3,651 192.3,573.9 192.3,487.3 420.3,564.4 	"/>
	<polygon points="608.7,557.6 424.6,650 424.6,564.1 608.7,471.7 	"/>
	<polygon fill="#FDFDFF" points="193.9,482.8 379.6,389.6 607.6,466.7 422,559.9 	"/>
	<g>
		<ellipse fill="#806BC1" cx="401.4" cy="450.5" rx="60.2" ry="31.2"/>
		<ellipse cx="400.7" cy="446.1" rx="52.7" ry="27.2"/>
		<ellipse fill="#806BC1" cx="401.4" cy="441.1" rx="44" ry="21.8"/>
		<path d="M419.1,430.5c0,8.1-6.5,14.6-14.6,14.6h-5.7c-8.1,0-14.6-6.5-14.6-14.6l-2.4-153.2c0-8.1,6.5-13.8,14.6-14.6
			c2.6-0.3,7.9-0.3,10.5,0c8.1,1,14.6,6.5,14.6,14.6L419.1,430.5z"/>
		<ellipse cx="400.4" cy="435.8" rx="34" ry="16.9"/>
	</g>
	<g>
		<ellipse fill="#806BC1" cx="382.9" cy="516.9" rx="23.7" ry="14.4"/>
		<rect x="359.3" y="509.3" fill="#806BC1" width="47.2" height="6.9"/>
		<ellipse cx="382.9" cy="510" rx="23.7" ry="14.4"/>
	</g>
	<g>
		<ellipse fill="#806BC1" cx="446.9" cy="507.2" rx="23.7" ry="14.4"/>
		<rect x="423.3" y="499.5" fill="#806BC1" width="47.2" height="6.9"/>
		<ellipse cx="446.9" cy="500.3" rx="23.7" ry="14.4"/>
	</g>
</g>
</svg>
