<?xml version="1.0" encoding="utf-8"?>
<!-- Generator: Adobe Illustrator 18.1.1, SVG Export Plug-In . SVG Version: 6.00 Build 0)  -->
<svg version="1.1" id="Layer_1" xmlns="http://www.w3.org/2000/svg" xmlns:xlink="http://www.w3.org/1999/xlink" x="0px" y="0px"
	 viewBox="0 0 791.4 920" enable-background="new 0 0 791.4 920" xml:space="preserve">
<g>
	<g>
		<polygon fill="#EE8E32" points="771.3,676.9 395.7,893.7 20.1,676.9 20.1,243.2 395.7,26.3 771.3,243.2 		"/>
	</g>
	<g>
		<path d="M395.7,916.3L0.5,688.2V231.9L395.7,3.7l395.2,228.2v456.3L395.7,916.3z M39.7,665.6l356.1,205.5l356.1-205.5V254.5
			L395.7,48.9L39.7,254.5V665.6z"/>
	</g>
</g>
<g>
	<g>
		<circle cx="203.1" cy="435.9" r="68.5"/>
		<circle cx="600.1" cy="435.9" r="68.5"/>
		<circle fill="#FFFFFF" cx="198.1" cy="435.4" r="41"/>
		<circle fill="#FFFFFF" cx="606.1" cy="435.4" r="41"/>
	</g>
	<circle cx="401.6" cy="454.4" r="188"/>
	<path fill="#FFFFFF" d="M468.8,365.6c42.2,26,70.8,75.7,70.8,132.8c0,83.9-61.8,152-138,152c-76.2,0-138-68.1-138-152
		c0-57.1,28.5-106.8,70.8-132.8c19.9-12.3,42.8,10.8,67.2,10.8C426,376.4,448.9,353.3,468.8,365.6z"/>
	<g>
		<circle fill="#EE8E32" cx="357.9" cy="477.2" r="14.4"/>
		<circle cx="357.8" cy="477.2" r="10"/>
		<circle fill="#EE8E32" cx="445.4" cy="477.2" r="14.4"/>
		<circle cx="445.4" cy="477.2" r="10"/>
	</g>
	<polygon points="401.4,474.9 422.8,524.9 380.4,524.9 	"/>
	<path fill="#EE8E32" d="M412.3,519.4c9.9,2,16.8,6.8,16.8,12.4c0,7.5-12.3,13.5-27.5,13.5s-27.5-6-27.5-13.5
		c0-5.6,6.9-10.4,16.8-12.4c3.3-0.7,6.9,3.9,10.7,3.9C405.4,523.4,409,518.7,412.3,519.4z"/>
	<g>
		<circle cx="390.1" cy="533.1" r="4.8"/>
		<circle cx="413.1" cy="533.1" r="4.8"/>
	</g>
	<path d="M478.3,571.6c-3.3,26-34.3,47-76.7,47s-74.3-21-76.7-47H478.3z"/>
	<g>
		<path d="M347.1,433c3.6-3.8,9.6-5.3,13.4-1c1.3,1.5,3.4-0.7,2.1-2.1c-4.9-5.5-12.9-3.9-17.6,1C343.6,432.2,345.7,434.4,347.1,433
			L347.1,433z"/>
		<path d="M458.3,430.8c-4.7-4.9-12.7-6.5-17.6-1c-1.3,1.4,0.8,3.6,2.1,2.1c3.8-4.3,9.8-2.8,13.4,1
			C457.5,434.4,459.6,432.2,458.3,430.8L458.3,430.8z"/>
	</g>
</g>
</svg>
