<?xml version="1.0" encoding="utf-8"?>
<!-- Generator: Adobe Illustrator 18.1.1, SVG Export Plug-In . SVG Version: 6.00 Build 0)  -->
<svg version="1.1" id="Layer_1" xmlns="http://www.w3.org/2000/svg" xmlns:xlink="http://www.w3.org/1999/xlink" x="0px" y="0px"
	 viewBox="0 0 790.4 920" enable-background="new 0 0 790.4 920" xml:space="preserve">
<g>
	<polygon fill="#E04D4D" points="770.8,676.9 395.2,893.7 19.6,676.9 19.6,243.2 395.2,26.3 770.8,243.2 	"/>
	<path d="M395.2,916.3L0,688.2V231.9L395.2,3.7l395.2,228.2v456.3L395.2,916.3z M39.2,665.6l356.1,205.5l356.1-205.5V254.5
		L395.2,48.9L39.2,254.5V665.6z"/>
</g>
<g>
	<path d="M262.5,679.7L262.5,679.7L262.5,679.7L262.5,679.7L262.5,679.7z M240.9,672.6L350.3,341c-17.3-13.7-28.4-34.9-28.4-58.7
		l0,0c0-41.4,33.5-74.9,74.9-74.9l0,0c41.4,0,74.9,33.5,74.9,74.9l0,0c0,23.9-11.2,45.2-28.7,58.9l0,0L538.8,673l-21.8,6.3
		L416.6,331.4l7.4-4.5c15-9.2,25-25.7,25-44.6l0,0c0-14.5-5.8-27.4-15.3-36.9l0,0c-9.5-9.5-22.5-15.3-36.9-15.3l0,0
		c-14.5,0-27.4,5.8-36.9,15.3l0,0c-9.5,9.5-15.3,22.5-15.3,36.9l0,0c0,18.9,10,35.4,25,44.6l0,0l7.7,4.7L262.5,679.7L240.9,672.6
		L240.9,672.6z"/>
	<polygon points="378.2,218.7 381.5,172 408.4,172 411.7,218.7 381.5,218.7 	"/>
	<polygon fill="#FFFFFF" points="210.4,666.7 214.4,701.8 239.1,676.1 297.9,496.4 269.2,487 	"/>
	
		<rect x="250.6" y="522.5" transform="matrix(-0.9554 -0.2952 0.2952 -0.9554 369.4112 1117.4409)" fill="#020202" width="37" height="16.7"/>
	
		<rect x="215.7" y="634.7" transform="matrix(-0.9554 -0.2952 0.2952 -0.9554 268.0793 1326.54)" fill="#020202" width="37" height="16.7"/>
	<polygon fill="#020202" points="212.7,687.2 214.4,701.8 225.3,690.5 	"/>
	<polygon fill="#020202" points="519.7,677.2 532,691.7 535.6,671.6 	"/>
	<path d="M413.4,508.2c-36.4,1.6-72-9.3-103.1-30.1l0,0l9-13.5c28.6,19.1,60.8,28.8,93.5,27.4l0,0c36.5-1.6,74-16.9,108.6-49.4l0,0
		l11.1,11.8C495.5,489.2,454.1,506.4,413.4,508.2L413.4,508.2C413.5,508.2,413.5,508.2,413.4,508.2L413.4,508.2z M310.3,478
		L310.3,478L310.3,478L310.3,478L310.3,478L310.3,478z"/>
</g>
</svg>
