<?xml version="1.0" encoding="utf-8"?>
<!-- Generator: Adobe Illustrator 18.1.1, SVG Export Plug-In . SVG Version: 6.00 Build 0)  -->
<svg version="1.1" id="Layer_1" xmlns="http://www.w3.org/2000/svg" xmlns:xlink="http://www.w3.org/1999/xlink" x="0px" y="0px"
	 viewBox="0 0 791.4 920" enable-background="new 0 0 791.4 920" xml:space="preserve">
<g>
	<g>
		<polygon fill="#F1EA3A" points="771.3,676.9 395.7,893.7 20.1,676.9 20.1,243.2 395.7,26.3 771.3,243.2 		"/>
	</g>
	<g>
		<path d="M395.7,916.3L0.5,688.2V231.9L395.7,3.7l395.2,228.2v456.3L395.7,916.3z M39.7,665.6l356.1,205.5l356.1-205.5V254.5
			L395.7,48.9L39.7,254.5V665.6z"/>
	</g>
</g>
<g>
	<polygon fill="#FFFFFF" points="314.9,376.6 276.9,376.6 278.9,286.6 312.9,286.6 	"/>
	<polygon fill="#FFFFFF" points="391.9,376.6 353.9,376.6 355.9,286.6 389.9,286.6 	"/>
	<polygon fill="#FFFFFF" points="599.9,457.1 561.9,457.1 563.9,367.1 597.9,367.1 	"/>
	<rect x="247.9" y="375.6" width="294" height="229"/>
	<rect x="171.3" y="456.6" width="450" height="148"/>
	<g>
		<rect x="283.3" y="408.1" fill="#F1EA3A" width="20.5" height="20.5"/>
		<rect x="334.2" y="408.1" fill="#F1EA3A" width="20.5" height="20.5"/>
		<rect x="385.1" y="408.1" fill="#F1EA3A" width="20.5" height="20.5"/>
		<rect x="436" y="408.1" fill="#F1EA3A" width="20.5" height="20.5"/>
		<rect x="486.8" y="408.1" fill="#F1EA3A" width="20.5" height="20.5"/>
	</g>
	<g>
		<rect x="283.3" y="479.9" fill="#F1EA3A" width="20.5" height="20.5"/>
		<rect x="334.2" y="479.9" fill="#F1EA3A" width="20.5" height="20.5"/>
		<rect x="385.1" y="479.9" fill="#F1EA3A" width="20.5" height="20.5"/>
		<rect x="436" y="479.9" fill="#F1EA3A" width="20.5" height="20.5"/>
		<rect x="486.8" y="479.9" fill="#F1EA3A" width="20.5" height="20.5"/>
	</g>
	<g>
		<rect x="283.3" y="551.6" fill="#F1EA3A" width="20.5" height="20.5"/>
		<rect x="334.2" y="551.6" fill="#F1EA3A" width="20.5" height="20.5"/>
		<rect x="436" y="551.6" fill="#F1EA3A" width="20.5" height="20.5"/>
		<rect x="486.8" y="551.6" fill="#F1EA3A" width="20.5" height="20.5"/>
	</g>
	<rect x="371.7" y="542.1" fill="#FFFFFF" width="49.1" height="55.5"/>
</g>
</svg>
