<?xml version="1.0" encoding="utf-8"?>
<!-- Generator: Adobe Illustrator 18.1.1, SVG Export Plug-In . SVG Version: 6.00 Build 0)  -->
<svg version="1.1" id="Layer_1" xmlns="http://www.w3.org/2000/svg" xmlns:xlink="http://www.w3.org/1999/xlink" x="0px" y="0px"
	 viewBox="0 0 791.4 920" enable-background="new 0 0 791.4 920" xml:space="preserve">
<g>
	<g>
		<polygon fill="#DD62BD" points="771.3,676.9 395.7,893.7 20.1,676.9 20.1,243.2 395.7,26.3 771.3,243.2 		"/>
	</g>
	<g>
		<path d="M395.7,916.3L0.5,688.2V231.9L395.7,3.7l395.2,228.2v456.3L395.7,916.3z M39.7,665.6l356.1,205.5l356.1-205.5V254.5
			L395.7,48.9L39.7,254.5V665.6z"/>
	</g>
</g>
<g>
	<rect x="259.2" y="273.3" transform="matrix(0.9698 -0.2437 0.2437 0.9698 -77.9131 76.1929)" width="19.5" height="159.4"/>
	<rect x="471.6" y="453.8" transform="matrix(0.5144 0.8576 -0.8576 0.5144 656.7724 -173.2442)" width="19.5" height="79"/>
	
		<rect x="424.2" y="233.1" transform="matrix(0.999 4.417256e-002 -4.417256e-002 0.999 14.3164 -18.8624)" width="19.5" height="162.8"/>
	<rect x="372.5" y="203.5" width="19.5" height="203.2"/>
	<rect x="306.2" y="221.4" transform="matrix(0.9908 -0.135 0.135 0.9908 -39.9832 45.5576)" width="19.5" height="192.6"/>
	<rect x="263.7" y="406.3" transform="matrix(0.9842 -0.1769 0.1769 0.9842 -69.3878 69.9784)" width="187.9" height="35.5"/>
	<rect x="284.5" y="466.6" transform="matrix(0.9842 -0.1769 0.1769 0.9842 -79.928 72.4049)" width="162.9" height="35.5"/>
	<rect x="514.6" y="390.8" transform="matrix(0.9848 0.1736 -0.1736 0.9848 82.6495 -84.4895)" width="19.5" height="79"/>
	<circle stroke="#000000" cx="273.2" cy="370.9" r="15"/>
	<circle fill="#FFFFFF" cx="273.2" cy="370.9" r="9"/>
	<circle stroke="#000000" cx="323.1" cy="358.3" r="15"/>
	<circle fill="#FFFFFF" cx="323.1" cy="358.3" r="9"/>
	<circle stroke="#000000" cx="259.7" cy="316.3" r="15"/>
	<circle fill="#FFFFFF" cx="259.7" cy="316.3" r="9"/>
	<circle stroke="#000000" cx="382.3" cy="350.6" r="15"/>
	<circle fill="#FFFFFF" cx="382.3" cy="350.6" r="9"/>
	<circle stroke="#000000" cx="433.3" cy="346.3" r="15"/>
	<circle fill="#FFFFFF" cx="433.3" cy="346.3" r="9"/>
	<circle stroke="#000000" cx="436.3" cy="280.6" r="15"/>
	<circle fill="#FFFFFF" cx="436.3" cy="280.6" r="9"/>
	<rect x="375.2" y="592.1" transform="matrix(0.9703 -0.2418 0.2418 0.9703 -146.8834 112.5238)" width="19.5" height="125.1"/>
	<rect x="430.1" y="576" transform="matrix(0.9703 -0.2418 0.2418 0.9703 -141.356 125.3008)" width="19.5" height="125.1"/>
	<rect x="403.4" y="588.1" transform="matrix(0.9703 -0.2418 0.2418 0.9703 -145.0594 119.2082)" width="19.5" height="125.1"/>
	<circle stroke="#000000" cx="312.4" cy="284.3" r="15"/>
	<circle fill="#FFFFFF" cx="312.4" cy="284.3" r="9"/>
	<circle stroke="#000000" cx="383.3" cy="270.6" r="15"/>
	<circle fill="#FFFFFF" cx="383.3" cy="270.6" r="9"/>
	<circle stroke="#000000" cx="514.7" cy="472.4" r="15"/>
	<circle fill="#FFFFFF" cx="514.7" cy="472.4" r="9"/>
	<g>
		<path d="M461.2,569.5c2,9.9-24.1,23.6-58.3,30.6c-34.2,7-63.6,4.6-65.7-5.3c-2-9.9,24.1-23.6,58.3-30.6
			C429.8,557.1,459.2,559.5,461.2,569.5z"/>
		<path d="M463.8,582.1c2.2,11-23.7,25.6-57.9,32.6c-34.2,7-63.8,3.7-66.1-7.3c-2.2-11,23.7-25.6,57.9-32.6
			C431.9,567.8,461.5,571.1,463.8,582.1z"/>
		<rect x="337.1" y="581.1" transform="matrix(0.9799 -0.1996 0.1996 0.9799 -109.336 91.7667)" width="126.6" height="14.1"/>
		<path fill="#FFFFFF" d="M456.2,573.2c1.8,9.1-22,21.6-53.2,27.9c-31.2,6.4-58.1,4.2-59.9-4.9c-1.8-9.1,22-21.6,53.2-27.9
			C427.6,562,454.4,564.2,456.2,573.2z"/>
	</g>
	<rect x="311.6" y="438.2" transform="matrix(0.889 -0.458 0.458 0.889 -202.0845 204.8112)" width="19.5" height="162.1"/>
	<polygon points="415.8,580 396.5,582.8 374.2,427.2 393.5,424.5 	"/>
	<polygon points="389.7,585.3 371.1,591.3 319.5,431.8 338,425.8 	"/>
	<polygon points="449.9,576 430.4,577 421.5,418 441,416.9 	"/>
	<path fill="#020202" d="M482.8,500.8c0,24.7-20,44.7-44.8,44.7c-24.7,0-44.8-20-44.8-44.7c0-24.7,20-44.8,44.8-44.8
		C462.8,456,482.8,476.1,482.8,500.8z"/>
	<circle fill="#DD62BD" cx="438.1" cy="500.8" r="26.9"/>
	<ellipse transform="matrix(0.9799 -0.1996 0.1996 0.9799 -108.8823 91.6788)" cx="400.2" cy="585.8" rx="54" ry="10.1"/>
	<rect x="334.8" y="533.5" transform="matrix(0.5892 -0.808 0.808 0.5892 -290.107 500.0793)" width="24" height="3.7"/>
	<circle fill="#FFFFFF" cx="438.1" cy="500.8" r="15"/>
	<ellipse transform="matrix(0.9781 -0.2082 0.2082 0.9781 -138.71 104.7562)" cx="428.4" cy="711.4" rx="9.7" ry="4.2"/>
	<ellipse transform="matrix(0.9781 -0.2082 0.2082 0.9781 -140.1615 98.9633)" cx="400.1" cy="715.4" rx="9.7" ry="4.2"/>
	<ellipse transform="matrix(0.9781 -0.2082 0.2082 0.9781 -135.5836 110.0395)" cx="455" cy="699.2" rx="9.7" ry="4.2"/>
	<rect x="335" y="533" transform="matrix(0.9064 0.4225 -0.4225 0.9064 258.4684 -96.5387)" width="24" height="3.7"/>
	<rect x="365.3" y="524.7" transform="matrix(0.6667 -0.7453 0.7453 0.6667 -266.2725 458.3983)" width="28.2" height="4.4"/>
	<rect x="361.8" y="523.1" transform="matrix(0.8598 0.5106 -0.5106 0.8598 321.1868 -119.3697)" width="32.3" height="4.4"/>
	<rect x="392" y="442.8" transform="matrix(0.6667 -0.7454 0.7454 0.6667 -194.642 455.4789)" width="39.8" height="5.1"/>
	<rect x="389.2" y="443.6" transform="matrix(0.8598 0.5106 -0.5106 0.8598 284.9547 -145.7709)" width="37.6" height="5.1"/>
	<rect x="344.7" y="451.1" transform="matrix(0.6667 -0.7454 0.7454 0.6667 -216.5822 422.9531)" width="39.8" height="5.1"/>
	<rect x="339.8" y="452" transform="matrix(0.8598 0.5106 -0.5106 0.8598 282.6706 -120.5654)" width="42.2" height="5.1"/>
	<rect x="298" y="459.2" transform="matrix(0.6667 -0.7454 0.7454 0.6667 -238.1984 390.9124)" width="39.8" height="5.1"/>
	<polygon points="336.1,473.2 299.4,450.5 296.7,454.8 333.4,477.5 	"/>
</g>
</svg>
