<?xml version="1.0" encoding="utf-8"?>
<!-- Generator: Adobe Illustrator 18.1.1, SVG Export Plug-In . SVG Version: 6.00 Build 0)  -->
<svg version="1.1" id="Layer_1" xmlns="http://www.w3.org/2000/svg" xmlns:xlink="http://www.w3.org/1999/xlink" x="0px" y="0px"
	 viewBox="0 0 790.4 920" enable-background="new 0 0 790.4 920" xml:space="preserve">
<g>
	<polygon fill="#3D87C9" points="770.8,676.9 395.2,893.7 19.6,676.9 19.6,243.2 395.2,26.3 770.8,243.2 	"/>
	<path d="M395.2,916.3L0,688.2V231.9L395.2,3.7l395.2,228.2v456.3L395.2,916.3z M39.2,665.6l356.1,205.5l356.1-205.5V254.5
		L395.2,48.9L39.2,254.5V665.6z"/>
</g>
<g>
	<polygon points="226,339.3 687.3,472.2 226,605.1 	"/>
	<rect x="166" y="353.8" width="34.3" height="23.2"/>
	<rect x="166" y="566.9" width="34.3" height="23.2"/>
	<rect x="198" y="339.5" fill="#FFFFFF" width="28" height="265.4"/>
	<circle fill="#3D87C9" cx="327.8" cy="473.9" r="64.5"/>
	<circle fill="#FFFFFF" cx="327.8" cy="473.9" r="50.5"/>
</g>
</svg>
