<?xml version="1.0" encoding="utf-8"?>
<!-- Generator: Adobe Illustrator 18.1.1, SVG Export Plug-In . SVG Version: 6.00 Build 0)  -->
<svg version="1.1" xmlns="http://www.w3.org/2000/svg" xmlns:xlink="http://www.w3.org/1999/xlink" x="0px" y="0px"
	 viewBox="0 0 790.4 920" enable-background="new 0 0 790.4 920" xml:space="preserve">
<g id="Guides_For_Artboard">
</g>
<g id="Layer_1">
	<g>
		<polygon fill="#E04D4D" points="770.8,676.9 395.2,893.7 19.6,676.9 19.6,243.2 395.2,26.3 770.8,243.2 		"/>
		<path d="M395.2,916.3L0,688.2V231.9L395.2,3.7l395.2,228.2v456.3L395.2,916.3z M39.2,665.6l356.1,205.5l356.1-205.5V254.5
			L395.2,48.9L39.2,254.5V665.6z"/>
	</g>
	<g>
		<rect x="304.5" y="357.1" transform="matrix(0.8988 0.4383 -0.4383 0.8988 209.4859 -102.7794)" width="45.7" height="90.6"/>
		<path d="M379,373.7c-0.8,1.7-2.9,2.4-4.6,1.6l-54.7-26.7c-1.7-0.8-2.4-2.9-1.6-4.6l2.8-5.7c0.8-1.7,2.9-2.4,4.6-1.6l54.7,26.7
			c1.7,0.8,2.4,2.9,1.6,4.6L379,373.7z"/>
		<rect x="375.1" y="213.4" transform="matrix(0.8988 0.4383 -0.4383 0.8988 163.2308 -140.2298)" width="20.5" height="140.1"/>
		<polygon points="434.8,197.5 433.5,184.8 422.7,191.6 409.4,218.7 421.5,224.7 		"/>
		<rect x="311.1" y="354.8" transform="matrix(0.8988 0.4383 -0.4383 0.8988 195.452 -114.1453)" width="67.7" height="23"/>
		<g>
			
				<rect x="311.8" y="358.8" transform="matrix(0.8988 0.4383 -0.4383 0.8988 194.0624 -115.3049)" fill="#FFFFFF" width="70" height="7.8"/>
			<path fill="#E04D4D" d="M311.6,351.6l4.7-9.7l65.6,32l-4.1,8.4l-0.7,1.3L311.6,351.6L311.6,351.6z M376.5,381.5l0.7-1.3
				L376.5,381.5L376.5,381.5z M315.6,350.2l60.2,29.4l2.1-4.3l-60.2-29.4L315.6,350.2L315.6,350.2z"/>
		</g>
		<g>
			<path d="M223.8,663.9c-6.5-8.2-9.2-17.3-9.1-26.1l0,0c0-12.1,4.8-24,10.7-34.3l0,0l5.2,3c-5.6,9.9-9.9,20.8-9.9,31.4l0,0
				c0,7.7,2.2,15.2,7.9,22.4l0,0c9.2,11.8,22.8,15.9,37.8,15.9l0,0c15,0,30.9-4.3,43.5-8.9l0,0c40.8-15.2,74.5-47.8,93-88.1l0,0
				c15.1-33.9,9.8-71.8,13.6-109.6l0,0c4-32.2,18-66.2,45-86.9l0,0c10.6-8.1,21.6-11.7,32-11.7l0,0c14.8,0,28.3,7.3,37.9,18.4l0,0
				c9.6,11.2,15.6,26.3,15.6,42.3l0,0c0,5.9-0.8,12-2.6,18l0,0c-9.8,33.8-36.2,56.1-51.3,84.9l0,0l0,0l0,0.1
				c-4.8,8.1-8.5,20.1-8.5,31l0,0c0,5.9,1.1,11.5,3.5,16l0,0l-5.3,2.8c-3.1-5.7-4.3-12.2-4.3-18.9l0,0c0-12.2,4-24.8,9.3-33.9l0,0
				c16-30,41.8-52.1,50.8-83.7l0,0c1.6-5.5,2.3-10.9,2.3-16.3l0,0c0-14.5-5.4-28.3-14.1-38.4l0,0c-8.7-10.1-20.5-16.4-33.3-16.4l0,0
				c-9,0-18.7,3.1-28.4,10.5l0,0c-25.2,19.3-38.9,51.8-42.7,82.8l0,0c-3.9,36.6,1.8,75.3-14.1,111.4l0,0
				c-19.2,41.7-54,75.4-96.4,91.3l0,0c-13,4.8-29.5,9.3-45.6,9.3l0,0c0,0-0.1,0-0.1,0l0,0C250.3,682.2,234.5,677.6,223.8,663.9
				L223.8,663.9z"/>
			<path d="M222.6,664.9L222.6,664.9c-6.7-8.5-9.5-17.8-9.5-26.9l0,0c0,0,0,0,0-0.1l0,0c0-12.5,4.9-24.6,10.9-35l0,0l0.7-1.3
				l7.8,4.5l-0.7,1.3c-5.6,9.7-9.7,20.4-9.7,30.5l0,0v0v0c0,7.4,2.1,14.5,7.5,21.5l0,0c8.9,11.3,21.9,15.3,36.6,15.4l0,0
				c0,0,0,0,0,0l0,0c14.7,0,30.5-4.2,42.9-8.8l0,0c40.4-15.1,73.8-47.3,92.2-87.3l0,0c14.9-33.4,9.6-71.1,13.5-109.1l0,0
				c4-32.5,18.2-66.9,45.6-87.9l0,0c10.8-8.3,22.2-12,32.9-12l0,0c0,0,0,0,0.1,0l0,0c15.3,0,29.1,7.6,38.9,19l0,0
				c9.9,11.4,15.9,26.9,15.9,43.3l0,0c0,6.1-0.8,12.3-2.6,18.4l0,0c-10,34.3-36.5,56.8-51.4,85.2l0,0l0,0.1l-0.1,0.1
				c-4.6,7.8-8.3,19.6-8.3,30.1l0,0l0,0.1l0,0.1c0,5.7,1.1,11,3.4,15.2l0,0l0.7,1.3l-7.9,4.3l-0.7-1.3c-3.2-6-4.4-12.8-4.4-19.6l0,0
				c0-12.5,4.1-25.3,9.4-34.6l0,0c16.2-30.3,41.9-52.3,50.7-83.4l0,0c1.5-5.3,2.3-10.6,2.3-15.9l0,0c0,0,0,0,0-0.1l0,0
				c0-14.2-5.3-27.6-13.8-37.4l0,0c-8.4-9.8-19.8-15.8-32.1-15.8l0,0c0,0-0.1,0-0.1,0l0,0h0h0h0c-8.7,0-18,3-27.5,10.2l0,0
				c-24.8,18.9-38.4,51.1-42.1,81.8l0,0c-3.9,36.4,1.9,75.2-14.3,111.8l0,0c-19.3,42.1-54.4,76-97.2,92l0,0
				c-13.1,4.8-29.7,9.4-46.1,9.4l0,0c0,0-0.1,0-0.1,0l0,0c0,0,0,0-0.1,0l0,0C250,683.7,233.6,678.9,222.6,664.9L222.6,664.9z
				 M266.3,680.7c15.8,0,32.2-4.5,45.1-9.2l0,0c42-15.7,76.5-49.1,95.5-90.5l0,0c15.7-35.5,10.1-74,14-110.9l0,0
				c3.8-31.3,17.6-64.2,43.3-83.8l0,0c9.9-7.6,19.9-10.8,29.3-10.8l0,0c0,0,0,0,0,0l0,0h0l0,0c13.3,0,25.5,6.5,34.5,16.9l0,0
				c8.9,10.3,14.5,24.4,14.5,39.3l0,0c0,0,0,0,0,0.1l0,0c0,5.5-0.8,11.1-2.4,16.7l0,0c-9.2,32.2-35.1,54.3-50.9,84.1l0,0
				c-5.1,8.9-9,21.3-9.1,33.2l0,0c0,5.9,1,11.7,3.4,16.8l0,0l2.6-1.4c-2.1-4.5-3-9.8-3-15.4l0,0v0l0,0c0-0.1,0-0.1,0-0.1l0,0
				c0-11.2,3.8-23.3,8.7-31.6l0,0l0,0l0,0c15.3-29.1,41.5-51.3,51.2-84.6l0,0c1.7-5.9,2.5-11.8,2.5-17.6l0,0
				c0-15.7-5.8-30.4-15.2-41.3l0,0c-9.4-10.9-22.4-17.9-36.7-17.9l0,0h-0.2l0,0c-10,0-20.6,3.5-30.9,11.4l0,0
				c-26.5,20.3-40.5,54-44.4,85.9l0,0c-3.9,37.5,1.6,75.6-13.8,110l0,0c-18.7,40.7-52.6,73.5-93.8,88.9l0,0c-12.7,4.7-28.7,9-44,9
				l0,0l0,0c0,0,0,0,0,0l0,0c0,0,0,0,0,0l0,0c-15.2,0-29.4-4.3-39-16.5l0,0c-5.9-7.5-8.2-15.3-8.2-23.3l0,0c0-0.1,0-0.1,0-0.1l0,0
				c0-10.4,4-21.1,9.4-30.7l0,0l-2.6-1.5c-5.5,9.9-9.8,21-9.8,32.3l0,0v0.1l0,0l0,0l0,0c0,8.5,2.5,17.1,8.8,25.1l0,0l-1.2,0.9
				l1.2-0.9c10.3,13.1,25.5,17.6,41.2,17.7l0,0C266.2,680.7,266.2,680.7,266.3,680.7L266.3,680.7
				C266.3,680.7,266.3,680.7,266.3,680.7L266.3,680.7z M495,377.1c0-0.1,0-0.1,0-0.2l0,0V377.1L495,377.1z"/>
		</g>
		<g>
			<polygon points="246.2,614.3 210.1,596.7 287.2,435.1 326.1,454 			"/>
			<path fill="#E04D4D" d="M207.4,597.7l78.8-165.3l42.5,20.7l-80.8,162.1l-0.9,1.8L207.4,597.7L207.4,597.7z M246.2,614.3l0.9-1.8
				L246.2,614.3L246.2,614.3z M212.7,595.8l32.5,15.9l78.1-156.7l-35.2-17.2L212.7,595.8L212.7,595.8z"/>
		</g>
		
			<rect x="497.1" y="618" transform="matrix(0.8878 -0.4603 0.4603 0.8878 -232.7658 300.4343)" fill="#FFFFFF" width="5.2" height="19.1"/>
		
			<rect x="509.2" y="611.7" transform="matrix(0.8878 -0.4603 0.4603 0.8878 -228.5021 305.32)" fill="#FFFFFF" width="5.2" height="19.1"/>
		<path d="M518.8,609.9c1.1,2.2,0.2,4.9-2,5.9l-25.3,12.3c-2.2,1.1-4.9,0.2-5.9-2l-14.6-29.9c-1.1-2.2-0.2-4.9,2-5.9l25.3-12.3
			c2.2-1.1,4.9-0.2,5.9,2L518.8,609.9z"/>
		<polygon fill="#E04D4D" points="470.9,599.5 506.8,582.5 508.5,586.1 472.6,603.2 470.9,599.5 		"/>
	</g>
</g>
</svg>
