<?xml version="1.0" encoding="utf-8"?>
<!-- Generator: Adobe Illustrator 18.1.1, SVG Export Plug-In . SVG Version: 6.00 Build 0)  -->
<svg version="1.1" id="Layer_1" xmlns="http://www.w3.org/2000/svg" xmlns:xlink="http://www.w3.org/1999/xlink" x="0px" y="0px"
	 viewBox="0 0 791.4 920" enable-background="new 0 0 791.4 920" xml:space="preserve">
<g>
	<g>
		<polygon fill="#EE8E32" points="771.3,676.9 395.7,893.7 20.1,676.9 20.1,243.2 395.7,26.3 771.3,243.2 		"/>
	</g>
	<g>
		<path d="M395.7,916.3L0.5,688.2V231.9L395.7,3.7l395.2,228.2v456.3L395.7,916.3z M39.7,665.6l356.1,205.5l356.1-205.5V254.5
			L395.7,48.9L39.7,254.5V665.6z"/>
	</g>
</g>
<g>
	<path stroke="#000000" stroke-width="10" d="M507.2,349.9c0,18.3-5.3,35.3-15.8,51.1c-8.1,12.2-20.7,25.1-37.8,38.7
		c-14.6,11.1-29.3,22.2-43.9,33.3c-9.1,6.8-15.7,12.7-19.8,17.7c-7.1,8.6-10.7,17.6-10.7,26.9c0,4.3,0.6,8.4,1.8,12.2
		c1.2,3.9,3.4,7.5,6.7,10.9c2.2,2.5,4.4,4.2,6.6,5.1c2.1,0.9,4.2,1.5,6.2,1.9c2.6,0,4,0.8,4,2.4c0,0.9-0.7,1.7-2.1,2.4
		c-3.7,1.6-6,2.7-7,3.2c-1.2,0.5-3.6,2-7,4.3c-1.8,1.3-4.2,3-7,5.1c-1.8,1.6-3.2,2.6-4,3c-1.6,0.9-3,1.3-4.3,1.3
		c-1.2,0-2.6-0.4-4.3-1.3c-4.9-2.3-9-6.3-12.3-12c-3.3-5.6-5.5-11.9-6.6-18.7c0-1.3-0.1-2.6-0.2-4.2c-0.1-1.5-0.2-2.6-0.2-3.1
		c0-8.4,1.6-16.8,4.9-25.3c2.6-7,6.6-14.2,11.9-21.8c4.1-5.9,11-13.1,20.7-21.5c5.5-4.8,12.4-10.4,20.7-16.7
		c15.8-12.4,26.9-22.8,33.2-31.2c14.4-19.4,21.6-42.5,21.6-69.3c0-19-5.8-34.6-17.4-46.8c-13.2-14-32-21-56.4-21
		c-21.5,0-39.1,5.6-52.7,16.9c-12.8,10.6-19.2,23.2-19.2,37.9c0,12.9,2.5,22.9,7.6,30.1c5.1,7.2,12.9,10.8,23.5,10.8
		c8.5,0,16-3.4,22.5-10.2c1.2-1.3,2.2-3,3-5.2c0.8-2.2,1.5-4,2-5.2c0.5-1.3,1.6-1.9,3.2-1.9c1.2,0,2.6,0.9,4.1,2.7
		c1.5,1.8,2.8,5.2,3.8,10.3c1,5.1,1.5,9.9,1.5,14.4c-1,9-5.9,16.6-14.6,22.8c-8.7,6.3-18.9,9.4-30.5,9.4c-15.8,0-28.5-5.6-38.1-16.7
		c-9.6-11.1-14.3-25.6-14.3-43.5c0-25.1,10.2-45.9,30.5-62.4c20.3-16.5,44.9-24.7,73.7-24.7c33.3,0,60,7.4,80.1,22
		C496.5,299.9,507.2,321.8,507.2,349.9z"/>
	<path stroke="#000000" stroke-width="10" d="M421.3,625.7c0,8.4-2.9,15.5-8.7,21.1c-5.8,5.6-12.9,8.5-21.4,8.5
		c-8.4,0-15.5-2.8-21.4-8.5c-5.8-5.6-8.7-12.7-8.7-21.1c0-8.6,2.9-15.8,8.6-21.5c5.7-5.7,12.9-8.6,21.5-8.6c8.2,0,15.3,2.9,21.2,8.6
		C418.3,609.9,421.3,617.1,421.3,625.7z"/>
</g>
</svg>
