<?xml version="1.0" encoding="utf-8"?>
<!-- Generator: Adobe Illustrator 18.1.1, SVG Export Plug-In . SVG Version: 6.00 Build 0)  -->
<svg version="1.1" id="Layer_1" xmlns="http://www.w3.org/2000/svg" xmlns:xlink="http://www.w3.org/1999/xlink" x="0px" y="0px"
	 viewBox="0 0 791.4 920" enable-background="new 0 0 791.4 920" xml:space="preserve">
<g>
	<g>
		<polygon fill="#EE8E32" points="771.3,676.9 395.7,893.7 20.1,676.9 20.1,243.2 395.7,26.3 771.3,243.2 		"/>
	</g>
	<g>
		<path d="M395.7,916.3L0.5,688.2V231.9L395.7,3.7l395.2,228.2v456.3L395.7,916.3z M39.7,665.6l356.1,205.5l356.1-205.5V254.5
			L395.7,48.9L39.7,254.5V665.6z"/>
	</g>
</g>
<g>
	<path d="M418.7,253.1c57.5,7.8,95.6,76.2,85.3,152.8c-10.4,76.6-65.4,132.4-122.9,124.6c-57.5-7.8-95.7-76.2-85.3-152.8
		C306.2,301.1,361.2,245.3,418.7,253.1z"/>
	<rect x="353.5" y="509.6" transform="matrix(0.9909 0.1343 -0.1343 0.9909 83.4957 -44.6608)" width="38.4" height="173.6"/>
	<path fill="#FFFFFF" d="M413.6,275.1c48.7,6.6,81,64.5,72.2,129.4C477,469.4,430.5,516.6,381.8,510c-48.7-6.6-81-64.5-72.2-129.4
		C318.4,315.8,364.9,268.5,413.6,275.1z"/>
	<ellipse transform="matrix(0.986 0.1669 -0.1669 0.986 119.0236 -50.7009)" cx="361.2" cy="682.8" rx="19.1" ry="9.7"/>
	<polygon points="429.1,396.5 355.1,365.9 355.2,360.9 429.2,391.5 	"/>
	<polygon points="438.6,421.1 364.6,390.6 364.6,385.6 438.6,416.1 	"/>
	<circle cx="417.9" cy="240.9" r="15.9"/>
	<circle cx="396.3" cy="255.3" r="13.7"/>
	<circle cx="435.9" cy="260.7" r="13.7"/>
</g>
</svg>
