<?xml version="1.0" encoding="utf-8"?>
<!-- Generator: Adobe Illustrator 18.1.1, SVG Export Plug-In . SVG Version: 6.00 Build 0)  -->
<svg version="1.1" id="Layer_1" xmlns="http://www.w3.org/2000/svg" xmlns:xlink="http://www.w3.org/1999/xlink" x="0px" y="0px"
	 viewBox="0 0 790.4 920" enable-background="new 0 0 790.4 920" xml:space="preserve">
<g>
	<polygon fill="#3D87C9" points="770.8,676.9 395.2,893.7 19.6,676.9 19.6,243.2 395.2,26.3 770.8,243.2 	"/>
	<path d="M395.2,916.3L0,688.2V231.9L395.2,3.7l395.2,228.2v456.3L395.2,916.3z M39.2,665.6l356.1,205.5l356.1-205.5V254.5
		L395.2,48.9L39.2,254.5V665.6z"/>
</g>
<g>
	<path d="M281.2,676c-14.3,0-39.4-1.8-52.6-13.7l-0.3-0.3l-0.3-0.3c-17.7-19.3-10-38.3-4.9-50.9c0.7-1.7,1.3-3.3,1.9-4.8l16.2,6
		c-0.6,1.8-1.4,3.6-2.1,5.3c-5.4,13.2-8,22.1,1.3,32.4c9.4,8,34.5,9.9,49.7,8.7c31.2-4.7,51.8-45.5,68.4-78.4
		c3.6-7.1,6.9-13.7,10.2-19.6c2.6-4.6,5.3-9.8,8.2-15.3c19.7-37.6,46.7-89.2,90.8-95.1l0.1,0c27.4-3.3,55.1,8.5,67.4,28.8
		c9.8,16.2,8.5,34.8-3.7,52.5l-0.1,0.1c-2.3,3.2-4.9,6.5-7.6,10c-11.8,15.1-25.1,32.2-21.8,48.7c1.6,8.1,5.4,9.5,8.5,9.8
		c9.7,0.9,23.9-8.5,28.1-18.8l16,6.6c-6.7,16.4-26.2,29.5-42.8,29.5c-1,0-1.9,0-2.9-0.1c-12.4-1.2-21-9.8-23.8-23.6
		c-4.8-24.2,11.8-45.5,25.1-62.7c2.6-3.3,5-6.5,7.1-9.4c8.2-11.9,9.3-23.6,3.1-33.7c-8.7-14.4-30-23.1-50.5-20.6
		c-35.2,4.8-59.8,51.7-77.7,86c-2.9,5.6-5.7,10.9-8.3,15.7c-3.1,5.6-6.4,12.1-9.9,19c-8.8,17.4-18.7,37.2-31.4,53.7
		c-15.5,20.3-32,31.5-50.2,34.1l-0.5,0.1C291.4,675.7,287.2,676,281.2,676z"/>
	<g>
		<g>
			<polygon points="256.6,620.1 214.1,595.3 348.9,328.2 424.4,372.4 			"/>
			<path fill="#3D87C9" d="M257.5,624.3l-47.4-27.7l137.5-272.6l81.3,47.5L257.5,624.3z M218.2,594.1l37.4,21.9L420,373.4
				l-69.9-40.9L218.2,594.1z"/>
		</g>
		<polygon fill="#3D87C9" points="382.1,434.8 364.3,426.9 348.8,418.5 333.2,408.7 315.1,395.7 318.7,390.7 336.7,403.6 352,413.2 
			367.2,421.4 384.6,429.2 		"/>
		<g>
			<path d="M467.1,352.6c-19.5,33.4-62.3,44.7-95.6,25.2c-33.3-19.5-44.5-62.3-25-95.7c19.5-33.4,62.3-44.7,95.6-25.2
				C475.5,276.4,486.6,319.3,467.1,352.6z"/>
			<path fill="#3D87C9" d="M406.6,390.8c-12.9,0-25.6-3.5-36.8-10c-34.9-20.4-46.6-65.4-26.2-100.4C356.7,258,381,244,407,244
				c12.9,0,25.6,3.5,36.8,10c34.9,20.4,46.6,65.4,26.2,100.4C456.9,376.8,432.6,390.8,406.6,390.8z M407,250.8
				c-23.6,0-45.7,12.7-57.6,33.1c-18.5,31.7-7.9,72.6,23.7,91.1c10.2,5.9,21.7,9.1,33.4,9.1c23.6,0,45.7-12.7,57.6-33.1
				c18.5-31.7,7.9-72.6-23.7-91.1C430.3,253.9,418.7,250.8,407,250.8z"/>
		</g>
		<polygon fill="#3D87C9" points="288.4,594.9 270.6,587 255.1,578.5 239.5,568.8 221.4,555.8 225,550.8 243,563.7 258.3,573.3 
			273.5,581.5 290.9,589.3 		"/>
	</g>
</g>
</svg>
