<?xml version="1.0" encoding="utf-8"?>
<!-- Generator: Adobe Illustrator 18.1.1, SVG Export Plug-In . SVG Version: 6.00 Build 0)  -->
<svg version="1.1" id="Layer_1" xmlns="http://www.w3.org/2000/svg" xmlns:xlink="http://www.w3.org/1999/xlink" x="0px" y="0px"
	 viewBox="0 0 790.4 920" enable-background="new 0 0 790.4 920" xml:space="preserve">
<g>
	<polygon fill="#3D87C9" points="770.8,676.9 395.2,893.7 19.6,676.9 19.6,243.2 395.2,26.3 770.8,243.2 	"/>
	<path d="M395.2,916.3L0,688.2V231.9L395.2,3.7l395.2,228.2v456.3L395.2,916.3z M39.2,665.6l356.1,205.5l356.1-205.5V254.5
		L395.2,48.9L39.2,254.5V665.6z"/>
</g>
<g>
	<g>
		<path fill="#FFFFFF" d="M277,256.8c31,0,62-6,93-4c33,3,71,9,96,31c11,9,18,18,31,23c39,16,83,9,119,34c21,14,36,36,40,60
			c5,25-4,19-23,11c-21-8-34-9-55,2c-24,14-43,36-69,48c-27,14-57,17-87,19c-22,1-36,13-56,21"/>
	</g>
	<g>
		<path d="M248.1,262.7c53-19.8,117.2,21.4,143.6,91.9c26.4,70.6,4.8,143.8-48.1,163.6c-52.9,19.8-117.2-21.4-143.6-91.9
			C173.6,355.7,195.2,282.4,248.1,262.7z"/>
		<rect x="357.8" y="485.6" transform="matrix(0.9367 -0.3501 0.3501 0.9367 -187.9482 170.096)" width="37.4" height="238.7"/>
		<path fill="#FFFFFF" d="M257.3,293.1c40.5-15.1,89.6,16.3,109.8,70.3c20.2,53.9,3.7,109.9-36.8,125.1
			c-40.5,15.1-89.6-16.3-109.8-70.3C200.4,364.2,216.8,308.2,257.3,293.1z"/>
	</g>
	<ellipse transform="matrix(0.9477 -0.3191 0.3191 0.9477 -206.9033 171.0501)" cx="418.7" cy="717.1" rx="18.6" ry="9.4"/>
</g>
</svg>
