<?xml version="1.0" encoding="utf-8"?>
<!-- Generator: Adobe Illustrator 18.1.1, SVG Export Plug-In . SVG Version: 6.00 Build 0)  -->
<svg version="1.1" id="Layer_1" xmlns="http://www.w3.org/2000/svg" xmlns:xlink="http://www.w3.org/1999/xlink" x="0px" y="0px"
	 viewBox="0 0 791.4 920" enable-background="new 0 0 791.4 920" xml:space="preserve">
<g>
	<g>
		<polygon fill="#806BC1" points="771.3,676.9 395.7,893.7 20.1,676.9 20.1,243.2 395.7,26.3 771.3,243.2 		"/>
	</g>
	<g>
		<path d="M395.7,916.3L0.5,688.2V231.9L395.7,3.7l395.2,228.2v456.3L395.7,916.3z M39.7,665.6l356.1,205.5l356.1-205.5V254.5
			L395.7,48.9L39.7,254.5V665.6z"/>
	</g>
</g>
<g>
	<g>
		<rect x="153" y="295" fill="#FFFDFD" width="477" height="330"/>
		<rect x="153" y="295" width="477" height="24.8"/>
		<circle fill="#FFFFFF" cx="165.1" cy="305.8" r="4.5"/>
		<circle fill="#FFFFFF" cx="179.6" cy="305.8" r="4.5"/>
		<circle fill="#FFFFFF" cx="194.1" cy="305.8" r="4.5"/>
		<rect x="209.1" y="301.1" fill="#FFFFFF" width="59" height="22.5"/>
		<rect x="274.8" y="301.1" fill="#FFFFFF" width="59" height="14.2"/>
		<rect x="340.6" y="300.7" fill="#FFFFFF" width="59" height="14.2"/>
		<path d="M607.7,333.9c0,2.9-2.4,5.2-5.3,5.2H221.7c-2.9,0-5.3-2.3-5.3-5.2v-2.4c0-2.9,2.4-5.2,5.3-5.2h380.6
			c2.9,0,5.3,2.3,5.3,5.2V333.9z"/>
		<rect x="614" y="327.3" width="10.8" height="2.3"/>
		<rect x="614" y="331.2" width="10.8" height="2.3"/>
		<rect x="614" y="335.2" width="10.8" height="2.3"/>
		<g>
			<rect x="165.8" y="330.3" width="6.3" height="4.6"/>
			<polyline points="167.3,338.3 158.3,332.6 167.3,327 			"/>
		</g>
		<g>
			<rect x="178.3" y="330.3" width="6.3" height="4.6"/>
			<polyline points="183.1,327 192.1,332.6 183.1,338.3 			"/>
		</g>
		<g>
			<rect x="196.6" y="331.3" transform="matrix(0.6998 0.7143 -0.7143 0.6998 298.6851 -45.471)" width="13.7" height="2.6"/>
			<rect x="196.6" y="331.4" transform="matrix(0.7143 -0.6998 0.6998 0.7143 -174.6579 237.3855)" width="13.7" height="2.4"/>
		</g>
	</g>
	<g>
		<path d="M408.8,411.8c-4.5-3-14.5-3-19.5-1.5c-7.5,2-9.5,8-19,7.5l3,26.5h30l18.5-23L408.8,411.8z"/>
	</g>
	<g>
		<path fill="#FFFDFD" d="M325.6,417.8c4.7-3.7,9.7,5.7,13.7,6.7c4.7,1.3,8-2.7,12.3-1.7c3,0.7,3.7,3.3,7.3,3.3c4,0,2.7-1,4.7-3.3
			c1.7-2,2-4.7,5.3-5.3c5-1.7,6,16.3,10.3,18c4,1.3,9,0.3,12-1.7c2-1.3,3.7-4.7,6.3-5c3.7-1,2-13,5-12.3c5.3,1.3,6.3-0.3,7-5.3
			c1-6.7-6.9-18.5-2.6-24.5h4c35.8,8.8,62.4,41.1,62.4,79.6c0,45.3-36.7,82-82,82s-82-36.7-82-82c0-17.8,5.6-34.2,15.2-47.6
			L325.6,417.8z"/>
		<path d="M327,419.2c2-1.2,5.9,3.6,7.2,4.7c1.7,1.5,3.4,2.5,5.7,2.8c2.6,0.3,4.9-0.8,7.3-1.5c4.5-1.2,5.5,1.8,9.3,2.7
			c5.3,1.3,7.4-1.6,10-5.5c0.7-1.1,1.5-3.1,3-2.6c0.5,0.2,1.1,2,1.3,2.4c0.9,2.2,1.5,4.5,2.2,6.7c1,3.1,2,7,5.2,8.4
			c4.7,2,11.8,0.2,15.5-3.1c1.1-0.9,2-2.4,3.2-3.2c0.7-0.5,1.6-0.5,2.3-1c1.4-1,2.2-2.3,2.8-3.9c0.6-2,1-4.4,1.1-6.5
			c0-0.1,0.2-1.4,0.3-1.6c-0.3,0.4-1,0.6,0.1,0.6c1.2,0,2.3,0.2,3.6-0.1c4.6-1.3,5.5-6.9,5-11c-0.7-6.1-6.3-14.6-2.8-20.4
			c-0.9,0.5-1.8,1-2.7,1.5c11.8,0,24.3,7.4,33.4,14.4c10.5,8.2,19,19,24.4,31.3c10.9,24.9,8.4,54.2-6.7,76.8
			c-14.8,22.2-40.4,35.5-67,35.1c-26.4-0.4-51.4-14.4-65.8-36.6c-7.8-12-12.2-26.1-12.8-40.4c-0.4-9.1,0.8-18.2,3.4-26.8
			c2.4-7.8,6.1-17.8,12.1-23.7c2.3-2.3-1.8-3.8-3.6-2c-7.7,7.6-12.3,20.8-14.7,31.2c-2.5,11.1-2.8,22.7-0.7,33.9
			c3.7,19.8,14.5,37.8,30.3,50.3c32.5,25.7,79.9,23.4,110.2-4.6c31.2-28.9,35.7-78.1,10-112c-6.4-8.4-14.4-15.6-23.5-21.1
			c-7.3-4.4-17.2-9.7-25.9-9.7c-9.3,0-5.7,11.8-4,17.4c0.8,2.7,3.8,11.4,0.1,12.8c-1.4,0.6-2.9-0.8-4.6,0c-1.1,0.6-1.7,1.4-2.2,2.6
			c-0.8,1.8-0.7,4-1.1,5.9c-0.1,0.7-0.2,2-0.6,2.7c-0.8,1.3-0.5,0.5-1.4,1.2c-3.8,3-11.7,10.8-16.2,5c-3.2-4.1-2.4-16.3-9.2-17
			c-4.1-0.4-6.4,3.1-8.3,6c0.2-0.3-1.7,2.5-1.7,2.6c-1.9,0.9-3.6-1-5-1.9c-1.8-1.1-3.7-1.5-5.7-1.3c-3,0.3-6.2,2.7-9.3,1.8
			c-2.2-0.7-4-3.2-5.7-4.6c-3.3-2.8-6.6-4-10.4-1.6C321.5,418.1,324.6,420.7,327,419.2z"/>
	</g>
	<path d="M307,401.1c5.4-2.1,2.4-1.4-0.8-2.4c-1.9-0.6-3.6-0.8-5.6-1c-4.3-0.5-8.6-1.8-12.9-2.1c-2.8-0.2-5.8,0.6-8.5,1.4
		c-2.8,0.8-4.3,2.3-6.7,3.6c2.4-0.7,4.8-1.4,7.2-2.1c-6.4,1.1-12.9-2.2-19.3-1.6c-1.9,0.2-3.9,0.7-5.7,1.2c-1,0.3-2,0.6-3,0.9
		c-1.1,0.4-3.6,2.1-0.4,0.2c2.2-0.5,2.3-0.8,0.2-0.8c-0.8-0.1-1.6-0.2-2.4-0.3c-1.1-0.1-2.3-0.2-3.4-0.1c-1.8,0.1-3.6,0.5-5.4,1
		c-4,1.1-7.3,3.1-11.1,4.7c-1.6,0.7,1.5,0.2,1.7,0.1c2-0.4,4-0.9,5.9-1.7c1.6-0.7,3.1-1.4,4.6-2.2c1-0.6,3.5-1.5-0.5-0.1
		c-3.7,1.3-1.1,0.7,0.6,0.9c3.9,0.4,6.9,0.3,10.7-0.7c1.4-0.4,2.8-0.8,4.1-1.3c3-1.2-2.2,0.7-2.2,0.6c0.1,0.2,3.3,0.2,3.6,0.3
		c4.5,0.6,9,1.9,13.6,1.5c3-0.2,6.6-0.9,9.4-2.3c0.6-0.3,1.2-0.6,1.7-1.1c1.3-1.1,0.3-1-2.9,0.3c0.5,0.1,1,0.2,1.4,0.2
		c2.3,1.1,5.7,1.2,8.2,1.5c2.5,0.3,5,0.4,7.4,1c2.3,0.6,4.4,1.7,6.9,1.7c3.3,0,6.9-1.2,9.9-2.4c1.6-0.6,1.1-0.5-0.1-0.6
		C311.3,399.5,308.8,400.5,307,401.1L307,401.1z"/>
	<path d="M295,461.8c-6.5,1.3-13.1-0.8-19.5-1.4c-2.7-0.3-5.3-0.2-8,0.1c-1.5,0.2-3.1,0.6-4.6,0.5c-2-0.1-3.3-0.9-5.2-1.5
		c-3.4-1.1-6.3-0.3-9.7,0.8c-1.2,0.4-2.7,0.8-3.6,1.7c-1.8,2.1,0.9,2.3,2.7,2.3c0.8,0,8.7-1.5,8.5-2.4c-0.7-4.4-5.3-3.4-8.5-2.7
		c-2.4,0.5-4.9,1.2-7.3,2c-1.3,0.4-2.6,0.9-3.9,1.3c-0.8,0.3-4.2,0.9-2,0.9c2.3,0-0.7-0.3-1.1-0.3c-1.3-0.1-2.6-0.3-3.9-0.5
		c-2.8-0.4-5.6-0.7-8.4-1c-4.8-0.5-9.1-0.4-13.8,0.8c-0.4,0.1-4.4,1.1-4.2,1.6c0.1,0.4,4.3-0.7,4.5-0.8c-3,0.8-0.2,0.4,0.6,0.5
		c1.1,0.1,2.3,0.1,3.4,0.2c2.4,0.2,4.9,0.5,7.3,0.8c3.3,0.4,6.6,1.1,9.9,0.8c3.8-0.5,7.5-1.7,11.1-3c3-1.1,6.8-2.8,7.5,1.8
		c2.8-0.8,5.7-1.6,8.5-2.4c-2.3,0-4.8-0.5-1.5-2.7c-1.8,0.6-3.5,1.1-5.3,1.7c-2.8,0.7,2,1.9,3,2.2c1.2,0.4,2.2,0.5,3.5,0.4
		c4.3-0.2,8.3-1.1,12.7-0.6c7.9,0.9,15,2.3,22.9,0.7c1.4-0.3,5-0.6,5.9-1.7C297.4,461,296,461.6,295,461.8L295,461.8z"/>
	<path d="M298.1,477.6c-5.5-0.3-9.2-1.5-14.6,0c-0.8,0.2-4.6,2.2-5.2,1.9c0.8-0.3,1.7-0.6,2.5-0.9c-1.1,0-2.2-0.2-3.3-0.4
		c-2.1-0.4-4.1-1-6.1-1.7c-1.2-0.4-8.3,1.1-8.7,2.3c-0.1,0.7-0.4,1.3-0.7,1.8c-1.1,1.8,0.3,1.6,4.3-0.4c-0.2-0.4-2.7-0.9-3.2-1.1
		c-1.9-0.8-3.7-1.9-5.7-2.5c-5-1.5-10.3-0.1-15.3-0.2c-5.3-0.1-9.9-0.2-15.1,1.1c-2,0.5-3.9,1.1-5.8,1.8c-1.1,0.5-2.2,1-3.3,1.5
		c-0.1,0.1-0.3,0.1-0.4,0.2c-2.9,1.5-2.7,1.4,0.4-0.1c-2.6-0.2-6.8,2.6-8.3,2.5c4.9,0.4,10.3-1.4,14.7-3.5c3.7-1.8,7.1-1,11.2-1
		c3.7,0,7.4-0.9,11.1-0.4c4.9,0.7,8.9,4.7,13.9,4.1c4.4-0.5,9.4-1.6,10.8-6.1c-2.9,0.8-5.8,1.6-8.7,2.3c5.1,1.8,10.1,2.7,15.5,1.6
		c2.1-0.5,4.2-1.1,6.3-1.9c3.7-1.4-2.9-0.8-0.7,0.5c1.4,0.9,4.3,0.8,6,0.9C292.3,480.3,296.5,477.6,298.1,477.6L298.1,477.6z"/>
	<path d="M539.8,531.1c-1.8,1.7-0.8,0.4,0.5,0.5c-0.9-0.1-1.9,0-2.8-0.1c-2.6-0.1-5.1-0.3-7.7-0.4c-5.4-0.3-10.8-0.6-16.2-1.1
		c-3.2-0.3-5.9,0-8.9,0.9c-0.7,0.2-1.4,0.5-2,0.6c-1.1,0.4-0.6,0.2,1.6-0.7c2.1-0.2,2.7-0.6,1.5-1.3c-0.5-1.4-2.8-1.6-3.9-1.6
		c-2.5,0-5.2,1-7.5,1.8c-1,0.4-2,0.7-2.9,1.3c-0.2,0.1-1.9,1.3-1.8,1.3c1.4-0.3,2.8-0.6,4.3-0.8c-0.6-0.2-1.2-0.4-1.8-0.6
		c-2.5-1.2-5.4-1.6-8.1-1.6c-3.6,0-7.7,1.6-11.2,0.9c-1.5-0.3-3.9,0.7-5.4,1.2c-0.5,0.2-3.2,1.2-2.9,1.3c3.7,0.8,7.5-0.7,11.2-0.9
		c3.5-0.2,6.2,1.5,9.5,2.1c2.6,0.5,5.5-0.6,7.9-1.3c1.2-0.4,2.5-0.8,3.7-1.4c0.7-0.3,1.3-0.7,1.9-1.2c0.5-0.4,2.5-1.4,0.5-0.8
		c-1.8,0.4-3.6,0.8-5.4,1.2c2.6-0.1,3.3,2.3,5.6,2.5c1.7,0.2,4.1-0.7,5.7-1.1c0.5-0.1,1.1-0.3,1.6-0.5c1.4-0.5,1.2-0.4-0.6,0.4
		c-2.1,0.7-2,0.9,0.4,0.8c0.6,0.1,1.3,0.1,1.9,0.2c3.8,0.3,7.7,0.5,11.5,0.8c8.8,0.5,21.6,2.4,28.7-4.4c0.4-0.4-2.9,0.3-3.2,0.3
		C543.6,529.7,540.9,530,539.8,531.1L539.8,531.1z"/>
	<path d="M542.4,545.6c-0.4,0.2-0.9,0.4-1.3,0.7c2.1-0.6,4.2-1.3,6.3-1.9c-1.7,0.4-4.2-1.8-5.8-2.3c-1.6-0.5-2.7-0.5-4.4-0.2
		c-3.7,0.7-6.7,1.8-9.6,4c1.4-0.5,2.7-0.9,4.1-1.4c-0.2,0.1-0.4,0.1-0.7,0.2c1.4-0.3,2.8-0.6,4.3-0.8c-3.7,0-7-1.1-10.7-0.4
		c-2.9,0.6-5.6,1.4-8.2,2.7c2.9-0.7,5.7-1.5,8.6-2.2c-3.7-2.7-9.2-0.5-12.9,1.3c-3.1,1.5,1.8-0.2,1.7-0.4c-0.1-0.2-4.8-1.2-5.3-1.4
		c-3-0.9-6-1.8-9.1-1.9c-2.4,0-4.7,0.6-7.1,1c-2.2,0.3-4.4,0.1-6.6,0.3c-2.9,0.3-5.2,1.3-7.7-0.8c-2.3-2-3.2-3.6-6.4-3.7
		c-2.6-0.1-6.7,2.5-8.3,2.5c4.8,0.2,6.2,5.8,11.3,5.2c3-0.4,5.9-0.7,8.9-0.9c2.8-0.1,5.4-1.2,8.2-1.1c5.5,0.1,10.6,3.6,16.1,3.3
		c2.2-0.1,4.5-0.8,6.7-1.4c0.9-0.3,1.7-0.5,2.5-0.9c0.6-0.3,4.5-2,0.7-0.9c-1.4,0.3-2.8,0.6-4.3,0.8c1.2,0,2.1,0.4,2.9,1.2
		c1.4,1,7.2-1.5,8.6-2.2c0.5-0.2,0.9-0.5,1.4-0.7c-2.4,0.7-4.8,1.4-7.2,2.1c2.4-0.4,4.7,0.7,7.1,0.7c1.6,0,3-0.3,4.5-0.7
		c1.4-0.4,2.9-0.7,4.3-1.3c0.8-0.4,1.9-1.6,2.4-1.8c-2.1,0.5-4.3,1-6.4,1.5c3.7,0.4,6.2,3.1,10.1,2.6c3.3-0.4,6.7-1.5,9.7-3.1
		c0.3-0.2-2.8,0.2-3.2,0.3C545.9,544.3,544.1,544.7,542.4,545.6L542.4,545.6z"/>
	<path d="M553.4,406.1c-7.7-2.5-13.5-4.3-21.5-2.1c-3.7,1-7.6,3.4-11.4,3.3c-4.3,0-8.5-1.4-12.7-2.5c-3.5-0.9-7-1.6-10.6-1.4
		c-2.6,0.2-5.1,0.7-7.6,0.2c-1.4-0.3-2.7-0.9-4-1.1c-4-0.7-11.9,0.6-13.3,4.9c0.4-1,8-0.3,8.7-2.3c0.8-1,0.5-1.5-0.6-1.4
		c-1.8,0.4-3.6,0.8-5.4,1.2c2.4-0.1,4.5,1,6.9,1.4c3.5,0.6,7-0.5,10.5-0.3c6.6,0.4,12.7,3.5,19.3,3.8c5.3,0.3,10.5-1,15.5-2.7
		c3.6-1.3,4.7-2.3,8.1-1.6c3.4,0.7,6.7,2,10.1,3.1c1.4,0.4,4.1-0.8,5.4-1.2C551,407.3,553.7,406.2,553.4,406.1L553.4,406.1z"/>
	<path d="M557.8,418.2c-5-0.3-10,0.1-15-0.5c-5.4-0.6-10.5,0.3-15.8,0.2c-3.8-0.1-7.3,0.2-10.9,1.2c-3.3,0.9-5.4,2.3-8.3,3.9
		c2.4-0.7,4.8-1.4,7.2-2.1c-6.3,1.2-12.4-3.5-18.9-2.5c-2.3,0.3-4.9,0.9-7.1,1.9c-1,0.4-1.7,0.8-2.6,1.5c-0.8,0.6-4.2,3.1-1.2,2.1
		c1.8-0.4,3.6-0.8,5.4-1.2c-2.8-0.4-5.1-3.5-7.7-4.7c-1.1-0.5-3.4,0.5-4.5,0.8c-0.6,0.2-3.9,1.7-4.2,1.6c3.2,1.4,5.5,4.9,9.2,4.7
		c2.1-0.1,5-1,6.9-1.9c0.7-0.3,1.2-0.6,1.9-1c1.5-1.1,4.4-2.8,0.4-2c-4.5,1,0.2,0.7,1.8,1.1c1.4,0.3,2.7,0.7,4.1,1.1
		c2.8,0.8,5.5,1.4,8.4,1.1c4.9-0.5,8.5-2.4,12.7-4.7c-1.4,0.5-2.7,0.9-4.1,1.4c1.9-0.5,5.3,0.4,7.5,0.2c3.1-0.2,6-0.7,9.1-0.4
		c5.8,0.5,11.5,0.4,17.3,0.8C552,420.8,556.2,418.1,557.8,418.2L557.8,418.2z"/>
	<path d="M561.5,466.6c-7.7-2.5-13.4-4.2-21.3-2c-3.7,1-7.5,3.3-11.3,3.3c-4.3-0.1-8.4-1.4-12.6-2.4c-3.5-0.9-6.9-1.6-10.5-1.4
		c-2.6,0.2-5,0.7-7.6,0.2c-1.4-0.3-2.6-0.9-4-1.1c-3.9-0.7-11.8,0.6-13.3,4.9c0.4-1,8-0.3,8.7-2.3c0.8-1,0.5-1.5-0.7-1.4
		c-1.8,0.4-3.6,0.8-5.4,1.2c2.4-0.1,4.5,1,6.8,1.4c3.5,0.6,6.9-0.5,10.4-0.3c6.5,0.4,12.5,3.4,19.1,3.8c5.3,0.3,10.5-1,15.4-2.7
		c3.7-1.3,4.6-2.3,8-1.6c3.4,0.7,6.7,2,10,3c1.4,0.4,4.1-0.8,5.4-1.2C559.1,467.7,561.9,466.7,561.5,466.6L561.5,466.6z"/>
	<path d="M565.9,478.6c-5-0.3-9.9,0.1-14.9-0.5c-5.3-0.6-10.4,0.3-15.7,0.2c-3.8-0.1-7.2,0.2-10.9,1.2c-3.3,0.9-5.4,2.3-8.3,3.8
		c2.4-0.7,4.8-1.4,7.2-2.1c-6.3,1.2-12.2-3.4-18.7-2.5c-2.3,0.3-4.9,0.9-7,1.9c-1,0.4-1.7,0.8-2.5,1.5c-0.8,0.6-4.2,3-1.1,2.1
		c1.8-0.4,3.6-0.8,5.4-1.2c-2.8-0.4-5.1-3.5-7.6-4.6c-1.1-0.5-3.4,0.5-4.5,0.8c-0.6,0.2-3.9,1.7-4.2,1.6c3.2,1.4,5.4,4.8,9.1,4.6
		c2.1-0.1,5-1,6.9-1.9c0.7-0.3,1.2-0.6,1.9-1c1.5-1.1,4.3-2.8,0.4-1.9c-4.5,1,0.1,0.7,1.7,1.1c1.4,0.3,2.7,0.7,4,1.1
		c2.7,0.8,5.5,1.4,8.3,1.1c4.9-0.5,8.5-2.4,12.7-4.7c-1.4,0.5-2.7,0.9-4.1,1.4c1.9-0.5,5.2,0.4,7.4,0.3c3-0.2,6-0.7,9-0.4
		c5.7,0.5,11.4,0.4,17.1,0.8C560.1,481.2,564.3,478.5,565.9,478.6L565.9,478.6z"/>
	<path d="M311.5,414.1c-7.7-2.5-13.5-4.3-21.5-2.1c-3.7,1-7.6,3.4-11.4,3.3c-4.3,0-8.5-1.4-12.7-2.5c-3.5-0.9-7-1.6-10.6-1.4
		c-2.6,0.2-5.1,0.7-7.6,0.2c-1.4-0.3-2.7-0.9-4-1.1c-4-0.7-11.9,0.6-13.3,4.9c0.4-1,8-0.3,8.7-2.3c0.8-1,0.5-1.5-0.6-1.4
		c-1.8,0.4-3.6,0.8-5.4,1.2c2.4-0.1,4.5,1,6.9,1.4c3.5,0.6,7-0.5,10.5-0.3c6.6,0.4,12.7,3.5,19.3,3.8c5.3,0.3,10.5-1,15.5-2.7
		c3.6-1.3,4.7-2.3,8.1-1.6c3.4,0.7,6.7,2,10.1,3.1c1.4,0.4,4.1-0.8,5.4-1.2C309.1,415.3,311.9,414.3,311.5,414.1L311.5,414.1z"/>
	<path d="M315.8,530.2c-7.7-2.5-13.5-4.3-21.5-2.1c-3.7,1-7.6,3.4-11.4,3.3c-4.3,0-8.5-1.4-12.7-2.5c-3.5-0.9-7-1.6-10.6-1.4
		c-2.6,0.2-5.1,0.7-7.6,0.2c-1.4-0.3-2.7-0.9-4-1.1c-4-0.7-11.9,0.6-13.3,4.9c0.4-1,8-0.3,8.7-2.3c0.8-1,0.5-1.5-0.6-1.4
		c-1.8,0.4-3.6,0.8-5.4,1.2c2.4-0.1,4.5,1,6.9,1.4c3.5,0.6,7-0.5,10.5-0.3c6.6,0.4,12.7,3.5,19.3,3.8c5.3,0.3,10.5-1,15.5-2.7
		c3.6-1.3,4.7-2.3,8.1-1.6c3.4,0.7,6.7,2,10.1,3.1c1.4,0.4,4.1-0.8,5.4-1.2C313.4,531.3,316.2,530.3,315.8,530.2L315.8,530.2z"/>
	<path d="M320.2,542.3c-5-0.3-10,0.1-15-0.5c-5.4-0.6-10.5,0.3-15.8,0.2c-3.8-0.1-7.3,0.2-10.9,1.2c-3.3,0.9-5.4,2.3-8.3,3.9
		c2.4-0.7,4.8-1.4,7.2-2.1c-6.3,1.2-12.4-3.5-18.9-2.5c-2.3,0.3-4.9,0.9-7.1,1.9c-1,0.4-1.7,0.8-2.6,1.5c-0.8,0.6-4.2,3.1-1.2,2.1
		c1.8-0.4,3.6-0.8,5.4-1.2c-2.8-0.4-5.1-3.5-7.7-4.7c-1.1-0.5-3.4,0.5-4.5,0.8c-0.6,0.2-3.9,1.7-4.2,1.6c3.2,1.4,5.5,4.9,9.2,4.7
		c2.1-0.1,5-1,6.9-1.9c0.7-0.3,1.2-0.6,1.9-1c1.5-1.1,4.4-2.8,0.4-2c-4.5,1,0.2,0.7,1.8,1.1c1.4,0.3,2.7,0.7,4.1,1.1
		c2.8,0.8,5.5,1.4,8.4,1.1c4.9-0.5,8.5-2.4,12.7-4.7c-1.4,0.5-2.7,0.9-4.1,1.4c1.9-0.5,5.3,0.4,7.5,0.2c3.1-0.2,6-0.7,9.1-0.4
		c5.8,0.5,11.5,0.4,17.3,0.8C314.5,544.9,318.7,542.2,320.2,542.3L320.2,542.3z"/>
	<g>
		<path d="M377.5,585.9c0,3.1-2.5,5.7-5.7,5.7h-86.7c-3.1,0-5.7-2.5-5.7-5.7l0,0c0-3.1,2.5-5.7,5.7-5.7h86.7
			C374.9,580.2,377.5,582.8,377.5,585.9L377.5,585.9z"/>
		<path d="M483.5,585.9c0,3.1-2.5,5.7-5.7,5.7h-86.7c-3.1,0-5.7-2.5-5.7-5.7l0,0c0-3.1,2.5-5.7,5.7-5.7h86.7
			C480.9,580.2,483.5,582.8,483.5,585.9L483.5,585.9z"/>
	</g>
	<path d="M514.6,599.5h-246v-27.3h246V599.5z M270.6,597.5h242v-23.3h-242V597.5z"/>
	<path d="M426.5,363.5c-5.5-0.3-9.2-1.5-14.6,0c-0.8,0.2-4.6,2.2-5.2,1.9c0.8-0.3,1.7-0.6,2.5-0.9c-1.1,0-2.2-0.2-3.3-0.4
		c-2.1-0.4-4.1-1-6.1-1.7c-1.2-0.4-8.3,1.1-8.7,2.3c-0.1,0.7-0.4,1.3-0.7,1.8c-1.1,1.8,0.3,1.6,4.3-0.4c-0.2-0.4-2.7-0.9-3.2-1.1
		c-1.9-0.8-3.7-1.9-5.7-2.5c-5-1.5-10.3-0.1-15.3-0.2c-5.3-0.1-9.9-0.2-15.1,1.1c-2,0.5-3.9,1.1-5.8,1.8c-1.1,0.5-2.2,1-3.3,1.5
		c-0.1,0.1-0.3,0.1-0.4,0.2c-2.9,1.5-2.7,1.4,0.4-0.1c-2.6-0.2-6.8,2.6-8.3,2.5c4.9,0.4,10.3-1.4,14.7-3.5c3.7-1.8,7.1-1,11.2-1
		c3.7,0,7.4-0.9,11.1-0.4c4.9,0.7,8.9,4.7,13.9,4.1c4.4-0.5,9.4-1.6,10.8-6.1c-2.9,0.8-5.8,1.6-8.7,2.3c5.1,1.8,10.1,2.7,15.5,1.6
		c2.1-0.5,4.2-1.1,6.3-1.9c3.7-1.4-2.9-0.8-0.7,0.5c1.4,0.9,4.3,0.8,6,0.9C420.8,366.1,425,363.4,426.5,363.5L426.5,363.5z"/>
	<g>
		<rect x="493" y="583.6" width="6.3" height="4.6"/>
		<polyline points="497.8,580.3 506.8,585.9 497.8,591.5 		"/>
	</g>
	<path d="M309.9,454.3c12.2,2.3,25.4,6.5,36.1-2.2c7.7-6.3,4-15.6,8.6-23.5c1-1.7-1.6-3.2-2.6-1.5c-1.8,3-2.9,6.2-3.2,9.7
		c-0.3,3.4,0.1,7-1.8,10c-7.9,12.2-24.9,6.8-36.3,4.6C308.8,451,308,453.9,309.9,454.3L309.9,454.3z"/>
	<path d="M342.1,533.1c9-4.9,18.7-7.8,28.6-9.8c-0.6-0.3-1.2-0.7-1.8-1c0.6,3.6,1.7,11,6.9,10c4.4-0.8,7.7-6.3,10.5-9.4
		c2.1-2.3,3.6-3.9,7-3.7c4.1,0.2,6.7,2.7,8.2,6.3c2.5,6.3,1.8,13.6,2.4,20.3c0.2,1.9,3.2,1.9,3,0c-0.8-9.6,1-27.4-12-29.5
		c-5.8-0.9-8.5,1.9-12.1,6c-1.8,2-3.6,4.6-5.9,6.1c-4.1,2.7-4.7-4.1-5.1-7c-0.1-0.8-1.1-1.2-1.8-1c-10.2,2.1-20.1,5.2-29.4,10.2
		C338.9,531.4,340.4,534,342.1,533.1L342.1,533.1z"/>
	<path d="M455.2,419.7c-5,5.8-11.2,8.6-18.7,9.7c-4.5,0.6-8.9,0.2-12.6,3.1c-1.5,1.1-2.7,3-4.3,3.8c-3,1.5-7.2-0.9-9.1-3.4
		c-3.3-4.6-2.5-11.1-5.9-15.8c-1.1-1.6-3.7-0.1-2.6,1.5c3.7,5.2,2.5,13.2,7.4,17.7c3.5,3.2,8.5,5,12.6,2c1.8-1.4,3.2-3.4,5.2-4.4
		c3.1-1.5,7.4-1.1,10.7-1.6c7.7-1.2,14.3-4.3,19.4-10.3C458.6,420.4,456.5,418.3,455.2,419.7L455.2,419.7z"/>
	<path d="M341.8,452.8c-0.7,6.2-0.7,14.8,6.2,17.6c5.9,2.4,13-0.4,18.5-2.5c3.8-1.5,6.7-2.6,10.8-2c2.3,0.3,4.3,0.5,6.2-1.1
		c9.1-7.1-0.1-16.9,2.2-25.6c0.5-1.9-2.4-2.7-2.9-0.8c-1.9,7.4,4.8,16.1,0.2,22.5c-2.1,2.9-4.1,2-7.2,1.8c-2.8-0.3-5,0.3-7.6,1.4
		c-4.9,1.9-10.2,4.3-15.5,4.2c-8.5-0.1-8.6-8.9-7.9-15.5C345,450.9,342,450.9,341.8,452.8L341.8,452.8z"/>
	<path d="M316.7,501.3c6.9-2.4,14.5-4.7,20-9.7c5.7-5.2,8.8-13,11.9-19.9c0.8-1.7-1.8-3.3-2.6-1.5c-2.9,6.4-5.7,13.8-10.9,18.8
		c-5.2,5-12.6,7.2-19.2,9.5C314.1,499,314.9,501.9,316.7,501.3L316.7,501.3z"/>
	<path d="M367.8,523.4c-1.5-7.1-4-15-7.7-21.3c-4.4-7.5-14-9.1-19.7-15.3c-1.3-1.4-3.4,0.7-2.1,2.1c5.4,6,14.9,7.7,19.2,14.7
		c3.7,6,6,13.8,7.4,20.6C365.3,526.1,368.2,525.3,367.8,523.4L367.8,523.4z"/>
	<path d="M383.6,464.1c10.4,6,23.3,13.4,34.2,4.3c9.8-8.2,6.5-20.3-0.1-29.4c-1.1-1.5-3.7-0.1-2.6,1.5c5.9,8.1,9.5,18.9,0.1,26.1
		c-9.6,7.3-21.2,0-30-5.1C383.4,460.5,381.9,463.1,383.6,464.1L383.6,464.1z"/>
	<path d="M465,440.1c-5.7,9.1-5.1,21.5-12,29.9c-7.2,8.8-25.6,2.3-32.7-4.2c-1.4-1.3-3.5,0.8-2.1,2.1c4.4,4.1,10.7,6.4,16.4,7.9
		c5.4,1.4,12.2,2.6,17.2-0.7c10.8-7.2,9.4-23.4,15.8-33.5C468.6,439.9,466,438.4,465,440.1L465,440.1z"/>
	<path d="M369.6,523.6c3-6.1,6-14.6,11.9-18.5c5-3.4,11.7-2.3,16.6-6c8.1-6.1,7.9-16.2,8.7-25.3c0.2-1.9-2.8-1.9-3,0
		c-0.5,5-0.3,10.3-2,15c-2.4,6.9-7.7,9.4-14.3,10.8c-11.6,2.6-15.7,12.6-20.5,22.4C366.2,523.8,368.7,525.3,369.6,523.6L369.6,523.6
		z"/>
	<path d="M433.8,475.8c0.5,9-1.8,17-5.4,25.1c-0.6,1.4-1.3,4.1-2.3,5.2c-1.1,1.1-2.1,0.9-3.3,1.4c-1.6,0.7-2.7,1.7-3.3,3.3
		c-1.9,4.4,1.3,5.9,4.3,7.9c1.9,1.3,2,3.8,2.6,6.1c1.1,4.4,0.9,8.2-0.4,12.6c-0.6,1.9,2.3,2.6,2.9,0.8c1.9-6.3,1-11.2-0.5-17.5
		c-0.5-2-0.4-3.1-2.1-4.3c-0.8-0.5-2.2-0.5-2.8-1.1c-4.3-4.5,0.1-4.8,2-5.4c4.5-1.5,5.6-7.1,7.2-11.2c3.1-7.4,4.7-14.9,4.3-22.9
		C436.7,473.9,433.7,473.9,433.8,475.8L433.8,475.8z"/>
	<path d="M462.3,499.3c-7.6,0.1-23,3.8-27.7-4.3c-1-1.7-3.6-0.2-2.6,1.5c5.6,9.6,21.3,5.8,30.3,5.7
		C464.2,502.3,464.2,499.3,462.3,499.3L462.3,499.3z"/>
</g>
</svg>
