<?xml version="1.0" encoding="utf-8"?>
<!-- Generator: Adobe Illustrator 18.1.1, SVG Export Plug-In . SVG Version: 6.00 Build 0)  -->
<svg version="1.1" id="Layer_1" xmlns="http://www.w3.org/2000/svg" xmlns:xlink="http://www.w3.org/1999/xlink" x="0px" y="0px"
	 viewBox="0 0 791.4 920" enable-background="new 0 0 791.4 920" xml:space="preserve">
<g>
	<g>
		<polygon fill="#F1EA3A" points="779.3,676.9 403.7,893.7 28.1,676.9 28.1,243.2 403.7,26.3 779.3,243.2 		"/>
	</g>
	<g>
		<path d="M395.7,916.3L0.5,688.2V231.9L395.7,3.7l395.2,228.2v456.3L395.7,916.3z M39.7,665.6l356.1,205.5l356.1-205.5V254.5
			L395.7,48.9L39.7,254.5V665.6z"/>
	</g>
</g>
<g>
	<path d="M393.7,651.8c100.5,0,147.3-59.7,147.3-59.7V397L393.2,246.1L243.7,397v198.5C243.7,595.5,300.7,651.8,393.7,651.8z"/>
	<g>
		<polygon fill="#FFFFFF" points="394.3,304.8 259.2,439.9 239.4,420.1 394.3,265.2 552.3,423.1 532.5,442.9 394.3,304.8 		"/>
		<polygon fill="#FFFFFF" points="394.3,372.2 259,507.6 239.2,487.8 394.3,332.6 550.6,488.9 530.8,508.7 394.3,372.2 		"/>
		<polygon fill="#FFFFFF" points="394.3,482.9 412.6,519.9 453.4,525.8 423.9,554.6 430.9,595.3 394.3,576.1 357.8,595.3 
			364.8,554.6 335.2,525.8 376.1,519.9 		"/>
		<path fill="#FFFFFF" d="M315,624.8c-23.7-8.8-43.1-21-55.7-36.4l0,0c-8.4-10.3-13.8-22.5-13.8-35.6l0,0h27.1
			c0,5.5,2.2,11.7,7.7,18.5l0,0c5.4,6.7,14.1,13.7,25.4,19.7l0,0c22.5,12.2,55.2,20.6,91.9,20.6l0,0c27.4,0,51.5-5.1,70.6-13.2l0,0
			c19.1-8,33.1-18.9,40.6-29.5l0,0c5-7.1,7.2-13.8,7.2-19.7l0,0h27.2c0,12.7-4.6,24.8-12.2,35.5l0,0c-7.6,10.7-18.2,20.1-31.1,28.1
			l0,0c-25.8,15.9-61.1,26-102.2,26l0,0C367,638.7,338.8,633.5,315,624.8L315,624.8z"/>
		<polygon fill="#FFFFFF" points="237.6,556.8 394.3,400.1 550.3,556.1 530.5,575.9 394.3,439.7 257.4,576.6 237.6,556.8 		"/>
	</g>
	<path d="M395.1,664.3v-12.5v-12.5c46.2,0,79.9-13.2,102.6-26.7l0,0c16.9-10,27.5-20.3,32.2-25.2l0,0V402.1L394.5,263.9L257.6,402.1
		v187.8c1.4,1.2,3.3,2.8,5.5,4.5l0,0c6.3,4.9,15.8,11.6,28.1,18.3l0,0c24.5,13.3,60,26.6,103.9,26.6l0,0v12.5V664.3
		c-49.1,0-88.6-14.9-115.8-29.7l0,0c-27.3-14.8-42.3-29.7-42.9-30.3l0,0l-3.7-3.7V391.8l162-163.5l160.2,163.6v204.6l-2.7,3.4
		c-0.7,0.8-13.3,16.8-39.3,32.8l0,0c-25.9,15.9-65.1,31.7-117.8,31.7l0,0C395.2,664.3,395.1,664.3,395.1,664.3L395.1,664.3z"/>
</g>
</svg>
