<?xml version="1.0" encoding="utf-8"?>
<!-- Generator: Adobe Illustrator 18.1.1, SVG Export Plug-In . SVG Version: 6.00 Build 0)  -->
<svg version="1.1" xmlns="http://www.w3.org/2000/svg" xmlns:xlink="http://www.w3.org/1999/xlink" x="0px" y="0px"
	 viewBox="0 0 791.4 921.4" enable-background="new 0 0 791.4 921.4" xml:space="preserve">
<g id="Guides_For_Artboard">
</g>
<g id="Layer_1">
	<g>
		<g>
			<polygon fill="#EE8E32" points="771.3,678.4 395.7,895.2 20.1,678.4 20.1,244.6 395.7,27.8 771.3,244.6 			"/>
		</g>
		<g>
			<path d="M395.7,917.7L0.5,689.7V233.3L395.7,5.2l395.2,228.2v456.3L395.7,917.7z M39.7,667.1l356.1,205.5l356.1-205.5V255.9
				L395.7,50.4L39.7,255.9V667.1z"/>
		</g>
	</g>
	<g>
		<path d="M558.6,667.4c0,6.9-5.6,12.5-12.5,12.5H252.4c-6.9,0-12.5-5.6-12.5-12.5V286.3c0-6.9,5.6-12.5,12.5-12.5h293.7
			c6.9,0,12.5,5.6,12.5,12.5V667.4z"/>
		<g>
			
				<rect x="260.6" y="296.1" transform="matrix(1 -3.066571e-003 3.066571e-003 1 -1.4476 1.2266)" fill="#FFFFFF" width="277.4" height="353"/>
			<path d="M501.6,396.1c2.2,0.1,2.4,0,0.6-0.3c-0.8-0.2-1.6-0.5-2.4-0.7c-1.6-0.5-3.1-1.2-4.7-1.6c-3-0.8-6.3-0.9-9.4-1.3
				c-5.6-0.8-11.3-3.1-17-3c-4.3,0-9.1,0.2-12.4,3.3c-1.5,1-1.8,1.3-0.7,0.8c-1.2-0.1-2.3-0.2-3.5-0.4c-1.4-0.2-2.7-0.5-4-0.7
				c-3.2-0.6-6.4-1.3-9.7-1.6c-4.5-0.5-9.4-0.4-13.9,0.7c-0.4,0.1-4.4,1.2-4.3,1.6c2.9,0,2.9-0.1-0.1-0.4c-0.9-0.1-1.9-0.3-2.8-0.4
				c-1.1-0.1-2.1-0.3-3.2-0.3c-3.7-0.2-7.9-0.1-11.5,0.9c-3.6,1-6.9,3.4-10.4,4.8c-0.3,0.1,2.5,0.2,2.8,0.2c1.5-0.1,3.4-0.1,4.8-0.7
				c2.3-0.9,4.4-1.9,6.5-3c0.6-0.3,1.3-0.6,1.9-1c0.3-0.2,0.7-0.3,1-0.4c-2.5,0.1-3.2,0.2-1.9,0.2c0.5,0.6,4.3,0.5,5.2,0.6
				c1.4,0.2,2.8,0.4,4.2,0.4c2.1,0.1,4.2-0.1,6.3-0.4c1.6-0.2,3.3-0.5,4.8-1.1c2.4-0.9,3.1-0.9,6-0.5c5.7,0.9,11.3,2.5,17,2.6
				c3.8,0.1,9.3,0.4,12.6-1.8c1.3-0.9,1.9-2.1,3.6-2.6c-2.4,0.6-0.2,0.8,1.1,1.1c3.4,0.9,6.7,1.5,10.2,2c3.1,0.4,6.3,0.6,9.4,1.3
				c2.8,0.7,5.4,2.1,8.3,2.6c4.2,0.7,9.4,0.3,13.3-1.3c0.3-0.1-2.5-0.2-2.8-0.2C504.9,395.5,503,395.5,501.6,396.1L501.6,396.1z"/>
			<path d="M505.1,451.8c-8,1.6-17.1-2-25.2-2.8c-2.9-0.3-5.9-0.3-8.8-0.1c-3.6,0.2-7.8,1.4-11.2,0.2c-2.3-0.8-4.2-2.4-6.6-2.7
				c-2.3-0.3-4.8,0-7.1,0.4c-1.6,0.3-5.7,1.7-4.9,3.5c0.8,1.7,4.4,1.5,5.7,1.5c0.6,0,6.7-0.3,6.7-0.9c-0.7-6.5-8.8-4.9-13.4-4.3
				c-6.3,0.9-13.5,3-19.4,5.6c-1.8,0.8,4.6,0.4,2.5-0.2c-0.7-0.2-1.5-0.2-2.2-0.2c-1.7-0.2-3.5-0.5-5.2-0.8
				c-3.9-0.6-7.9-1.2-11.8-1.7c-6.4-0.8-13.5-1.4-19.8,0.4c-1.5,0.4,1.3,0.4,1.5,0.4c1.7,0,3.7-0.1,5.4-0.6c-1.5,0.4-2.1,0-0.1,0.3
				c0.8,0.1,1.6,0.1,2.3,0.2c1.7,0.2,3.5,0.4,5.2,0.6c3.1,0.4,6.2,0.9,9.3,1.4c4.6,0.7,9.1,1.5,13.7,1.1c5-0.4,9.5-1.9,14.2-3.5
				c1.4-0.5,2.8-1,4.2-1.4c0.8-0.2,1.7-0.4,2.4-0.7c1.6-0.7,0,0.2-0.7-0.2c2.3,1.4,3.7,1.2,4,4.5c2.2-0.3,4.5-0.6,6.7-0.9
				c-1.2,0.1-2.1-0.2-2.9-0.9c-1.1-0.4-1.1-0.9,0-1.6c2.8-1.8,1.9-2-2.6-0.7c0.6,0.2,1.2,0.4,1.7,0.7c2,0.9,3.8,2.1,6,2.5
				c5.7,0.9,11.5-1.2,17.2-0.8c6.9,0.5,13.7,2.4,20.6,3c6.1,0.5,12.2,0.1,18.2-1.1c1.5-0.3,1.1-0.3,0-0.5
				C509,451,506.7,451.4,505.1,451.8L505.1,451.8z"/>
			<path d="M512.2,473.9c-4-0.2-7.7-1.8-11.7-1.9c-2.3-0.1-4.7,0.1-7,0.5c-2.2,0.4-4,1.8-6.1,2.2c-3.6,0.7-9-1.8-12.3-3.1
				c-0.8-0.3-7.4-0.1-7.7,0.8c-0.5,1.6-1.5,2.7-2.2,4.1c-0.5,1-3.4,1,1,0.6c4-0.4,1.8,0,0.9-0.5c-2.2-1.2-4.6-2.1-6.8-3.2
				c-5.9-3-11.7-3.3-18.2-2.8c-7.9,0.6-15.7-0.8-23.6-0.1c-3.1,0.3-6.3,0.7-9.3,1.7c-1.7,0.6-3.3,1.3-4.8,2
				c-0.9,0.4-1.8,0.9-2.7,1.3c-0.3,0.1-2.1,0.7-1.3,0.8c-1.6-0.2-3.3,0-4.9,0.2c-0.6,0.1-2.8,0.7-2.7,0.7c7.5,1.1,13.6-1,20.2-4.1
				c5.5-2.5,10.7-1.6,16.6-1.4c4.5,0.2,9-0.6,13.5-0.4c7,0.4,11.9,5.8,18.6,6.5c5.7,0.6,11.6-0.1,13.4-6.1c-2.6,0.3-5.1,0.5-7.7,0.8
				c7.2,2.8,14.2,3.9,21.9,3c2.5-0.3,5.2-0.7,7.3-2.1c1.5-1,0.2,0.2-0.6-0.2c0.8,0.4,2,0.5,2.9,0.7c2.2,0.5,4.2,0.9,6.4,1
				c1.8,0.1,3.6-0.1,5.4-0.4C511.2,474.4,513.7,473.9,512.2,473.9L512.2,473.9z"/>
			<path d="M495.3,500.7c-3.7,3.7-7.6,2.6-12.4,2.2c-5.9-0.4-11.7-0.9-17.6-1.4c-4.9-0.4-9.9-1.3-14.8-1.4c-1.7,0-3.4,0.1-5,0.3
				c-1.4,0.2-6.2,0.7-0.6,0.6c0.7,0,1.3,0.1,2,0.1c-1.8-1.1-3.2-3.2-5.3-3.7c-1.8-0.5-4.2,0-6,0.1c-2.2,0.2-4.3,0.6-6.3,1.7
				c-1,0.6-2.3,1.4-3.2,2.2c-1.8,0.8-1.1,1,2.2,0.5c-0.5-0.1-0.9-0.3-1.4-0.5c-3.9-2.2-8.6-2.7-12.9-2.8c-2.2,0-4.4,0-6.7,0.3
				c-2.4,0.2-5.2,1.4-7.5,0.7c-1.4-0.4-3.4,0-4.9,0.2c-0.5,0.1-2.9,0.6-2.7,0.7c4.3,1.2,10,0.4,14.3-0.6c2.3-0.5-0.6-0.3,1.9-0.2
				c1.3,0,2.5,0.1,3.8,0.3c2.4,0.4,4.4,1.3,6.6,2.2c3.8,1.5,8.8,1.1,12.6-0.2c1.8-0.6,3.9-1.9,5.3-3.2c1.6-0.8,1-0.8-1.6,0.1
				c0.5,0.4,1.1,0.8,1.6,1.3c0.7,0.6,1.4,1.4,2.3,1.7c1.7,0.6,4.3,0,6-0.2c0.8-0.1,1.6-0.2,2.3-0.4c4-0.9-4.1-1,0.5,0.1
				c7.7,1.7,16.2,1.5,24,2.1c9,0.7,24,3.7,31.2-3.6c-0.2,0.2-3.5,0-4,0C498.2,500,496,499.9,495.3,500.7L495.3,500.7z"/>
			<path d="M502.4,556c-1.8,0.8-1.7,0.9,0.2,0.5c1.8,0,1.9-0.2,0.4-0.6c-0.9-0.6-2.2-1-3.2-1.6c-1.7-0.9-3.3-1.6-5.1-1.8
				c-2.9-0.3-7.1-0.1-9.7,1.4c-0.2,0.1-1.7,1.2-1.7,1.3c0.1,0.2,3.7,0.3,0.1-0.4c-1.7-0.4-3.4-0.7-5.2-0.8c-3.6-0.1-7.9,0.2-11.1,2
				c2.6-0.2,5.1-0.4,7.7-0.6c-2.9-2.4-5.8-2.2-9.4-1.7c-1.3,0.2-2.6,0.4-3.8,0.8c-0.7,0.3-1.6,0.7-2.2,1.2c-1.3,0.9-1.4,0.6,0.3,0.7
				c-4.8-0.2-9.8-3.1-14.5-4.1c-3.7-0.8-7.4-0.9-11.1-0.5c-1.9,0.2-3.7,0.4-5.6,0.7c-0.6,0.1-2.7,0.4-3.2,0.6
				c3.2-0.1,3.8-0.2,2.1-0.2c-0.6,0-1.3,0-1.9-0.1c-1.8,0-3.7,0-5.5,0.1c1.4-0.1,1.5-0.1,0,0c-1,0.1-2,0.1-3,0.3
				c-1.6,0.2-3.8,0.2-5.2,0.9c2.3-0.1,2.3-0.5,0.2-1.3c-0.2-0.2-0.5-0.4-0.7-0.6c-0.7-0.6-1.3-1.3-1.9-1.9c-2.5-2.7-4.5-3.8-8.2-3.8
				c-1.7,0-4-0.1-5.6,0.5c-1,0.4-1.6,0.5,0,0.5c4.1,0.1,5.6,4,8.5,6.1c2.5,1.8,5,1.6,8,1.3c1.8-0.2,3.6-0.4,5.3-0.7
				c0.9-0.2,4.1-0.4,0.5-0.3c-3.5,0.1-0.6,0.1,0.2,0.1c3.6-0.1-3.4-0.2,1.7,0c0.8,0,1.5,0.1,2.3,0.1c1.7,0,3.5-0.1,5.2-0.2
				c1.6-0.2,3.2-0.6,4.8-0.8c3.2-0.5,6,0.4,9,1.2c4,1.2,8,2.9,12.2,3.4c3.1,0.3,6.6,0,9.7-0.6c1.3-0.3,2.5-0.7,3.7-1.3
				c0.1,0,2.2-1.3,2.3-1.3c-1.5,0.1-3,0.2-4.5,0.2c1,0.4,1.9,0.9,2.7,1.7c1.1,0.9,6.6,0,7.7-0.6c1.7-0.8,1.5-0.9-0.7-0.2
				c0.4,0.1,0.8,0.2,1.2,0.3c1.1,0.4,2.5,0.6,3.7,0.7c1.8,0.2,3.5,0.2,5.3,0.1c1.6-0.1,3.6-0.1,5.1-0.7c1.8-0.7,2.8-2.4,4.8-2.8
				c-2.3,0.2-4.5,0.4-6.8,0.6c4.4,0.5,7.6,4,12.1,4c3.5,0.1,7.4-0.3,10.5-2c0.4-0.2-2.5-0.2-2.8-0.2
				C505.8,555.4,503.7,555.4,502.4,556L502.4,556z"/>
			<path d="M513.8,580.3c-11.1-3.8-21.2-7.9-33.1-5.5c-6.2,1.3-11.6,5-17.8,6.1c-7.6,1.4-15.9-1.7-23.1-3.7
				c-5.6-1.6-11.4-3.2-17.3-3.3c-5.9-0.1-11.4,1.3-17.2-0.6c-5.8-1.9-17.5-4.2-19.9,3.5c0.1-0.4,7.4,0.7,7.9-0.7
				c0.3-0.9,0.6-1.9,1.2-2.7c0.4-0.6,1-1,1.7-1.3c-1.2,0.2-2.5,0.3-3.7,0.5c0,0,5,1.4,5.3,1.5c3.9,1.2,7.7,1.6,11.8,1.3
				c2.8-0.1,5.6-0.7,8.3-0.6c3.2,0.1,6.5,1,9.5,1.7c5.9,1.5,11.6,3.5,17.6,4.6c9.3,1.7,19.6,1.3,28.5-1.9c2.7-0.9,5.2-2.1,7.9-3.1
				c3.6-1.3,4.7-1.5,8.4-0.6c5.6,1.3,11,3.5,16.4,5.4c1.4,0.5,3.5,0,4.9-0.2C511.6,580.9,514,580.4,513.8,580.3L513.8,580.3z"/>
			<path d="M520.2,600.5c-8.2-0.8-16.3-0.1-24.5-1.3c-6.1-0.9-12.1-1-18.3-0.5c-6.4,0.5-12.7-0.3-19.1,0.2c-2.5,0.2-5.3,0.4-7.7,1.1
				c-2.2,0.7-4,3-6.1,3.4c-2.4,0.5-6.6-1.5-8.9-2.2c-3.2-1-6.4-2.1-9.8-2.6c-4.3-0.7-9.7-0.8-13.9,0.5c-2.2,0.7-3.7,2.2-5.4,3.7
				c-0.8,0.8-2.2,1.6-2.9,2.5c-2.3,1.2-0.8,1.3,4.6,0c-0.6-0.2-1.1-0.5-1.6-0.8c-3.6-2.1-6.6-5.6-10.5-7.2c-1.3-0.5-3.5,0-4.9,0.2
				c-0.5,0.1-3,0.6-2.7,0.7c4,1.6,7,5.4,10.8,7.4c2.8,1.5,7,1,9.9,0c2-0.7,3.4-2.2,5-3.6c0.9-0.9,2.2-1.7,3-2.6
				c1.4-0.7,1.1-0.8-1.1-0.3c1,0.1,2.1,0.3,3.1,0.5c6.2,1.3,12.1,4.1,18.5,4.7c4.1,0.4,9.4,0.4,13.4-1c2.2-0.8,3.6-2.9,5.8-3.6
				c3.4-1.1,8.2,0.2,11.7,0.2c3.2,0,6.4-0.6,9.7-0.7c4.5-0.2,8.7,0.7,13.1,1.2c7.2,0.8,14.5,0.2,21.7,0.9c1.7,0.2,3.7-0.1,5.4-0.4
				C519.2,601,521.7,600.6,520.2,600.5L520.2,600.5z"/>
			<path d="M505.6,350.7c-11.1-3.8-21.2-7.9-33.1-5.5c-6.2,1.3-11.6,5-17.8,6.1c-7.6,1.4-15.9-1.7-23.1-3.7
				c-5.6-1.6-11.4-3.2-17.3-3.3c-5.9-0.1-11.4,1.3-17.2-0.6c-5.8-1.9-17.5-4.2-19.9,3.5c0.1-0.4,7.4,0.7,7.9-0.7
				c0.3-0.9,0.6-1.9,1.2-2.7c0.4-0.6,1-1,1.7-1.3c-1.2,0.2-2.5,0.3-3.7,0.5c0,0,5,1.4,5.3,1.5c3.9,1.2,7.7,1.6,11.8,1.3
				c2.8-0.1,5.6-0.7,8.3-0.6c3.2,0.1,6.5,1,9.5,1.7c5.9,1.5,11.6,3.5,17.6,4.6c9.3,1.7,19.6,1.3,28.5-1.9c2.7-0.9,5.2-2.1,7.9-3.1
				c3.6-1.3,4.7-1.5,8.4-0.6c5.6,1.3,11,3.5,16.4,5.4c1.4,0.5,3.5,0,4.9-0.2C503.4,351.3,505.8,350.8,505.6,350.7L505.6,350.7z"/>
			<path d="M512.1,370.9c-8.2-0.8-16.3-0.1-24.5-1.3c-6.1-0.9-12.1-1-18.3-0.5c-6.4,0.5-12.7-0.3-19.1,0.2c-2.5,0.2-5.3,0.4-7.7,1.2
				c-2.2,0.7-4,3-6.1,3.4c-2.4,0.5-6.6-1.5-8.9-2.2c-3.2-1-6.4-2.1-9.8-2.6c-4.3-0.7-9.7-0.8-13.9,0.5c-2.2,0.7-3.7,2.2-5.4,3.7
				c-0.8,0.8-2.2,1.6-2.9,2.5c-2.3,1.2-0.8,1.3,4.6,0c-0.6-0.2-1.1-0.5-1.6-0.8c-3.6-2.1-6.6-5.6-10.5-7.2c-1.3-0.5-3.5,0-4.9,0.2
				c-0.5,0.1-3,0.6-2.7,0.7c4,1.6,7,5.4,10.8,7.4c2.8,1.5,7,1,9.9,0c2-0.7,3.4-2.2,5-3.6c0.9-0.9,2.2-1.7,3-2.6
				c1.4-0.7,1.1-0.8-1.1-0.3c1,0.1,2.1,0.3,3.1,0.5c6.2,1.3,12.1,4.1,18.5,4.7c4.1,0.4,9.4,0.4,13.4-1c2.2-0.8,3.6-2.9,5.8-3.6
				c3.4-1.1,8.2,0.2,11.7,0.2c3.2,0,6.4-0.6,9.7-0.7c4.5-0.2,8.7,0.7,13.1,1.2c7.2,0.8,14.5,0.2,21.7,0.9c1.7,0.2,3.7-0.1,5.4-0.4
				C511.1,371.4,513.5,371,512.1,370.9L512.1,370.9z"/>
			<path d="M293.3,400.8l0-64.3l64.3,0l0,64.3L293.3,400.8z M298.6,341.8l0,53.7l53.8,0l0-53.8L298.6,341.8z"/>
			<path d="M293,505.6l0-64.3l64.3,0l0,64.3L293,505.6z M298.3,446.6l0,53.7l53.7,0l0-53.7L298.3,446.6z"/>
			<path d="M292.7,610.4l0-64.3l64.3,0l0,64.3L292.7,610.4z M297.9,551.4l0,53.7l53.7,0l0-53.8L297.9,551.4z"/>
			
				<rect x="305.5" y="575.7" transform="matrix(-0.8271 0.5621 -0.5621 -0.8271 941.8346 868.6635)" fill="#EE8E32" width="63.7" height="7"/>
			
				<rect x="293.4" y="582.7" transform="matrix(0.5621 0.8271 -0.8271 0.5621 619.6017 2.1914)" fill="#EE8E32" width="28.7" height="7"/>
			
				<rect x="304.6" y="468.8" transform="matrix(-0.8271 0.5621 -0.5621 -0.8271 880.1324 673.8268)" fill="#EE8E32" width="63.7" height="7"/>
			
				<rect x="292.5" y="475.8" transform="matrix(0.5621 0.8271 -0.8271 0.5621 530.7758 -43.9109)" fill="#EE8E32" width="28.7" height="7"/>
			
				<rect x="303.4" y="365.4" transform="matrix(-0.8271 0.5621 -0.5621 -0.8271 819.9623 485.559)" fill="#EE8E32" width="63.7" height="7"/>
			
				<rect x="291.4" y="372.4" transform="matrix(0.5621 0.8271 -0.8271 0.5621 444.7669 -88.2556)" fill="#EE8E32" width="28.7" height="7"/>
		</g>
		<path d="M329,307.9v-26.8c0-10.5,8-18.9,15.4-18.9h109.8c7.3,0,15.4,8.5,15.4,18.9v26.8"/>
		<path d="M354.3,284.5c-4.9-4.9-4.9-12.8,0-17.7l34-36.1c4.9-4.9,17-4.9,21.8,0l34,36.1c4.9,4.9,4.9,12.8,0,17.7"/>
		<circle fill="#EE8E32" cx="399.3" cy="245.4" r="9.4"/>
	</g>
</g>
</svg>
