<?xml version="1.0" encoding="utf-8"?>
<!-- Generator: Adobe Illustrator 18.1.1, SVG Export Plug-In . SVG Version: 6.00 Build 0)  -->
<svg version="1.1" id="Layer_1" xmlns="http://www.w3.org/2000/svg" xmlns:xlink="http://www.w3.org/1999/xlink" x="0px" y="0px"
	 viewBox="0 0 786.6 920" enable-background="new 0 0 786.6 920" xml:space="preserve">
<g>
	<g>
		<polygon fill="#EE8E32" points="767.1,675.9 393.3,891.6 19.5,675.9 19.5,244.2 393.3,28.4 767.1,244.2 		"/>
		<path d="M393.3,914.1L0,687.1V233L393.3,5.9L786.6,233v454.1L393.3,914.1z M39,664.6l354.3,204.5l354.3-204.5V255.5L393.3,50.9
			L39,255.5V664.6z"/>
	</g>
</g>
<g>
	<path stroke="#EE8D33" stroke-miterlimit="10" d="M377.5,497.3"/>
	<g>
		<polygon points="317.7,540.9 294.4,519.3 540,259.3 553,230.5 582.8,215.7 597.6,229.3 584.3,259.6 556.5,274.8 		"/>
		<path fill="#EE8E32" d="M317.8,544.5l-27-25.1l247.1-261.5l13.1-29.3l32.2-16l17.5,16.1l-14.5,32.8l-28.1,15.4L317.8,544.5z
			 M298,519.1l19.5,18.1l237.4-264.5l27.4-15l12.3-27.8l-12.2-11.2l-27.4,13.6l-12.7,28.4l-0.3,0.3L298,519.1z"/>
	</g>
	<g>
		<path d="M213.6,699.9c-4.3,3-7,3.2-12,0.4l-12-5.3l-12.8-9.2l-15.1-14.1L150,658l-6.8-12.1c-1.6-4.3-3.6-6.4-0.5-12l129.1-134.9
			l13-3.1l5.8-7.2l3.3-16l16.5-14.8c7.3-7.2,20.1-5.1,23.5-1.4l41,38.2c9.8,9.7,9.7,16,3.7,23.1l-13.7,18.7l-17.3,5l-6.3,6.3
			l-2.4,12.6L213.6,699.9z"/>
		<path fill="#EE8E32" d="M207.6,704.8c-2.1,0-4.4-0.7-7.2-2.3l-12.1-5.4l-13.3-9.5l-15.3-14.3l-11.8-13.8l-7-12.5l-0.1-0.2
			c-0.3-0.7-0.5-1.3-0.8-2c-1.4-3.3-2.7-6.5,0.4-12.1l0.2-0.3l0.2-0.2l129.6-135.5l12.9-3.1l4.9-6l3.4-16.2l17.1-15.3
			c3.6-3.5,8.8-5.5,14.6-5.5c5.2,0,10.1,1.6,12.5,4.1l41,38.2c10.1,10.1,11.3,17.7,3.9,26.5l-14.2,19.3l-17.5,5.1l-5.3,5.3
			l-2.4,12.5l-0.5,0.5L215.3,701.8l-0.2,0.2C212.3,703.9,210,704.8,207.6,704.8z M190.8,692.7l12,5.3c2.1,1.2,3.6,1.7,4.8,1.7
			c1.2,0,2.5-0.5,4.2-1.7l124.6-138.9l2.5-12.6l7.4-7.3l17.1-4.9l13.3-18.1c4.8-5.7,5.6-10.5-3.5-19.7L332,458.2l-0.1-0.1
			c-1.1-1.2-4.6-2.5-8.8-2.5c-2.6,0-7.4,0.5-11,4.1l-0.1,0.1l-15.9,14.3l-3.3,15.8l-6.7,8.4l-13.1,3.2L144.7,635.4
			c-1.8,3.3-1.2,4.6,0,7.4c0.2,0.6,0.5,1.3,0.8,2l6.6,11.7l11.4,13.3l14.9,13.9L190.8,692.7z"/>
	</g>
	<g>
		<polygon points="265.6,328.4 300.2,296.8 303.4,300.2 307.9,303.4 312.4,306.5 318.5,312.5 326.2,321.7 332.8,329.9 344,344.1 
			353.2,354.9 364.8,369.4 377.7,384.4 389.6,397.4 400.8,409.6 412.3,421.9 420.6,429.5 429.7,438.8 435.4,444.4 442.7,451.7 
			447.2,455.5 450.2,458.7 452.6,462.1 416.5,495.7 413.5,493.8 410,490.4 406.7,486.8 402.5,481.4 400.4,478.4 389.7,466.3 
			379,451.6 360.6,430.4 345.6,414.3 326.7,394.3 308.2,374.8 293,359.9 285.4,353.3 278.8,345.8 272.5,337.3 		"/>
		<path fill="#EE8E32" d="M416.9,500.1l-5.6-3.5l-3.9-3.9l-3.5-3.8l-4.4-5.6l-2-2.9l-10.7-12.2l-10.6-14.5L358,432.7l-14.9-16
			l-18.9-20l-18.4-19.5l-15.1-14.7l-7.8-6.7l-6.9-7.9l-6.3-8.4l-8.8-11.5l39.6-36.1l5.2,5.7l9,6.2l6.6,6.4l7.8,9.2l6.5,8.2
			l11.2,14.1l9.2,10.8l11.6,14.5l12.9,14.9l23,25.2l11.4,12.2l8.3,7.7l9,9.2l5.8,5.6l7.2,7.2l4.7,4.1l3.2,3.6l4.2,5.9L416.9,500.1z
			 M415.6,491.1l0.4,0.3l31.9-29.7l-0.5-0.7l-2.7-2.9l-4.5-3.9l-7.3-7.2l-5.8-5.6l-9-9.2l-8.4-7.8L398.2,412l-23.1-25.4l-13-15.1
			l-11.6-14.5l-9.2-10.8l-17.8-22.4l-7.6-9l-5.8-5.7l-9.1-6.4l-1-1.1l-29.7,27l4.9,6.4l6.3,8.3l6.3,7.3l7.6,6.6l15.3,15l18.4,19.5
			l18.9,20.1l15.1,16.2l18.5,21.5l10.6,14.5l10.8,12.3l2,2.9l4.1,5.2l3.1,3.5L415.6,491.1z"/>
	</g>
	<g>
		<polygon points="431.8,427 438.2,430.9 453.5,444.4 463.6,454.8 477,469.5 497.8,491.7 522.6,518.2 553.9,552 572.8,572.7 
			588.2,588.3 602.2,602.4 613.3,613.9 622.7,622.3 631.6,629.5 635.9,632.9 648.2,647 648.1,651.4 647.2,657.5 645.5,662.8 
			643.3,666.3 639.6,671.3 634.1,676.3 625.7,683.9 615.9,691.8 607.7,697.2 603.7,699.2 599.8,700.1 595,701.4 589.2,701.4 
			586,700.6 574.1,688.2 556,665.1 522.5,627 482.6,582.6 451.5,549.8 407.5,502.2 390.4,478.8 384.8,470.5 		"/>
		<path fill="#EE8E32" d="M588.7,704.9l-4.5-1.2l-12.8-13.4l-18-23l-33.5-38L480.1,585L449,552.2l-44.1-47.7l-17.4-23.7l-7.3-10.8
			l51.2-47.3l9,5.4L456,442l10.1,10.5l13.4,14.7l20.8,22.2l24.8,26.5l31.3,33.7l18.9,20.7l15.3,15.5l14,14.1l11,11.5l9.2,8.2
			l13.4,10.8l13.4,15.4l-0.2,6.1l-1,6.4l-1.9,5.9l-2.5,4.1l-3.9,5.2l-14.3,13l-10.2,8.2l-8.5,5.5l-4.4,2.3l-4.3,1l-5.1,1.3
			L588.7,704.9z M587.9,697.4l1.7,0.5l5,0l4.4-1.1l3.5-0.8l3.5-1.8l7.9-5.1l9.7-7.8l13.5-12.3l3.4-4.6l1.8-3l1.5-4.6l0.8-5.6
			l0.1-2.8l-11.2-12.8l-4.1-3.2l-9.1-7.3l-9.6-8.5l-11.1-11.5l-14-14.1l-15.5-15.7l-18.9-20.8L520,520.6l-24.8-26.5l-20.8-22.2
			L461,457.2l-9.9-10.2l-14.9-13.2l-3.9-2.4L389.4,471l3.9,5.7l17,23.2l43.8,47.4l31.2,32.9l39.9,44.4l33.7,38.3l18,23L587.9,697.4z
			"/>
	</g>
	<g>
		<polygon points="141.6,341.5 147.2,351.2 152,358.9 158.4,367.1 165.6,373.7 173.1,379.4 181.2,384.5 207.8,360.2 208.1,353.9 
			209.2,350.6 210.8,345.7 212.8,341.3 217,336.3 221.6,331.8 227,329.9 233,328.6 238,327.8 242.1,327.4 246.7,328.2 251.3,331.2 
			257.3,336.2 271.1,347.1 276.5,349 319.3,309.2 321.1,304.9 320.1,300.9 316.2,295.8 298.3,271.3 297.5,266.7 298.5,262.8 
			300.4,259.9 303.7,256.5 310,253.4 316.3,250.8 322.9,248.5 330.1,246.8 386.8,247.3 397.6,248.4 402.9,246.6 406.1,244 
			400.6,238.8 395.7,235 392,233.1 386.9,231.7 378.6,229.1 366,227 332.7,219.9 322.1,219 314.2,218.6 302.5,218.7 292,218.8 
			285.1,219.8 278.1,221.7 268.1,224.4 259,228.1 252.1,232.2 248.2,234.2 203.4,275.4 201,284.4 200.7,291.5 197.2,300.8 
			194.2,303.8 188.6,308.9 183.5,313.6 166.6,318.8 		"/>
		<path fill="#EE8E32" d="M181.6,388.9l-10.6-6.7l-7.7-5.9l-7.5-6.8l-6.8-8.7l-4.9-7.8l-6.9-12.1l27.6-25.2l16.8-5.2l4.6-4.2
			l5.5-5.1l2.4-2.4l3-8.1l0.3-6.9l2.8-10.3l45.9-42.2l4.2-2.2l7-4.1l9.7-4l10-2.7l7.4-1.9l7.2-1.1l10.7-0.1l11.8-0.1l8.1,0.4l11.1,1
			l33.2,7.1l12.9,2.3l8.3,2.6l5.4,1.5l4.3,2.3l5.5,4.2l8.4,8l-6.9,5.5l-6.5,2.2l-11.4-1.2l-56.2-0.4l-6.6,1.5l-6.3,2.2l-6,2.6
			l-5.6,2.8l-2.7,2.7l-1.4,2.1l-0.7,2.6l0.5,3l17.3,23.9l4.3,5.7l1.5,5.8l-2.5,6l-44.8,41.7l-8-2.7l-14.2-11.3l-6-4.9l-3.8-2.5
			l-3.3-0.6l-3.6,0.3l-4.8,0.7l-5.7,1.2l-4.5,1.6l-3.9,3.9l-3.8,4.4l-1.7,3.8l-1.6,4.7l-1,2.9l-0.3,7.3L181.6,388.9z M175.1,376.5
			l5.7,3.6l23.6-21.5l0.2-5.4l1.3-3.8l1.7-5.1l2.2-4.9l4.7-5.5l5.1-5.1l6.6-2.3l6.2-1.3l5.2-0.8l4.7-0.4l5.7,1l5.5,3.6l6.1,5
			l13.2,10.5l2.9,1l40.7-37.8l1-2.5l-0.5-2.2l-3.5-4.6L295,272.7l-1-6.1l1.3-5.2l2.4-3.7l4-4.1l7-3.4l6.5-2.8l7-2.4l7.6-1.7
			l57.5,0.5l10.1,1l3.4-1.1l-2.3-2.2l-4.6-3.5l-3.1-1.6l-4.8-1.3l-8.2-2.5l-12.5-2.1l-33.1-7l-10.3-0.9l-7.7-0.4l-11.6,0.1
			l-10.2,0.1l-6.5,1l-6.8,1.8l-9.8,2.6l-8.6,3.6l-6.9,4l-3.4,1.8l-43.7,40.2l-2,7.6l-0.3,7.3l-4,10.6l-3.7,3.5l-5.5,5.1l-5.8,5.3
			l-16.8,5.2l-22.3,20.3l4.1,7.2l4.7,7.5l6.1,7.8l6.9,6.3L175.1,376.5z"/>
	</g>
	<path fill="#FFFFFF" d="M271.9,534.9c1.9-2.1,1.8-5.4-0.3-7.3l0,0c-2.1-1.9-5.4-1.8-7.3,0.3L164.2,637.4c-1.9,2.1-1.8,5.4,0.3,7.3
		l0,0c2.1,1.9,5.4,1.8,7.3-0.3L271.9,534.9z"/>
	<path fill="#FFFFFF" d="M310.3,568.6c1.9-2.1,1.8-5.4-0.3-7.3l0,0c-2.1-1.9-5.4-1.8-7.3,0.3L202.6,671.1c-1.9,2.1-1.8,5.4,0.3,7.3
		l0,0c2.1,1.9,5.4,1.8,7.3-0.3L310.3,568.6z"/>
	<path fill="#FFFFFF" d="M290.7,551.9c1.9-2.1,1.8-5.4-0.3-7.3l0,0c-2.1-1.9-5.4-1.8-7.3,0.3L183,654.5c-1.9,2.1-1.8,5.4,0.3,7.3
		l0,0c2.1,1.9,5.4,1.8,7.3-0.3L290.7,551.9z"/>
</g>
</svg>
