<?xml version="1.0" encoding="utf-8"?>
<!-- Generator: Adobe Illustrator 18.1.1, SVG Export Plug-In . SVG Version: 6.00 Build 0)  -->
<svg version="1.1" id="Layer_1" xmlns="http://www.w3.org/2000/svg" xmlns:xlink="http://www.w3.org/1999/xlink" x="0px" y="0px"
	 viewBox="0 0 790.4 920" enable-background="new 0 0 790.4 920" xml:space="preserve">
<g>
	<polygon fill="#3D87C9" points="770.8,676.9 395.2,893.7 19.6,676.9 19.6,243.2 395.2,26.3 770.8,243.2 	"/>
	<path d="M395.2,916.3L0,688.2V231.9L395.2,3.7l395.2,228.2v456.3L395.2,916.3z M39.2,665.6l356.1,205.5l356.1-205.5V254.5
		L395.2,48.9L39.2,254.5V665.6z"/>
</g>
<g>
	<g>
		<path d="M415.5,629.9c0,6.2-5,11.2-11.3,11.2H389c-6.2,0-11.3-5-11.3-11.2V340.2c0-6.2,5-11.2,11.3-11.2h15.3
			c6.2,0,11.3,5,11.3,11.2V629.9z"/>
		<path d="M388.3,629.5c0,5.9-5.1,10.7-11.4,10.7l-220.7-27.5c-6.3,0-11.4-4.8-11.4-10.7V311.4c0-5.9,5.1-10.7,11.4-10.7L377,328.3
			c6.3,0,11.4,4.8,11.4,10.7V629.5z"/>
		<path d="M402.4,629.5c0,5.9,5.1,10.7,11.4,10.7l220.4-27.5c6.3,0,11.4-4.8,11.4-10.7V311.4c0-5.9-5.1-10.7-11.4-10.7l-220.4,27.5
			c-6.3,0-11.4,4.8-11.4,10.7V629.5z"/>
	</g>
	<g>
		<polygon fill="#FFFFFF" points="397.5,623.2 623.4,592.3 623.4,316.2 397.5,347.1 		"/>
		<path fill="#FFFFFF" d="M397.5,347.1c1.6,12.4,53.3,14.8,115.8,6.9c62.4-8,111.7-24.5,110-36.9c-1.6-12.4-53.6-16-116-8
			C444.9,317.1,395.9,334.7,397.5,347.1z"/>
		<path d="M625.2,595.9c-5.1-9.1-53.9-15.9-116.7-7.9c-62.8,8-112.4,24.6-110.7,37"/>
	</g>
	<g>
		<polygon fill="#FFFFFF" points="393.2,623.2 167.4,592.3 167.4,316.2 393.2,347.1 		"/>
		<path fill="#FFFFFF" d="M393.2,347.1c-1.7,12.4-53.3,14.8-115.8,6.9c-62.4-8-111.7-24.5-110-36.9c1.7-12.4,53.6-16,116-8
			C345.8,317.1,394.9,334.7,393.2,347.1z"/>
		<path d="M165.6,595.9c5.1-9.1,53.9-15.9,116.7-7.9c62.8,8,112.4,24.6,110.7,37"/>
	</g>
	<path fill="#FFFFFF" d="M353.6,607.8c-17.7-5-42.2-9.7-72.6-13.6l0,0c-19.1-2.4-37.2-3.5-53.2-3.5l0,0c-26.6,0-47.5,2.9-57.4,6.8
		l0,0c-3.3,1.3-5.3,2.7-5.7,3.7l0,0l-0.4,0.8h-2.6V317.7h3v279.4c1.3-0.9,2.8-1.6,4.7-2.4l0,0c3.6-1.4,8.2-2.6,13.9-3.7l0,0
		c11.4-2.1,26.7-3.4,44.6-3.4l0,0c16.1,0,34.3,1,53.5,3.5l0,0c30.4,3.9,55.1,8.5,73,13.7l0,0c18,5.2,29.2,10.5,33.3,16.9l0,0v0
		l-2.5,1.6C382.3,618.4,371.3,612.8,353.6,607.8L353.6,607.8z"/>
	<path fill="#FFFFFF" d="M350,612.3c-16.3-4.5-39.5-9.1-70.3-13l0,0c-21-2.7-39.5-4.1-55.5-4.1l0,0c-31,0-52.7,5.3-64.9,16.1l0,0
		l-0.4,0.4h-2.5V319.5h3v287.8c13.4-10.4,35-15.1,64.8-15.1l0,0c16.2,0,34.8,1.4,55.9,4.1l0,0c30.9,4,54.2,8.6,70.7,13.1l0,0
		c16.5,4.6,26.2,8.9,30.4,13l0,0l-2.1,2.1C375.9,621.3,366.3,616.7,350,612.3L350,612.3z"/>
	<path fill="#FFFFFF" d="M402.5,622.3c4.1-6.3,15.4-11.7,33.3-16.9l0,0c18-5.1,42.6-9.8,73-13.7l0,0c19.2-2.5,37.4-3.5,53.5-3.5l0,0
		c26.9,0,47.9,2.9,58.5,7l0,0c1.9,0.8,3.5,1.5,4.7,2.4l0,0l0-279.4h3v284.3h-1.5H626l-0.4-0.8c-0.5-1-2.5-2.4-5.7-3.7l0,0
		c-3.3-1.3-7.8-2.5-13.4-3.5l0,0c-11.1-2-26.3-3.3-44.1-3.3l0,0c-16,0-34.1,1-53.2,3.5l0,0c-30.3,3.9-54.8,8.5-72.6,13.6l0,0
		c-17.7,5-28.7,10.7-31.6,15.6l0,0v0L402.5,622.3L402.5,622.3z"/>
	<path fill="#FFFFFF" d="M409.1,623c4.1-4.1,13.8-8.4,30.4-13l0,0c16.5-4.5,39.8-9.1,70.7-13.1l0,0c21.1-2.7,39.7-4.1,55.9-4.1l0,0
		c29.8,0,51.4,4.7,64.8,15.1l0,0V320.1h3v292.2h-1.5h-1l-0.4-0.4c-12.2-10.8-33.8-16.1-64.9-16.1l0,0c-16,0-34.5,1.4-55.5,4.1l0,0
		c-30.8,3.9-54,8.5-70.3,13l0,0c-16.3,4.5-25.9,9-29,12.2l0,0L409.1,623L409.1,623z"/>
	<path fill="#3D87C9" d="M407.4,629.2c0,1.4-2,2.5-4.4,2.5h-15.7c-2.4,0-4.4-1.1-4.4-2.5l0,0c0-1.4,2-2.5,4.4-2.5H403
		C405.5,626.8,407.4,627.9,407.4,629.2L407.4,629.2z"/>
</g>
</svg>
