<?xml version="1.0" encoding="utf-8"?>
<!-- Generator: Adobe Illustrator 18.1.1, SVG Export Plug-In . SVG Version: 6.00 Build 0)  -->
<svg version="1.1" id="Layer_1" xmlns="http://www.w3.org/2000/svg" xmlns:xlink="http://www.w3.org/1999/xlink" x="0px" y="0px"
	 viewBox="0 0 790.4 920" enable-background="new 0 0 790.4 920" xml:space="preserve">
<g>
	<polygon fill="#BABABA" points="770.8,676.9 395.2,893.7 19.6,676.9 19.6,243.2 395.2,26.3 770.8,243.2 	"/>
	<path d="M395.2,916.3L0,688.2V231.9L395.2,3.7l395.2,228.2v456.3L395.2,916.3z M39.2,665.6l356.1,205.5l356.1-205.5V254.5
		L395.2,48.9L39.2,254.5V665.6z"/>
</g>
<g>
	<g>
		<path d="M164,444.3c29.9,0,34.1-16.4,34.1-31.5c0-11.4-1.7-23.1-3.4-34.9c-1.7-11.8-3.4-23.5-3.4-35.3c0-38.7,25.2-55.1,61-55.1
			h8.8v23.1h-7.6c-24.8,0.4-33.2,13.5-33.2,36.2c0,10.1,1.3,20.2,2.9,30.3c1.7,10.1,2.9,20.6,2.9,32c0.4,26.9-11.4,40.4-30.3,45.4
			v0.8c18.9,4.6,30.7,18.9,30.3,45.8c0,11.4-1.3,21.9-2.9,32c-1.7,10.5-2.9,20.2-2.9,30.3c0,23.5,9.7,36.2,33.2,36.6h7.6V623h-8.8
			c-34.9,0-61-15.1-61-57.6c0-11.4,1.7-23.1,3.4-34.5c1.7-11.4,3.4-22.7,3.4-34.1c0-13-4.2-31.1-34.1-31.1V444.3z"/>
	</g>
	<g>
		<path d="M626.4,466.1c-29.9,0-34.1,16.4-34.1,31.5c0,11.4,1.7,23.1,3.4,34.9c1.7,11.8,3.4,23.5,3.4,35.3c0,38.7-25.2,55.1-61,55.1
			h-8.8v-23.1h7.6c24.8-0.4,33.2-13.5,33.2-36.2c0-10.1-1.3-20.2-2.9-30.3c-1.7-10.1-2.9-20.6-2.9-32c-0.4-26.9,11.4-40.4,30.3-45.4
			v-0.8c-18.9-4.6-30.7-18.9-30.3-45.8c0-11.4,1.3-21.9,2.9-32c1.7-10.5,2.9-20.2,2.9-30.3c0-23.5-9.7-36.2-33.2-36.6h-7.6v-23.1
			h8.8c34.9,0,61,15.1,61,57.6c0,11.4-1.7,23.1-3.4,34.5c-1.7,11.4-3.4,22.7-3.4,34.1c0,13,4.2,31.1,34.1,31.1V466.1z"/>
	</g>
	<g>
		<path fill="#FFFFFF" d="M279.7,404.1c0.8-2.2,1.4-5,1.9-8.4c0.5-3.4,0.7-5.8,0.7-7l3.6-0.3l0.9,4.6c1.5,0.6,2.8,0.9,3.9,0.9
			c1.2,0,2.3-0.2,3.3-0.7c1.6-0.7,3-1.6,4.2-2.7c1.7-1.6,3.6-3.8,5.8-6.5c3.9-5,6.5-8.5,7.7-10.4c-1.8-10.9-3.1-18-4.2-21.2
			c-0.7-2.3-1.8-3.9-3.1-4.9c-1.3-1-2.7-1.5-4.2-1.5c-1.7,0-3.6,0.6-5.5,1.8c-1.9,1.2-3.6,2.9-4.9,5.2l-3.4-1.9
			c3.9-6.4,6.2-10.1,6.8-11.2c0.6-1.1,1.3-2.5,2-4.1c2-1,3.9-1.7,5.8-2.2c1.8-0.5,3.6-0.7,5.2-0.7c4.5,0,8,1.4,10.7,4.2
			s4.8,8.6,6.3,17.5c0.2,1.4,0.5,2.6,0.7,3.7c4.5-6.6,7.3-10.5,8.4-11.9c3.1-4.1,5.6-6.9,7.5-8.6c1.9-1.6,3.7-2.8,5.5-3.6
			c1.8-0.7,3.5-1.1,5.1-1.1c1.5,0,3.1,0.4,5,1.2c-1.7,4.5-2.8,9.8-3.4,16.1l-3.2,0.6l-1.3-4.1c-1.1-0.5-2-0.7-2.8-0.7
			c-1.6,0-3.1,0.4-4.6,1.2c-2.2,1.2-4.6,3.3-7.1,6.3c-1.8,2.1-4.4,5.6-7.8,10.5c1.3,8.2,2.3,13.6,3.1,16.4c1.2,4.7,2.1,7.8,2.8,9.2
			c0.7,1.5,1.5,2.5,2.4,3.1c0.9,0.6,1.8,0.9,2.7,0.9c1,0,2.2-0.3,3.5-1c1.7-0.9,4.5-3,8.2-6.1l2.3,3.6l-8.6,7.3
			c-2.9,2.4-5.3,4.2-7.2,5.4c-1.9,1.2-3.4,1.9-4.7,2.3c-1.2,0.4-2.4,0.6-3.4,0.6c-2,0-4-0.7-5.8-2.2c-1.8-1.5-3.2-3.9-4.2-7.4
			c-0.8-2.6-1.9-8.3-3.3-17.1l-7.4,10.6c-3.6,5-6.8,8.8-9.5,11.4c-1.8,1.8-3.5,3.1-5.1,3.8c-1.6,0.7-3.2,1-4.9,1
			c-0.9,0-1.7-0.1-2.2-0.3C283.3,405.7,281.9,405.1,279.7,404.1z"/>
		<path d="M433.6,429.6l9.2-5.8l2.2,0.9c-0.1,1-0.1,1.9-0.1,2.6c0,2.7,0.8,5,2.5,7c1.6,2,4,3,7.2,3c1.9,0,3.8-0.5,5.6-1.4
			c1.8-0.9,3.7-2.6,5.6-4.9c1.9-2.4,3.8-6.1,5.7-11.2c1.9-5.1,4.1-12.3,6.5-21.7l4.8-19.2c-4.7,6.5-8.3,11.1-11,14
			c-4.9,5.1-9.2,8.8-13.1,10.9c-2.6,1.4-4.7,2.1-6.3,2.1c-1.8,0-3.5-1.1-5-3.2c-1.5-2.1-2.3-5.8-2.3-11.2v-2.5
			c0.1-0.5,0.1-1,0.2-1.7L447,371c0.7-5.3,1.1-9,1.3-11.1c0.3-4.1,0.4-6.3,0.4-6.6c0-2.5-0.1-4.2-0.3-5c-0.1-0.6-0.4-1.1-0.9-1.4
			c-0.5-0.4-1-0.5-1.5-0.5c-0.7,0-1.9,0.4-3.4,1.3c-2.7,1.5-5.5,3.4-8.2,5.6l-1.9-4.2l13.5-10.2c3.3-2.3,6.3-4,8.7-5
			c1.9-0.7,3.5-1.1,4.8-1.1c1.7,0,3.1,0.6,4,1.8c1.3,1.6,1.9,4.1,1.9,7.3c0,1.2,0,2.6-0.1,4.2l-3.3,29.5c-0.4,5.6-0.6,9.1-0.6,10.6
			c0,2.1,0.1,3.7,0.4,4.6c0.1,0.6,0.4,1.1,0.9,1.5c0.5,0.4,0.9,0.5,1.3,0.5c0.6,0,1.4-0.3,2.3-0.9c2.6-1.6,5.3-4.3,8.2-8.2
			c2.9-3.9,5.5-8.2,7.7-12.8c2.2-4.6,4.1-9.3,5.6-14.1c2.3-7.1,3.8-13.8,4.7-20c7.2-1.5,12.8-2.7,16.7-3.6l1.7,1.3
			c-2.3,5.7-5.7,17.2-10.2,34.5c-3.8,14.5-6.8,24.8-8.9,30.8c-3.4,9.6-7.5,17.8-12.3,24.6c-4.8,6.8-10.4,12-16.8,15.7
			c-4.6,2.6-9.1,3.9-13.6,3.9c-4.9,0-8.7-1.2-11.3-3.5c-2.6-2.4-3.9-5.5-3.9-9.3V429.6z"/>
		<path d="M284.8,578.2l50.3-52.3c-3.6,1.8-7.3,2.7-11.2,2.7c-2.7,0-6.6-0.3-11.7-1c-5.1-0.7-8.4-1-10-1c-0.9,0-1.9,0.1-3.1,0.2
			c-0.7,1.3-1.9,3.8-3.6,7.7l-4.2-0.4l6.7-20.8c2.7-0.9,5.2-1.3,7.6-1.3c2,0,4.2,0.2,6.4,0.5c2.2,0.4,5.2,1.1,9,2.1
			c3.8,1,6.8,1.7,9.3,2.1c2.4,0.4,4.7,0.6,6.9,0.6c2.5,0,4.5-0.4,6-1.3c1.5-0.8,2.9-2.2,4.1-4.1l2.9,1.2l-2,7.6l-48.5,49.9
			c3.5-1.5,6.3-2.5,8.2-3c1.9-0.5,3.8-0.7,5.6-0.7c2.5,0,6.4,0.5,11.5,1.4c5.2,0.9,8.8,1.4,11,1.4c0.8,0,2-0.1,3.6-0.3l3.9-8.5
			l4.1,0.4c-1.9,5.5-3.8,12.5-5.5,21c-2.5,1.3-5.3,2-8.6,2c-2.4,0-4.6-0.2-6.7-0.5c-1.4-0.2-5.3-1.1-11.8-2.8
			c-6.5-1.7-11.9-2.5-16.2-2.5c-4.9,0-8.8,1.6-11.7,4.9L284.8,578.2z"/>
		<path fill="#FFFFFF" d="M429,583.2c0.8-2.2,1.4-5,1.9-8.4c0.5-3.4,0.7-5.8,0.7-7l3.6-0.3l0.9,4.6c1.5,0.6,2.8,0.9,3.9,0.9
			c1.2,0,2.3-0.2,3.3-0.7c1.6-0.7,3-1.6,4.2-2.7c1.7-1.6,3.6-3.8,5.8-6.5c3.9-5,6.5-8.5,7.7-10.4c-1.8-10.9-3.1-18-4.2-21.2
			c-0.7-2.3-1.8-3.9-3.1-4.9c-1.3-1-2.7-1.5-4.2-1.5c-1.7,0-3.6,0.6-5.5,1.8c-1.9,1.2-3.6,2.9-4.9,5.2l-3.4-1.9
			c3.9-6.4,6.2-10.1,6.8-11.2c0.6-1.1,1.3-2.5,2-4.1c2-1,3.9-1.7,5.8-2.2c1.8-0.5,3.6-0.7,5.2-0.7c4.5,0,8,1.4,10.7,4.1
			c2.7,2.8,4.8,8.6,6.3,17.5c0.2,1.4,0.5,2.6,0.7,3.7c4.5-6.6,7.3-10.5,8.4-11.9c3.1-4.1,5.6-6.9,7.5-8.6c1.9-1.6,3.7-2.8,5.5-3.6
			c1.8-0.7,3.5-1.1,5.1-1.1c1.5,0,3.1,0.4,5,1.2c-1.7,4.5-2.8,9.8-3.4,16.1l-3.2,0.6l-1.3-4.1c-1.1-0.5-2-0.7-2.8-0.7
			c-1.6,0-3.1,0.4-4.6,1.2c-2.2,1.2-4.6,3.3-7.1,6.3c-1.8,2.1-4.4,5.6-7.8,10.5c1.3,8.2,2.3,13.6,3.1,16.4c1.2,4.7,2.1,7.8,2.8,9.2
			c0.7,1.5,1.5,2.5,2.4,3.1c0.9,0.6,1.8,0.9,2.7,0.9c1,0,2.2-0.3,3.5-1c1.7-0.9,4.5-3,8.2-6.1l2.3,3.6l-8.6,7.3
			c-2.9,2.4-5.3,4.2-7.2,5.4c-1.9,1.2-3.4,1.9-4.7,2.3c-1.2,0.4-2.4,0.6-3.4,0.6c-2,0-4-0.7-5.8-2.2c-1.8-1.5-3.2-3.9-4.2-7.4
			c-0.8-2.6-1.9-8.3-3.3-17.1l-7.4,10.6c-3.6,5-6.8,8.8-9.5,11.4c-1.8,1.8-3.5,3.1-5.1,3.8c-1.6,0.7-3.2,1-4.9,1
			c-0.9,0-1.7-0.1-2.2-0.3C432.5,584.8,431.2,584.2,429,583.2z"/>
	</g>
</g>
</svg>
