<?xml version="1.0" encoding="utf-8"?>
<!-- Generator: Adobe Illustrator 18.1.1, SVG Export Plug-In . SVG Version: 6.00 Build 0)  -->
<svg version="1.1" id="Layer_1" xmlns="http://www.w3.org/2000/svg" xmlns:xlink="http://www.w3.org/1999/xlink" x="0px" y="0px"
	 viewBox="0 0 790.4 920" enable-background="new 0 0 790.4 920" xml:space="preserve">
<g>
	<polygon fill="#806BC1" points="770.8,676.9 395.2,893.7 19.6,676.9 19.6,243.2 395.2,26.3 770.8,243.2 	"/>
	<path d="M395.2,916.3L0,688.2V231.9L395.2,3.7l395.2,228.2v456.3L395.2,916.3z M39.2,665.6l356.1,205.5l356.1-205.5V254.5
		L395.2,48.9L39.2,254.5V665.6z"/>
</g>
<g>
	<path fill="none" stroke="#000000" stroke-width="30" stroke-miterlimit="10" d="M308.4,267.5"/>
	<g>
		<path d="M454.4,599.6c0,5.1-3.8,11.4-8.5,11.4h-89.3c-4.7,0-8.5-6.3-8.5-11.4l14.2-51.6c0-5.1,3.8-9.3,8.5-9.3h61
			c4.7,0,8.5,4.2,8.5,9.3L454.4,599.6z"/>
		<path fill="#806BC1" d="M445.9,613.5h-89.3c-6.2,0-11-7.5-11-13.9v-0.3l14.2-51.6c0.2-6.3,5-11.4,11-11.4h61
			c5.9,0,10.8,5.1,11,11.4l14.2,51.6v0.3C456.9,606.1,452.1,613.5,445.9,613.5z M350.5,599.9c0.1,4.2,3.2,8.6,6,8.6h89.3
			c2.8,0,5.9-4.5,6-8.6l-14.2-51.5V548c0-3.8-2.7-6.8-6-6.8h-61c-3.3,0-6,3.1-6,6.8v0.3L350.5,599.9z"/>
	</g>
	<g>
		<path d="M589.9,538.9c0,5.5-4,10-8.9,10H222.2c-4.9,0-8.9-4.5-8.9-10V260.6c0-5.5,4-10,8.9-10h358.9c4.9,0,8.9,4.5,8.9,10V538.9z"
			/>
		<path fill="#806BC1" d="M581.1,551.4H222.2c-6.3,0-11.3-5.6-11.3-12.5V260.6c0-6.9,5.1-12.5,11.3-12.5h358.9
			c6.3,0,11.3,5.6,11.3,12.5v278.3C592.4,545.8,587.3,551.4,581.1,551.4z M222.2,253.1c-3.5,0-6.4,3.4-6.4,7.5v278.3
			c0,4.1,2.9,7.5,6.4,7.5h358.9c3.5,0,6.4-3.4,6.4-7.5V260.6c0-4.1-2.9-7.5-6.4-7.5H222.2z"/>
	</g>
	<g>
		<path d="M570.1,490.2c0,4.9-3.8,8.9-8.5,8.9H241.5c-4.7,0-8.5-4-8.5-8.9V278.1c0-4.9,3.8-8.9,8.5-8.9h320.1c4.7,0,8.5,4,8.5,8.9
			V490.2z"/>
		<path fill="#806BC1" d="M561.6,501.5H241.5c-6.1,0-11-5.1-11-11.4V278.1c0-6.3,4.9-11.4,11-11.4h320.1c6.1,0,11,5.1,11,11.4v212.1
			C572.6,496.4,567.7,501.5,561.6,501.5z M241.5,271.7c-3.3,0-6,2.9-6,6.4v212.1c0,3.5,2.7,6.4,6,6.4h320.1c3.3,0,6-2.9,6-6.4V278.1
			c0-3.5-2.7-6.4-6-6.4H241.5z"/>
	</g>
	<path fill="#806BC1" d="M412.7,523.6c0,6.1-5,11.1-11.1,11.1c-6.1,0-11.1-5-11.1-11.1c0-6.1,5-11.1,11.1-11.1
		C407.7,512.5,412.7,517.5,412.7,523.6z"/>
	<g>
		<path d="M577.3,674.3c0,5.7-4,10.3-8.9,10.3H232.6c-4.9,0-8.9-4.6-8.9-10.3l3.6-74.3c0-5.7,4-10.3,8.9-10.3h328.7
			c4.9,0,8.9,4.6,8.9,10.3L577.3,674.3z"/>
		<path fill="#806BC1" d="M568.4,687H232.6c-6.3,0-11.4-5.7-11.4-12.8v-0.1l3.6-74.3c0-7,5.1-12.7,11.4-12.7h328.7
			c6.2,0,11.4,5.7,11.4,12.7l3.5,74.4C579.7,681.3,574.6,687,568.4,687z M226.2,674.3c0,4.3,2.9,7.8,6.4,7.8h335.7
			c3.5,0,6.4-3.5,6.4-7.8l-3.5-74.4c0-4.3-2.9-7.8-6.4-7.8H236.2c-3.5,0-6.4,3.5-6.4,7.8l0,0.1L226.2,674.3z"/>
	</g>
	<path fill="#806BC1" d="M325.3,605.3c0,2.3-2.2,4.1-4.9,4.1h-94.3c-2.7,0-4.9-1.9-4.9-4.1l0,0c0-2.3,2.2-4.1,4.9-4.1h94.3
		C323.2,601.1,325.3,603,325.3,605.3L325.3,605.3z"/>
	<path fill="#806BC1" d="M325.3,621.1c0,2.3-2.2,4.1-4.9,4.1h-94.3c-2.7,0-4.9-1.9-4.9-4.1l0,0c0-2.3,2.2-4.1,4.9-4.1h94.3
		C323.2,617,325.3,618.8,325.3,621.1L325.3,621.1z"/>
	<path fill="#FFFFFF" d="M560,608.6c0,4.3-3.5,7.8-7.8,7.8c-4.3,0-7.8-3.5-7.8-7.8c0-4.3,3.5-7.8,7.8-7.8
		C556.5,600.8,560,604.3,560,608.6z"/>
	<path fill="#FFFFFF" d="M533.5,608.6c0,4.3-3.5,7.8-7.8,7.8c-4.3,0-7.8-3.5-7.8-7.8c0-4.3,3.5-7.8,7.8-7.8
		C530,600.8,533.5,604.3,533.5,608.6z"/>
	<path fill="#FFFFFF" d="M507,608.6c0,4.3-3.5,7.8-7.8,7.8c-4.3,0-7.8-3.5-7.8-7.8c0-4.3,3.5-7.8,7.8-7.8
		C503.6,600.8,507,604.3,507,608.6z"/>
	<g>
		<path fill="#FFFFFF" d="M344,332.9h14.8l35,96.5h-14.3l-10.1-28.9h-37.9L321,429.4h-13.4L344,332.9z M365.6,389.8l-14.9-42.6
			l-15.4,42.6H365.6z"/>
	</g>
	<g>
		<g>
			<path fill="#FFFFFF" d="M437,356.9c-30-15-22.5,38.5-15.5,52c2.5,5.5,7.9,11.1,12.4,15.6c2,2,4.6,3.9,7.6,4.4
				c6.5,2,5.5-3.5,10.5-5c6.5-2,9,7,17,5c13-3,18-20.5,20-31c2.5-16.5,1.5-38-14.5-47c-9.5-5.5-13.5-3-20.5,3
				C448,358.9,445.5,359.4,437,356.9"/>
		</g>
		<g>
			<path fill="#FFFFFF" d="M446.5,360.9c2.3-6,1.5-23.8-7.5-16c1.5,2.5,3.8,3.5,4.8,6.8c0.8,2.3,0.5,5,0.5,7.5"/>
		</g>
	</g>
</g>
</svg>
