<?xml version="1.0" encoding="utf-8"?>
<!-- Generator: Adobe Illustrator 18.1.1, SVG Export Plug-In . SVG Version: 6.00 Build 0)  -->
<svg version="1.1" id="Layer_1" xmlns="http://www.w3.org/2000/svg" xmlns:xlink="http://www.w3.org/1999/xlink" x="0px" y="0px"
	 viewBox="0 0 791.4 920" enable-background="new 0 0 791.4 920" xml:space="preserve">
<g>
	<g>
		<polygon fill="#60BE79" points="771.3,676.9 395.7,893.7 20.1,676.9 20.1,243.2 395.7,26.3 771.3,243.2 		"/>
	</g>
	<g>
		<path d="M395.7,916.3L0.5,688.2V231.9L395.7,3.7l395.2,228.2v456.3L395.7,916.3z M39.7,665.6l356.1,205.5l356.1-205.5V254.5
			L395.7,48.9L39.7,254.5V665.6z"/>
	</g>
</g>
<g>
	<path d="M546.6,406.9c19.8,21.4,17,66.3,17,103c0,27.3,2.3,55.6-9.4,75.4c-15.9,27-43.7,41.3-71.3,41.3
		c-27.7,0-55.4-14.2-71.3-41.3c-11.7-19.9-9.4-48.1-9.4-75.4c0-36.8-2.8-81.7,17-103c14.9-16.1,43.1-19.2,63.7-19.2
		C503.5,387.7,531.8,390.8,546.6,406.9z"/>
	<rect x="398.2" y="473.1" fill="#60BE79" width="78.5" height="3"/>
	<path d="M485.5,387.4c0-18.5-0.7-37.4,3.9-55.5c4.3-16.7,13.8-31.2,21.5-46.5c6.7-13.1,11.3-25.8,9.5-40.6
		c-1.5-12.1-6.4-23.4-14.7-32.4c-6.7-7.2-15.1-12.6-23.9-16.9c-10.9-5.4-22.2-10.1-34.1-13c-27.4-6.7-56.1-5.3-83.4,0.6
		c-46.2,9.9-91.2,31.6-129.5,59.3c-18.3,13.3-32.7,31.5-40.3,53c-4.5,12.7-6.2,27.2-1.6,40.1c4.3,12,13.9,20.3,24,27.4
		c10.6,7.5,22.3,13.3,33,20.7c10.4,7.2,20.6,14.8,30.3,22.9c10.3,8.5,20.8,18.1,27.3,30c5.6,10.3,6.7,23.5-2.4,32.3
		c-9.1,8.8-24,9.7-35.9,10c-8,0.2-16,0-24,0.3c-17.8,0.6-36.4,2.4-52.8,9.8c-16.6,7.4-26.1,22-21.7,40.3c2.8,11.8,13.8,18.4,23.8,24
		c30.9,17.4,65.1,28.3,94.9,47.6c11.1,7.2,24.3,16.6,28.3,29.9c4.4,14.5-6.4,28.1-17.1,36.6c-30,23.8-86.8,24.5-110.7-8.9
		c-5.9-8.3-8.9-18-9.5-28.1c-0.2-4.5-7.2-4.5-7,0c1.1,20.6,11.7,38.4,29.5,49.1c17.4,10.4,38.9,13.4,58.8,10.8
		c19.8-2.6,39.7-11.2,52.8-26.7c8.9-10.5,14.3-24,8.9-37.4c-5.4-13.5-18-23.2-29.8-30.9c-15.4-10.1-32.3-18-49-25.7
		c-15.5-7.2-31.4-13.8-46.3-22.2c-5.3-3-10.7-6.1-15.2-10.3c-4.5-4.2-6-8.3-6.5-14.6c-1.7-19,16.4-27.8,32.1-31.8
		c15.9-4,32.4-4.7,48.7-4.8c21.2,0,52.4,0.3,60.2-24.7c7.7-24.6-16.6-46.8-33.5-60.6c-9.7-8-19.9-15.6-30.2-22.8
		c-10.4-7.3-21.8-13-32.2-20.2c-11.4-7.9-21.4-17-23.9-31.2c-2.5-14.4,2.4-29.3,9.1-41.9c5.9-11.1,13.7-21.6,23.2-29.9
		c5.8-5,12.2-9.2,18.5-13.4c19.1-12.7,39.4-23.7,60.4-32.8c51.1-22.2,111.2-34.2,163.7-9.6c8.6,4,17.2,8.4,24.3,14.8
		c9.4,8.5,15.2,19.9,16.5,32.6c1.7,15.9-5.2,29.3-12.5,42.8c-8,14.9-16.3,29.5-19.6,46.2c-3.5,17.1-3,34.7-3,52.1
		C478.5,391.9,485.5,391.9,485.5,387.4L485.5,387.4z"/>
	<rect x="490.2" y="472.7" fill="#60BE79" width="76.2" height="3"/>
	<path fill="#FFFFFF" d="M490.4,387.8v84.9c0,4.1-3.3,7.4-7.4,7.4l0,0c-4.1,0-7.4-3.3-7.4-7.4v-84.9"/>
	<path d="M487.3,451c0,2.4-1.9,4.3-4.3,4.3l0,0c-2.4,0-4.3-1.9-4.3-4.3v-36.9c0-2.4,1.9-4.3,4.3-4.3l0,0c2.4,0,4.3,1.9,4.3,4.3V451z
		"/>
	<rect x="165" y="570.9" fill="#FFFFFF" width="21" height="20.6"/>
	<path d="M189.7,590.4v3.5v29.3c0,6.6-5.4,12-12,12H173c-6.6,0-12-5.4-12-12v-29.3v-3.5"/>
</g>
</svg>
