<?xml version="1.0" encoding="utf-8"?>
<!-- Generator: Adobe Illustrator 18.1.1, SVG Export Plug-In . SVG Version: 6.00 Build 0)  -->
<svg version="1.1" id="Layer_1" xmlns="http://www.w3.org/2000/svg" xmlns:xlink="http://www.w3.org/1999/xlink" x="0px" y="0px"
	 viewBox="0 0 791.4 920" enable-background="new 0 0 791.4 920" xml:space="preserve">
<g>
	<g>
		<polygon fill="#EE8E32" points="771.3,676.9 395.7,893.7 20.1,676.9 20.1,243.2 395.7,26.3 771.3,243.2 		"/>
	</g>
	<g>
		<path d="M395.7,916.3L0.5,688.2V231.9L395.7,3.7l395.2,228.2v456.3L395.7,916.3z M39.7,665.6l356.1,205.5l356.1-205.5V254.5
			L395.7,48.9L39.7,254.5V665.6z"/>
	</g>
</g>
<g>
	<g>
		<path d="M606,389.6c0,66.6-54,120.5-120.5,120.5c-66.6,0-120.5-54-120.5-120.5c0-66.6,54-120.5,120.5-120.5
			C552,269,606,323,606,389.6z"/>
		<polygon points="566.2,480.5 395.7,651 225.2,479.1 395.7,310 		"/>
		<path d="M426.4,389.6c0,66.6-54,120.5-120.5,120.5c-66.6,0-120.5-54-120.5-120.5c0-66.6,54-120.5,120.5-120.5
			C372.5,269,426.4,323,426.4,389.6z"/>
	</g>
	<path fill="#FFFFFF" d="M550.2,496.9"/>
	<g>
		<g>
			<path fill="#020202" d="M495.9,503.7c-7.2,10.9-3.6,25.9,7.9,33.5l47.1,31c11.5,7.6,26.7,4.9,33.9-6l1.2-1.9
				c7.2-10.9,3.6-25.9-7.9-33.5l-47.1-31c-11.5-7.6-26.7-4.9-33.9,6L495.9,503.7z"/>
			<polyline fill="#FFFFFF" points="244.6,304.3 180,291.5 216.1,347.2 			"/>
			<polygon stroke="#000000" points="195.7,316.1 179.7,291.9 208.4,297.8 			"/>
			
				<rect x="523.2" y="533.5" transform="matrix(0.5504 -0.8349 0.8349 0.5504 -201.8462 699.9874)" fill="#FFFFFF" width="51.6" height="7.8"/>
			<polyline fill="#EE8E32" points="214.8,345.8 515.4,545.7 543.5,503.4 242.9,303.5 			"/>
		</g>
		<path d="M515.1,512.1c-3.3,5-10,6.3-15,3L453,483.7c-5-3.3-6.3-10-3-15l0,0c3.3-5,10-6.3,15-3l47.2,31.4
			C517.1,500.4,518.4,507.1,515.1,512.1L515.1,512.1z"/>
	</g>
</g>
</svg>
